%TF.GenerationSoftware,KiCad,Pcbnew,9.0.0*%
%TF.CreationDate,2025-07-01T12:28:05-04:00*%
%TF.ProjectId,wio-e5-test,77696f2d-6535-42d7-9465-73742e6b6963,rev?*%
%TF.SameCoordinates,Original*%
%TF.FileFunction,Drillmap*%
%TF.FilePolarity,Positive*%
%FSLAX45Y45*%
G04 Gerber Fmt 4.5, Leading zero omitted, Abs format (unit mm)*
G04 Created by KiCad (PCBNEW 9.0.0) date 2025-07-01 12:28:05*
%MOMM*%
%LPD*%
G01*
G04 APERTURE LIST*
%ADD10C,0.050000*%
%ADD11C,0.200000*%
G04 APERTURE END LIST*
D10*
X13750000Y-12300000D02*
X17260000Y-12300000D01*
X17260000Y-15650000D01*
X13750000Y-15650000D01*
X13750000Y-12300000D01*
D11*
X14008277Y-15963984D02*
X14008277Y-15763984D01*
X14008277Y-15763984D02*
X14055896Y-15763984D01*
X14055896Y-15763984D02*
X14084467Y-15773508D01*
X14084467Y-15773508D02*
X14103515Y-15792555D01*
X14103515Y-15792555D02*
X14113039Y-15811603D01*
X14113039Y-15811603D02*
X14122562Y-15849698D01*
X14122562Y-15849698D02*
X14122562Y-15878269D01*
X14122562Y-15878269D02*
X14113039Y-15916365D01*
X14113039Y-15916365D02*
X14103515Y-15935412D01*
X14103515Y-15935412D02*
X14084467Y-15954460D01*
X14084467Y-15954460D02*
X14055896Y-15963984D01*
X14055896Y-15963984D02*
X14008277Y-15963984D01*
X14208277Y-15963984D02*
X14208277Y-15830650D01*
X14208277Y-15868746D02*
X14217801Y-15849698D01*
X14217801Y-15849698D02*
X14227324Y-15840174D01*
X14227324Y-15840174D02*
X14246372Y-15830650D01*
X14246372Y-15830650D02*
X14265420Y-15830650D01*
X14332086Y-15963984D02*
X14332086Y-15830650D01*
X14332086Y-15763984D02*
X14322562Y-15773508D01*
X14322562Y-15773508D02*
X14332086Y-15783031D01*
X14332086Y-15783031D02*
X14341610Y-15773508D01*
X14341610Y-15773508D02*
X14332086Y-15763984D01*
X14332086Y-15763984D02*
X14332086Y-15783031D01*
X14455896Y-15963984D02*
X14436848Y-15954460D01*
X14436848Y-15954460D02*
X14427324Y-15935412D01*
X14427324Y-15935412D02*
X14427324Y-15763984D01*
X14560658Y-15963984D02*
X14541610Y-15954460D01*
X14541610Y-15954460D02*
X14532086Y-15935412D01*
X14532086Y-15935412D02*
X14532086Y-15763984D01*
X14789229Y-15963984D02*
X14789229Y-15763984D01*
X14789229Y-15763984D02*
X14855896Y-15906841D01*
X14855896Y-15906841D02*
X14922562Y-15763984D01*
X14922562Y-15763984D02*
X14922562Y-15963984D01*
X15103515Y-15963984D02*
X15103515Y-15859222D01*
X15103515Y-15859222D02*
X15093991Y-15840174D01*
X15093991Y-15840174D02*
X15074943Y-15830650D01*
X15074943Y-15830650D02*
X15036848Y-15830650D01*
X15036848Y-15830650D02*
X15017801Y-15840174D01*
X15103515Y-15954460D02*
X15084467Y-15963984D01*
X15084467Y-15963984D02*
X15036848Y-15963984D01*
X15036848Y-15963984D02*
X15017801Y-15954460D01*
X15017801Y-15954460D02*
X15008277Y-15935412D01*
X15008277Y-15935412D02*
X15008277Y-15916365D01*
X15008277Y-15916365D02*
X15017801Y-15897317D01*
X15017801Y-15897317D02*
X15036848Y-15887793D01*
X15036848Y-15887793D02*
X15084467Y-15887793D01*
X15084467Y-15887793D02*
X15103515Y-15878269D01*
X15198753Y-15830650D02*
X15198753Y-16030650D01*
X15198753Y-15840174D02*
X15217801Y-15830650D01*
X15217801Y-15830650D02*
X15255896Y-15830650D01*
X15255896Y-15830650D02*
X15274943Y-15840174D01*
X15274943Y-15840174D02*
X15284467Y-15849698D01*
X15284467Y-15849698D02*
X15293991Y-15868746D01*
X15293991Y-15868746D02*
X15293991Y-15925888D01*
X15293991Y-15925888D02*
X15284467Y-15944936D01*
X15284467Y-15944936D02*
X15274943Y-15954460D01*
X15274943Y-15954460D02*
X15255896Y-15963984D01*
X15255896Y-15963984D02*
X15217801Y-15963984D01*
X15217801Y-15963984D02*
X15198753Y-15954460D01*
X15379705Y-15944936D02*
X15389229Y-15954460D01*
X15389229Y-15954460D02*
X15379705Y-15963984D01*
X15379705Y-15963984D02*
X15370182Y-15954460D01*
X15370182Y-15954460D02*
X15379705Y-15944936D01*
X15379705Y-15944936D02*
X15379705Y-15963984D01*
X15379705Y-15840174D02*
X15389229Y-15849698D01*
X15389229Y-15849698D02*
X15379705Y-15859222D01*
X15379705Y-15859222D02*
X15370182Y-15849698D01*
X15370182Y-15849698D02*
X15379705Y-15840174D01*
X15379705Y-15840174D02*
X15379705Y-15859222D01*
M02*
