G04 #@! TF.GenerationSoftware,KiCad,Pcbnew,9.0.0*
G04 #@! TF.CreationDate,2025-07-01T12:28:05-04:00*
G04 #@! TF.ProjectId,wio-e5-test,77696f2d-6535-42d7-9465-73742e6b6963,rev?*
G04 #@! TF.SameCoordinates,Original*
G04 #@! TF.FileFunction,Legend,Top*
G04 #@! TF.FilePolarity,Positive*
%FSLAX46Y46*%
G04 Gerber Fmt 4.6, Leading zero omitted, Abs format (unit mm)*
G04 Created by KiCad (PCBNEW 9.0.0) date 2025-07-01 12:28:05*
%MOMM*%
%LPD*%
G01*
G04 APERTURE LIST*
G04 Aperture macros list*
%AMRoundRect*
0 Rectangle with rounded corners*
0 $1 Rounding radius*
0 $2 $3 $4 $5 $6 $7 $8 $9 X,Y pos of 4 corners*
0 Add a 4 corners polygon primitive as box body*
4,1,4,$2,$3,$4,$5,$6,$7,$8,$9,$2,$3,0*
0 Add four circle primitives for the rounded corners*
1,1,$1+$1,$2,$3*
1,1,$1+$1,$4,$5*
1,1,$1+$1,$6,$7*
1,1,$1+$1,$8,$9*
0 Add four rect primitives between the rounded corners*
20,1,$1+$1,$2,$3,$4,$5,0*
20,1,$1+$1,$4,$5,$6,$7,0*
20,1,$1+$1,$6,$7,$8,$9,0*
20,1,$1+$1,$8,$9,$2,$3,0*%
G04 Aperture macros list end*
%ADD10C,0.300000*%
%ADD11C,0.150000*%
%ADD12C,0.500000*%
%ADD13C,0.152400*%
%ADD14C,0.120000*%
%ADD15C,0.100000*%
%ADD16C,0.250000*%
%ADD17C,1.168400*%
%ADD18R,1.700000X1.700000*%
%ADD19O,1.700000X1.700000*%
%ADD20RoundRect,0.100000X1.050000X-0.400000X1.050000X0.400000X-1.050000X0.400000X-1.050000X-0.400000X0*%
%ADD21RoundRect,0.100000X0.400000X1.050000X-0.400000X1.050000X-0.400000X-1.050000X0.400000X-1.050000X0*%
%ADD22RoundRect,0.100000X-1.050000X0.400000X-1.050000X-0.400000X1.050000X-0.400000X1.050000X0.400000X0*%
%ADD23RoundRect,0.100000X-0.400000X-1.050000X0.400000X-1.050000X0.400000X1.050000X-0.400000X1.050000X0*%
%ADD24RoundRect,0.218750X0.256250X-0.218750X0.256250X0.218750X-0.256250X0.218750X-0.256250X-0.218750X0*%
%ADD25RoundRect,0.200000X0.275000X-0.200000X0.275000X0.200000X-0.275000X0.200000X-0.275000X-0.200000X0*%
%ADD26RoundRect,0.225000X0.225000X0.250000X-0.225000X0.250000X-0.225000X-0.250000X0.225000X-0.250000X0*%
%ADD27RoundRect,0.225000X0.250000X-0.225000X0.250000X0.225000X-0.250000X0.225000X-0.250000X-0.225000X0*%
%ADD28RoundRect,0.250000X1.350000X-0.385000X1.350000X0.385000X-1.350000X0.385000X-1.350000X-0.385000X0*%
%ADD29RoundRect,0.250000X1.600000X-0.425000X1.600000X0.425000X-1.600000X0.425000X-1.600000X-0.425000X0*%
%ADD30RoundRect,0.225000X-0.250000X0.225000X-0.250000X-0.225000X0.250000X-0.225000X0.250000X0.225000X0*%
%ADD31RoundRect,0.200000X0.200000X0.275000X-0.200000X0.275000X-0.200000X-0.275000X0.200000X-0.275000X0*%
%ADD32RoundRect,0.200000X-0.275000X0.200000X-0.275000X-0.200000X0.275000X-0.200000X0.275000X0.200000X0*%
%ADD33RoundRect,0.066040X0.264160X0.708660X-0.264160X0.708660X-0.264160X-0.708660X0.264160X-0.708660X0*%
%ADD34RoundRect,0.129540X0.518160X0.822960X-0.518160X0.822960X-0.518160X-0.822960X0.518160X-0.822960X0*%
%ADD35R,0.711200X0.990600*%
%ADD36RoundRect,0.218750X-0.256250X0.218750X-0.256250X-0.218750X0.256250X-0.218750X0.256250X0.218750X0*%
%ADD37RoundRect,0.087500X-0.087500X0.125000X-0.087500X-0.125000X0.087500X-0.125000X0.087500X0.125000X0*%
%ADD38RoundRect,0.087500X-0.125000X0.087500X-0.125000X-0.087500X0.125000X-0.087500X0.125000X0.087500X0*%
%ADD39RoundRect,0.200000X-0.200000X-0.275000X0.200000X-0.275000X0.200000X0.275000X-0.200000X0.275000X0*%
%ADD40RoundRect,0.150000X0.150000X-0.512500X0.150000X0.512500X-0.150000X0.512500X-0.150000X-0.512500X0*%
%ADD41RoundRect,0.250000X-0.625000X0.350000X-0.625000X-0.350000X0.625000X-0.350000X0.625000X0.350000X0*%
%ADD42O,1.750000X1.200000*%
G04 APERTURE END LIST*
D10*
G36*
X156654004Y-150673035D02*
G01*
X156691008Y-150710039D01*
X156735714Y-150799451D01*
X156735714Y-151157204D01*
X156691007Y-151246617D01*
X156654002Y-151283622D01*
X156564590Y-151328328D01*
X156421124Y-151328328D01*
X156331710Y-151283621D01*
X156294705Y-151246616D01*
X156250000Y-151157204D01*
X156250000Y-150799451D01*
X156294705Y-150710040D01*
X156331710Y-150673035D01*
X156421124Y-150628328D01*
X156564590Y-150628328D01*
X156654004Y-150673035D01*
G37*
G36*
X161845239Y-151794995D02*
G01*
X153283437Y-151794995D01*
X153283437Y-149983935D01*
X153450104Y-149983935D01*
X153454078Y-150013071D01*
X153811221Y-151513071D01*
X153814682Y-151523114D01*
X153815161Y-151526714D01*
X153817044Y-151529967D01*
X153820803Y-151540872D01*
X153833574Y-151558519D01*
X153844484Y-151577364D01*
X153850599Y-151582045D01*
X153855116Y-151588286D01*
X153873666Y-151599701D01*
X153890959Y-151612938D01*
X153898400Y-151614922D01*
X153904960Y-151618959D01*
X153926463Y-151622406D01*
X153947511Y-151628019D01*
X153955146Y-151627004D01*
X153962749Y-151628223D01*
X153983938Y-151623178D01*
X154005528Y-151620309D01*
X154012191Y-151616451D01*
X154019686Y-151614667D01*
X154037333Y-151601895D01*
X154056178Y-151590986D01*
X154060859Y-151584870D01*
X154067100Y-151580354D01*
X154078515Y-151561803D01*
X154091752Y-151544511D01*
X154095799Y-151533716D01*
X154097773Y-151530510D01*
X154098348Y-151526919D01*
X154102077Y-151516977D01*
X154242856Y-150989054D01*
X154383636Y-151516977D01*
X154387364Y-151526919D01*
X154387940Y-151530510D01*
X154389913Y-151533716D01*
X154393961Y-151544511D01*
X154407197Y-151561803D01*
X154418613Y-151580354D01*
X154424853Y-151584870D01*
X154429535Y-151590986D01*
X154448379Y-151601895D01*
X154466027Y-151614667D01*
X154473521Y-151616451D01*
X154480185Y-151620309D01*
X154501774Y-151623178D01*
X154522964Y-151628223D01*
X154530566Y-151627004D01*
X154538202Y-151628019D01*
X154559249Y-151622406D01*
X154580753Y-151618959D01*
X154587312Y-151614922D01*
X154594754Y-151612938D01*
X154612046Y-151599701D01*
X154630597Y-151588286D01*
X154635113Y-151582045D01*
X154641229Y-151577364D01*
X154652138Y-151558519D01*
X154664910Y-151540872D01*
X154668668Y-151529967D01*
X154670552Y-151526714D01*
X154671030Y-151523114D01*
X154674492Y-151513071D01*
X154920859Y-150478328D01*
X155307142Y-150478328D01*
X155307142Y-151478328D01*
X155310024Y-151507592D01*
X155332422Y-151561664D01*
X155373806Y-151603048D01*
X155427878Y-151625446D01*
X155486406Y-151625446D01*
X155540478Y-151603048D01*
X155581862Y-151561664D01*
X155604260Y-151507592D01*
X155607142Y-151478328D01*
X155607142Y-150764042D01*
X155950000Y-150764042D01*
X155950000Y-151192614D01*
X155952882Y-151221878D01*
X155954944Y-151226856D01*
X155955326Y-151232232D01*
X155965836Y-151259696D01*
X156037264Y-151402553D01*
X156045191Y-151415146D01*
X156046707Y-151418806D01*
X156050088Y-151422925D01*
X156052929Y-151427439D01*
X156055922Y-151430035D01*
X156065362Y-151441537D01*
X156136791Y-151512966D01*
X156148295Y-151522407D01*
X156150890Y-151525399D01*
X156155399Y-151528237D01*
X156159522Y-151531621D01*
X156163183Y-151533137D01*
X156175775Y-151541064D01*
X156318633Y-151612492D01*
X156346096Y-151623002D01*
X156351471Y-151623383D01*
X156356450Y-151625446D01*
X156385714Y-151628328D01*
X156600000Y-151628328D01*
X156629264Y-151625446D01*
X156634242Y-151623383D01*
X156639618Y-151623002D01*
X156667082Y-151612492D01*
X156809939Y-151541064D01*
X156822532Y-151533136D01*
X156826192Y-151531621D01*
X156830311Y-151528239D01*
X156834825Y-151525399D01*
X156837421Y-151522405D01*
X156848923Y-151512966D01*
X156920352Y-151441537D01*
X156929793Y-151430032D01*
X156932785Y-151427438D01*
X156935623Y-151422928D01*
X156939007Y-151418806D01*
X156940523Y-151415144D01*
X156948450Y-151402553D01*
X157019878Y-151259695D01*
X157030388Y-151232232D01*
X157030769Y-151226856D01*
X157032832Y-151221878D01*
X157035714Y-151192614D01*
X157035714Y-150877636D01*
X157381453Y-150877636D01*
X157381453Y-150936164D01*
X157403851Y-150990236D01*
X157445235Y-151031620D01*
X157499307Y-151054018D01*
X157528571Y-151056900D01*
X158671429Y-151056900D01*
X158700693Y-151054018D01*
X158754765Y-151031620D01*
X158796149Y-150990236D01*
X158818547Y-150936164D01*
X158818547Y-150877636D01*
X158796149Y-150823564D01*
X158754765Y-150782180D01*
X158700693Y-150759782D01*
X158671429Y-150756900D01*
X157528571Y-150756900D01*
X157499307Y-150759782D01*
X157445235Y-150782180D01*
X157403851Y-150823564D01*
X157381453Y-150877636D01*
X157035714Y-150877636D01*
X157035714Y-150764042D01*
X157032832Y-150734778D01*
X157030769Y-150729799D01*
X157030388Y-150724424D01*
X157019878Y-150696961D01*
X156948450Y-150554103D01*
X156940521Y-150541508D01*
X156939006Y-150537849D01*
X156935624Y-150533728D01*
X156932785Y-150529218D01*
X156929793Y-150526623D01*
X156920351Y-150515118D01*
X156848922Y-150443690D01*
X156837422Y-150434252D01*
X156834825Y-150431258D01*
X156830308Y-150428415D01*
X156826191Y-150425036D01*
X156822534Y-150423521D01*
X156809939Y-150415593D01*
X156667082Y-150344164D01*
X156639619Y-150333655D01*
X156634244Y-150333273D01*
X156629264Y-150331210D01*
X156600000Y-150328328D01*
X156385714Y-150328328D01*
X156356450Y-150331210D01*
X156351469Y-150333273D01*
X156346095Y-150333655D01*
X156318631Y-150344164D01*
X156175775Y-150415593D01*
X156163181Y-150423520D01*
X156159522Y-150425036D01*
X156155401Y-150428417D01*
X156150889Y-150431258D01*
X156148292Y-150434251D01*
X156136792Y-150443690D01*
X156065363Y-150515118D01*
X156055923Y-150526620D01*
X156052929Y-150529217D01*
X156050087Y-150533731D01*
X156046708Y-150537849D01*
X156045192Y-150541507D01*
X156037264Y-150554103D01*
X155965836Y-150696960D01*
X155955326Y-150724424D01*
X155954944Y-150729799D01*
X155952882Y-150734778D01*
X155950000Y-150764042D01*
X155607142Y-150764042D01*
X155607142Y-150478328D01*
X155604260Y-150449064D01*
X155581862Y-150394992D01*
X155540478Y-150353608D01*
X155486406Y-150331210D01*
X155427878Y-150331210D01*
X155373806Y-150353608D01*
X155332422Y-150394992D01*
X155310024Y-150449064D01*
X155307142Y-150478328D01*
X154920859Y-150478328D01*
X155029867Y-150020495D01*
X155238596Y-150020495D01*
X155238596Y-150079021D01*
X155240822Y-150084394D01*
X155260993Y-150133092D01*
X155279648Y-150155823D01*
X155351076Y-150227251D01*
X155373806Y-150245906D01*
X155396203Y-150255182D01*
X155427878Y-150268303D01*
X155486406Y-150268303D01*
X155524640Y-150252465D01*
X155540477Y-150245906D01*
X155540481Y-150245901D01*
X155563207Y-150227252D01*
X155634636Y-150155824D01*
X155653291Y-150133093D01*
X155653292Y-150133092D01*
X155675689Y-150079020D01*
X155675689Y-150020494D01*
X155658224Y-149978328D01*
X159235714Y-149978328D01*
X159235714Y-151478328D01*
X159238596Y-151507592D01*
X159260994Y-151561664D01*
X159302378Y-151603048D01*
X159356450Y-151625446D01*
X159385714Y-151628328D01*
X160100000Y-151628328D01*
X160129264Y-151625446D01*
X160183336Y-151603048D01*
X160224720Y-151561664D01*
X160247118Y-151507592D01*
X160247118Y-151449064D01*
X160224720Y-151394992D01*
X160183336Y-151353608D01*
X160129264Y-151331210D01*
X160100000Y-151328328D01*
X159535714Y-151328328D01*
X159535714Y-150842614D01*
X159885714Y-150842614D01*
X159914978Y-150839732D01*
X159969050Y-150817334D01*
X160010434Y-150775950D01*
X160032832Y-150721878D01*
X160032832Y-150707094D01*
X160522129Y-150707094D01*
X160524311Y-150714325D01*
X160524311Y-150721878D01*
X160532702Y-150742137D01*
X160539036Y-150763126D01*
X160543817Y-150768970D01*
X160546709Y-150775950D01*
X160562213Y-150791453D01*
X160576097Y-150808423D01*
X160582753Y-150811994D01*
X160588095Y-150817335D01*
X160608349Y-150825724D01*
X160627672Y-150836090D01*
X160635189Y-150836841D01*
X160642167Y-150839732D01*
X160664090Y-150839732D01*
X160685909Y-150841914D01*
X160693140Y-150839732D01*
X160700693Y-150839732D01*
X160720952Y-150831340D01*
X160741941Y-150825007D01*
X160747785Y-150820225D01*
X160754765Y-150817334D01*
X160777496Y-150798679D01*
X160831712Y-150744462D01*
X160921124Y-150699757D01*
X161207448Y-150699757D01*
X161296861Y-150744463D01*
X161333864Y-150781467D01*
X161378572Y-150870881D01*
X161378572Y-151157203D01*
X161333864Y-151246617D01*
X161296861Y-151283621D01*
X161207448Y-151328328D01*
X160921124Y-151328328D01*
X160831712Y-151283622D01*
X160777496Y-151229406D01*
X160754765Y-151210751D01*
X160700693Y-151188353D01*
X160642167Y-151188353D01*
X160588095Y-151210750D01*
X160546709Y-151252135D01*
X160524311Y-151306207D01*
X160524311Y-151364733D01*
X160546708Y-151418805D01*
X160565362Y-151441536D01*
X160636790Y-151512965D01*
X160648292Y-151522404D01*
X160650890Y-151525400D01*
X160655404Y-151528241D01*
X160659521Y-151531620D01*
X160663179Y-151533135D01*
X160675776Y-151541064D01*
X160818634Y-151612493D01*
X160846097Y-151623002D01*
X160851472Y-151623383D01*
X160856451Y-151625446D01*
X160885715Y-151628328D01*
X161242857Y-151628328D01*
X161272121Y-151625446D01*
X161277099Y-151623383D01*
X161282475Y-151623002D01*
X161309938Y-151612492D01*
X161452797Y-151541064D01*
X161465391Y-151533135D01*
X161469051Y-151531620D01*
X161473171Y-151528238D01*
X161477682Y-151525399D01*
X161480276Y-151522407D01*
X161491782Y-151512965D01*
X161563210Y-151441536D01*
X161572648Y-151430035D01*
X161575642Y-151427439D01*
X161578482Y-151422926D01*
X161581864Y-151418806D01*
X161583379Y-151415146D01*
X161591307Y-151402553D01*
X161662736Y-151259697D01*
X161673245Y-151232233D01*
X161673626Y-151226858D01*
X161675690Y-151221878D01*
X161678572Y-151192614D01*
X161678572Y-150835471D01*
X161675690Y-150806207D01*
X161673626Y-150801226D01*
X161673245Y-150795852D01*
X161662736Y-150768388D01*
X161591307Y-150625532D01*
X161583379Y-150612938D01*
X161581864Y-150609279D01*
X161578482Y-150605158D01*
X161575642Y-150600646D01*
X161572648Y-150598049D01*
X161563210Y-150586549D01*
X161491782Y-150515120D01*
X161480276Y-150505677D01*
X161477682Y-150502686D01*
X161473171Y-150499846D01*
X161469051Y-150496465D01*
X161465391Y-150494949D01*
X161452797Y-150487021D01*
X161309938Y-150415593D01*
X161282475Y-150405083D01*
X161277099Y-150404701D01*
X161272121Y-150402639D01*
X161242857Y-150399757D01*
X160885715Y-150399757D01*
X160856451Y-150402639D01*
X160851472Y-150404701D01*
X160850964Y-150404737D01*
X160878606Y-150128328D01*
X161457143Y-150128328D01*
X161486407Y-150125446D01*
X161540479Y-150103048D01*
X161581863Y-150061664D01*
X161604261Y-150007592D01*
X161604261Y-149949064D01*
X161581863Y-149894992D01*
X161540479Y-149853608D01*
X161486407Y-149831210D01*
X161457143Y-149828328D01*
X160742857Y-149828328D01*
X160732030Y-149829394D01*
X160728377Y-149829029D01*
X160724809Y-149830105D01*
X160713593Y-149831210D01*
X160693330Y-149839603D01*
X160672345Y-149845935D01*
X160666500Y-149850716D01*
X160659521Y-149853608D01*
X160644015Y-149869113D01*
X160627048Y-149882996D01*
X160623477Y-149889651D01*
X160618137Y-149894992D01*
X160609745Y-149915249D01*
X160599381Y-149934571D01*
X160597166Y-149945618D01*
X160595739Y-149949064D01*
X160595739Y-149952738D01*
X160593601Y-149963403D01*
X160522173Y-150677689D01*
X160522129Y-150707094D01*
X160032832Y-150707094D01*
X160032832Y-150663350D01*
X160010434Y-150609278D01*
X159969050Y-150567894D01*
X159914978Y-150545496D01*
X159885714Y-150542614D01*
X159535714Y-150542614D01*
X159535714Y-150128328D01*
X160100000Y-150128328D01*
X160129264Y-150125446D01*
X160183336Y-150103048D01*
X160224720Y-150061664D01*
X160247118Y-150007592D01*
X160247118Y-149949064D01*
X160224720Y-149894992D01*
X160183336Y-149853608D01*
X160129264Y-149831210D01*
X160100000Y-149828328D01*
X159385714Y-149828328D01*
X159356450Y-149831210D01*
X159302378Y-149853608D01*
X159260994Y-149894992D01*
X159238596Y-149949064D01*
X159235714Y-149978328D01*
X155658224Y-149978328D01*
X155653292Y-149966422D01*
X155634637Y-149943691D01*
X155563208Y-149872262D01*
X155540477Y-149853607D01*
X155508803Y-149840487D01*
X155486406Y-149831210D01*
X155427878Y-149831210D01*
X155405481Y-149840487D01*
X155373807Y-149853607D01*
X155373806Y-149853608D01*
X155351075Y-149872263D01*
X155279647Y-149943692D01*
X155260997Y-149966417D01*
X155260993Y-149966422D01*
X155240823Y-150015119D01*
X155238596Y-150020495D01*
X155029867Y-150020495D01*
X155031635Y-150013071D01*
X155035609Y-149983935D01*
X155026345Y-149926146D01*
X154995672Y-149876302D01*
X154948258Y-149841989D01*
X154891321Y-149828433D01*
X154833532Y-149837697D01*
X154783688Y-149868370D01*
X154749375Y-149915784D01*
X154739793Y-149943585D01*
X154520337Y-150865297D01*
X154387791Y-150368250D01*
X154385219Y-150361393D01*
X154384837Y-150358514D01*
X154382858Y-150355095D01*
X154377466Y-150340717D01*
X154365431Y-150324995D01*
X154355514Y-150307864D01*
X154347798Y-150301957D01*
X154341892Y-150294242D01*
X154324760Y-150284324D01*
X154309039Y-150272290D01*
X154299648Y-150269785D01*
X154291242Y-150264919D01*
X154271620Y-150262311D01*
X154252487Y-150257209D01*
X154242856Y-150258488D01*
X154233225Y-150257209D01*
X154214091Y-150262311D01*
X154194470Y-150264919D01*
X154186063Y-150269785D01*
X154176673Y-150272290D01*
X154160951Y-150284324D01*
X154143820Y-150294242D01*
X154137913Y-150301957D01*
X154130198Y-150307864D01*
X154120280Y-150324995D01*
X154108246Y-150340717D01*
X154102854Y-150355094D01*
X154100875Y-150358514D01*
X154100492Y-150361394D01*
X154097921Y-150368251D01*
X153965375Y-150865297D01*
X153745920Y-149943585D01*
X153736338Y-149915784D01*
X153702025Y-149868370D01*
X153652181Y-149837697D01*
X153594392Y-149828433D01*
X153537455Y-149841989D01*
X153490041Y-149876302D01*
X153459368Y-149926146D01*
X153450104Y-149983935D01*
X153283437Y-149983935D01*
X153283437Y-149661661D01*
X161845239Y-149661661D01*
X161845239Y-151794995D01*
G37*
D11*
G36*
X138817478Y-150264077D02*
G01*
X138889420Y-150336019D01*
X138929762Y-150497386D01*
X138929762Y-150812251D01*
X138889420Y-150973617D01*
X138861904Y-151001133D01*
X138772081Y-150911309D01*
X138766331Y-150906590D01*
X138765032Y-150905092D01*
X138762772Y-150903670D01*
X138760716Y-150901982D01*
X138758888Y-150901224D01*
X138752589Y-150897260D01*
X138657351Y-150849641D01*
X138643619Y-150844386D01*
X138640931Y-150844195D01*
X138638442Y-150843164D01*
X138623810Y-150841723D01*
X138528572Y-150841723D01*
X138513940Y-150843164D01*
X138486904Y-150854363D01*
X138466212Y-150875055D01*
X138455013Y-150902091D01*
X138455013Y-150931355D01*
X138466212Y-150958391D01*
X138486904Y-150979083D01*
X138513940Y-150990282D01*
X138528572Y-150991723D01*
X138606105Y-150991723D01*
X138674620Y-151025980D01*
X138728459Y-151079819D01*
X138593896Y-151079819D01*
X138525380Y-151045561D01*
X138453437Y-150973617D01*
X138413096Y-150812251D01*
X138413096Y-150497386D01*
X138453437Y-150336019D01*
X138525380Y-150264077D01*
X138593896Y-150229819D01*
X138748962Y-150229819D01*
X138817478Y-150264077D01*
G37*
G36*
X142047426Y-151435579D02*
G01*
X138151985Y-151435579D01*
X138151985Y-150488152D01*
X138263096Y-150488152D01*
X138263096Y-150821485D01*
X138263347Y-150824038D01*
X138263185Y-150825131D01*
X138263994Y-150830604D01*
X138264537Y-150836117D01*
X138264959Y-150837138D01*
X138265335Y-150839675D01*
X138312954Y-151030151D01*
X138317901Y-151043997D01*
X138321220Y-151048476D01*
X138323354Y-151053628D01*
X138332682Y-151064994D01*
X138427920Y-151160233D01*
X138433670Y-151164953D01*
X138434969Y-151166450D01*
X138437223Y-151167869D01*
X138439285Y-151169561D01*
X138441117Y-151170319D01*
X138447412Y-151174282D01*
X138542650Y-151221901D01*
X138556381Y-151227156D01*
X138559070Y-151227347D01*
X138561559Y-151228378D01*
X138576191Y-151229819D01*
X138766667Y-151229819D01*
X138781299Y-151228378D01*
X138783788Y-151227346D01*
X138786476Y-151227156D01*
X138800208Y-151221901D01*
X138847096Y-151198457D01*
X138904110Y-151255471D01*
X138909860Y-151260191D01*
X138911159Y-151261688D01*
X138913413Y-151263107D01*
X138915475Y-151264799D01*
X138917307Y-151265557D01*
X138923602Y-151269520D01*
X139018840Y-151317139D01*
X139032571Y-151322394D01*
X139061761Y-151324468D01*
X139089523Y-151315214D01*
X139111630Y-151296041D01*
X139124718Y-151269866D01*
X139126792Y-151240676D01*
X139117538Y-151212915D01*
X139098365Y-151190807D01*
X139085922Y-151182975D01*
X139001570Y-151140799D01*
X138967970Y-151107199D01*
X139010177Y-151064993D01*
X139019504Y-151053628D01*
X139021637Y-151048476D01*
X139024957Y-151043997D01*
X139029904Y-151030151D01*
X139077523Y-150839675D01*
X139077898Y-150837138D01*
X139078321Y-150836117D01*
X139078863Y-150830604D01*
X139079673Y-150825131D01*
X139079510Y-150824038D01*
X139079762Y-150821485D01*
X139079762Y-150494291D01*
X139263348Y-150494291D01*
X139265982Y-150508756D01*
X139456458Y-151175423D01*
X139461863Y-151189096D01*
X139464838Y-151192843D01*
X139466724Y-151197244D01*
X139473861Y-151204209D01*
X139480058Y-151212015D01*
X139484239Y-151214338D01*
X139487667Y-151217683D01*
X139496926Y-151221386D01*
X139505639Y-151226227D01*
X139510393Y-151226773D01*
X139514838Y-151228551D01*
X139524808Y-151228429D01*
X139534711Y-151229567D01*
X139539312Y-151228252D01*
X139544100Y-151228194D01*
X139553265Y-151224265D01*
X139562849Y-151221528D01*
X139566596Y-151218552D01*
X139570997Y-151216667D01*
X139577962Y-151209529D01*
X139585768Y-151203333D01*
X139588091Y-151199151D01*
X139591436Y-151195724D01*
X139598208Y-151182673D01*
X139719048Y-150880572D01*
X139839888Y-151182673D01*
X139846660Y-151195723D01*
X139850003Y-151199148D01*
X139852328Y-151203333D01*
X139860137Y-151209532D01*
X139867099Y-151216666D01*
X139871497Y-151218551D01*
X139875247Y-151221528D01*
X139884832Y-151224266D01*
X139893996Y-151228194D01*
X139898783Y-151228252D01*
X139903385Y-151229567D01*
X139913287Y-151228429D01*
X139923258Y-151228551D01*
X139927701Y-151226773D01*
X139932457Y-151226227D01*
X139941175Y-151221383D01*
X139950428Y-151217682D01*
X139953852Y-151214340D01*
X139958038Y-151212015D01*
X139964236Y-151204206D01*
X139971372Y-151197244D01*
X139973257Y-151192843D01*
X139976233Y-151189096D01*
X139981638Y-151175423D01*
X140172114Y-150508756D01*
X140174748Y-150494291D01*
X140174043Y-150488152D01*
X140405953Y-150488152D01*
X140405953Y-151154819D01*
X140407394Y-151169451D01*
X140418593Y-151196487D01*
X140439285Y-151217179D01*
X140466321Y-151228378D01*
X140495585Y-151228378D01*
X140522621Y-151217179D01*
X140543313Y-151196487D01*
X140554512Y-151169451D01*
X140555953Y-151154819D01*
X140555953Y-150488152D01*
X140882143Y-150488152D01*
X140882143Y-151154819D01*
X140883584Y-151169451D01*
X140894783Y-151196487D01*
X140915475Y-151217179D01*
X140942511Y-151228378D01*
X140971775Y-151228378D01*
X140998811Y-151217179D01*
X141019503Y-151196487D01*
X141030702Y-151169451D01*
X141032143Y-151154819D01*
X141032143Y-150678628D01*
X141310714Y-150678628D01*
X141310714Y-150964342D01*
X141312155Y-150978974D01*
X141313186Y-150981463D01*
X141313377Y-150984151D01*
X141318632Y-150997883D01*
X141366251Y-151093121D01*
X141370214Y-151099417D01*
X141370972Y-151101247D01*
X141372661Y-151103305D01*
X141374083Y-151105564D01*
X141375581Y-151106863D01*
X141380299Y-151112612D01*
X141427918Y-151160232D01*
X141433667Y-151164950D01*
X141434968Y-151166450D01*
X141437227Y-151167872D01*
X141439284Y-151169560D01*
X141441111Y-151170317D01*
X141447411Y-151174282D01*
X141542649Y-151221901D01*
X141556380Y-151227156D01*
X141559069Y-151227347D01*
X141561558Y-151228378D01*
X141576190Y-151229819D01*
X141766666Y-151229819D01*
X141781298Y-151228378D01*
X141783787Y-151227346D01*
X141786475Y-151227156D01*
X141800207Y-151221901D01*
X141895445Y-151174282D01*
X141907888Y-151166450D01*
X141927061Y-151144342D01*
X141936315Y-151116581D01*
X141934241Y-151087391D01*
X141921153Y-151061216D01*
X141899046Y-151042043D01*
X141871284Y-151032789D01*
X141842094Y-151034863D01*
X141828363Y-151040118D01*
X141748961Y-151079819D01*
X141593895Y-151079819D01*
X141525379Y-151045561D01*
X141494972Y-151015153D01*
X141460714Y-150946637D01*
X141460714Y-150696333D01*
X141494972Y-150627817D01*
X141525379Y-150597410D01*
X141593895Y-150563152D01*
X141748961Y-150563152D01*
X141828363Y-150602853D01*
X141842094Y-150608108D01*
X141871284Y-150610182D01*
X141899046Y-150600928D01*
X141921153Y-150581755D01*
X141934241Y-150555580D01*
X141936315Y-150526390D01*
X141927061Y-150498629D01*
X141907888Y-150476521D01*
X141895445Y-150468689D01*
X141800207Y-150421070D01*
X141786475Y-150415815D01*
X141783787Y-150415624D01*
X141781298Y-150414593D01*
X141766666Y-150413152D01*
X141576190Y-150413152D01*
X141561558Y-150414593D01*
X141559069Y-150415623D01*
X141556380Y-150415815D01*
X141542649Y-150421070D01*
X141447411Y-150468689D01*
X141441111Y-150472653D01*
X141439284Y-150473411D01*
X141437227Y-150475099D01*
X141434968Y-150476521D01*
X141433668Y-150478019D01*
X141427919Y-150482738D01*
X141380300Y-150530357D01*
X141375581Y-150536106D01*
X141374083Y-150537406D01*
X141372661Y-150539665D01*
X141370973Y-150541722D01*
X141370215Y-150543549D01*
X141366251Y-150549849D01*
X141318632Y-150645087D01*
X141313377Y-150658819D01*
X141313186Y-150661506D01*
X141312155Y-150663996D01*
X141310714Y-150678628D01*
X141032143Y-150678628D01*
X141032143Y-150488152D01*
X141030702Y-150473520D01*
X141019503Y-150446484D01*
X140998811Y-150425792D01*
X140971775Y-150414593D01*
X140942511Y-150414593D01*
X140915475Y-150425792D01*
X140894783Y-150446484D01*
X140883584Y-150473520D01*
X140882143Y-150488152D01*
X140555953Y-150488152D01*
X140554512Y-150473520D01*
X140543313Y-150446484D01*
X140522621Y-150425792D01*
X140495585Y-150414593D01*
X140466321Y-150414593D01*
X140439285Y-150425792D01*
X140418593Y-150446484D01*
X140407394Y-150473520D01*
X140405953Y-150488152D01*
X140174043Y-150488152D01*
X140171408Y-150465219D01*
X140157196Y-150439638D01*
X140134277Y-150421443D01*
X140106139Y-150413404D01*
X140077067Y-150416744D01*
X140051486Y-150430956D01*
X140033291Y-150453875D01*
X140027886Y-150467548D01*
X139897680Y-150923266D01*
X139788684Y-150650774D01*
X139781912Y-150637723D01*
X139781261Y-150637056D01*
X139780896Y-150636203D01*
X139771085Y-150626629D01*
X139761473Y-150616780D01*
X139760615Y-150616412D01*
X139759952Y-150615765D01*
X139747220Y-150610671D01*
X139734576Y-150605253D01*
X139733646Y-150605241D01*
X139732782Y-150604896D01*
X139719048Y-150605063D01*
X139705314Y-150604896D01*
X139704449Y-150605241D01*
X139703520Y-150605253D01*
X139690918Y-150610654D01*
X139678143Y-150615764D01*
X139677475Y-150616415D01*
X139676623Y-150616781D01*
X139667050Y-150626589D01*
X139657200Y-150636203D01*
X139656833Y-150637058D01*
X139656184Y-150637724D01*
X139649412Y-150650774D01*
X139540415Y-150923266D01*
X139410210Y-150467548D01*
X139404805Y-150453875D01*
X139386610Y-150430956D01*
X139361029Y-150416744D01*
X139331957Y-150413404D01*
X139303819Y-150421443D01*
X139280900Y-150439638D01*
X139266688Y-150465219D01*
X139263348Y-150494291D01*
X139079762Y-150494291D01*
X139079762Y-150488152D01*
X139079510Y-150485598D01*
X139079673Y-150484506D01*
X139078863Y-150479032D01*
X139078321Y-150473520D01*
X139077898Y-150472498D01*
X139077523Y-150469962D01*
X139029904Y-150279486D01*
X139024957Y-150265640D01*
X139021638Y-150261161D01*
X139019504Y-150256008D01*
X139010176Y-150244643D01*
X138953340Y-150187807D01*
X140359775Y-150187807D01*
X140359775Y-150217069D01*
X140370974Y-150244106D01*
X140380301Y-150255471D01*
X140427920Y-150303090D01*
X140439285Y-150312417D01*
X140466321Y-150323616D01*
X140466322Y-150323616D01*
X140495584Y-150323616D01*
X140495585Y-150323616D01*
X140522621Y-150312417D01*
X140533986Y-150303090D01*
X140581605Y-150255471D01*
X140590932Y-150244106D01*
X140602131Y-150217070D01*
X140602131Y-150187807D01*
X140835965Y-150187807D01*
X140835965Y-150217069D01*
X140847164Y-150244106D01*
X140856491Y-150255471D01*
X140904110Y-150303090D01*
X140915475Y-150312417D01*
X140942511Y-150323616D01*
X140942512Y-150323616D01*
X140971774Y-150323616D01*
X140971775Y-150323616D01*
X140998811Y-150312417D01*
X141010176Y-150303090D01*
X141057795Y-150255471D01*
X141067122Y-150244106D01*
X141078321Y-150217070D01*
X141078321Y-150187807D01*
X141070718Y-150169451D01*
X141067122Y-150160770D01*
X141057795Y-150149405D01*
X141010176Y-150101786D01*
X140998811Y-150092459D01*
X140971775Y-150081260D01*
X140971774Y-150081260D01*
X140942511Y-150081260D01*
X140915475Y-150092459D01*
X140904110Y-150101786D01*
X140856491Y-150149405D01*
X140847164Y-150160770D01*
X140835965Y-150187807D01*
X140602131Y-150187807D01*
X140594528Y-150169451D01*
X140590932Y-150160770D01*
X140581605Y-150149405D01*
X140533986Y-150101786D01*
X140522621Y-150092459D01*
X140495585Y-150081260D01*
X140495584Y-150081260D01*
X140466321Y-150081260D01*
X140439285Y-150092459D01*
X140427920Y-150101786D01*
X140380301Y-150149405D01*
X140370974Y-150160770D01*
X140359775Y-150187807D01*
X138953340Y-150187807D01*
X138914938Y-150149405D01*
X138909188Y-150144686D01*
X138907889Y-150143188D01*
X138905629Y-150141766D01*
X138903573Y-150140078D01*
X138901745Y-150139320D01*
X138895446Y-150135356D01*
X138800208Y-150087737D01*
X138786476Y-150082482D01*
X138783788Y-150082291D01*
X138781299Y-150081260D01*
X138766667Y-150079819D01*
X138576191Y-150079819D01*
X138561559Y-150081260D01*
X138559070Y-150082290D01*
X138556381Y-150082482D01*
X138542650Y-150087737D01*
X138447412Y-150135356D01*
X138441117Y-150139318D01*
X138439285Y-150140077D01*
X138437223Y-150141768D01*
X138434969Y-150143188D01*
X138433670Y-150144684D01*
X138427920Y-150149405D01*
X138332682Y-150244643D01*
X138323355Y-150256008D01*
X138321221Y-150261158D01*
X138317901Y-150265640D01*
X138312954Y-150279486D01*
X138265335Y-150469962D01*
X138264959Y-150472498D01*
X138264537Y-150473520D01*
X138263994Y-150479032D01*
X138263185Y-150484506D01*
X138263347Y-150485598D01*
X138263096Y-150488152D01*
X138151985Y-150488152D01*
X138151985Y-149968708D01*
X142047426Y-149968708D01*
X142047426Y-151435579D01*
G37*
G36*
X143870249Y-148664077D02*
G01*
X143900656Y-148694484D01*
X143934914Y-148763000D01*
X143934914Y-148870447D01*
X143900656Y-148938963D01*
X143870249Y-148969370D01*
X143801733Y-149003628D01*
X143513486Y-149003628D01*
X143513486Y-148629819D01*
X143801733Y-148629819D01*
X143870249Y-148664077D01*
G37*
G36*
X147053168Y-149740930D02*
G01*
X142442851Y-149740930D01*
X142442851Y-148554819D01*
X142553962Y-148554819D01*
X142553962Y-149554819D01*
X142555403Y-149569451D01*
X142566602Y-149596487D01*
X142587294Y-149617179D01*
X142614330Y-149628378D01*
X142628962Y-149629819D01*
X143105152Y-149629819D01*
X143119784Y-149628378D01*
X143146820Y-149617179D01*
X143167512Y-149596487D01*
X143178711Y-149569451D01*
X143178711Y-149540187D01*
X143167512Y-149513151D01*
X143146820Y-149492459D01*
X143119784Y-149481260D01*
X143105152Y-149479819D01*
X142703962Y-149479819D01*
X142703962Y-148554819D01*
X143363486Y-148554819D01*
X143363486Y-149554819D01*
X143364927Y-149569451D01*
X143376126Y-149596487D01*
X143396818Y-149617179D01*
X143423854Y-149628378D01*
X143453118Y-149628378D01*
X143480154Y-149617179D01*
X143500846Y-149596487D01*
X143512045Y-149569451D01*
X143513486Y-149554819D01*
X143513486Y-149153628D01*
X143819438Y-149153628D01*
X143834070Y-149152187D01*
X143836559Y-149151155D01*
X143839247Y-149150965D01*
X143852979Y-149145710D01*
X143948217Y-149098091D01*
X143954516Y-149094126D01*
X143956344Y-149093369D01*
X143958400Y-149091680D01*
X143960660Y-149090259D01*
X143961959Y-149088760D01*
X143967709Y-149084042D01*
X144015328Y-149036423D01*
X144020046Y-149030673D01*
X144021545Y-149029374D01*
X144022966Y-149027114D01*
X144024655Y-149025058D01*
X144025412Y-149023230D01*
X144029377Y-149016931D01*
X144076996Y-148921693D01*
X144082251Y-148907962D01*
X144082442Y-148905272D01*
X144083473Y-148902784D01*
X144084914Y-148888152D01*
X144084914Y-148745295D01*
X144315867Y-148745295D01*
X144315867Y-148840533D01*
X144317308Y-148855165D01*
X144318339Y-148857654D01*
X144318530Y-148860342D01*
X144323785Y-148874074D01*
X144371404Y-148969312D01*
X144375368Y-148975611D01*
X144376126Y-148977439D01*
X144377814Y-148979495D01*
X144379236Y-148981755D01*
X144380734Y-148983054D01*
X144385453Y-148988804D01*
X144433072Y-149036423D01*
X144438821Y-149041141D01*
X144440121Y-149042640D01*
X144442380Y-149044061D01*
X144444437Y-149045750D01*
X144446264Y-149046507D01*
X144452564Y-149050472D01*
X144547802Y-149098091D01*
X144548871Y-149098500D01*
X144549307Y-149098823D01*
X144555443Y-149101015D01*
X144561533Y-149103346D01*
X144562073Y-149103384D01*
X144563153Y-149103770D01*
X144745643Y-149149392D01*
X144822630Y-149187886D01*
X144853037Y-149218293D01*
X144887295Y-149286809D01*
X144887295Y-149346637D01*
X144853036Y-149415153D01*
X144822629Y-149445561D01*
X144754114Y-149479819D01*
X144545894Y-149479819D01*
X144414584Y-149436049D01*
X144400247Y-149432789D01*
X144371057Y-149434864D01*
X144344884Y-149447950D01*
X144325710Y-149470057D01*
X144316456Y-149497820D01*
X144318531Y-149527010D01*
X144331617Y-149553183D01*
X144353724Y-149572357D01*
X144367150Y-149578351D01*
X144510006Y-149625970D01*
X144517261Y-149627619D01*
X144519092Y-149628378D01*
X144521745Y-149628639D01*
X144524343Y-149629230D01*
X144526317Y-149629089D01*
X144533724Y-149629819D01*
X144771819Y-149629819D01*
X144786451Y-149628378D01*
X144788940Y-149627346D01*
X144791628Y-149627156D01*
X144805360Y-149621901D01*
X144900598Y-149574282D01*
X144906897Y-149570317D01*
X144908725Y-149569560D01*
X144910781Y-149567872D01*
X144913041Y-149566450D01*
X144914341Y-149564950D01*
X144920091Y-149560232D01*
X144940136Y-149540187D01*
X145222070Y-149540187D01*
X145222070Y-149569451D01*
X145233269Y-149596487D01*
X145253961Y-149617179D01*
X145280997Y-149628378D01*
X145295629Y-149629819D01*
X145914676Y-149629819D01*
X145929308Y-149628378D01*
X145956344Y-149617179D01*
X145977036Y-149596487D01*
X145988235Y-149569451D01*
X145988235Y-149540187D01*
X146174451Y-149540187D01*
X146174451Y-149569451D01*
X146185650Y-149596487D01*
X146206342Y-149617179D01*
X146233378Y-149628378D01*
X146248010Y-149629819D01*
X146867057Y-149629819D01*
X146881689Y-149628378D01*
X146908725Y-149617179D01*
X146929417Y-149596487D01*
X146940616Y-149569451D01*
X146940616Y-149540187D01*
X146929417Y-149513151D01*
X146908725Y-149492459D01*
X146881689Y-149481260D01*
X146867057Y-149479819D01*
X146429076Y-149479819D01*
X146872471Y-149036423D01*
X146881799Y-149025058D01*
X146882830Y-149022567D01*
X146884595Y-149020533D01*
X146890589Y-149007107D01*
X146938208Y-148864251D01*
X146939857Y-148856995D01*
X146940616Y-148855165D01*
X146940877Y-148852511D01*
X146941468Y-148849914D01*
X146941327Y-148847939D01*
X146942057Y-148840533D01*
X146942057Y-148745295D01*
X146940616Y-148730663D01*
X146939585Y-148728174D01*
X146939394Y-148725485D01*
X146934139Y-148711754D01*
X146886520Y-148616516D01*
X146882555Y-148610216D01*
X146881798Y-148608389D01*
X146880109Y-148606332D01*
X146878688Y-148604073D01*
X146877189Y-148602773D01*
X146872471Y-148597024D01*
X146824852Y-148549405D01*
X146819102Y-148544686D01*
X146817803Y-148543188D01*
X146815543Y-148541766D01*
X146813487Y-148540078D01*
X146811659Y-148539320D01*
X146805360Y-148535356D01*
X146710122Y-148487737D01*
X146696390Y-148482482D01*
X146693702Y-148482291D01*
X146691213Y-148481260D01*
X146676581Y-148479819D01*
X146438486Y-148479819D01*
X146423854Y-148481260D01*
X146421365Y-148482290D01*
X146418676Y-148482482D01*
X146404945Y-148487737D01*
X146309707Y-148535356D01*
X146303407Y-148539320D01*
X146301580Y-148540078D01*
X146299523Y-148541766D01*
X146297264Y-148543188D01*
X146295964Y-148544686D01*
X146290215Y-148549405D01*
X146242596Y-148597024D01*
X146233269Y-148608389D01*
X146222070Y-148635426D01*
X146222070Y-148664688D01*
X146233269Y-148691725D01*
X146253961Y-148712417D01*
X146280998Y-148723616D01*
X146310260Y-148723616D01*
X146337297Y-148712417D01*
X146348662Y-148703090D01*
X146387675Y-148664077D01*
X146456191Y-148629819D01*
X146658876Y-148629819D01*
X146727392Y-148664077D01*
X146757799Y-148694484D01*
X146792057Y-148763000D01*
X146792057Y-148828363D01*
X146753885Y-148942876D01*
X146194977Y-149501786D01*
X146185650Y-149513151D01*
X146174451Y-149540187D01*
X145988235Y-149540187D01*
X145977036Y-149513151D01*
X145956344Y-149492459D01*
X145929308Y-149481260D01*
X145914676Y-149479819D01*
X145476695Y-149479819D01*
X145920090Y-149036423D01*
X145929418Y-149025058D01*
X145930449Y-149022567D01*
X145932214Y-149020533D01*
X145938208Y-149007107D01*
X145985827Y-148864251D01*
X145987476Y-148856995D01*
X145988235Y-148855165D01*
X145988496Y-148852511D01*
X145989087Y-148849914D01*
X145988946Y-148847939D01*
X145989676Y-148840533D01*
X145989676Y-148745295D01*
X145988235Y-148730663D01*
X145987204Y-148728174D01*
X145987013Y-148725485D01*
X145981758Y-148711754D01*
X145934139Y-148616516D01*
X145930174Y-148610216D01*
X145929417Y-148608389D01*
X145927728Y-148606332D01*
X145926307Y-148604073D01*
X145924808Y-148602773D01*
X145920090Y-148597024D01*
X145872471Y-148549405D01*
X145866721Y-148544686D01*
X145865422Y-148543188D01*
X145863162Y-148541766D01*
X145861106Y-148540078D01*
X145859278Y-148539320D01*
X145852979Y-148535356D01*
X145757741Y-148487737D01*
X145744009Y-148482482D01*
X145741321Y-148482291D01*
X145738832Y-148481260D01*
X145724200Y-148479819D01*
X145486105Y-148479819D01*
X145471473Y-148481260D01*
X145468984Y-148482290D01*
X145466295Y-148482482D01*
X145452564Y-148487737D01*
X145357326Y-148535356D01*
X145351026Y-148539320D01*
X145349199Y-148540078D01*
X145347142Y-148541766D01*
X145344883Y-148543188D01*
X145343583Y-148544686D01*
X145337834Y-148549405D01*
X145290215Y-148597024D01*
X145280888Y-148608389D01*
X145269689Y-148635426D01*
X145269689Y-148664688D01*
X145280888Y-148691725D01*
X145301580Y-148712417D01*
X145328617Y-148723616D01*
X145357879Y-148723616D01*
X145384916Y-148712417D01*
X145396281Y-148703090D01*
X145435294Y-148664077D01*
X145503810Y-148629819D01*
X145706495Y-148629819D01*
X145775011Y-148664077D01*
X145805418Y-148694484D01*
X145839676Y-148763000D01*
X145839676Y-148828363D01*
X145801504Y-148942876D01*
X145242596Y-149501786D01*
X145233269Y-149513151D01*
X145222070Y-149540187D01*
X144940136Y-149540187D01*
X144967709Y-149512613D01*
X144972427Y-149506863D01*
X144973926Y-149505564D01*
X144975347Y-149503305D01*
X144977037Y-149501247D01*
X144977794Y-149499417D01*
X144981758Y-149493121D01*
X145029377Y-149397883D01*
X145034632Y-149384152D01*
X145034823Y-149381462D01*
X145035854Y-149378974D01*
X145037295Y-149364342D01*
X145037295Y-149269104D01*
X145035854Y-149254472D01*
X145034823Y-149251983D01*
X145034632Y-149249294D01*
X145029377Y-149235563D01*
X144981758Y-149140325D01*
X144977793Y-149134025D01*
X144977036Y-149132198D01*
X144975347Y-149130141D01*
X144973926Y-149127882D01*
X144972427Y-149126582D01*
X144967709Y-149120833D01*
X144920090Y-149073214D01*
X144914340Y-149068495D01*
X144913041Y-149066997D01*
X144910781Y-149065575D01*
X144908725Y-149063887D01*
X144906897Y-149063129D01*
X144900598Y-149059165D01*
X144805360Y-149011546D01*
X144804290Y-149011136D01*
X144803855Y-149010814D01*
X144797709Y-149008618D01*
X144791628Y-149006291D01*
X144791088Y-149006252D01*
X144790009Y-149005867D01*
X144607519Y-148960244D01*
X144530532Y-148921751D01*
X144500125Y-148891344D01*
X144465867Y-148822828D01*
X144465867Y-148763000D01*
X144500125Y-148694484D01*
X144530532Y-148664077D01*
X144599048Y-148629819D01*
X144807268Y-148629819D01*
X144938577Y-148673589D01*
X144952914Y-148676849D01*
X144982104Y-148674774D01*
X145008278Y-148661688D01*
X145027452Y-148639580D01*
X145036706Y-148611818D01*
X145034631Y-148582628D01*
X145021544Y-148556455D01*
X144999437Y-148537281D01*
X144986012Y-148531287D01*
X144843155Y-148483668D01*
X144835901Y-148482018D01*
X144834070Y-148481260D01*
X144831415Y-148480998D01*
X144828818Y-148480408D01*
X144826843Y-148480548D01*
X144819438Y-148479819D01*
X144581343Y-148479819D01*
X144566711Y-148481260D01*
X144564222Y-148482290D01*
X144561533Y-148482482D01*
X144547802Y-148487737D01*
X144452564Y-148535356D01*
X144446264Y-148539320D01*
X144444437Y-148540078D01*
X144442380Y-148541766D01*
X144440121Y-148543188D01*
X144438821Y-148544686D01*
X144433072Y-148549405D01*
X144385453Y-148597024D01*
X144380734Y-148602773D01*
X144379236Y-148604073D01*
X144377814Y-148606332D01*
X144376126Y-148608389D01*
X144375368Y-148610216D01*
X144371404Y-148616516D01*
X144323785Y-148711754D01*
X144318530Y-148725486D01*
X144318339Y-148728173D01*
X144317308Y-148730663D01*
X144315867Y-148745295D01*
X144084914Y-148745295D01*
X144083473Y-148730663D01*
X144082442Y-148728174D01*
X144082251Y-148725485D01*
X144076996Y-148711754D01*
X144029377Y-148616516D01*
X144025412Y-148610216D01*
X144024655Y-148608389D01*
X144022966Y-148606332D01*
X144021545Y-148604073D01*
X144020046Y-148602773D01*
X144015328Y-148597024D01*
X143967709Y-148549405D01*
X143961959Y-148544686D01*
X143960660Y-148543188D01*
X143958400Y-148541766D01*
X143956344Y-148540078D01*
X143954516Y-148539320D01*
X143948217Y-148535356D01*
X143852979Y-148487737D01*
X143839247Y-148482482D01*
X143836559Y-148482291D01*
X143834070Y-148481260D01*
X143819438Y-148479819D01*
X143438486Y-148479819D01*
X143423854Y-148481260D01*
X143396818Y-148492459D01*
X143376126Y-148513151D01*
X143364927Y-148540187D01*
X143363486Y-148554819D01*
X142703962Y-148554819D01*
X142702521Y-148540187D01*
X142691322Y-148513151D01*
X142670630Y-148492459D01*
X142643594Y-148481260D01*
X142614330Y-148481260D01*
X142587294Y-148492459D01*
X142566602Y-148513151D01*
X142555403Y-148540187D01*
X142553962Y-148554819D01*
X142442851Y-148554819D01*
X142442851Y-148368708D01*
X147053168Y-148368708D01*
X147053168Y-149740930D01*
G37*
G36*
X162460000Y-126275001D02*
G01*
X163420000Y-126275001D01*
X163420000Y-127634999D01*
X162460000Y-127634999D01*
X162460000Y-126275001D01*
G37*
G36*
X157290000Y-126270000D02*
G01*
X159580000Y-126270000D01*
X159580000Y-127639998D01*
X157290000Y-127639998D01*
X157290000Y-126270000D01*
G37*
G36*
X152800000Y-126270000D02*
G01*
X153500000Y-126270000D01*
X153500000Y-127639998D01*
X152800000Y-127639998D01*
X152800000Y-126270000D01*
G37*
G36*
X148760334Y-126564077D02*
G01*
X148790741Y-126594484D01*
X148824999Y-126663000D01*
X148824999Y-126770447D01*
X148790741Y-126838963D01*
X148760334Y-126869370D01*
X148691818Y-126903628D01*
X148403571Y-126903628D01*
X148403571Y-126529819D01*
X148691818Y-126529819D01*
X148760334Y-126564077D01*
G37*
G36*
X152522239Y-126564077D02*
G01*
X152552646Y-126594484D01*
X152586904Y-126663000D01*
X152586904Y-126770447D01*
X152552646Y-126838963D01*
X152522239Y-126869370D01*
X152453723Y-126903628D01*
X152165476Y-126903628D01*
X152165476Y-126529819D01*
X152453723Y-126529819D01*
X152522239Y-126564077D01*
G37*
G36*
X146617477Y-126564077D02*
G01*
X146647884Y-126594484D01*
X146682142Y-126663000D01*
X146682142Y-126770447D01*
X146647884Y-126838963D01*
X146617477Y-126869370D01*
X146548961Y-126903628D01*
X146260714Y-126903628D01*
X146260714Y-126529819D01*
X146548961Y-126529819D01*
X146617477Y-126564077D01*
G37*
G36*
X152848015Y-127640930D02*
G01*
X145999603Y-127640930D01*
X145999603Y-126454819D01*
X146110714Y-126454819D01*
X146110714Y-127454819D01*
X146112155Y-127469451D01*
X146123354Y-127496487D01*
X146144046Y-127517179D01*
X146171082Y-127528378D01*
X146200346Y-127528378D01*
X146227382Y-127517179D01*
X146248074Y-127496487D01*
X146259273Y-127469451D01*
X146260714Y-127454819D01*
X146260714Y-127053628D01*
X146566666Y-127053628D01*
X146581298Y-127052187D01*
X146583787Y-127051155D01*
X146586475Y-127050965D01*
X146600207Y-127045710D01*
X146695445Y-126998091D01*
X146701744Y-126994126D01*
X146703572Y-126993369D01*
X146705628Y-126991680D01*
X146707888Y-126990259D01*
X146709187Y-126988760D01*
X146714937Y-126984042D01*
X146762556Y-126936423D01*
X146767274Y-126930673D01*
X146768773Y-126929374D01*
X146770194Y-126927114D01*
X146771883Y-126925058D01*
X146772640Y-126923230D01*
X146776605Y-126916931D01*
X146824224Y-126821693D01*
X146829479Y-126807962D01*
X146829670Y-126805272D01*
X146830701Y-126802784D01*
X146832142Y-126788152D01*
X146832142Y-126645295D01*
X146830701Y-126630663D01*
X146829670Y-126628174D01*
X146829479Y-126625485D01*
X146824224Y-126611754D01*
X146776605Y-126516516D01*
X146772640Y-126510216D01*
X146771883Y-126508389D01*
X146770194Y-126506332D01*
X146768773Y-126504073D01*
X146767274Y-126502773D01*
X146762556Y-126497024D01*
X146723155Y-126457623D01*
X147015528Y-126457623D01*
X147017516Y-126472191D01*
X147255611Y-127472191D01*
X147257340Y-127477210D01*
X147257580Y-127479012D01*
X147258522Y-127480640D01*
X147260401Y-127486091D01*
X147266787Y-127494915D01*
X147272242Y-127504337D01*
X147275299Y-127506677D01*
X147277558Y-127509798D01*
X147286833Y-127515505D01*
X147295480Y-127522124D01*
X147299200Y-127523116D01*
X147302480Y-127525134D01*
X147313234Y-127526858D01*
X147323756Y-127529664D01*
X147327571Y-127529157D01*
X147331375Y-127529767D01*
X147341973Y-127527243D01*
X147352764Y-127525810D01*
X147356095Y-127523881D01*
X147359843Y-127522989D01*
X147368667Y-127516602D01*
X147378089Y-127511148D01*
X147380429Y-127508090D01*
X147383550Y-127505832D01*
X147389257Y-127496556D01*
X147395876Y-127487910D01*
X147397901Y-127482510D01*
X147398886Y-127480910D01*
X147399173Y-127479118D01*
X147401039Y-127474144D01*
X147519046Y-127031613D01*
X147637055Y-127474144D01*
X147638920Y-127479119D01*
X147639208Y-127480910D01*
X147640192Y-127482509D01*
X147642218Y-127487911D01*
X147648838Y-127496559D01*
X147654544Y-127505832D01*
X147657664Y-127508090D01*
X147660005Y-127511148D01*
X147669426Y-127516602D01*
X147678251Y-127522989D01*
X147681998Y-127523881D01*
X147685330Y-127525810D01*
X147696123Y-127527244D01*
X147706719Y-127529767D01*
X147710520Y-127529157D01*
X147714339Y-127529665D01*
X147724870Y-127526856D01*
X147735614Y-127525134D01*
X147738890Y-127523118D01*
X147742614Y-127522125D01*
X147751264Y-127515503D01*
X147760536Y-127509798D01*
X147762794Y-127506677D01*
X147765852Y-127504337D01*
X147771307Y-127494914D01*
X147777693Y-127486091D01*
X147779570Y-127480642D01*
X147780514Y-127479013D01*
X147780753Y-127477209D01*
X147782483Y-127472191D01*
X148020579Y-126472191D01*
X148022567Y-126457623D01*
X148022117Y-126454819D01*
X148253571Y-126454819D01*
X148253571Y-127454819D01*
X148255012Y-127469451D01*
X148266211Y-127496487D01*
X148286903Y-127517179D01*
X148313939Y-127528378D01*
X148343203Y-127528378D01*
X148370239Y-127517179D01*
X148390931Y-127496487D01*
X148402130Y-127469451D01*
X148403571Y-127454819D01*
X148403571Y-127053628D01*
X148527617Y-127053628D01*
X148838557Y-127497829D01*
X148848128Y-127508989D01*
X148872807Y-127524716D01*
X148901624Y-127529802D01*
X148930195Y-127523472D01*
X148954169Y-127506690D01*
X148969896Y-127482012D01*
X148974981Y-127453194D01*
X148968652Y-127424623D01*
X148961442Y-127411810D01*
X148710638Y-127053518D01*
X148724155Y-127052187D01*
X148726644Y-127051155D01*
X148729332Y-127050965D01*
X148743064Y-127045710D01*
X148838302Y-126998091D01*
X148844601Y-126994126D01*
X148846429Y-126993369D01*
X148848485Y-126991680D01*
X148850745Y-126990259D01*
X148852044Y-126988760D01*
X148857794Y-126984042D01*
X148905413Y-126936423D01*
X148910131Y-126930673D01*
X148911630Y-126929374D01*
X148913051Y-126927114D01*
X148914740Y-126925058D01*
X148915497Y-126923230D01*
X148919462Y-126916931D01*
X148967081Y-126821693D01*
X148972336Y-126807962D01*
X148972527Y-126805272D01*
X148973558Y-126802784D01*
X148974999Y-126788152D01*
X148974999Y-126645295D01*
X148973558Y-126630663D01*
X148972527Y-126628174D01*
X148972336Y-126625485D01*
X148967081Y-126611754D01*
X148919462Y-126516516D01*
X148915497Y-126510216D01*
X148914740Y-126508389D01*
X148913051Y-126506332D01*
X148911630Y-126504073D01*
X148910131Y-126502773D01*
X148905413Y-126497024D01*
X148863208Y-126454819D01*
X150015476Y-126454819D01*
X150015476Y-127264342D01*
X150016917Y-127278974D01*
X150017948Y-127281463D01*
X150018139Y-127284151D01*
X150023394Y-127297883D01*
X150071013Y-127393121D01*
X150074976Y-127399417D01*
X150075734Y-127401247D01*
X150077423Y-127403305D01*
X150078845Y-127405564D01*
X150080343Y-127406863D01*
X150085061Y-127412612D01*
X150132680Y-127460232D01*
X150138429Y-127464950D01*
X150139730Y-127466450D01*
X150141989Y-127467872D01*
X150144046Y-127469560D01*
X150145873Y-127470317D01*
X150152173Y-127474282D01*
X150247411Y-127521901D01*
X150261142Y-127527156D01*
X150263831Y-127527347D01*
X150266320Y-127528378D01*
X150280952Y-127529819D01*
X150471428Y-127529819D01*
X150486060Y-127528378D01*
X150488549Y-127527346D01*
X150491237Y-127527156D01*
X150504969Y-127521901D01*
X150600207Y-127474282D01*
X150606506Y-127470317D01*
X150608334Y-127469560D01*
X150610390Y-127467872D01*
X150612650Y-127466450D01*
X150613950Y-127464950D01*
X150619700Y-127460232D01*
X150667318Y-127412613D01*
X150672036Y-127406863D01*
X150673535Y-127405564D01*
X150674956Y-127403305D01*
X150676646Y-127401247D01*
X150677403Y-127399417D01*
X150681367Y-127393121D01*
X150728986Y-127297883D01*
X150734241Y-127284152D01*
X150734432Y-127281462D01*
X150735463Y-127278974D01*
X150736904Y-127264342D01*
X150736904Y-126645295D01*
X151015476Y-126645295D01*
X151015476Y-126740533D01*
X151016917Y-126755165D01*
X151017948Y-126757654D01*
X151018139Y-126760342D01*
X151023394Y-126774074D01*
X151071013Y-126869312D01*
X151074977Y-126875611D01*
X151075735Y-126877439D01*
X151077423Y-126879495D01*
X151078845Y-126881755D01*
X151080343Y-126883054D01*
X151085062Y-126888804D01*
X151132681Y-126936423D01*
X151138430Y-126941141D01*
X151139730Y-126942640D01*
X151141989Y-126944061D01*
X151144046Y-126945750D01*
X151145873Y-126946507D01*
X151152173Y-126950472D01*
X151247411Y-126998091D01*
X151248480Y-126998500D01*
X151248916Y-126998823D01*
X151255052Y-127001015D01*
X151261142Y-127003346D01*
X151261682Y-127003384D01*
X151262762Y-127003770D01*
X151445252Y-127049392D01*
X151522239Y-127087886D01*
X151552646Y-127118293D01*
X151586904Y-127186809D01*
X151586904Y-127246637D01*
X151552645Y-127315153D01*
X151522238Y-127345561D01*
X151453723Y-127379819D01*
X151245503Y-127379819D01*
X151114193Y-127336049D01*
X151099856Y-127332789D01*
X151070666Y-127334864D01*
X151044493Y-127347950D01*
X151025319Y-127370057D01*
X151016065Y-127397820D01*
X151018140Y-127427010D01*
X151031226Y-127453183D01*
X151053333Y-127472357D01*
X151066759Y-127478351D01*
X151209615Y-127525970D01*
X151216870Y-127527619D01*
X151218701Y-127528378D01*
X151221354Y-127528639D01*
X151223952Y-127529230D01*
X151225926Y-127529089D01*
X151233333Y-127529819D01*
X151471428Y-127529819D01*
X151486060Y-127528378D01*
X151488549Y-127527346D01*
X151491237Y-127527156D01*
X151504969Y-127521901D01*
X151600207Y-127474282D01*
X151606506Y-127470317D01*
X151608334Y-127469560D01*
X151610390Y-127467872D01*
X151612650Y-127466450D01*
X151613950Y-127464950D01*
X151619700Y-127460232D01*
X151667318Y-127412613D01*
X151672036Y-127406863D01*
X151673535Y-127405564D01*
X151674956Y-127403305D01*
X151676646Y-127401247D01*
X151677403Y-127399417D01*
X151681367Y-127393121D01*
X151728986Y-127297883D01*
X151734241Y-127284152D01*
X151734432Y-127281462D01*
X151735463Y-127278974D01*
X151736904Y-127264342D01*
X151736904Y-127169104D01*
X151735463Y-127154472D01*
X151734432Y-127151983D01*
X151734241Y-127149294D01*
X151728986Y-127135563D01*
X151681367Y-127040325D01*
X151677402Y-127034025D01*
X151676645Y-127032198D01*
X151674956Y-127030141D01*
X151673535Y-127027882D01*
X151672036Y-127026582D01*
X151667318Y-127020833D01*
X151619699Y-126973214D01*
X151613949Y-126968495D01*
X151612650Y-126966997D01*
X151610390Y-126965575D01*
X151608334Y-126963887D01*
X151606506Y-126963129D01*
X151600207Y-126959165D01*
X151504969Y-126911546D01*
X151503899Y-126911136D01*
X151503464Y-126910814D01*
X151497318Y-126908618D01*
X151491237Y-126906291D01*
X151490697Y-126906252D01*
X151489618Y-126905867D01*
X151307128Y-126860244D01*
X151230141Y-126821751D01*
X151199734Y-126791344D01*
X151165476Y-126722828D01*
X151165476Y-126663000D01*
X151199734Y-126594484D01*
X151230141Y-126564077D01*
X151298657Y-126529819D01*
X151506877Y-126529819D01*
X151638186Y-126573589D01*
X151652523Y-126576849D01*
X151681713Y-126574774D01*
X151707887Y-126561688D01*
X151727061Y-126539580D01*
X151736315Y-126511818D01*
X151734240Y-126482628D01*
X151721153Y-126456455D01*
X151719267Y-126454819D01*
X152015476Y-126454819D01*
X152015476Y-127454819D01*
X152016917Y-127469451D01*
X152028116Y-127496487D01*
X152048808Y-127517179D01*
X152075844Y-127528378D01*
X152105108Y-127528378D01*
X152132144Y-127517179D01*
X152152836Y-127496487D01*
X152164035Y-127469451D01*
X152165476Y-127454819D01*
X152165476Y-127053628D01*
X152289522Y-127053628D01*
X152600462Y-127497829D01*
X152610033Y-127508989D01*
X152634712Y-127524716D01*
X152663529Y-127529802D01*
X152692100Y-127523472D01*
X152716074Y-127506690D01*
X152731801Y-127482012D01*
X152736886Y-127453194D01*
X152730557Y-127424623D01*
X152723347Y-127411810D01*
X152472543Y-127053518D01*
X152486060Y-127052187D01*
X152488549Y-127051155D01*
X152491237Y-127050965D01*
X152504969Y-127045710D01*
X152600207Y-126998091D01*
X152606506Y-126994126D01*
X152608334Y-126993369D01*
X152610390Y-126991680D01*
X152612650Y-126990259D01*
X152613949Y-126988760D01*
X152619699Y-126984042D01*
X152667318Y-126936423D01*
X152672036Y-126930673D01*
X152673535Y-126929374D01*
X152674956Y-126927114D01*
X152676645Y-126925058D01*
X152677402Y-126923230D01*
X152681367Y-126916931D01*
X152728986Y-126821693D01*
X152734241Y-126807962D01*
X152734432Y-126805272D01*
X152735463Y-126802784D01*
X152736904Y-126788152D01*
X152736904Y-126645295D01*
X152735463Y-126630663D01*
X152734432Y-126628174D01*
X152734241Y-126625485D01*
X152728986Y-126611754D01*
X152681367Y-126516516D01*
X152677402Y-126510216D01*
X152676645Y-126508389D01*
X152674956Y-126506332D01*
X152673535Y-126504073D01*
X152672036Y-126502773D01*
X152667318Y-126497024D01*
X152619699Y-126449405D01*
X152613949Y-126444686D01*
X152612650Y-126443188D01*
X152610390Y-126441766D01*
X152608334Y-126440078D01*
X152606506Y-126439320D01*
X152600207Y-126435356D01*
X152504969Y-126387737D01*
X152491237Y-126382482D01*
X152488549Y-126382291D01*
X152486060Y-126381260D01*
X152471428Y-126379819D01*
X152090476Y-126379819D01*
X152075844Y-126381260D01*
X152048808Y-126392459D01*
X152028116Y-126413151D01*
X152016917Y-126440187D01*
X152015476Y-126454819D01*
X151719267Y-126454819D01*
X151699046Y-126437281D01*
X151685621Y-126431287D01*
X151542764Y-126383668D01*
X151535510Y-126382018D01*
X151533679Y-126381260D01*
X151531024Y-126380998D01*
X151528427Y-126380408D01*
X151526452Y-126380548D01*
X151519047Y-126379819D01*
X151280952Y-126379819D01*
X151266320Y-126381260D01*
X151263831Y-126382290D01*
X151261142Y-126382482D01*
X151247411Y-126387737D01*
X151152173Y-126435356D01*
X151145873Y-126439320D01*
X151144046Y-126440078D01*
X151141989Y-126441766D01*
X151139730Y-126443188D01*
X151138430Y-126444686D01*
X151132681Y-126449405D01*
X151085062Y-126497024D01*
X151080343Y-126502773D01*
X151078845Y-126504073D01*
X151077423Y-126506332D01*
X151075735Y-126508389D01*
X151074977Y-126510216D01*
X151071013Y-126516516D01*
X151023394Y-126611754D01*
X151018139Y-126625486D01*
X151017948Y-126628173D01*
X151016917Y-126630663D01*
X151015476Y-126645295D01*
X150736904Y-126645295D01*
X150736904Y-126454819D01*
X150735463Y-126440187D01*
X150724264Y-126413151D01*
X150703572Y-126392459D01*
X150676536Y-126381260D01*
X150647272Y-126381260D01*
X150620236Y-126392459D01*
X150599544Y-126413151D01*
X150588345Y-126440187D01*
X150586904Y-126454819D01*
X150586904Y-127246637D01*
X150552645Y-127315153D01*
X150522238Y-127345561D01*
X150453723Y-127379819D01*
X150298657Y-127379819D01*
X150230141Y-127345561D01*
X150199734Y-127315153D01*
X150165476Y-127246637D01*
X150165476Y-126454819D01*
X150164035Y-126440187D01*
X150152836Y-126413151D01*
X150132144Y-126392459D01*
X150105108Y-126381260D01*
X150075844Y-126381260D01*
X150048808Y-126392459D01*
X150028116Y-126413151D01*
X150016917Y-126440187D01*
X150015476Y-126454819D01*
X148863208Y-126454819D01*
X148857794Y-126449405D01*
X148852044Y-126444686D01*
X148850745Y-126443188D01*
X148848485Y-126441766D01*
X148846429Y-126440078D01*
X148844601Y-126439320D01*
X148838302Y-126435356D01*
X148743064Y-126387737D01*
X148729332Y-126382482D01*
X148726644Y-126382291D01*
X148724155Y-126381260D01*
X148709523Y-126379819D01*
X148328571Y-126379819D01*
X148313939Y-126381260D01*
X148286903Y-126392459D01*
X148266211Y-126413151D01*
X148255012Y-126440187D01*
X148253571Y-126454819D01*
X148022117Y-126454819D01*
X148017934Y-126428728D01*
X148002598Y-126403806D01*
X147978891Y-126386650D01*
X147950423Y-126379871D01*
X147921528Y-126384504D01*
X147896606Y-126399840D01*
X147879449Y-126423547D01*
X147874659Y-126437448D01*
X147705406Y-127148303D01*
X147591515Y-126721208D01*
X147590229Y-126717780D01*
X147590038Y-126716339D01*
X147589046Y-126714626D01*
X147586352Y-126707442D01*
X147580337Y-126699583D01*
X147575376Y-126691015D01*
X147571517Y-126688061D01*
X147568565Y-126684204D01*
X147560000Y-126679245D01*
X147552138Y-126673227D01*
X147547441Y-126671974D01*
X147543240Y-126669542D01*
X147533433Y-126668239D01*
X147523863Y-126665687D01*
X147519044Y-126666327D01*
X147514232Y-126665688D01*
X147504671Y-126668237D01*
X147494854Y-126669542D01*
X147490648Y-126671976D01*
X147485956Y-126673228D01*
X147478096Y-126679243D01*
X147469529Y-126684204D01*
X147466575Y-126688062D01*
X147462718Y-126691015D01*
X147457759Y-126699580D01*
X147451742Y-126707441D01*
X147449045Y-126714630D01*
X147448056Y-126716340D01*
X147447864Y-126717779D01*
X147446579Y-126721208D01*
X147332687Y-127148303D01*
X147163436Y-126437447D01*
X147158646Y-126423547D01*
X147141489Y-126399840D01*
X147116567Y-126384504D01*
X147087672Y-126379871D01*
X147059204Y-126386649D01*
X147035497Y-126403806D01*
X147020161Y-126428728D01*
X147015528Y-126457623D01*
X146723155Y-126457623D01*
X146714937Y-126449405D01*
X146709187Y-126444686D01*
X146707888Y-126443188D01*
X146705628Y-126441766D01*
X146703572Y-126440078D01*
X146701744Y-126439320D01*
X146695445Y-126435356D01*
X146600207Y-126387737D01*
X146586475Y-126382482D01*
X146583787Y-126382291D01*
X146581298Y-126381260D01*
X146566666Y-126379819D01*
X146185714Y-126379819D01*
X146171082Y-126381260D01*
X146144046Y-126392459D01*
X146123354Y-126413151D01*
X146112155Y-126440187D01*
X146110714Y-126454819D01*
X145999603Y-126454819D01*
X145999603Y-126268708D01*
X152848015Y-126268708D01*
X152848015Y-127640930D01*
G37*
G36*
X154045200Y-127044180D02*
G01*
X154071694Y-127070674D01*
X154105952Y-127139190D01*
X154105952Y-127246637D01*
X154071693Y-127315153D01*
X154041286Y-127345561D01*
X153972771Y-127379819D01*
X153684524Y-127379819D01*
X153684524Y-127006009D01*
X153930687Y-127006009D01*
X154045200Y-127044180D01*
G37*
G36*
X153993668Y-126564077D02*
G01*
X154024075Y-126594484D01*
X154058333Y-126663000D01*
X154058333Y-126722828D01*
X154024075Y-126791344D01*
X153993668Y-126821751D01*
X153925152Y-126856009D01*
X153684524Y-126856009D01*
X153684524Y-126529819D01*
X153925152Y-126529819D01*
X153993668Y-126564077D01*
G37*
G36*
X155041287Y-126564077D02*
G01*
X155113229Y-126636019D01*
X155153571Y-126797386D01*
X155153571Y-127112251D01*
X155113229Y-127273617D01*
X155041286Y-127345561D01*
X154972771Y-127379819D01*
X154817705Y-127379819D01*
X154749189Y-127345561D01*
X154677246Y-127273617D01*
X154636905Y-127112251D01*
X154636905Y-126797386D01*
X154677246Y-126636019D01*
X154749189Y-126564077D01*
X154817705Y-126529819D01*
X154972771Y-126529819D01*
X155041287Y-126564077D01*
G37*
G36*
X156088906Y-126564077D02*
G01*
X156160848Y-126636019D01*
X156201190Y-126797386D01*
X156201190Y-127112251D01*
X156160848Y-127273617D01*
X156088905Y-127345561D01*
X156020390Y-127379819D01*
X155865324Y-127379819D01*
X155796808Y-127345561D01*
X155724865Y-127273617D01*
X155684524Y-127112251D01*
X155684524Y-126797386D01*
X155724865Y-126636019D01*
X155796808Y-126564077D01*
X155865324Y-126529819D01*
X156020390Y-126529819D01*
X156088906Y-126564077D01*
G37*
G36*
X157318003Y-127640930D02*
G01*
X153423413Y-127640930D01*
X153423413Y-126454819D01*
X153534524Y-126454819D01*
X153534524Y-127454819D01*
X153535965Y-127469451D01*
X153547164Y-127496487D01*
X153567856Y-127517179D01*
X153594892Y-127528378D01*
X153609524Y-127529819D01*
X153990476Y-127529819D01*
X154005108Y-127528378D01*
X154007597Y-127527346D01*
X154010285Y-127527156D01*
X154024017Y-127521901D01*
X154119255Y-127474282D01*
X154125554Y-127470317D01*
X154127382Y-127469560D01*
X154129438Y-127467872D01*
X154131698Y-127466450D01*
X154132998Y-127464950D01*
X154138748Y-127460232D01*
X154186366Y-127412613D01*
X154191084Y-127406863D01*
X154192583Y-127405564D01*
X154194004Y-127403305D01*
X154195694Y-127401247D01*
X154196451Y-127399417D01*
X154200415Y-127393121D01*
X154248034Y-127297883D01*
X154253289Y-127284152D01*
X154253480Y-127281462D01*
X154254511Y-127278974D01*
X154255952Y-127264342D01*
X154255952Y-127121485D01*
X154254511Y-127106853D01*
X154253480Y-127104364D01*
X154253289Y-127101675D01*
X154248034Y-127087944D01*
X154200415Y-126992706D01*
X154196450Y-126986406D01*
X154195693Y-126984579D01*
X154194004Y-126982522D01*
X154192583Y-126980263D01*
X154191084Y-126978963D01*
X154186366Y-126973214D01*
X154138747Y-126925595D01*
X154127382Y-126916268D01*
X154124891Y-126915236D01*
X154122856Y-126913471D01*
X154116788Y-126910762D01*
X154138747Y-126888804D01*
X154143465Y-126883054D01*
X154144964Y-126881755D01*
X154146385Y-126879495D01*
X154148074Y-126877439D01*
X154148831Y-126875611D01*
X154152796Y-126869312D01*
X154193376Y-126788152D01*
X154486905Y-126788152D01*
X154486905Y-127121485D01*
X154487156Y-127124038D01*
X154486994Y-127125131D01*
X154487803Y-127130604D01*
X154488346Y-127136117D01*
X154488768Y-127137138D01*
X154489144Y-127139675D01*
X154536763Y-127330151D01*
X154541710Y-127343997D01*
X154545029Y-127348476D01*
X154547163Y-127353628D01*
X154556491Y-127364994D01*
X154651729Y-127460233D01*
X154657479Y-127464953D01*
X154658778Y-127466450D01*
X154661032Y-127467869D01*
X154663094Y-127469561D01*
X154664926Y-127470319D01*
X154671221Y-127474282D01*
X154766459Y-127521901D01*
X154780190Y-127527156D01*
X154782879Y-127527347D01*
X154785368Y-127528378D01*
X154800000Y-127529819D01*
X154990476Y-127529819D01*
X155005108Y-127528378D01*
X155007597Y-127527346D01*
X155010285Y-127527156D01*
X155024017Y-127521901D01*
X155119255Y-127474282D01*
X155125554Y-127470317D01*
X155127382Y-127469560D01*
X155129438Y-127467871D01*
X155131698Y-127466450D01*
X155132997Y-127464951D01*
X155138747Y-127460233D01*
X155233986Y-127364993D01*
X155243313Y-127353628D01*
X155245446Y-127348476D01*
X155248766Y-127343997D01*
X155253713Y-127330151D01*
X155301332Y-127139675D01*
X155301707Y-127137138D01*
X155302130Y-127136117D01*
X155302672Y-127130604D01*
X155303482Y-127125131D01*
X155303319Y-127124038D01*
X155303571Y-127121485D01*
X155303571Y-126788152D01*
X155534524Y-126788152D01*
X155534524Y-127121485D01*
X155534775Y-127124038D01*
X155534613Y-127125131D01*
X155535422Y-127130604D01*
X155535965Y-127136117D01*
X155536387Y-127137138D01*
X155536763Y-127139675D01*
X155584382Y-127330151D01*
X155589329Y-127343997D01*
X155592648Y-127348476D01*
X155594782Y-127353628D01*
X155604110Y-127364994D01*
X155699348Y-127460233D01*
X155705098Y-127464953D01*
X155706397Y-127466450D01*
X155708651Y-127467869D01*
X155710713Y-127469561D01*
X155712545Y-127470319D01*
X155718840Y-127474282D01*
X155814078Y-127521901D01*
X155827809Y-127527156D01*
X155830498Y-127527347D01*
X155832987Y-127528378D01*
X155847619Y-127529819D01*
X156038095Y-127529819D01*
X156052727Y-127528378D01*
X156055216Y-127527346D01*
X156057904Y-127527156D01*
X156071636Y-127521901D01*
X156166874Y-127474282D01*
X156173173Y-127470317D01*
X156175001Y-127469560D01*
X156177057Y-127467871D01*
X156179317Y-127466450D01*
X156180616Y-127464951D01*
X156186366Y-127460233D01*
X156281605Y-127364993D01*
X156290932Y-127353628D01*
X156293065Y-127348476D01*
X156296385Y-127343997D01*
X156301332Y-127330151D01*
X156348951Y-127139675D01*
X156349326Y-127137138D01*
X156349749Y-127136117D01*
X156350291Y-127130604D01*
X156351101Y-127125131D01*
X156350938Y-127124038D01*
X156351190Y-127121485D01*
X156351190Y-126788152D01*
X156350938Y-126785598D01*
X156351101Y-126784506D01*
X156350291Y-126779032D01*
X156349749Y-126773520D01*
X156349326Y-126772498D01*
X156348951Y-126769962D01*
X156301332Y-126579486D01*
X156296385Y-126565640D01*
X156293066Y-126561161D01*
X156290932Y-126556008D01*
X156281604Y-126544643D01*
X156186366Y-126449405D01*
X156180616Y-126444686D01*
X156179317Y-126443188D01*
X156177057Y-126441766D01*
X156175134Y-126440187D01*
X156488346Y-126440187D01*
X156488346Y-126469451D01*
X156499545Y-126496487D01*
X156520237Y-126517179D01*
X156547273Y-126528378D01*
X156561905Y-126529819D01*
X156772619Y-126529819D01*
X156772619Y-127454819D01*
X156774060Y-127469451D01*
X156785259Y-127496487D01*
X156805951Y-127517179D01*
X156832987Y-127528378D01*
X156862251Y-127528378D01*
X156889287Y-127517179D01*
X156909979Y-127496487D01*
X156921178Y-127469451D01*
X156922619Y-127454819D01*
X156922619Y-126529819D01*
X157133333Y-126529819D01*
X157147965Y-126528378D01*
X157175001Y-126517179D01*
X157195693Y-126496487D01*
X157206892Y-126469451D01*
X157206892Y-126440187D01*
X157195693Y-126413151D01*
X157175001Y-126392459D01*
X157147965Y-126381260D01*
X157133333Y-126379819D01*
X156561905Y-126379819D01*
X156547273Y-126381260D01*
X156520237Y-126392459D01*
X156499545Y-126413151D01*
X156488346Y-126440187D01*
X156175134Y-126440187D01*
X156175001Y-126440078D01*
X156173173Y-126439320D01*
X156166874Y-126435356D01*
X156071636Y-126387737D01*
X156057904Y-126382482D01*
X156055216Y-126382291D01*
X156052727Y-126381260D01*
X156038095Y-126379819D01*
X155847619Y-126379819D01*
X155832987Y-126381260D01*
X155830498Y-126382290D01*
X155827809Y-126382482D01*
X155814078Y-126387737D01*
X155718840Y-126435356D01*
X155712545Y-126439318D01*
X155710713Y-126440077D01*
X155708651Y-126441768D01*
X155706397Y-126443188D01*
X155705098Y-126444684D01*
X155699348Y-126449405D01*
X155604110Y-126544643D01*
X155594783Y-126556008D01*
X155592649Y-126561158D01*
X155589329Y-126565640D01*
X155584382Y-126579486D01*
X155536763Y-126769962D01*
X155536387Y-126772498D01*
X155535965Y-126773520D01*
X155535422Y-126779032D01*
X155534613Y-126784506D01*
X155534775Y-126785598D01*
X155534524Y-126788152D01*
X155303571Y-126788152D01*
X155303319Y-126785598D01*
X155303482Y-126784506D01*
X155302672Y-126779032D01*
X155302130Y-126773520D01*
X155301707Y-126772498D01*
X155301332Y-126769962D01*
X155253713Y-126579486D01*
X155248766Y-126565640D01*
X155245447Y-126561161D01*
X155243313Y-126556008D01*
X155233985Y-126544643D01*
X155138747Y-126449405D01*
X155132997Y-126444686D01*
X155131698Y-126443188D01*
X155129438Y-126441766D01*
X155127382Y-126440078D01*
X155125554Y-126439320D01*
X155119255Y-126435356D01*
X155024017Y-126387737D01*
X155010285Y-126382482D01*
X155007597Y-126382291D01*
X155005108Y-126381260D01*
X154990476Y-126379819D01*
X154800000Y-126379819D01*
X154785368Y-126381260D01*
X154782879Y-126382290D01*
X154780190Y-126382482D01*
X154766459Y-126387737D01*
X154671221Y-126435356D01*
X154664926Y-126439318D01*
X154663094Y-126440077D01*
X154661032Y-126441768D01*
X154658778Y-126443188D01*
X154657479Y-126444684D01*
X154651729Y-126449405D01*
X154556491Y-126544643D01*
X154547164Y-126556008D01*
X154545030Y-126561158D01*
X154541710Y-126565640D01*
X154536763Y-126579486D01*
X154489144Y-126769962D01*
X154488768Y-126772498D01*
X154488346Y-126773520D01*
X154487803Y-126779032D01*
X154486994Y-126784506D01*
X154487156Y-126785598D01*
X154486905Y-126788152D01*
X154193376Y-126788152D01*
X154200415Y-126774074D01*
X154205670Y-126760343D01*
X154205861Y-126757653D01*
X154206892Y-126755165D01*
X154208333Y-126740533D01*
X154208333Y-126645295D01*
X154206892Y-126630663D01*
X154205861Y-126628174D01*
X154205670Y-126625485D01*
X154200415Y-126611754D01*
X154152796Y-126516516D01*
X154148831Y-126510216D01*
X154148074Y-126508389D01*
X154146385Y-126506332D01*
X154144964Y-126504073D01*
X154143465Y-126502773D01*
X154138747Y-126497024D01*
X154091128Y-126449405D01*
X154085378Y-126444686D01*
X154084079Y-126443188D01*
X154081819Y-126441766D01*
X154079763Y-126440078D01*
X154077935Y-126439320D01*
X154071636Y-126435356D01*
X153976398Y-126387737D01*
X153962666Y-126382482D01*
X153959978Y-126382291D01*
X153957489Y-126381260D01*
X153942857Y-126379819D01*
X153609524Y-126379819D01*
X153594892Y-126381260D01*
X153567856Y-126392459D01*
X153547164Y-126413151D01*
X153535965Y-126440187D01*
X153534524Y-126454819D01*
X153423413Y-126454819D01*
X153423413Y-126268708D01*
X157318003Y-126268708D01*
X157318003Y-127640930D01*
G37*
G36*
X162169858Y-126564077D02*
G01*
X162200265Y-126594484D01*
X162234523Y-126663000D01*
X162234523Y-126770447D01*
X162200265Y-126838963D01*
X162169858Y-126869370D01*
X162101342Y-126903628D01*
X161813095Y-126903628D01*
X161813095Y-126529819D01*
X162101342Y-126529819D01*
X162169858Y-126564077D01*
G37*
G36*
X162495634Y-127640930D02*
G01*
X159551984Y-127640930D01*
X159551984Y-126454819D01*
X159663095Y-126454819D01*
X159663095Y-127264342D01*
X159664536Y-127278974D01*
X159665567Y-127281463D01*
X159665758Y-127284151D01*
X159671013Y-127297883D01*
X159718632Y-127393121D01*
X159722595Y-127399417D01*
X159723353Y-127401247D01*
X159725042Y-127403305D01*
X159726464Y-127405564D01*
X159727962Y-127406863D01*
X159732680Y-127412612D01*
X159780299Y-127460232D01*
X159786048Y-127464950D01*
X159787349Y-127466450D01*
X159789608Y-127467872D01*
X159791665Y-127469560D01*
X159793492Y-127470317D01*
X159799792Y-127474282D01*
X159895030Y-127521901D01*
X159908761Y-127527156D01*
X159911450Y-127527347D01*
X159913939Y-127528378D01*
X159928571Y-127529819D01*
X160119047Y-127529819D01*
X160133679Y-127528378D01*
X160136168Y-127527346D01*
X160138856Y-127527156D01*
X160152588Y-127521901D01*
X160247826Y-127474282D01*
X160254125Y-127470317D01*
X160255953Y-127469560D01*
X160258009Y-127467872D01*
X160260269Y-127466450D01*
X160261569Y-127464950D01*
X160267319Y-127460232D01*
X160314937Y-127412613D01*
X160319655Y-127406863D01*
X160321154Y-127405564D01*
X160322575Y-127403305D01*
X160324265Y-127401247D01*
X160325022Y-127399417D01*
X160328986Y-127393121D01*
X160376605Y-127297883D01*
X160381860Y-127284152D01*
X160382051Y-127281462D01*
X160383082Y-127278974D01*
X160384523Y-127264342D01*
X160384523Y-126645295D01*
X160663095Y-126645295D01*
X160663095Y-126740533D01*
X160664536Y-126755165D01*
X160665567Y-126757654D01*
X160665758Y-126760342D01*
X160671013Y-126774074D01*
X160718632Y-126869312D01*
X160722596Y-126875611D01*
X160723354Y-126877439D01*
X160725042Y-126879495D01*
X160726464Y-126881755D01*
X160727962Y-126883054D01*
X160732681Y-126888804D01*
X160780300Y-126936423D01*
X160786049Y-126941141D01*
X160787349Y-126942640D01*
X160789608Y-126944061D01*
X160791665Y-126945750D01*
X160793492Y-126946507D01*
X160799792Y-126950472D01*
X160895030Y-126998091D01*
X160896099Y-126998500D01*
X160896535Y-126998823D01*
X160902671Y-127001015D01*
X160908761Y-127003346D01*
X160909301Y-127003384D01*
X160910381Y-127003770D01*
X161092871Y-127049392D01*
X161169858Y-127087886D01*
X161200265Y-127118293D01*
X161234523Y-127186809D01*
X161234523Y-127246637D01*
X161200264Y-127315153D01*
X161169857Y-127345561D01*
X161101342Y-127379819D01*
X160893122Y-127379819D01*
X160761812Y-127336049D01*
X160747475Y-127332789D01*
X160718285Y-127334864D01*
X160692112Y-127347950D01*
X160672938Y-127370057D01*
X160663684Y-127397820D01*
X160665759Y-127427010D01*
X160678845Y-127453183D01*
X160700952Y-127472357D01*
X160714378Y-127478351D01*
X160857234Y-127525970D01*
X160864489Y-127527619D01*
X160866320Y-127528378D01*
X160868973Y-127528639D01*
X160871571Y-127529230D01*
X160873545Y-127529089D01*
X160880952Y-127529819D01*
X161119047Y-127529819D01*
X161133679Y-127528378D01*
X161136168Y-127527346D01*
X161138856Y-127527156D01*
X161152588Y-127521901D01*
X161247826Y-127474282D01*
X161254125Y-127470317D01*
X161255953Y-127469560D01*
X161258009Y-127467872D01*
X161260269Y-127466450D01*
X161261569Y-127464950D01*
X161267319Y-127460232D01*
X161314937Y-127412613D01*
X161319655Y-127406863D01*
X161321154Y-127405564D01*
X161322575Y-127403305D01*
X161324265Y-127401247D01*
X161325022Y-127399417D01*
X161328986Y-127393121D01*
X161376605Y-127297883D01*
X161381860Y-127284152D01*
X161382051Y-127281462D01*
X161383082Y-127278974D01*
X161384523Y-127264342D01*
X161384523Y-127169104D01*
X161383082Y-127154472D01*
X161382051Y-127151983D01*
X161381860Y-127149294D01*
X161376605Y-127135563D01*
X161328986Y-127040325D01*
X161325021Y-127034025D01*
X161324264Y-127032198D01*
X161322575Y-127030141D01*
X161321154Y-127027882D01*
X161319655Y-127026582D01*
X161314937Y-127020833D01*
X161267318Y-126973214D01*
X161261568Y-126968495D01*
X161260269Y-126966997D01*
X161258009Y-126965575D01*
X161255953Y-126963887D01*
X161254125Y-126963129D01*
X161247826Y-126959165D01*
X161152588Y-126911546D01*
X161151518Y-126911136D01*
X161151083Y-126910814D01*
X161144937Y-126908618D01*
X161138856Y-126906291D01*
X161138316Y-126906252D01*
X161137237Y-126905867D01*
X160954747Y-126860244D01*
X160877760Y-126821751D01*
X160847353Y-126791344D01*
X160813095Y-126722828D01*
X160813095Y-126663000D01*
X160847353Y-126594484D01*
X160877760Y-126564077D01*
X160946276Y-126529819D01*
X161154496Y-126529819D01*
X161285805Y-126573589D01*
X161300142Y-126576849D01*
X161329332Y-126574774D01*
X161355506Y-126561688D01*
X161374680Y-126539580D01*
X161383934Y-126511818D01*
X161381859Y-126482628D01*
X161368772Y-126456455D01*
X161366886Y-126454819D01*
X161663095Y-126454819D01*
X161663095Y-127454819D01*
X161664536Y-127469451D01*
X161675735Y-127496487D01*
X161696427Y-127517179D01*
X161723463Y-127528378D01*
X161752727Y-127528378D01*
X161779763Y-127517179D01*
X161800455Y-127496487D01*
X161811654Y-127469451D01*
X161813095Y-127454819D01*
X161813095Y-127053628D01*
X161937141Y-127053628D01*
X162248081Y-127497829D01*
X162257652Y-127508989D01*
X162282331Y-127524716D01*
X162311148Y-127529802D01*
X162339719Y-127523472D01*
X162363693Y-127506690D01*
X162379420Y-127482012D01*
X162384505Y-127453194D01*
X162378176Y-127424623D01*
X162370966Y-127411810D01*
X162120162Y-127053518D01*
X162133679Y-127052187D01*
X162136168Y-127051155D01*
X162138856Y-127050965D01*
X162152588Y-127045710D01*
X162247826Y-126998091D01*
X162254125Y-126994126D01*
X162255953Y-126993369D01*
X162258009Y-126991680D01*
X162260269Y-126990259D01*
X162261568Y-126988760D01*
X162267318Y-126984042D01*
X162314937Y-126936423D01*
X162319655Y-126930673D01*
X162321154Y-126929374D01*
X162322575Y-126927114D01*
X162324264Y-126925058D01*
X162325021Y-126923230D01*
X162328986Y-126916931D01*
X162376605Y-126821693D01*
X162381860Y-126807962D01*
X162382051Y-126805272D01*
X162383082Y-126802784D01*
X162384523Y-126788152D01*
X162384523Y-126645295D01*
X162383082Y-126630663D01*
X162382051Y-126628174D01*
X162381860Y-126625485D01*
X162376605Y-126611754D01*
X162328986Y-126516516D01*
X162325021Y-126510216D01*
X162324264Y-126508389D01*
X162322575Y-126506332D01*
X162321154Y-126504073D01*
X162319655Y-126502773D01*
X162314937Y-126497024D01*
X162267318Y-126449405D01*
X162261568Y-126444686D01*
X162260269Y-126443188D01*
X162258009Y-126441766D01*
X162255953Y-126440078D01*
X162254125Y-126439320D01*
X162247826Y-126435356D01*
X162152588Y-126387737D01*
X162138856Y-126382482D01*
X162136168Y-126382291D01*
X162133679Y-126381260D01*
X162119047Y-126379819D01*
X161738095Y-126379819D01*
X161723463Y-126381260D01*
X161696427Y-126392459D01*
X161675735Y-126413151D01*
X161664536Y-126440187D01*
X161663095Y-126454819D01*
X161366886Y-126454819D01*
X161346665Y-126437281D01*
X161333240Y-126431287D01*
X161190383Y-126383668D01*
X161183129Y-126382018D01*
X161181298Y-126381260D01*
X161178643Y-126380998D01*
X161176046Y-126380408D01*
X161174071Y-126380548D01*
X161166666Y-126379819D01*
X160928571Y-126379819D01*
X160913939Y-126381260D01*
X160911450Y-126382290D01*
X160908761Y-126382482D01*
X160895030Y-126387737D01*
X160799792Y-126435356D01*
X160793492Y-126439320D01*
X160791665Y-126440078D01*
X160789608Y-126441766D01*
X160787349Y-126443188D01*
X160786049Y-126444686D01*
X160780300Y-126449405D01*
X160732681Y-126497024D01*
X160727962Y-126502773D01*
X160726464Y-126504073D01*
X160725042Y-126506332D01*
X160723354Y-126508389D01*
X160722596Y-126510216D01*
X160718632Y-126516516D01*
X160671013Y-126611754D01*
X160665758Y-126625486D01*
X160665567Y-126628173D01*
X160664536Y-126630663D01*
X160663095Y-126645295D01*
X160384523Y-126645295D01*
X160384523Y-126454819D01*
X160383082Y-126440187D01*
X160371883Y-126413151D01*
X160351191Y-126392459D01*
X160324155Y-126381260D01*
X160294891Y-126381260D01*
X160267855Y-126392459D01*
X160247163Y-126413151D01*
X160235964Y-126440187D01*
X160234523Y-126454819D01*
X160234523Y-127246637D01*
X160200264Y-127315153D01*
X160169857Y-127345561D01*
X160101342Y-127379819D01*
X159946276Y-127379819D01*
X159877760Y-127345561D01*
X159847353Y-127315153D01*
X159813095Y-127246637D01*
X159813095Y-126454819D01*
X159811654Y-126440187D01*
X159800455Y-126413151D01*
X159779763Y-126392459D01*
X159752727Y-126381260D01*
X159723463Y-126381260D01*
X159696427Y-126392459D01*
X159675735Y-126413151D01*
X159664536Y-126440187D01*
X159663095Y-126454819D01*
X159551984Y-126454819D01*
X159551984Y-126268708D01*
X162495634Y-126268708D01*
X162495634Y-127640930D01*
G37*
G36*
X164007953Y-126564077D02*
G01*
X164038360Y-126594484D01*
X164072618Y-126663000D01*
X164072618Y-126770447D01*
X164038360Y-126838963D01*
X164007953Y-126869370D01*
X163939437Y-126903628D01*
X163651190Y-126903628D01*
X163651190Y-126529819D01*
X163939437Y-126529819D01*
X164007953Y-126564077D01*
G37*
G36*
X167951336Y-127640930D02*
G01*
X163390079Y-127640930D01*
X163390079Y-126454819D01*
X163501190Y-126454819D01*
X163501190Y-127454819D01*
X163502631Y-127469451D01*
X163513830Y-127496487D01*
X163534522Y-127517179D01*
X163561558Y-127528378D01*
X163590822Y-127528378D01*
X163617858Y-127517179D01*
X163638550Y-127496487D01*
X163649749Y-127469451D01*
X163651190Y-127454819D01*
X163651190Y-127053628D01*
X163775236Y-127053628D01*
X164086176Y-127497829D01*
X164095747Y-127508989D01*
X164120426Y-127524716D01*
X164149243Y-127529802D01*
X164177814Y-127523472D01*
X164201788Y-127506690D01*
X164217515Y-127482012D01*
X164222600Y-127453194D01*
X164216271Y-127424623D01*
X164209061Y-127411810D01*
X163958257Y-127053518D01*
X163971774Y-127052187D01*
X163974263Y-127051155D01*
X163976951Y-127050965D01*
X163990683Y-127045710D01*
X164085921Y-126998091D01*
X164092220Y-126994126D01*
X164094048Y-126993369D01*
X164096104Y-126991680D01*
X164098364Y-126990259D01*
X164099663Y-126988760D01*
X164105413Y-126984042D01*
X164153032Y-126936423D01*
X164157750Y-126930673D01*
X164159249Y-126929374D01*
X164160670Y-126927114D01*
X164162359Y-126925058D01*
X164163116Y-126923230D01*
X164167081Y-126916931D01*
X164214700Y-126821693D01*
X164219955Y-126807962D01*
X164220146Y-126805272D01*
X164221177Y-126802784D01*
X164222618Y-126788152D01*
X164222618Y-126645295D01*
X164221177Y-126630663D01*
X164220146Y-126628174D01*
X164219955Y-126625485D01*
X164214700Y-126611754D01*
X164167081Y-126516516D01*
X164163116Y-126510216D01*
X164162359Y-126508389D01*
X164160670Y-126506332D01*
X164159249Y-126504073D01*
X164157750Y-126502773D01*
X164153032Y-126497024D01*
X164110827Y-126454819D01*
X164501190Y-126454819D01*
X164501190Y-127454819D01*
X164502631Y-127469451D01*
X164513830Y-127496487D01*
X164534522Y-127517179D01*
X164561558Y-127528378D01*
X164576190Y-127529819D01*
X165052380Y-127529819D01*
X165067012Y-127528378D01*
X165094048Y-127517179D01*
X165114740Y-127496487D01*
X165125939Y-127469451D01*
X165125939Y-127440187D01*
X165114740Y-127413151D01*
X165094048Y-127392459D01*
X165067012Y-127381260D01*
X165052380Y-127379819D01*
X164651190Y-127379819D01*
X164651190Y-127006009D01*
X164909523Y-127006009D01*
X164924155Y-127004568D01*
X164951191Y-126993369D01*
X164971883Y-126972677D01*
X164983082Y-126945641D01*
X164983082Y-126916377D01*
X164971883Y-126889341D01*
X164951191Y-126868649D01*
X164924155Y-126857450D01*
X164909523Y-126856009D01*
X164651190Y-126856009D01*
X164651190Y-126645295D01*
X165358333Y-126645295D01*
X165358333Y-126740533D01*
X165359774Y-126755165D01*
X165360805Y-126757654D01*
X165360996Y-126760342D01*
X165366251Y-126774074D01*
X165413870Y-126869312D01*
X165417834Y-126875611D01*
X165418592Y-126877439D01*
X165420280Y-126879495D01*
X165421702Y-126881755D01*
X165423200Y-126883054D01*
X165427919Y-126888804D01*
X165475538Y-126936423D01*
X165481287Y-126941141D01*
X165482587Y-126942640D01*
X165484846Y-126944061D01*
X165486903Y-126945750D01*
X165488730Y-126946507D01*
X165495030Y-126950472D01*
X165590268Y-126998091D01*
X165591337Y-126998500D01*
X165591773Y-126998823D01*
X165597909Y-127001015D01*
X165603999Y-127003346D01*
X165604539Y-127003384D01*
X165605619Y-127003770D01*
X165788109Y-127049392D01*
X165865096Y-127087886D01*
X165895503Y-127118293D01*
X165929761Y-127186809D01*
X165929761Y-127246637D01*
X165895502Y-127315153D01*
X165865095Y-127345561D01*
X165796580Y-127379819D01*
X165588360Y-127379819D01*
X165457050Y-127336049D01*
X165442713Y-127332789D01*
X165413523Y-127334864D01*
X165387350Y-127347950D01*
X165368176Y-127370057D01*
X165358922Y-127397820D01*
X165360997Y-127427010D01*
X165374083Y-127453183D01*
X165396190Y-127472357D01*
X165409616Y-127478351D01*
X165552472Y-127525970D01*
X165559727Y-127527619D01*
X165561558Y-127528378D01*
X165564211Y-127528639D01*
X165566809Y-127529230D01*
X165568783Y-127529089D01*
X165576190Y-127529819D01*
X165814285Y-127529819D01*
X165828917Y-127528378D01*
X165831406Y-127527346D01*
X165834094Y-127527156D01*
X165847826Y-127521901D01*
X165943064Y-127474282D01*
X165949363Y-127470317D01*
X165951191Y-127469560D01*
X165953247Y-127467872D01*
X165955507Y-127466450D01*
X165956807Y-127464950D01*
X165962557Y-127460232D01*
X166010175Y-127412613D01*
X166014893Y-127406863D01*
X166016392Y-127405564D01*
X166017813Y-127403305D01*
X166019503Y-127401247D01*
X166020260Y-127399417D01*
X166024224Y-127393121D01*
X166071843Y-127297883D01*
X166077098Y-127284152D01*
X166077289Y-127281462D01*
X166078320Y-127278974D01*
X166079761Y-127264342D01*
X166079761Y-127169104D01*
X166078320Y-127154472D01*
X166077289Y-127151983D01*
X166077098Y-127149294D01*
X166071843Y-127135563D01*
X166024224Y-127040325D01*
X166020259Y-127034025D01*
X166019502Y-127032198D01*
X166017813Y-127030141D01*
X166016392Y-127027882D01*
X166014893Y-127026582D01*
X166010175Y-127020833D01*
X165962556Y-126973214D01*
X165956806Y-126968495D01*
X165955507Y-126966997D01*
X165953247Y-126965575D01*
X165951191Y-126963887D01*
X165949363Y-126963129D01*
X165943064Y-126959165D01*
X165847826Y-126911546D01*
X165846756Y-126911136D01*
X165846321Y-126910814D01*
X165840175Y-126908618D01*
X165834094Y-126906291D01*
X165833554Y-126906252D01*
X165832475Y-126905867D01*
X165649985Y-126860244D01*
X165572998Y-126821751D01*
X165542591Y-126791344D01*
X165508333Y-126722828D01*
X165508333Y-126663000D01*
X165542591Y-126594484D01*
X165572998Y-126564077D01*
X165641514Y-126529819D01*
X165849734Y-126529819D01*
X165981043Y-126573589D01*
X165995380Y-126576849D01*
X166024570Y-126574774D01*
X166050744Y-126561688D01*
X166069918Y-126539580D01*
X166079172Y-126511818D01*
X166077097Y-126482628D01*
X166064010Y-126456455D01*
X166062124Y-126454819D01*
X166358333Y-126454819D01*
X166358333Y-127454819D01*
X166359774Y-127469451D01*
X166370973Y-127496487D01*
X166391665Y-127517179D01*
X166418701Y-127528378D01*
X166433333Y-127529819D01*
X166909523Y-127529819D01*
X166924155Y-127528378D01*
X166951191Y-127517179D01*
X166971883Y-127496487D01*
X166983082Y-127469451D01*
X166983082Y-127440187D01*
X166971883Y-127413151D01*
X166951191Y-127392459D01*
X166924155Y-127381260D01*
X166909523Y-127379819D01*
X166508333Y-127379819D01*
X166508333Y-127006009D01*
X166766666Y-127006009D01*
X166781298Y-127004568D01*
X166808334Y-126993369D01*
X166829026Y-126972677D01*
X166840225Y-126945641D01*
X166840225Y-126916377D01*
X166829026Y-126889341D01*
X166808334Y-126868649D01*
X166781298Y-126857450D01*
X166766666Y-126856009D01*
X166508333Y-126856009D01*
X166508333Y-126529819D01*
X166909523Y-126529819D01*
X166924155Y-126528378D01*
X166951191Y-126517179D01*
X166971883Y-126496487D01*
X166983082Y-126469451D01*
X166983082Y-126440187D01*
X167121679Y-126440187D01*
X167121679Y-126469451D01*
X167132878Y-126496487D01*
X167153570Y-126517179D01*
X167180606Y-126528378D01*
X167195238Y-126529819D01*
X167405952Y-126529819D01*
X167405952Y-127454819D01*
X167407393Y-127469451D01*
X167418592Y-127496487D01*
X167439284Y-127517179D01*
X167466320Y-127528378D01*
X167495584Y-127528378D01*
X167522620Y-127517179D01*
X167543312Y-127496487D01*
X167554511Y-127469451D01*
X167555952Y-127454819D01*
X167555952Y-126529819D01*
X167766666Y-126529819D01*
X167781298Y-126528378D01*
X167808334Y-126517179D01*
X167829026Y-126496487D01*
X167840225Y-126469451D01*
X167840225Y-126440187D01*
X167829026Y-126413151D01*
X167808334Y-126392459D01*
X167781298Y-126381260D01*
X167766666Y-126379819D01*
X167195238Y-126379819D01*
X167180606Y-126381260D01*
X167153570Y-126392459D01*
X167132878Y-126413151D01*
X167121679Y-126440187D01*
X166983082Y-126440187D01*
X166971883Y-126413151D01*
X166951191Y-126392459D01*
X166924155Y-126381260D01*
X166909523Y-126379819D01*
X166433333Y-126379819D01*
X166418701Y-126381260D01*
X166391665Y-126392459D01*
X166370973Y-126413151D01*
X166359774Y-126440187D01*
X166358333Y-126454819D01*
X166062124Y-126454819D01*
X166041903Y-126437281D01*
X166028478Y-126431287D01*
X165885621Y-126383668D01*
X165878367Y-126382018D01*
X165876536Y-126381260D01*
X165873881Y-126380998D01*
X165871284Y-126380408D01*
X165869309Y-126380548D01*
X165861904Y-126379819D01*
X165623809Y-126379819D01*
X165609177Y-126381260D01*
X165606688Y-126382290D01*
X165603999Y-126382482D01*
X165590268Y-126387737D01*
X165495030Y-126435356D01*
X165488730Y-126439320D01*
X165486903Y-126440078D01*
X165484846Y-126441766D01*
X165482587Y-126443188D01*
X165481287Y-126444686D01*
X165475538Y-126449405D01*
X165427919Y-126497024D01*
X165423200Y-126502773D01*
X165421702Y-126504073D01*
X165420280Y-126506332D01*
X165418592Y-126508389D01*
X165417834Y-126510216D01*
X165413870Y-126516516D01*
X165366251Y-126611754D01*
X165360996Y-126625486D01*
X165360805Y-126628173D01*
X165359774Y-126630663D01*
X165358333Y-126645295D01*
X164651190Y-126645295D01*
X164651190Y-126529819D01*
X165052380Y-126529819D01*
X165067012Y-126528378D01*
X165094048Y-126517179D01*
X165114740Y-126496487D01*
X165125939Y-126469451D01*
X165125939Y-126440187D01*
X165114740Y-126413151D01*
X165094048Y-126392459D01*
X165067012Y-126381260D01*
X165052380Y-126379819D01*
X164576190Y-126379819D01*
X164561558Y-126381260D01*
X164534522Y-126392459D01*
X164513830Y-126413151D01*
X164502631Y-126440187D01*
X164501190Y-126454819D01*
X164110827Y-126454819D01*
X164105413Y-126449405D01*
X164099663Y-126444686D01*
X164098364Y-126443188D01*
X164096104Y-126441766D01*
X164094048Y-126440078D01*
X164092220Y-126439320D01*
X164085921Y-126435356D01*
X163990683Y-126387737D01*
X163976951Y-126382482D01*
X163974263Y-126382291D01*
X163971774Y-126381260D01*
X163957142Y-126379819D01*
X163576190Y-126379819D01*
X163561558Y-126381260D01*
X163534522Y-126392459D01*
X163513830Y-126413151D01*
X163502631Y-126440187D01*
X163501190Y-126454819D01*
X163390079Y-126454819D01*
X163390079Y-126268708D01*
X167951336Y-126268708D01*
X167951336Y-127640930D01*
G37*
D10*
G36*
X171920459Y-135599757D02*
G01*
X171622400Y-135599757D01*
X171771429Y-135152669D01*
X171920459Y-135599757D01*
G37*
G36*
X172586919Y-136494995D02*
G01*
X167954762Y-136494995D01*
X167954762Y-134964042D01*
X168121429Y-134964042D01*
X168121429Y-135106900D01*
X168124311Y-135136164D01*
X168126373Y-135141142D01*
X168126755Y-135146518D01*
X168137265Y-135173982D01*
X168208693Y-135316839D01*
X168216621Y-135329434D01*
X168218137Y-135333093D01*
X168221516Y-135337210D01*
X168224358Y-135341725D01*
X168227352Y-135344321D01*
X168236792Y-135355824D01*
X168308221Y-135427252D01*
X168319721Y-135436690D01*
X168322318Y-135439684D01*
X168326830Y-135442524D01*
X168330951Y-135445906D01*
X168334610Y-135447421D01*
X168347204Y-135455349D01*
X168490060Y-135526778D01*
X168492202Y-135527597D01*
X168493072Y-135528242D01*
X168505343Y-135532626D01*
X168517524Y-135537287D01*
X168518604Y-135537363D01*
X168520763Y-135538135D01*
X168790501Y-135605569D01*
X168896860Y-135658748D01*
X168933864Y-135695753D01*
X168978572Y-135785167D01*
X168978572Y-135857203D01*
X168933864Y-135946617D01*
X168896861Y-135983621D01*
X168807448Y-136028328D01*
X168510058Y-136028328D01*
X168318863Y-135964597D01*
X168290189Y-135958077D01*
X168231809Y-135962227D01*
X168179462Y-135988401D01*
X168141114Y-136032615D01*
X168122606Y-136088140D01*
X168126756Y-136146520D01*
X168152930Y-136198867D01*
X168197144Y-136237215D01*
X168223995Y-136249203D01*
X168438281Y-136320631D01*
X168452793Y-136323930D01*
X168456451Y-136325446D01*
X168461753Y-136325968D01*
X168466955Y-136327151D01*
X168470909Y-136326869D01*
X168485715Y-136328328D01*
X168842857Y-136328328D01*
X168872121Y-136325446D01*
X168877099Y-136323383D01*
X168882475Y-136323002D01*
X168909938Y-136312492D01*
X169052797Y-136241064D01*
X169065391Y-136233135D01*
X169069051Y-136231620D01*
X169073171Y-136228238D01*
X169077682Y-136225399D01*
X169080276Y-136222407D01*
X169091782Y-136212965D01*
X169163210Y-136141536D01*
X169172648Y-136130035D01*
X169175642Y-136127439D01*
X169178482Y-136122926D01*
X169181864Y-136118806D01*
X169183379Y-136115146D01*
X169191307Y-136102553D01*
X169262736Y-135959697D01*
X169273245Y-135932233D01*
X169273626Y-135926858D01*
X169275690Y-135921878D01*
X169278572Y-135892614D01*
X169278572Y-135749757D01*
X169275690Y-135720493D01*
X169273626Y-135715512D01*
X169273245Y-135710138D01*
X169262736Y-135682674D01*
X169191307Y-135539818D01*
X169183379Y-135527224D01*
X169181864Y-135523565D01*
X169178482Y-135519444D01*
X169175642Y-135514932D01*
X169172648Y-135512335D01*
X169163210Y-135500835D01*
X169091782Y-135429406D01*
X169080279Y-135419966D01*
X169077683Y-135416972D01*
X169073168Y-135414130D01*
X169069051Y-135410751D01*
X169065392Y-135409235D01*
X169052797Y-135401307D01*
X168909939Y-135329878D01*
X168907798Y-135329058D01*
X168906928Y-135328414D01*
X168894672Y-135324035D01*
X168882476Y-135319368D01*
X168881392Y-135319291D01*
X168879237Y-135318521D01*
X168609499Y-135251086D01*
X168503139Y-135197906D01*
X168466134Y-135160901D01*
X168421429Y-135071490D01*
X168421429Y-134999451D01*
X168466134Y-134910040D01*
X168503139Y-134873035D01*
X168592553Y-134828328D01*
X168889946Y-134828328D01*
X169081137Y-134892059D01*
X169109811Y-134898579D01*
X169168191Y-134894430D01*
X169220538Y-134868256D01*
X169258886Y-134824042D01*
X169277394Y-134768518D01*
X169273245Y-134710138D01*
X169257340Y-134678328D01*
X169621428Y-134678328D01*
X169621428Y-136178328D01*
X169624310Y-136207592D01*
X169646708Y-136261664D01*
X169688092Y-136303048D01*
X169742164Y-136325446D01*
X169800692Y-136325446D01*
X169854764Y-136303048D01*
X169896148Y-136261664D01*
X169918546Y-136207592D01*
X169921428Y-136178328D01*
X169921428Y-135354461D01*
X170135501Y-135813190D01*
X170141847Y-135823903D01*
X170143168Y-135827535D01*
X170145519Y-135830103D01*
X170150488Y-135838490D01*
X170167293Y-135853880D01*
X170182695Y-135870698D01*
X170188738Y-135873518D01*
X170193651Y-135878017D01*
X170215071Y-135885806D01*
X170235733Y-135895448D01*
X170242390Y-135895740D01*
X170248653Y-135898018D01*
X170271432Y-135897017D01*
X170294203Y-135898018D01*
X170300462Y-135895741D01*
X170307124Y-135895449D01*
X170327791Y-135885804D01*
X170349206Y-135878017D01*
X170354119Y-135873517D01*
X170360161Y-135870698D01*
X170375556Y-135853885D01*
X170392369Y-135838490D01*
X170397337Y-135830101D01*
X170399688Y-135827535D01*
X170401007Y-135823905D01*
X170407355Y-135813190D01*
X170621428Y-135354462D01*
X170621428Y-136178328D01*
X170624310Y-136207592D01*
X170646708Y-136261664D01*
X170688092Y-136303048D01*
X170742164Y-136325446D01*
X170800692Y-136325446D01*
X170854764Y-136303048D01*
X170896148Y-136261664D01*
X170918546Y-136207592D01*
X170921428Y-136178328D01*
X170921428Y-136159567D01*
X171122607Y-136159567D01*
X171126756Y-136217948D01*
X171152930Y-136270295D01*
X171197144Y-136308642D01*
X171252668Y-136327150D01*
X171311049Y-136323001D01*
X171363396Y-136296827D01*
X171401743Y-136252613D01*
X171413731Y-136225762D01*
X171522400Y-135899757D01*
X172020459Y-135899757D01*
X172129127Y-136225762D01*
X172141115Y-136252613D01*
X172179462Y-136296828D01*
X172231810Y-136323001D01*
X172290190Y-136327151D01*
X172345714Y-136308642D01*
X172389928Y-136270295D01*
X172416102Y-136217948D01*
X172420252Y-136159568D01*
X172413732Y-136130894D01*
X171913731Y-134630894D01*
X171901743Y-134604043D01*
X171894720Y-134595946D01*
X171889928Y-134586361D01*
X171875719Y-134574037D01*
X171863396Y-134559829D01*
X171853810Y-134555036D01*
X171845714Y-134548014D01*
X171827870Y-134542065D01*
X171811049Y-134533655D01*
X171800360Y-134532895D01*
X171790190Y-134529505D01*
X171771424Y-134530838D01*
X171752668Y-134529506D01*
X171742500Y-134532895D01*
X171731810Y-134533655D01*
X171714986Y-134542066D01*
X171697144Y-134548014D01*
X171689049Y-134555034D01*
X171679462Y-134559828D01*
X171667136Y-134574039D01*
X171652930Y-134586361D01*
X171648137Y-134595945D01*
X171641115Y-134604043D01*
X171629127Y-134630894D01*
X171129127Y-136130894D01*
X171122607Y-136159567D01*
X170921428Y-136159567D01*
X170921428Y-134678328D01*
X170919533Y-134659090D01*
X170919689Y-134655552D01*
X170918997Y-134653651D01*
X170918546Y-134649064D01*
X170908585Y-134625018D01*
X170899688Y-134600550D01*
X170897428Y-134598082D01*
X170896148Y-134594992D01*
X170877750Y-134576594D01*
X170860161Y-134557387D01*
X170857127Y-134555971D01*
X170854764Y-134553608D01*
X170830733Y-134543654D01*
X170807124Y-134532636D01*
X170803779Y-134532489D01*
X170800692Y-134531210D01*
X170774668Y-134531210D01*
X170748653Y-134530067D01*
X170745510Y-134531210D01*
X170742164Y-134531210D01*
X170718111Y-134541173D01*
X170693651Y-134550068D01*
X170691183Y-134552327D01*
X170688092Y-134553608D01*
X170669683Y-134572016D01*
X170650488Y-134589595D01*
X170648138Y-134593561D01*
X170646708Y-134594992D01*
X170645352Y-134598264D01*
X170635501Y-134614895D01*
X170271428Y-135395051D01*
X169907355Y-134614895D01*
X169897501Y-134598260D01*
X169896148Y-134594992D01*
X169894719Y-134593563D01*
X169892369Y-134589595D01*
X169873161Y-134572005D01*
X169854764Y-134553608D01*
X169851673Y-134552327D01*
X169849206Y-134550068D01*
X169824740Y-134541171D01*
X169800692Y-134531210D01*
X169797346Y-134531210D01*
X169794203Y-134530067D01*
X169768199Y-134531210D01*
X169742164Y-134531210D01*
X169739073Y-134532490D01*
X169735733Y-134532637D01*
X169712137Y-134543647D01*
X169688092Y-134553608D01*
X169685728Y-134555971D01*
X169682695Y-134557387D01*
X169665105Y-134576594D01*
X169646708Y-134594992D01*
X169645427Y-134598082D01*
X169643168Y-134600550D01*
X169634271Y-134625015D01*
X169624310Y-134649064D01*
X169623858Y-134653652D01*
X169623167Y-134655553D01*
X169623322Y-134659091D01*
X169621428Y-134678328D01*
X169257340Y-134678328D01*
X169247071Y-134657790D01*
X169202857Y-134619443D01*
X169176006Y-134607454D01*
X168961720Y-134536026D01*
X168947212Y-134532727D01*
X168943550Y-134531210D01*
X168938241Y-134530687D01*
X168933047Y-134529506D01*
X168929097Y-134529786D01*
X168914286Y-134528328D01*
X168557143Y-134528328D01*
X168527879Y-134531210D01*
X168522898Y-134533273D01*
X168517524Y-134533655D01*
X168490060Y-134544164D01*
X168347204Y-134615593D01*
X168334610Y-134623520D01*
X168330951Y-134625036D01*
X168326830Y-134628417D01*
X168322318Y-134631258D01*
X168319721Y-134634251D01*
X168308221Y-134643690D01*
X168236792Y-134715118D01*
X168227352Y-134726620D01*
X168224358Y-134729217D01*
X168221516Y-134733731D01*
X168218137Y-134737849D01*
X168216621Y-134741507D01*
X168208693Y-134754103D01*
X168137265Y-134896960D01*
X168126755Y-134924424D01*
X168126373Y-134929799D01*
X168124311Y-134934778D01*
X168121429Y-134964042D01*
X167954762Y-134964042D01*
X167954762Y-134361661D01*
X172586919Y-134361661D01*
X172586919Y-136494995D01*
G37*
G36*
X144889958Y-144151848D02*
G01*
X144926963Y-144188853D01*
X144971671Y-144278267D01*
X144971671Y-144493161D01*
X144957537Y-144521429D01*
X144285805Y-144521429D01*
X144271671Y-144493161D01*
X144271671Y-144278267D01*
X144316378Y-144188852D01*
X144353382Y-144151848D01*
X144442795Y-144107143D01*
X144800547Y-144107143D01*
X144889958Y-144151848D01*
G37*
G36*
X144971671Y-141492553D02*
G01*
X144971671Y-141707446D01*
X144926963Y-141796860D01*
X144889958Y-141833865D01*
X144800547Y-141878571D01*
X144442795Y-141878571D01*
X144353382Y-141833865D01*
X144316378Y-141796861D01*
X144271671Y-141707446D01*
X144271671Y-141492553D01*
X144285805Y-141464285D01*
X144957537Y-141464285D01*
X144971671Y-141492553D01*
G37*
G36*
X144938438Y-140140374D02*
G01*
X144971671Y-140206839D01*
X144971671Y-140421732D01*
X144938439Y-140488196D01*
X144886087Y-140514372D01*
X144804641Y-140107143D01*
X144871975Y-140107143D01*
X144938438Y-140140374D01*
G37*
G36*
X145471671Y-138861371D02*
G01*
X145419137Y-139018972D01*
X145318531Y-139119578D01*
X145212171Y-139172759D01*
X144960350Y-139235714D01*
X144782992Y-139235714D01*
X144531170Y-139172758D01*
X144424811Y-139119579D01*
X144324204Y-139018972D01*
X144271671Y-138861373D01*
X144271671Y-138678571D01*
X145471671Y-138678571D01*
X145471671Y-138861371D01*
G37*
G36*
X145938338Y-144988096D02*
G01*
X143305004Y-144988096D01*
X143305004Y-144171429D01*
X143471671Y-144171429D01*
X143471671Y-144385714D01*
X143474553Y-144414978D01*
X143476616Y-144419958D01*
X143476998Y-144425333D01*
X143487507Y-144452796D01*
X143558936Y-144595653D01*
X143566864Y-144608248D01*
X143568379Y-144611905D01*
X143571758Y-144616022D01*
X143574601Y-144620539D01*
X143577595Y-144623136D01*
X143587033Y-144634636D01*
X143658461Y-144706065D01*
X143669962Y-144715504D01*
X143672560Y-144718499D01*
X143677074Y-144721340D01*
X143681192Y-144724720D01*
X143684849Y-144726235D01*
X143697446Y-144734164D01*
X143840302Y-144805593D01*
X143867766Y-144816102D01*
X143873140Y-144816483D01*
X143878121Y-144818547D01*
X143907385Y-144821429D01*
X145121671Y-144821429D01*
X145150935Y-144818547D01*
X145205007Y-144796149D01*
X145246391Y-144754765D01*
X145268789Y-144700693D01*
X145268789Y-144642165D01*
X145252382Y-144602557D01*
X145255835Y-144595653D01*
X145266345Y-144568190D01*
X145266727Y-144562812D01*
X145268789Y-144557835D01*
X145271671Y-144528571D01*
X145271671Y-144242857D01*
X145268789Y-144213593D01*
X145266725Y-144208612D01*
X145266344Y-144203238D01*
X145255835Y-144175774D01*
X145184406Y-144032918D01*
X145176478Y-144020324D01*
X145174963Y-144016665D01*
X145171581Y-144012544D01*
X145168741Y-144008032D01*
X145165747Y-144005435D01*
X145156309Y-143993935D01*
X145084881Y-143922506D01*
X145073378Y-143913066D01*
X145070782Y-143910072D01*
X145066267Y-143907230D01*
X145062150Y-143903851D01*
X145058491Y-143902335D01*
X145045896Y-143894407D01*
X144903039Y-143822979D01*
X144875575Y-143812469D01*
X144870199Y-143812087D01*
X144865221Y-143810025D01*
X144835957Y-143807143D01*
X144407385Y-143807143D01*
X144378121Y-143810025D01*
X144373142Y-143812087D01*
X144367767Y-143812469D01*
X144340304Y-143822979D01*
X144197446Y-143894407D01*
X144184851Y-143902335D01*
X144181192Y-143903851D01*
X144177071Y-143907232D01*
X144172561Y-143910072D01*
X144169966Y-143913063D01*
X144158461Y-143922506D01*
X144087033Y-143993935D01*
X144077595Y-144005434D01*
X144074601Y-144008032D01*
X144071758Y-144012548D01*
X144068379Y-144016666D01*
X144066864Y-144020322D01*
X144058936Y-144032918D01*
X143987507Y-144175775D01*
X143976998Y-144203238D01*
X143976616Y-144208612D01*
X143974553Y-144213593D01*
X143971671Y-144242857D01*
X143971671Y-144521429D01*
X143942795Y-144521429D01*
X143853382Y-144476722D01*
X143816378Y-144439718D01*
X143771671Y-144350303D01*
X143771671Y-144206839D01*
X143827264Y-144095653D01*
X143837774Y-144068190D01*
X143841922Y-144009810D01*
X143823414Y-143954287D01*
X143785068Y-143910072D01*
X143732719Y-143883897D01*
X143674338Y-143879749D01*
X143618816Y-143898257D01*
X143574601Y-143936603D01*
X143558936Y-143961489D01*
X143487507Y-144104347D01*
X143476997Y-144131810D01*
X143476614Y-144137187D01*
X143474553Y-144142165D01*
X143471671Y-144171429D01*
X143305004Y-144171429D01*
X143305004Y-142885714D01*
X143971671Y-142885714D01*
X143971671Y-143100000D01*
X143974553Y-143129264D01*
X143976616Y-143134244D01*
X143976998Y-143139619D01*
X143987507Y-143167082D01*
X144011944Y-143215956D01*
X143996951Y-143230950D01*
X143974553Y-143285022D01*
X143974553Y-143343550D01*
X143996951Y-143397622D01*
X144038335Y-143439006D01*
X144092407Y-143461404D01*
X144121671Y-143464286D01*
X145121671Y-143464286D01*
X145150935Y-143461404D01*
X145205007Y-143439006D01*
X145246391Y-143397622D01*
X145268789Y-143343550D01*
X145268789Y-143285022D01*
X145246391Y-143230950D01*
X145205007Y-143189566D01*
X145150935Y-143167168D01*
X145121671Y-143164286D01*
X144326661Y-143164286D01*
X144316378Y-143154004D01*
X144271671Y-143064589D01*
X144271671Y-142921124D01*
X144304903Y-142854659D01*
X144371367Y-142821428D01*
X145121671Y-142821428D01*
X145150935Y-142818546D01*
X145205007Y-142796148D01*
X145246391Y-142754764D01*
X145268789Y-142700692D01*
X145268789Y-142642164D01*
X145246391Y-142588092D01*
X145205007Y-142546708D01*
X145150935Y-142524310D01*
X145121671Y-142521428D01*
X144335957Y-142521428D01*
X144306693Y-142524310D01*
X144301712Y-142526373D01*
X144296338Y-142526755D01*
X144268874Y-142537264D01*
X144126018Y-142608693D01*
X144121123Y-142611773D01*
X144118816Y-142612543D01*
X144115941Y-142615035D01*
X144101132Y-142624358D01*
X144088808Y-142638567D01*
X144074601Y-142650889D01*
X144065281Y-142665694D01*
X144062785Y-142668573D01*
X144062014Y-142670884D01*
X144058936Y-142675775D01*
X143987507Y-142818632D01*
X143976998Y-142846095D01*
X143976616Y-142851469D01*
X143974553Y-142856450D01*
X143971671Y-142885714D01*
X143305004Y-142885714D01*
X143305004Y-141457143D01*
X143971671Y-141457143D01*
X143971671Y-141742857D01*
X143974553Y-141772121D01*
X143976616Y-141777101D01*
X143976998Y-141782476D01*
X143987507Y-141809939D01*
X144058936Y-141952796D01*
X144066864Y-141965391D01*
X144068379Y-141969048D01*
X144071758Y-141973165D01*
X144074601Y-141977682D01*
X144077595Y-141980279D01*
X144087033Y-141991779D01*
X144158461Y-142063208D01*
X144169966Y-142072650D01*
X144172561Y-142075642D01*
X144177071Y-142078481D01*
X144181192Y-142081863D01*
X144184851Y-142083378D01*
X144197446Y-142091307D01*
X144340304Y-142162735D01*
X144367767Y-142173245D01*
X144373142Y-142173626D01*
X144378121Y-142175689D01*
X144407385Y-142178571D01*
X144835957Y-142178571D01*
X144865221Y-142175689D01*
X144870199Y-142173626D01*
X144875575Y-142173245D01*
X144903039Y-142162735D01*
X145045896Y-142091307D01*
X145058491Y-142083378D01*
X145062150Y-142081863D01*
X145066267Y-142078483D01*
X145070782Y-142075642D01*
X145073378Y-142072647D01*
X145084881Y-142063208D01*
X145156309Y-141991779D01*
X145165747Y-141980278D01*
X145168741Y-141977682D01*
X145171581Y-141973169D01*
X145174963Y-141969049D01*
X145176478Y-141965389D01*
X145184406Y-141952796D01*
X145255835Y-141809940D01*
X145266344Y-141782476D01*
X145266725Y-141777101D01*
X145268789Y-141772121D01*
X145271671Y-141742857D01*
X145271671Y-141464285D01*
X145621671Y-141464285D01*
X145650935Y-141461403D01*
X145705007Y-141439005D01*
X145746391Y-141397621D01*
X145768789Y-141343549D01*
X145768789Y-141285021D01*
X145746391Y-141230949D01*
X145705007Y-141189565D01*
X145650935Y-141167167D01*
X145621671Y-141164285D01*
X144121671Y-141164285D01*
X144092407Y-141167167D01*
X144038335Y-141189565D01*
X143996951Y-141230949D01*
X143974553Y-141285021D01*
X143974553Y-141343549D01*
X143990959Y-141383156D01*
X143987507Y-141390061D01*
X143976997Y-141417524D01*
X143976614Y-141422901D01*
X143974553Y-141427879D01*
X143971671Y-141457143D01*
X143305004Y-141457143D01*
X143305004Y-140171429D01*
X143971671Y-140171429D01*
X143971671Y-140457143D01*
X143974553Y-140486407D01*
X143976616Y-140491387D01*
X143976998Y-140496762D01*
X143987507Y-140524225D01*
X144058936Y-140667082D01*
X144074601Y-140691968D01*
X144118816Y-140730314D01*
X144174339Y-140748822D01*
X144232719Y-140744673D01*
X144285068Y-140718499D01*
X144323415Y-140674283D01*
X144341922Y-140618761D01*
X144337773Y-140560381D01*
X144327264Y-140532917D01*
X144271671Y-140421732D01*
X144271671Y-140206839D01*
X144304903Y-140140374D01*
X144371367Y-140107143D01*
X144498701Y-140107143D01*
X144617441Y-140700847D01*
X144626006Y-140728977D01*
X144634184Y-140741188D01*
X144639808Y-140754765D01*
X144650309Y-140765266D01*
X144658574Y-140777607D01*
X144670802Y-140785759D01*
X144681192Y-140796149D01*
X144694911Y-140801831D01*
X144707270Y-140810071D01*
X144721687Y-140812923D01*
X144735264Y-140818547D01*
X144764528Y-140821429D01*
X144764680Y-140821429D01*
X144764685Y-140821430D01*
X144764690Y-140821429D01*
X144907385Y-140821429D01*
X144936649Y-140818547D01*
X144941629Y-140816483D01*
X144947004Y-140816102D01*
X144974467Y-140805593D01*
X145117324Y-140734164D01*
X145122214Y-140731085D01*
X145124526Y-140730315D01*
X145127404Y-140727818D01*
X145142210Y-140718499D01*
X145154531Y-140704291D01*
X145168741Y-140691968D01*
X145178063Y-140677158D01*
X145180556Y-140674284D01*
X145181325Y-140671976D01*
X145184406Y-140667082D01*
X145255835Y-140524226D01*
X145266344Y-140496762D01*
X145266725Y-140491387D01*
X145268789Y-140486407D01*
X145271671Y-140457143D01*
X145271671Y-140171429D01*
X145268789Y-140142165D01*
X145266727Y-140137187D01*
X145266345Y-140131810D01*
X145255835Y-140104347D01*
X145184406Y-139961489D01*
X145181325Y-139956594D01*
X145180556Y-139954287D01*
X145178063Y-139951412D01*
X145168741Y-139936603D01*
X145154532Y-139924280D01*
X145142210Y-139910072D01*
X145127400Y-139900749D01*
X145124526Y-139898257D01*
X145122218Y-139897487D01*
X145117324Y-139894407D01*
X144974467Y-139822979D01*
X144947003Y-139812469D01*
X144941627Y-139812087D01*
X144936649Y-139810025D01*
X144907385Y-139807143D01*
X144335957Y-139807143D01*
X144306693Y-139810025D01*
X144301714Y-139812087D01*
X144296339Y-139812469D01*
X144268876Y-139822979D01*
X144126018Y-139894407D01*
X144121124Y-139897487D01*
X144118816Y-139898257D01*
X144115940Y-139900750D01*
X144101133Y-139910072D01*
X144088812Y-139924278D01*
X144074601Y-139936603D01*
X144065278Y-139951413D01*
X144062786Y-139954287D01*
X144062016Y-139956594D01*
X144058936Y-139961489D01*
X143987507Y-140104347D01*
X143976997Y-140131810D01*
X143976614Y-140137187D01*
X143974553Y-140142165D01*
X143971671Y-140171429D01*
X143305004Y-140171429D01*
X143305004Y-138528571D01*
X143971671Y-138528571D01*
X143971671Y-138885714D01*
X143973129Y-138900525D01*
X143972849Y-138904475D01*
X143974030Y-138909669D01*
X143974553Y-138914978D01*
X143976070Y-138918640D01*
X143979369Y-138933148D01*
X144050797Y-139147434D01*
X144062786Y-139174285D01*
X144066316Y-139178355D01*
X144068379Y-139183335D01*
X144087034Y-139206066D01*
X144229891Y-139348923D01*
X144241393Y-139358363D01*
X144243989Y-139361356D01*
X144248498Y-139364194D01*
X144252621Y-139367578D01*
X144256283Y-139369094D01*
X144268875Y-139377021D01*
X144411731Y-139448450D01*
X144413873Y-139449269D01*
X144414743Y-139449914D01*
X144427014Y-139454298D01*
X144439195Y-139458959D01*
X144440275Y-139459035D01*
X144442434Y-139459807D01*
X144728148Y-139531235D01*
X144733219Y-139531984D01*
X144735264Y-139532832D01*
X144746286Y-139533917D01*
X144757237Y-139535537D01*
X144759424Y-139535211D01*
X144764528Y-139535714D01*
X144978814Y-139535714D01*
X144983917Y-139535211D01*
X144986105Y-139535537D01*
X144997055Y-139533917D01*
X145008078Y-139532832D01*
X145010122Y-139531984D01*
X145015194Y-139531235D01*
X145300908Y-139459807D01*
X145303066Y-139459035D01*
X145304147Y-139458959D01*
X145316321Y-139454300D01*
X145328599Y-139449914D01*
X145329469Y-139449269D01*
X145331610Y-139448450D01*
X145474467Y-139377021D01*
X145487060Y-139369093D01*
X145490720Y-139367578D01*
X145494839Y-139364196D01*
X145499353Y-139361356D01*
X145501949Y-139358362D01*
X145513451Y-139348923D01*
X145656308Y-139206066D01*
X145674963Y-139183336D01*
X145677026Y-139178354D01*
X145680556Y-139174285D01*
X145692544Y-139147434D01*
X145763973Y-138933149D01*
X145767272Y-138918639D01*
X145768789Y-138914978D01*
X145769311Y-138909669D01*
X145770493Y-138904475D01*
X145770212Y-138900525D01*
X145771671Y-138885714D01*
X145771671Y-138528571D01*
X145768789Y-138499307D01*
X145746391Y-138445235D01*
X145705007Y-138403851D01*
X145650935Y-138381453D01*
X145621671Y-138378571D01*
X144121671Y-138378571D01*
X144092407Y-138381453D01*
X144038335Y-138403851D01*
X143996951Y-138445235D01*
X143974553Y-138499307D01*
X143971671Y-138528571D01*
X143305004Y-138528571D01*
X143305004Y-138211904D01*
X145938338Y-138211904D01*
X145938338Y-144988096D01*
G37*
D12*
X139050000Y-134300000D02*
G75*
G02*
X138550000Y-134300000I-250000J0D01*
G01*
X138550000Y-134300000D02*
G75*
G02*
X139050000Y-134300000I250000J0D01*
G01*
D11*
X146784819Y-154833333D02*
X147499104Y-154833333D01*
X147499104Y-154833333D02*
X147641961Y-154880952D01*
X147641961Y-154880952D02*
X147737200Y-154976190D01*
X147737200Y-154976190D02*
X147784819Y-155119047D01*
X147784819Y-155119047D02*
X147784819Y-155214285D01*
X146784819Y-154452380D02*
X146784819Y-153785714D01*
X146784819Y-153785714D02*
X147784819Y-154214285D01*
D13*
G04 #@! TO.C,J3*
X143263900Y-134809000D02*
X138006100Y-134809000D01*
X138006100Y-134809000D02*
X138006100Y-148271000D01*
X143263900Y-148271000D02*
X143263900Y-134809000D01*
X138006100Y-148271000D02*
X143263900Y-148271000D01*
D12*
X137650000Y-139000000D02*
G75*
G02*
X137150000Y-139000000I-250000J0D01*
G01*
X137150000Y-139000000D02*
G75*
G02*
X137650000Y-139000000I250000J0D01*
G01*
D14*
G04 #@! TO.C,J7*
X148330000Y-155830000D02*
X148330000Y-154500000D01*
X149660000Y-155830000D02*
X148330000Y-155830000D01*
X150930000Y-155830000D02*
X171310000Y-155830000D01*
X150930000Y-155830000D02*
X150930000Y-153170000D01*
X171310000Y-155830000D02*
X171310000Y-153170000D01*
X150930000Y-153170000D02*
X171310000Y-153170000D01*
G04 #@! TO.C,U3*
D15*
X151467500Y-136295000D02*
X163467500Y-136295000D01*
X163467500Y-148295000D01*
X151467500Y-148295000D01*
X151467500Y-136295000D01*
D12*
X151217500Y-135795000D02*
G75*
G02*
X150717500Y-135795000I-250000J0D01*
G01*
X150717500Y-135795000D02*
G75*
G02*
X151217500Y-135795000I250000J0D01*
G01*
D14*
G04 #@! TO.C,L1*
X165990000Y-143375279D02*
X165990000Y-143049721D01*
X167010000Y-143375279D02*
X167010000Y-143049721D01*
G04 #@! TO.C,R5*
X150077500Y-132512258D02*
X150077500Y-132037742D01*
X151122500Y-132512258D02*
X151122500Y-132037742D01*
G04 #@! TO.C,C5*
X145865580Y-128490000D02*
X145584420Y-128490000D01*
X145865580Y-129510000D02*
X145584420Y-129510000D01*
G04 #@! TO.C,C8*
X165990000Y-139865580D02*
X165990000Y-139584420D01*
X167010000Y-139865580D02*
X167010000Y-139584420D01*
G04 #@! TO.C,J5*
X167740000Y-140250000D02*
X167740000Y-140750000D01*
X167740000Y-140750000D02*
X168240000Y-140500000D01*
X168240000Y-140500000D02*
X167740000Y-140250000D01*
X168790000Y-139660000D02*
X168790000Y-138550000D01*
X168790000Y-142450000D02*
X168790000Y-141340000D01*
X172040000Y-139660000D02*
X172040000Y-138550000D01*
X172040000Y-142450000D02*
X172040000Y-141340000D01*
G04 #@! TO.C,C1*
X151490000Y-150634420D02*
X151490000Y-150915580D01*
X152510000Y-150634420D02*
X152510000Y-150915580D01*
G04 #@! TO.C,R7*
X147912258Y-142977500D02*
X147437742Y-142977500D01*
X147912258Y-144022500D02*
X147437742Y-144022500D01*
G04 #@! TO.C,R4*
X157077500Y-128987742D02*
X157077500Y-129462258D01*
X158122500Y-128987742D02*
X158122500Y-129462258D01*
G04 #@! TO.C,R6*
X147977500Y-146587742D02*
X147977500Y-147062258D01*
X149022500Y-146587742D02*
X149022500Y-147062258D01*
G04 #@! TO.C,C4*
X141990000Y-129365580D02*
X141990000Y-129084420D01*
X143010000Y-129365580D02*
X143010000Y-129084420D01*
G04 #@! TO.C,C6*
X147990000Y-139134420D02*
X147990000Y-139415580D01*
X149010000Y-139134420D02*
X149010000Y-139415580D01*
G04 #@! TO.C,R3*
X145977500Y-154087742D02*
X145977500Y-154562258D01*
X147022500Y-154087742D02*
X147022500Y-154562258D01*
D11*
G04 #@! TO.C,J6*
X139780441Y-155957001D02*
X143419559Y-155957001D01*
X144724200Y-153794760D02*
X144724200Y-152807401D01*
X138475800Y-152807401D02*
X138475800Y-153794760D01*
X139437060Y-152807401D02*
X138475800Y-152807401D01*
X144724200Y-152807401D02*
X143762940Y-152807401D01*
D12*
X144850000Y-151882201D02*
G75*
G02*
X144350000Y-151882201I-250000J0D01*
G01*
X144350000Y-151882201D02*
G75*
G02*
X144850000Y-151882201I250000J0D01*
G01*
D13*
G04 #@! TO.C,SW2*
X152346199Y-128425899D02*
X152346199Y-133074099D01*
X153788340Y-133074099D02*
X154561658Y-133074099D01*
X154561658Y-128425899D02*
X153788340Y-128425899D01*
X156003799Y-133074099D02*
X156003799Y-128425899D01*
D16*
X153199999Y-133949999D02*
G75*
G02*
X152949999Y-133949999I-125000J0D01*
G01*
X152949999Y-133949999D02*
G75*
G02*
X153199999Y-133949999I125000J0D01*
G01*
D13*
G04 #@! TO.C,SW3*
X159196201Y-128425899D02*
X159196201Y-133074099D01*
X160638342Y-133074099D02*
X161411660Y-133074099D01*
X161411660Y-128425899D02*
X160638342Y-128425899D01*
X162853801Y-133074099D02*
X162853801Y-128425899D01*
D16*
X162250001Y-127549999D02*
G75*
G02*
X162000001Y-127549999I-125000J0D01*
G01*
X162000001Y-127549999D02*
G75*
G02*
X162250001Y-127549999I125000J0D01*
G01*
D14*
G04 #@! TO.C,C9*
X157090000Y-132465580D02*
X157090000Y-132184420D01*
X158110000Y-132465580D02*
X158110000Y-132184420D01*
G04 #@! TO.C,D2*
X149865000Y-127702500D02*
X149865000Y-129987500D01*
X151335000Y-127702500D02*
X149865000Y-127702500D01*
X151335000Y-129987500D02*
X151335000Y-127702500D01*
G04 #@! TO.C,C3*
X141990000Y-132815580D02*
X141990000Y-132534420D01*
X143010000Y-132815580D02*
X143010000Y-132534420D01*
G04 #@! TO.C,U2*
X146140000Y-149652500D02*
X146565000Y-149652500D01*
X146140000Y-149827500D02*
X146140000Y-149652500D01*
X146140000Y-151697500D02*
X146140000Y-151872500D01*
X146140000Y-151872500D02*
X146565000Y-151872500D01*
X147935000Y-149642500D02*
X148130000Y-149642500D01*
X148360000Y-151697500D02*
X148360000Y-151872500D01*
X148360000Y-151872500D02*
X147935000Y-151872500D01*
X148560000Y-149782500D02*
X148370000Y-149642500D01*
X148560000Y-149502500D01*
X148560000Y-149782500D01*
G36*
X148560000Y-149782500D02*
G01*
X148370000Y-149642500D01*
X148560000Y-149502500D01*
X148560000Y-149782500D01*
G37*
G04 #@! TO.C,D1*
X147765000Y-127702500D02*
X147765000Y-129987500D01*
X149235000Y-127702500D02*
X147765000Y-127702500D01*
X149235000Y-129987500D02*
X149235000Y-127702500D01*
G04 #@! TO.C,R2*
X143937742Y-149977500D02*
X144412258Y-149977500D01*
X143937742Y-151022500D02*
X144412258Y-151022500D01*
G04 #@! TO.C,C2*
X149490000Y-150634420D02*
X149490000Y-150915580D01*
X150510000Y-150634420D02*
X150510000Y-150915580D01*
G04 #@! TO.C,J4*
X138670000Y-126330000D02*
X138670000Y-125000000D01*
X140000000Y-126330000D02*
X138670000Y-126330000D01*
X141270000Y-123670000D02*
X171810000Y-123670000D01*
X141270000Y-126330000D02*
X141270000Y-123670000D01*
X141270000Y-126330000D02*
X171810000Y-126330000D01*
X171810000Y-126330000D02*
X171810000Y-123670000D01*
G04 #@! TO.C,U1*
X143890000Y-132312500D02*
X143890000Y-131512500D01*
X143890000Y-132312500D02*
X143890000Y-133112500D01*
X147010000Y-132312500D02*
X147010000Y-131512500D01*
X147010000Y-132312500D02*
X147010000Y-133112500D01*
X143940000Y-133612500D02*
X143610000Y-133852500D01*
X143610000Y-133372500D01*
X143940000Y-133612500D01*
G36*
X143940000Y-133612500D02*
G01*
X143610000Y-133852500D01*
X143610000Y-133372500D01*
X143940000Y-133612500D01*
G37*
D13*
G04 #@! TO.C,SW1*
X163696201Y-128425899D02*
X163696201Y-133074099D01*
X165138342Y-133074099D02*
X165911660Y-133074099D01*
X165911660Y-128425899D02*
X165138342Y-128425899D01*
X167353801Y-133074099D02*
X167353801Y-128425899D01*
D16*
X164550001Y-133949999D02*
G75*
G02*
X164300001Y-133949999I-125000J0D01*
G01*
X164300001Y-133949999D02*
G75*
G02*
X164550001Y-133949999I125000J0D01*
G01*
D14*
G04 #@! TO.C,R1*
X147977500Y-132512258D02*
X147977500Y-132037742D01*
X149022500Y-132512258D02*
X149022500Y-132037742D01*
G04 #@! TO.C,C7*
X165990000Y-146634420D02*
X165990000Y-146915580D01*
X167010000Y-146634420D02*
X167010000Y-146915580D01*
G04 #@! TD*
%LPC*%
D17*
G04 #@! TO.C,J3*
X140000000Y-139000000D03*
X141270000Y-139000000D03*
X140000000Y-140270000D03*
X141270000Y-140270000D03*
X140000000Y-141540000D03*
X141270000Y-141540000D03*
X140000000Y-142810000D03*
X141270000Y-142810000D03*
X140000000Y-144080000D03*
X141270000Y-144080000D03*
G04 #@! TD*
D18*
G04 #@! TO.C,J7*
X149660000Y-154500000D03*
D19*
X152200000Y-154500000D03*
X154740000Y-154500000D03*
X157280000Y-154500000D03*
X159820000Y-154500000D03*
X162360000Y-154500000D03*
X164900000Y-154500000D03*
X167440000Y-154500000D03*
X169980000Y-154500000D03*
G04 #@! TD*
D20*
G04 #@! TO.C,U3*
X151467500Y-138545000D03*
X151467500Y-139795000D03*
X151467500Y-141045000D03*
X151467500Y-142295000D03*
X151467500Y-143545000D03*
X151467500Y-144795000D03*
X151467500Y-146045000D03*
D21*
X153717500Y-148295000D03*
X154967500Y-148295000D03*
X156217500Y-148295000D03*
X157467500Y-148295000D03*
X158717500Y-148295000D03*
X159967500Y-148295000D03*
X161217500Y-148295000D03*
D22*
X163467500Y-146045000D03*
X163467500Y-144795000D03*
X163467500Y-143545000D03*
X163467500Y-142295000D03*
X163467500Y-141045000D03*
X163467500Y-139795000D03*
X163467500Y-138545000D03*
D23*
X161217500Y-136295000D03*
X159967500Y-136295000D03*
X158717500Y-136295000D03*
X157467500Y-136295000D03*
X156217500Y-136295000D03*
X154967500Y-136295000D03*
X153717500Y-136295000D03*
G04 #@! TD*
D24*
G04 #@! TO.C,L1*
X166500000Y-144000000D03*
X166500000Y-142425000D03*
G04 #@! TD*
D25*
G04 #@! TO.C,R5*
X150600000Y-133100000D03*
X150600000Y-131450000D03*
G04 #@! TD*
D26*
G04 #@! TO.C,C5*
X146500000Y-129000000D03*
X144950000Y-129000000D03*
G04 #@! TD*
D27*
G04 #@! TO.C,C8*
X166500000Y-140500000D03*
X166500000Y-138950000D03*
G04 #@! TD*
D28*
G04 #@! TO.C,J5*
X170500000Y-140500000D03*
D29*
X170250000Y-137675000D03*
X170250000Y-143325000D03*
G04 #@! TD*
D30*
G04 #@! TO.C,C1*
X152000000Y-150000000D03*
X152000000Y-151550000D03*
G04 #@! TD*
D31*
G04 #@! TO.C,R7*
X148500000Y-143500000D03*
X146850000Y-143500000D03*
G04 #@! TD*
D32*
G04 #@! TO.C,R4*
X157600000Y-128400000D03*
X157600000Y-130050000D03*
G04 #@! TD*
G04 #@! TO.C,R6*
X148500000Y-146000000D03*
X148500000Y-147650000D03*
G04 #@! TD*
D27*
G04 #@! TO.C,C4*
X142500000Y-130000000D03*
X142500000Y-128450000D03*
G04 #@! TD*
D30*
G04 #@! TO.C,C6*
X148500000Y-138500000D03*
X148500000Y-140050000D03*
G04 #@! TD*
D32*
G04 #@! TO.C,R3*
X146500000Y-153500000D03*
X146500000Y-155150000D03*
G04 #@! TD*
D33*
G04 #@! TO.C,J6*
X143100000Y-152500000D03*
X142099999Y-152500000D03*
X141100001Y-152500000D03*
X140100000Y-152500000D03*
D34*
X144399999Y-155080000D03*
X138800001Y-155080000D03*
G04 #@! TD*
D35*
G04 #@! TO.C,SW2*
X153100000Y-133000000D03*
X153100000Y-128499998D03*
X155249998Y-133000000D03*
X155249998Y-128499998D03*
G04 #@! TD*
G04 #@! TO.C,SW3*
X162100000Y-128499998D03*
X162100000Y-133000000D03*
X159950002Y-128499998D03*
X159950002Y-133000000D03*
G04 #@! TD*
D27*
G04 #@! TO.C,C9*
X157600000Y-133100000D03*
X157600000Y-131550000D03*
G04 #@! TD*
D36*
G04 #@! TO.C,D2*
X150600000Y-128400000D03*
X150600000Y-129975000D03*
G04 #@! TD*
D27*
G04 #@! TO.C,C3*
X142500000Y-133450000D03*
X142500000Y-131900000D03*
G04 #@! TD*
D37*
G04 #@! TO.C,U2*
X147500000Y-150000000D03*
X147000000Y-150000000D03*
D38*
X146487500Y-150262500D03*
X146487500Y-150762500D03*
X146487500Y-151262500D03*
D37*
X147000000Y-151525000D03*
X147500000Y-151525000D03*
D38*
X148012500Y-151262500D03*
X148012500Y-150762500D03*
X148012500Y-150262500D03*
G04 #@! TD*
D36*
G04 #@! TO.C,D1*
X148500000Y-128400000D03*
X148500000Y-129975000D03*
G04 #@! TD*
D39*
G04 #@! TO.C,R2*
X143350000Y-150500000D03*
X145000000Y-150500000D03*
G04 #@! TD*
D30*
G04 #@! TO.C,C2*
X150000000Y-150000000D03*
X150000000Y-151550000D03*
G04 #@! TD*
D18*
G04 #@! TO.C,J4*
X140000000Y-125000000D03*
D19*
X142540000Y-125000000D03*
X145080000Y-125000000D03*
X147620000Y-125000000D03*
X150160000Y-125000000D03*
X152700000Y-125000000D03*
X155240000Y-125000000D03*
X157780000Y-125000000D03*
X160320000Y-125000000D03*
X162860000Y-125000000D03*
X165400000Y-125000000D03*
X167940000Y-125000000D03*
X170480000Y-125000000D03*
G04 #@! TD*
D40*
G04 #@! TO.C,U1*
X144500000Y-133450000D03*
X145450000Y-133450000D03*
X146400000Y-133450000D03*
X146400000Y-131175000D03*
X144500000Y-131175000D03*
G04 #@! TD*
D35*
G04 #@! TO.C,SW1*
X164450002Y-133000000D03*
X164450002Y-128499998D03*
X166600000Y-133000000D03*
X166600000Y-128499998D03*
G04 #@! TD*
D25*
G04 #@! TO.C,R1*
X148500000Y-133100000D03*
X148500000Y-131450000D03*
G04 #@! TD*
D30*
G04 #@! TO.C,C7*
X166500000Y-146000000D03*
X166500000Y-147550000D03*
G04 #@! TD*
D41*
G04 #@! TO.C,J1*
X140000000Y-132000000D03*
D42*
X140000000Y-130000000D03*
G04 #@! TD*
%LPD*%
M02*
