M48
; DRILL file {KiCad 9.0.0} date 2025-07-01T12:28:05-0400
; FORMAT={-:-/ absolute / metric / decimal}
; #@! TF.CreationDate,2025-07-01T12:28:05-04:00
; #@! TF.GenerationSoftware,Kicad,Pcbnew,9.0.0
; #@! TF.FileFunction,Plated,1,4,PTH
FMAT,2
METRIC
; #@! TA.AperFunction,Plated,PTH,ViaDrill
T1C0.300
; #@! TA.AperFunction,Plated,PTH,ComponentDrill
T2C0.711
; #@! TA.AperFunction,Plated,PTH,ComponentDrill
T3C0.750
; #@! TA.AperFunction,Plated,PTH,ComponentDrill
T4C1.000
%
G90
G05
T1
X138.8Y-153.9
X140.0Y-135.0
X140.0Y-137.0
X140.0Y-147.0
X140.0Y-149.0
X142.0Y-135.0
X142.0Y-137.0
X142.0Y-147.0
X142.1Y-153.5
X142.7Y-150.9
X143.1Y-153.5
X143.3Y-128.5
X143.309Y-131.909
X143.5Y-130.5
X143.5Y-133.45
X144.0Y-137.0
X144.0Y-139.0
X144.0Y-145.0
X144.4Y-153.9
X145.0Y-128.2
X145.4Y-132.5
X145.4Y-134.4
X145.7Y-148.0
X146.0Y-137.0
X146.0Y-139.0
X146.3Y-144.1
X146.3Y-149.8
X146.986Y-152.109
X147.2Y-155.1
X147.6Y-149.5
X147.7Y-146.0
X148.0Y-135.0
X148.0Y-137.0
X148.1Y-152.4
X148.4Y-151.6
X148.464Y-150.941
X148.5Y-127.7
X148.5Y-133.8
X148.9Y-150.0
X149.2Y-147.6
X149.3Y-151.5
X149.5Y-138.5
X149.5Y-140.0
X150.0Y-135.0
X150.0Y-137.0
X150.0Y-149.3
X150.6Y-127.7
X151.0Y-149.1
X151.4Y-152.1
X152.0Y-135.0
X152.0Y-137.0
X152.0Y-149.3
X152.9Y-139.8
X153.7Y-134.6
X153.718Y-146.7
X154.0Y-139.0
X154.0Y-141.0
X154.0Y-143.0
X154.0Y-145.0
X154.968Y-134.6
X156.0Y-139.0
X156.0Y-141.0
X156.0Y-143.0
X156.0Y-145.0
X156.0Y-152.0
X156.218Y-134.6
X156.9Y-130.1
X157.468Y-134.6
X158.0Y-139.0
X158.0Y-141.0
X158.0Y-143.0
X158.0Y-145.0
X158.0Y-152.0
X158.3Y-131.6
X159.968Y-134.6
X160.0Y-139.0
X160.0Y-141.0
X160.0Y-143.0
X160.0Y-145.0
X161.2Y-134.9
X161.2Y-137.7
X161.2Y-146.8
X161.3Y-145.8
X161.5Y-128.5
X161.5Y-132.4
X162.0Y-139.8
X162.0Y-141.0
X162.0Y-142.3
X162.0Y-143.545
X162.0Y-144.8
X162.0Y-148.3
X162.7Y-147.5
X164.0Y-147.5
X164.0Y-149.0
X165.0Y-129.1
X165.0Y-132.3
X165.3Y-137.8
X165.3Y-138.8
X165.3Y-139.8
X165.3Y-140.8
X165.3Y-141.8
X165.3Y-142.8
X165.3Y-143.8
X165.3Y-144.8
X165.3Y-147.5
X166.0Y-136.0
X166.0Y-149.0
X166.0Y-151.0
X166.5Y-137.8
X166.6Y-134.0
X167.7Y-137.8
X167.7Y-138.8
X167.7Y-139.8
X167.7Y-141.5
X167.7Y-142.5
X167.7Y-143.5
X167.7Y-144.5
X167.7Y-145.5
X167.7Y-146.5
X167.7Y-147.5
X168.0Y-128.0
X168.0Y-130.0
X168.0Y-132.0
X168.0Y-134.0
X168.0Y-136.0
X168.0Y-149.0
X168.0Y-151.0
X170.0Y-128.0
X170.0Y-130.0
X170.0Y-132.0
X170.0Y-134.0
X170.0Y-136.0
X170.0Y-145.0
X170.0Y-147.0
X170.0Y-149.0
X170.0Y-151.0
X171.8Y-128.0
X171.8Y-130.0
X171.8Y-132.0
X171.8Y-134.0
X171.8Y-136.0
X171.8Y-145.0
X171.8Y-147.0
X171.8Y-149.0
X171.8Y-151.0
T2
X140.0Y-139.0
X140.0Y-140.27
X140.0Y-141.54
X140.0Y-142.81
X140.0Y-144.08
X141.27Y-139.0
X141.27Y-140.27
X141.27Y-141.54
X141.27Y-142.81
X141.27Y-144.08
T3
X140.0Y-130.0
X140.0Y-132.0
T4
X140.0Y-125.0
X142.54Y-125.0
X145.08Y-125.0
X147.62Y-125.0
X149.66Y-154.5
X150.16Y-125.0
X152.2Y-154.5
X152.7Y-125.0
X154.74Y-154.5
X155.24Y-125.0
X157.28Y-154.5
X157.78Y-125.0
X159.82Y-154.5
X160.32Y-125.0
X162.36Y-154.5
X162.86Y-125.0
X164.9Y-154.5
X165.4Y-125.0
X167.44Y-154.5
X167.94Y-125.0
X169.98Y-154.5
X170.48Y-125.0
M30
