G04 #@! TF.GenerationSoftware,KiCad,Pcbnew,9.0.0*
G04 #@! TF.CreationDate,2025-07-01T12:28:05-04:00*
G04 #@! TF.ProjectId,wio-e5-test,77696f2d-6535-42d7-9465-73742e6b6963,rev?*
G04 #@! TF.SameCoordinates,Original*
G04 #@! TF.FileFunction,Copper,L2,Inr*
G04 #@! TF.FilePolarity,Positive*
%FSLAX46Y46*%
G04 Gerber Fmt 4.6, Leading zero omitted, Abs format (unit mm)*
G04 Created by KiCad (PCBNEW 9.0.0) date 2025-07-01 12:28:05*
%MOMM*%
%LPD*%
G01*
G04 APERTURE LIST*
G04 Aperture macros list*
%AMRoundRect*
0 Rectangle with rounded corners*
0 $1 Rounding radius*
0 $2 $3 $4 $5 $6 $7 $8 $9 X,Y pos of 4 corners*
0 Add a 4 corners polygon primitive as box body*
4,1,4,$2,$3,$4,$5,$6,$7,$8,$9,$2,$3,0*
0 Add four circle primitives for the rounded corners*
1,1,$1+$1,$2,$3*
1,1,$1+$1,$4,$5*
1,1,$1+$1,$6,$7*
1,1,$1+$1,$8,$9*
0 Add four rect primitives between the rounded corners*
20,1,$1+$1,$2,$3,$4,$5,0*
20,1,$1+$1,$4,$5,$6,$7,0*
20,1,$1+$1,$6,$7,$8,$9,0*
20,1,$1+$1,$8,$9,$2,$3,0*%
G04 Aperture macros list end*
G04 #@! TA.AperFunction,ComponentPad*
%ADD10C,1.168400*%
G04 #@! TD*
G04 #@! TA.AperFunction,ComponentPad*
%ADD11R,1.700000X1.700000*%
G04 #@! TD*
G04 #@! TA.AperFunction,ComponentPad*
%ADD12O,1.700000X1.700000*%
G04 #@! TD*
G04 #@! TA.AperFunction,ComponentPad*
%ADD13RoundRect,0.250000X-0.625000X0.350000X-0.625000X-0.350000X0.625000X-0.350000X0.625000X0.350000X0*%
G04 #@! TD*
G04 #@! TA.AperFunction,ComponentPad*
%ADD14O,1.750000X1.200000*%
G04 #@! TD*
G04 #@! TA.AperFunction,ViaPad*
%ADD15C,0.600000*%
G04 #@! TD*
G04 APERTURE END LIST*
D10*
G04 #@! TO.N,+3V3*
G04 #@! TO.C,J3*
X140000000Y-139000000D03*
G04 #@! TO.N,/SWDIO*
X141270000Y-139000000D03*
G04 #@! TO.N,GND*
X140000000Y-140270000D03*
G04 #@! TO.N,/SWCLK*
X141270000Y-140270000D03*
G04 #@! TO.N,GND*
X140000000Y-141540000D03*
G04 #@! TO.N,/SWO*
X141270000Y-141540000D03*
G04 #@! TO.N,unconnected-(J3-KEY-Pad7)*
X140000000Y-142810000D03*
G04 #@! TO.N,unconnected-(J3-NC{slash}TDI-Pad8)*
X141270000Y-142810000D03*
G04 #@! TO.N,GND*
X140000000Y-144080000D03*
G04 #@! TO.N,/~{RST}*
X141270000Y-144080000D03*
G04 #@! TD*
D11*
G04 #@! TO.N,/UART1_RX*
G04 #@! TO.C,J7*
X149660000Y-154500000D03*
D12*
G04 #@! TO.N,/UART1_TX*
X152200000Y-154500000D03*
G04 #@! TO.N,/~{RST}*
X154740000Y-154500000D03*
G04 #@! TO.N,GND*
X157280000Y-154500000D03*
G04 #@! TO.N,+3V3*
X159820000Y-154500000D03*
G04 #@! TO.N,/PB5*
X162360000Y-154500000D03*
G04 #@! TO.N,/PC1*
X164900000Y-154500000D03*
G04 #@! TO.N,/PC0*
X167440000Y-154500000D03*
G04 #@! TO.N,GND*
X169980000Y-154500000D03*
G04 #@! TD*
D11*
G04 #@! TO.N,+3V3*
G04 #@! TO.C,J4*
X140000000Y-125000000D03*
D12*
G04 #@! TO.N,/PA10*
X142540000Y-125000000D03*
G04 #@! TO.N,/PB14*
X145080000Y-125000000D03*
G04 #@! TO.N,/PB9*
X147620000Y-125000000D03*
G04 #@! TO.N,/BOOT*
X150160000Y-125000000D03*
G04 #@! TO.N,GND*
X152700000Y-125000000D03*
G04 #@! TO.N,+3V3*
X155240000Y-125000000D03*
G04 #@! TO.N,/PA0*
X157780000Y-125000000D03*
G04 #@! TO.N,/PA9*
X160320000Y-125000000D03*
G04 #@! TO.N,/PB10*
X162860000Y-125000000D03*
G04 #@! TO.N,/PA2*
X165400000Y-125000000D03*
G04 #@! TO.N,/PA3*
X167940000Y-125000000D03*
G04 #@! TO.N,GND*
X170480000Y-125000000D03*
G04 #@! TD*
D13*
G04 #@! TO.N,+BATT*
G04 #@! TO.C,J1*
X140000000Y-132000000D03*
D14*
G04 #@! TO.N,GND*
X140000000Y-130000000D03*
G04 #@! TD*
D15*
G04 #@! TO.N,GND*
X160000000Y-145000000D03*
X140000000Y-149000000D03*
X140000000Y-147000000D03*
X142000000Y-147000000D03*
X144000000Y-145000000D03*
X142000000Y-135000000D03*
X140000000Y-135000000D03*
X140000000Y-137000000D03*
X142000000Y-137000000D03*
G04 #@! TO.N,+3V3*
X142700000Y-150900000D03*
G04 #@! TO.N,GND*
X147200000Y-155100000D03*
X138800000Y-153900000D03*
X144400000Y-153900000D03*
X143100000Y-153500000D03*
G04 #@! TO.N,+3V3*
X142100000Y-153500000D03*
G04 #@! TO.N,/I2C2_SDA*
X147700000Y-146000000D03*
X145700000Y-148000000D03*
G04 #@! TO.N,GND*
X144000000Y-139000000D03*
X146300000Y-144100000D03*
X152000000Y-135000000D03*
X170000000Y-128000000D03*
X144000000Y-137000000D03*
X151400000Y-152100000D03*
X168000000Y-128000000D03*
X165300000Y-142800000D03*
X165300000Y-144800000D03*
X171800000Y-151000000D03*
X168000000Y-149000000D03*
X152900000Y-139800000D03*
X167700000Y-139800000D03*
X167700000Y-141500000D03*
X156000000Y-143000000D03*
X171800000Y-145000000D03*
X168000000Y-134000000D03*
X158300000Y-131600000D03*
X162700000Y-147500000D03*
X145000000Y-128200000D03*
X164000000Y-149000000D03*
X170000000Y-149000000D03*
X156000000Y-139000000D03*
X165300000Y-141800000D03*
X171800000Y-136000000D03*
X156000000Y-145000000D03*
X167700000Y-146500000D03*
X167700000Y-147500000D03*
X165000000Y-129100000D03*
X171800000Y-132000000D03*
X162000000Y-148300000D03*
X145400000Y-132500000D03*
X160000000Y-143000000D03*
X167700000Y-137800000D03*
X165000000Y-132300000D03*
X154000000Y-145000000D03*
X156000000Y-141000000D03*
X170000000Y-147000000D03*
X149300000Y-151500000D03*
X165300000Y-139800000D03*
X168000000Y-136000000D03*
X161200000Y-134900000D03*
X146300000Y-149800000D03*
X145400000Y-134400000D03*
X171800000Y-130000000D03*
X158000000Y-145000000D03*
X158000000Y-141000000D03*
X166500000Y-137800000D03*
X158000000Y-152000000D03*
X161200000Y-146800000D03*
X168000000Y-130000000D03*
X170000000Y-145000000D03*
X148500000Y-127700000D03*
X171800000Y-149000000D03*
X154000000Y-143000000D03*
X149200000Y-147600000D03*
X168000000Y-151000000D03*
X162000000Y-144800000D03*
X150000000Y-137000000D03*
X165300000Y-143800000D03*
X148463958Y-150940647D03*
X165300000Y-147500000D03*
X154000000Y-139000000D03*
X171800000Y-128000000D03*
X149500000Y-140000000D03*
X167700000Y-144500000D03*
X146000000Y-137000000D03*
X150000000Y-135000000D03*
X165300000Y-137800000D03*
X161500000Y-132400000D03*
X150600000Y-127700000D03*
X166000000Y-151000000D03*
X167700000Y-143500000D03*
X166000000Y-136000000D03*
X168000000Y-132000000D03*
X167700000Y-138800000D03*
X143308853Y-131908853D03*
X167700000Y-142500000D03*
X170000000Y-151000000D03*
X171800000Y-147000000D03*
X170000000Y-134000000D03*
X154000000Y-141000000D03*
X160000000Y-141000000D03*
X158000000Y-139000000D03*
X164000000Y-147500000D03*
X167700000Y-145500000D03*
X165300000Y-140800000D03*
X171800000Y-134000000D03*
X148000000Y-137000000D03*
X165300000Y-138800000D03*
X152000000Y-137000000D03*
X148000000Y-135000000D03*
X170000000Y-132000000D03*
X143300000Y-128500000D03*
X161300000Y-145800000D03*
X146000000Y-139000000D03*
X166000000Y-149000000D03*
X170000000Y-136000000D03*
X156000000Y-152000000D03*
X160000000Y-139000000D03*
X156900000Y-130100000D03*
X148400000Y-151600000D03*
X161200000Y-137700000D03*
X161500000Y-128500000D03*
X170000000Y-130000000D03*
X158000000Y-143000000D03*
G04 #@! TO.N,+3V3*
X152000000Y-149300000D03*
X143500000Y-130500000D03*
X149500000Y-138500000D03*
X150000000Y-149300000D03*
X148900000Y-150000000D03*
X146985504Y-152108698D03*
X148500000Y-133800000D03*
X147600000Y-149500000D03*
G04 #@! TO.N,+BATT*
X143500000Y-133450000D03*
G04 #@! TO.N,/~{RST}*
X166600000Y-134000000D03*
X162000000Y-143545000D03*
G04 #@! TO.N,/SWO*
X153717500Y-146700000D03*
G04 #@! TO.N,/PA2*
X162000000Y-141000000D03*
G04 #@! TO.N,/PB9*
X157467500Y-134600000D03*
G04 #@! TO.N,/PB10*
X162000000Y-139800000D03*
G04 #@! TO.N,/PB14*
X156217500Y-134600000D03*
G04 #@! TO.N,/PA3*
X162000000Y-142300000D03*
G04 #@! TO.N,/PA10*
X154967500Y-134600000D03*
G04 #@! TO.N,/PA0*
X159967500Y-134600000D03*
X153700000Y-134600000D03*
G04 #@! TO.N,/LPS22_INT*
X151000000Y-149100000D03*
X148100000Y-152400000D03*
G04 #@! TD*
G04 #@! TA.AperFunction,Conductor*
G04 #@! TO.N,GND*
G36*
X138876936Y-123520185D02*
G01*
X138922691Y-123572989D01*
X138932635Y-123642147D01*
X138903610Y-123705703D01*
X138884208Y-123723766D01*
X138792455Y-123792452D01*
X138792452Y-123792455D01*
X138706206Y-123907664D01*
X138706202Y-123907671D01*
X138655908Y-124042517D01*
X138649501Y-124102116D01*
X138649500Y-124102135D01*
X138649500Y-125897870D01*
X138649501Y-125897876D01*
X138655908Y-125957483D01*
X138706202Y-126092328D01*
X138706206Y-126092335D01*
X138792452Y-126207544D01*
X138792455Y-126207547D01*
X138907664Y-126293793D01*
X138907671Y-126293797D01*
X139042517Y-126344091D01*
X139042516Y-126344091D01*
X139049444Y-126344835D01*
X139102127Y-126350500D01*
X140897872Y-126350499D01*
X140957483Y-126344091D01*
X141092331Y-126293796D01*
X141207546Y-126207546D01*
X141293796Y-126092331D01*
X141342810Y-125960916D01*
X141384681Y-125904984D01*
X141450145Y-125880566D01*
X141518418Y-125895417D01*
X141546673Y-125916569D01*
X141660213Y-126030109D01*
X141832179Y-126155048D01*
X141832181Y-126155049D01*
X141832184Y-126155051D01*
X142021588Y-126251557D01*
X142223757Y-126317246D01*
X142433713Y-126350500D01*
X142433714Y-126350500D01*
X142646286Y-126350500D01*
X142646287Y-126350500D01*
X142856243Y-126317246D01*
X143058412Y-126251557D01*
X143247816Y-126155051D01*
X143334138Y-126092335D01*
X143419786Y-126030109D01*
X143419788Y-126030106D01*
X143419792Y-126030104D01*
X143570104Y-125879792D01*
X143570106Y-125879788D01*
X143570109Y-125879786D01*
X143695048Y-125707820D01*
X143695047Y-125707820D01*
X143695051Y-125707816D01*
X143699514Y-125699054D01*
X143747488Y-125648259D01*
X143815308Y-125631463D01*
X143881444Y-125653999D01*
X143920486Y-125699056D01*
X143924951Y-125707820D01*
X144049890Y-125879786D01*
X144200213Y-126030109D01*
X144372179Y-126155048D01*
X144372181Y-126155049D01*
X144372184Y-126155051D01*
X144561588Y-126251557D01*
X144763757Y-126317246D01*
X144973713Y-126350500D01*
X144973714Y-126350500D01*
X145186286Y-126350500D01*
X145186287Y-126350500D01*
X145396243Y-126317246D01*
X145598412Y-126251557D01*
X145787816Y-126155051D01*
X145874138Y-126092335D01*
X145959786Y-126030109D01*
X145959788Y-126030106D01*
X145959792Y-126030104D01*
X146110104Y-125879792D01*
X146110106Y-125879788D01*
X146110109Y-125879786D01*
X146235048Y-125707820D01*
X146235047Y-125707820D01*
X146235051Y-125707816D01*
X146239514Y-125699054D01*
X146287488Y-125648259D01*
X146355308Y-125631463D01*
X146421444Y-125653999D01*
X146460486Y-125699056D01*
X146464951Y-125707820D01*
X146589890Y-125879786D01*
X146740213Y-126030109D01*
X146912179Y-126155048D01*
X146912181Y-126155049D01*
X146912184Y-126155051D01*
X147101588Y-126251557D01*
X147303757Y-126317246D01*
X147513713Y-126350500D01*
X147513714Y-126350500D01*
X147726286Y-126350500D01*
X147726287Y-126350500D01*
X147936243Y-126317246D01*
X148138412Y-126251557D01*
X148327816Y-126155051D01*
X148414138Y-126092335D01*
X148499786Y-126030109D01*
X148499788Y-126030106D01*
X148499792Y-126030104D01*
X148650104Y-125879792D01*
X148650106Y-125879788D01*
X148650109Y-125879786D01*
X148775048Y-125707820D01*
X148775047Y-125707820D01*
X148775051Y-125707816D01*
X148779514Y-125699054D01*
X148827488Y-125648259D01*
X148895308Y-125631463D01*
X148961444Y-125653999D01*
X149000486Y-125699056D01*
X149004951Y-125707820D01*
X149129890Y-125879786D01*
X149280213Y-126030109D01*
X149452179Y-126155048D01*
X149452181Y-126155049D01*
X149452184Y-126155051D01*
X149641588Y-126251557D01*
X149843757Y-126317246D01*
X150053713Y-126350500D01*
X150053714Y-126350500D01*
X150266286Y-126350500D01*
X150266287Y-126350500D01*
X150476243Y-126317246D01*
X150678412Y-126251557D01*
X150867816Y-126155051D01*
X150954138Y-126092335D01*
X151039786Y-126030109D01*
X151039788Y-126030106D01*
X151039792Y-126030104D01*
X151190104Y-125879792D01*
X151190106Y-125879788D01*
X151190109Y-125879786D01*
X151315048Y-125707820D01*
X151315051Y-125707816D01*
X151319793Y-125698508D01*
X151367763Y-125647711D01*
X151435583Y-125630911D01*
X151501719Y-125653445D01*
X151540763Y-125698500D01*
X151545377Y-125707555D01*
X151670272Y-125879459D01*
X151670276Y-125879464D01*
X151820535Y-126029723D01*
X151820540Y-126029727D01*
X151992442Y-126154620D01*
X152181782Y-126251095D01*
X152383871Y-126316757D01*
X152450000Y-126327231D01*
X152450000Y-125433012D01*
X152507007Y-125465925D01*
X152634174Y-125500000D01*
X152765826Y-125500000D01*
X152892993Y-125465925D01*
X152950000Y-125433012D01*
X152950000Y-126327230D01*
X153016126Y-126316757D01*
X153016129Y-126316757D01*
X153218217Y-126251095D01*
X153407557Y-126154620D01*
X153579459Y-126029727D01*
X153579464Y-126029723D01*
X153729723Y-125879464D01*
X153729727Y-125879459D01*
X153854620Y-125707558D01*
X153859232Y-125698507D01*
X153907205Y-125647709D01*
X153975025Y-125630912D01*
X154041161Y-125653447D01*
X154080204Y-125698504D01*
X154084949Y-125707817D01*
X154209890Y-125879786D01*
X154360213Y-126030109D01*
X154532179Y-126155048D01*
X154532181Y-126155049D01*
X154532184Y-126155051D01*
X154721588Y-126251557D01*
X154923757Y-126317246D01*
X155133713Y-126350500D01*
X155133714Y-126350500D01*
X155346286Y-126350500D01*
X155346287Y-126350500D01*
X155556243Y-126317246D01*
X155758412Y-126251557D01*
X155947816Y-126155051D01*
X156034138Y-126092335D01*
X156119786Y-126030109D01*
X156119788Y-126030106D01*
X156119792Y-126030104D01*
X156270104Y-125879792D01*
X156270106Y-125879788D01*
X156270109Y-125879786D01*
X156395048Y-125707820D01*
X156395047Y-125707820D01*
X156395051Y-125707816D01*
X156399514Y-125699054D01*
X156447488Y-125648259D01*
X156515308Y-125631463D01*
X156581444Y-125653999D01*
X156620486Y-125699056D01*
X156624951Y-125707820D01*
X156749890Y-125879786D01*
X156900213Y-126030109D01*
X157072179Y-126155048D01*
X157072181Y-126155049D01*
X157072184Y-126155051D01*
X157261588Y-126251557D01*
X157463757Y-126317246D01*
X157673713Y-126350500D01*
X157673714Y-126350500D01*
X157886286Y-126350500D01*
X157886287Y-126350500D01*
X158096243Y-126317246D01*
X158298412Y-126251557D01*
X158487816Y-126155051D01*
X158574138Y-126092335D01*
X158659786Y-126030109D01*
X158659788Y-126030106D01*
X158659792Y-126030104D01*
X158810104Y-125879792D01*
X158810106Y-125879788D01*
X158810109Y-125879786D01*
X158935048Y-125707820D01*
X158935047Y-125707820D01*
X158935051Y-125707816D01*
X158939514Y-125699054D01*
X158987488Y-125648259D01*
X159055308Y-125631463D01*
X159121444Y-125653999D01*
X159160486Y-125699056D01*
X159164951Y-125707820D01*
X159289890Y-125879786D01*
X159440213Y-126030109D01*
X159612179Y-126155048D01*
X159612181Y-126155049D01*
X159612184Y-126155051D01*
X159801588Y-126251557D01*
X160003757Y-126317246D01*
X160213713Y-126350500D01*
X160213714Y-126350500D01*
X160426286Y-126350500D01*
X160426287Y-126350500D01*
X160636243Y-126317246D01*
X160838412Y-126251557D01*
X161027816Y-126155051D01*
X161114138Y-126092335D01*
X161199786Y-126030109D01*
X161199788Y-126030106D01*
X161199792Y-126030104D01*
X161350104Y-125879792D01*
X161350106Y-125879788D01*
X161350109Y-125879786D01*
X161475048Y-125707820D01*
X161475047Y-125707820D01*
X161475051Y-125707816D01*
X161479514Y-125699054D01*
X161527488Y-125648259D01*
X161595308Y-125631463D01*
X161661444Y-125653999D01*
X161700486Y-125699056D01*
X161704951Y-125707820D01*
X161829890Y-125879786D01*
X161980213Y-126030109D01*
X162152179Y-126155048D01*
X162152181Y-126155049D01*
X162152184Y-126155051D01*
X162341588Y-126251557D01*
X162543757Y-126317246D01*
X162753713Y-126350500D01*
X162753714Y-126350500D01*
X162966286Y-126350500D01*
X162966287Y-126350500D01*
X163176243Y-126317246D01*
X163378412Y-126251557D01*
X163567816Y-126155051D01*
X163654138Y-126092335D01*
X163739786Y-126030109D01*
X163739788Y-126030106D01*
X163739792Y-126030104D01*
X163890104Y-125879792D01*
X163890106Y-125879788D01*
X163890109Y-125879786D01*
X164015048Y-125707820D01*
X164015047Y-125707820D01*
X164015051Y-125707816D01*
X164019514Y-125699054D01*
X164067488Y-125648259D01*
X164135308Y-125631463D01*
X164201444Y-125653999D01*
X164240486Y-125699056D01*
X164244951Y-125707820D01*
X164369890Y-125879786D01*
X164520213Y-126030109D01*
X164692179Y-126155048D01*
X164692181Y-126155049D01*
X164692184Y-126155051D01*
X164881588Y-126251557D01*
X165083757Y-126317246D01*
X165293713Y-126350500D01*
X165293714Y-126350500D01*
X165506286Y-126350500D01*
X165506287Y-126350500D01*
X165716243Y-126317246D01*
X165918412Y-126251557D01*
X166107816Y-126155051D01*
X166194138Y-126092335D01*
X166279786Y-126030109D01*
X166279788Y-126030106D01*
X166279792Y-126030104D01*
X166430104Y-125879792D01*
X166430106Y-125879788D01*
X166430109Y-125879786D01*
X166555048Y-125707820D01*
X166555047Y-125707820D01*
X166555051Y-125707816D01*
X166559514Y-125699054D01*
X166607488Y-125648259D01*
X166675308Y-125631463D01*
X166741444Y-125653999D01*
X166780486Y-125699056D01*
X166784951Y-125707820D01*
X166909890Y-125879786D01*
X167060213Y-126030109D01*
X167232179Y-126155048D01*
X167232181Y-126155049D01*
X167232184Y-126155051D01*
X167421588Y-126251557D01*
X167623757Y-126317246D01*
X167833713Y-126350500D01*
X167833714Y-126350500D01*
X168046286Y-126350500D01*
X168046287Y-126350500D01*
X168256243Y-126317246D01*
X168458412Y-126251557D01*
X168647816Y-126155051D01*
X168734138Y-126092335D01*
X168819786Y-126030109D01*
X168819788Y-126030106D01*
X168819792Y-126030104D01*
X168970104Y-125879792D01*
X168970106Y-125879788D01*
X168970109Y-125879786D01*
X169095048Y-125707820D01*
X169095051Y-125707816D01*
X169099793Y-125698508D01*
X169147763Y-125647711D01*
X169215583Y-125630911D01*
X169281719Y-125653445D01*
X169320763Y-125698500D01*
X169325377Y-125707555D01*
X169450272Y-125879459D01*
X169450276Y-125879464D01*
X169600535Y-126029723D01*
X169600540Y-126029727D01*
X169772442Y-126154620D01*
X169961782Y-126251095D01*
X170163871Y-126316757D01*
X170230000Y-126327231D01*
X170230000Y-125433012D01*
X170287007Y-125465925D01*
X170414174Y-125500000D01*
X170545826Y-125500000D01*
X170672993Y-125465925D01*
X170730000Y-125433012D01*
X170730000Y-126327230D01*
X170796126Y-126316757D01*
X170796129Y-126316757D01*
X170998217Y-126251095D01*
X171187557Y-126154620D01*
X171359459Y-126029727D01*
X171359464Y-126029723D01*
X171509723Y-125879464D01*
X171509727Y-125879459D01*
X171634620Y-125707557D01*
X171731095Y-125518217D01*
X171796757Y-125316129D01*
X171796757Y-125316126D01*
X171807231Y-125250000D01*
X170913012Y-125250000D01*
X170945925Y-125192993D01*
X170980000Y-125065826D01*
X170980000Y-124934174D01*
X170945925Y-124807007D01*
X170913012Y-124750000D01*
X171807231Y-124750000D01*
X171796757Y-124683873D01*
X171796757Y-124683870D01*
X171731095Y-124481782D01*
X171634620Y-124292442D01*
X171509727Y-124120540D01*
X171509723Y-124120535D01*
X171359464Y-123970276D01*
X171359459Y-123970272D01*
X171187557Y-123845379D01*
X170998217Y-123748904D01*
X170978294Y-123742431D01*
X170920619Y-123702994D01*
X170893420Y-123638635D01*
X170905335Y-123569789D01*
X170952579Y-123518313D01*
X171016612Y-123500500D01*
X171975500Y-123500500D01*
X172042539Y-123520185D01*
X172088294Y-123572989D01*
X172099500Y-123624500D01*
X172099500Y-155875500D01*
X172079815Y-155942539D01*
X172027011Y-155988294D01*
X171975500Y-155999500D01*
X170516612Y-155999500D01*
X170449573Y-155979815D01*
X170403818Y-155927011D01*
X170393874Y-155857853D01*
X170422899Y-155794297D01*
X170478294Y-155757569D01*
X170498217Y-155751095D01*
X170687557Y-155654620D01*
X170859459Y-155529727D01*
X170859464Y-155529723D01*
X171009723Y-155379464D01*
X171009727Y-155379459D01*
X171134620Y-155207557D01*
X171231095Y-155018217D01*
X171296757Y-154816129D01*
X171296757Y-154816126D01*
X171307231Y-154750000D01*
X170413012Y-154750000D01*
X170445925Y-154692993D01*
X170480000Y-154565826D01*
X170480000Y-154434174D01*
X170445925Y-154307007D01*
X170413012Y-154250000D01*
X171307231Y-154250000D01*
X171296757Y-154183873D01*
X171296757Y-154183870D01*
X171231095Y-153981782D01*
X171134620Y-153792442D01*
X171009727Y-153620540D01*
X171009723Y-153620535D01*
X170859464Y-153470276D01*
X170859459Y-153470272D01*
X170687557Y-153345379D01*
X170498215Y-153248903D01*
X170296124Y-153183241D01*
X170230000Y-153172768D01*
X170230000Y-154066988D01*
X170172993Y-154034075D01*
X170045826Y-154000000D01*
X169914174Y-154000000D01*
X169787007Y-154034075D01*
X169730000Y-154066988D01*
X169730000Y-153172768D01*
X169729999Y-153172768D01*
X169663875Y-153183241D01*
X169461784Y-153248903D01*
X169272442Y-153345379D01*
X169100540Y-153470272D01*
X169100535Y-153470276D01*
X168950276Y-153620535D01*
X168950272Y-153620540D01*
X168825378Y-153792443D01*
X168820762Y-153801502D01*
X168772784Y-153852295D01*
X168704963Y-153869087D01*
X168638829Y-153846546D01*
X168599794Y-153801493D01*
X168595051Y-153792184D01*
X168595049Y-153792181D01*
X168595048Y-153792179D01*
X168470109Y-153620213D01*
X168319786Y-153469890D01*
X168147820Y-153344951D01*
X167958414Y-153248444D01*
X167958413Y-153248443D01*
X167958412Y-153248443D01*
X167756243Y-153182754D01*
X167756241Y-153182753D01*
X167756240Y-153182753D01*
X167594957Y-153157208D01*
X167546287Y-153149500D01*
X167333713Y-153149500D01*
X167285042Y-153157208D01*
X167123760Y-153182753D01*
X166921585Y-153248444D01*
X166732179Y-153344951D01*
X166560213Y-153469890D01*
X166409890Y-153620213D01*
X166284949Y-153792182D01*
X166280484Y-153800946D01*
X166232509Y-153851742D01*
X166164688Y-153868536D01*
X166098553Y-153845998D01*
X166059516Y-153800946D01*
X166055050Y-153792182D01*
X165930109Y-153620213D01*
X165779786Y-153469890D01*
X165607820Y-153344951D01*
X165418414Y-153248444D01*
X165418413Y-153248443D01*
X165418412Y-153248443D01*
X165216243Y-153182754D01*
X165216241Y-153182753D01*
X165216240Y-153182753D01*
X165054957Y-153157208D01*
X165006287Y-153149500D01*
X164793713Y-153149500D01*
X164745042Y-153157208D01*
X164583760Y-153182753D01*
X164381585Y-153248444D01*
X164192179Y-153344951D01*
X164020213Y-153469890D01*
X163869890Y-153620213D01*
X163744949Y-153792182D01*
X163740484Y-153800946D01*
X163692509Y-153851742D01*
X163624688Y-153868536D01*
X163558553Y-153845998D01*
X163519516Y-153800946D01*
X163515050Y-153792182D01*
X163390109Y-153620213D01*
X163239786Y-153469890D01*
X163067820Y-153344951D01*
X162878414Y-153248444D01*
X162878413Y-153248443D01*
X162878412Y-153248443D01*
X162676243Y-153182754D01*
X162676241Y-153182753D01*
X162676240Y-153182753D01*
X162514957Y-153157208D01*
X162466287Y-153149500D01*
X162253713Y-153149500D01*
X162205042Y-153157208D01*
X162043760Y-153182753D01*
X161841585Y-153248444D01*
X161652179Y-153344951D01*
X161480213Y-153469890D01*
X161329890Y-153620213D01*
X161204949Y-153792182D01*
X161200484Y-153800946D01*
X161152509Y-153851742D01*
X161084688Y-153868536D01*
X161018553Y-153845998D01*
X160979516Y-153800946D01*
X160975050Y-153792182D01*
X160850109Y-153620213D01*
X160699786Y-153469890D01*
X160527820Y-153344951D01*
X160338414Y-153248444D01*
X160338413Y-153248443D01*
X160338412Y-153248443D01*
X160136243Y-153182754D01*
X160136241Y-153182753D01*
X160136240Y-153182753D01*
X159974957Y-153157208D01*
X159926287Y-153149500D01*
X159713713Y-153149500D01*
X159665042Y-153157208D01*
X159503760Y-153182753D01*
X159301585Y-153248444D01*
X159112179Y-153344951D01*
X158940213Y-153469890D01*
X158789890Y-153620213D01*
X158664949Y-153792182D01*
X158660202Y-153801499D01*
X158612227Y-153852293D01*
X158544405Y-153869087D01*
X158478271Y-153846548D01*
X158439234Y-153801495D01*
X158434622Y-153792444D01*
X158309727Y-153620540D01*
X158309723Y-153620535D01*
X158159464Y-153470276D01*
X158159459Y-153470272D01*
X157987557Y-153345379D01*
X157798215Y-153248903D01*
X157596124Y-153183241D01*
X157530000Y-153172768D01*
X157530000Y-154066988D01*
X157472993Y-154034075D01*
X157345826Y-154000000D01*
X157214174Y-154000000D01*
X157087007Y-154034075D01*
X157030000Y-154066988D01*
X157030000Y-153172768D01*
X157029999Y-153172768D01*
X156963875Y-153183241D01*
X156761784Y-153248903D01*
X156572442Y-153345379D01*
X156400540Y-153470272D01*
X156400535Y-153470276D01*
X156250276Y-153620535D01*
X156250272Y-153620540D01*
X156125378Y-153792443D01*
X156120762Y-153801502D01*
X156072784Y-153852295D01*
X156004963Y-153869087D01*
X155938829Y-153846546D01*
X155899794Y-153801493D01*
X155895051Y-153792184D01*
X155895049Y-153792181D01*
X155895048Y-153792179D01*
X155770109Y-153620213D01*
X155619786Y-153469890D01*
X155447820Y-153344951D01*
X155258414Y-153248444D01*
X155258413Y-153248443D01*
X155258412Y-153248443D01*
X155056243Y-153182754D01*
X155056241Y-153182753D01*
X155056240Y-153182753D01*
X154894957Y-153157208D01*
X154846287Y-153149500D01*
X154633713Y-153149500D01*
X154585042Y-153157208D01*
X154423760Y-153182753D01*
X154221585Y-153248444D01*
X154032179Y-153344951D01*
X153860213Y-153469890D01*
X153709890Y-153620213D01*
X153584949Y-153792182D01*
X153580484Y-153800946D01*
X153532509Y-153851742D01*
X153464688Y-153868536D01*
X153398553Y-153845998D01*
X153359516Y-153800946D01*
X153355050Y-153792182D01*
X153230109Y-153620213D01*
X153079786Y-153469890D01*
X152907820Y-153344951D01*
X152718414Y-153248444D01*
X152718413Y-153248443D01*
X152718412Y-153248443D01*
X152516243Y-153182754D01*
X152516241Y-153182753D01*
X152516240Y-153182753D01*
X152354957Y-153157208D01*
X152306287Y-153149500D01*
X152093713Y-153149500D01*
X152045042Y-153157208D01*
X151883760Y-153182753D01*
X151681585Y-153248444D01*
X151492179Y-153344951D01*
X151320215Y-153469889D01*
X151206673Y-153583431D01*
X151145350Y-153616915D01*
X151075658Y-153611931D01*
X151019725Y-153570059D01*
X151002810Y-153539082D01*
X150953797Y-153407671D01*
X150953793Y-153407664D01*
X150867547Y-153292455D01*
X150867544Y-153292452D01*
X150752335Y-153206206D01*
X150752328Y-153206202D01*
X150617482Y-153155908D01*
X150617483Y-153155908D01*
X150557883Y-153149501D01*
X150557881Y-153149500D01*
X150557873Y-153149500D01*
X150557865Y-153149500D01*
X148781940Y-153149500D01*
X148714901Y-153129815D01*
X148669146Y-153077011D01*
X148659202Y-153007853D01*
X148688227Y-152944297D01*
X148694246Y-152937831D01*
X148721789Y-152910289D01*
X148809394Y-152779179D01*
X148869737Y-152633497D01*
X148900500Y-152478842D01*
X148900500Y-152321158D01*
X148900500Y-152321155D01*
X148900499Y-152321153D01*
X148873922Y-152187544D01*
X148869737Y-152166503D01*
X148869735Y-152166498D01*
X148809397Y-152020827D01*
X148809390Y-152020814D01*
X148721789Y-151889711D01*
X148721786Y-151889707D01*
X148610292Y-151778213D01*
X148610288Y-151778210D01*
X148479185Y-151690609D01*
X148479172Y-151690602D01*
X148333501Y-151630264D01*
X148333489Y-151630261D01*
X148178845Y-151599500D01*
X148178842Y-151599500D01*
X148021158Y-151599500D01*
X148021155Y-151599500D01*
X147866510Y-151630261D01*
X147866498Y-151630264D01*
X147774170Y-151668508D01*
X147704701Y-151675977D01*
X147642222Y-151644702D01*
X147623615Y-151622837D01*
X147607291Y-151598406D01*
X147495796Y-151486911D01*
X147495792Y-151486908D01*
X147364689Y-151399307D01*
X147364676Y-151399300D01*
X147219005Y-151338962D01*
X147218993Y-151338959D01*
X147064349Y-151308198D01*
X147064346Y-151308198D01*
X146906662Y-151308198D01*
X146906659Y-151308198D01*
X146752014Y-151338959D01*
X146752002Y-151338962D01*
X146606331Y-151399300D01*
X146606318Y-151399307D01*
X146475215Y-151486908D01*
X146475211Y-151486911D01*
X146363717Y-151598405D01*
X146363714Y-151598409D01*
X146276113Y-151729512D01*
X146276106Y-151729525D01*
X146215768Y-151875196D01*
X146215765Y-151875208D01*
X146185004Y-152029851D01*
X146185004Y-152187544D01*
X146215765Y-152342187D01*
X146215768Y-152342199D01*
X146276106Y-152487870D01*
X146276113Y-152487883D01*
X146363714Y-152618986D01*
X146363717Y-152618990D01*
X146475211Y-152730484D01*
X146475215Y-152730487D01*
X146606318Y-152818088D01*
X146606331Y-152818095D01*
X146751464Y-152878210D01*
X146752007Y-152878435D01*
X146906657Y-152909197D01*
X146906660Y-152909198D01*
X146906662Y-152909198D01*
X147064348Y-152909198D01*
X147064349Y-152909197D01*
X147219001Y-152878435D01*
X147311333Y-152840189D01*
X147380802Y-152832721D01*
X147443281Y-152863996D01*
X147461886Y-152885859D01*
X147478208Y-152910285D01*
X147478213Y-152910292D01*
X147589707Y-153021786D01*
X147589711Y-153021789D01*
X147720814Y-153109390D01*
X147720827Y-153109397D01*
X147833119Y-153155909D01*
X147866503Y-153169737D01*
X147967492Y-153189825D01*
X148021153Y-153200499D01*
X148021156Y-153200500D01*
X148021158Y-153200500D01*
X148178843Y-153200500D01*
X148232508Y-153189825D01*
X148263813Y-153183598D01*
X148333403Y-153189825D01*
X148388581Y-153232687D01*
X148411826Y-153298577D01*
X148395759Y-153366574D01*
X148387272Y-153379524D01*
X148366205Y-153407665D01*
X148366202Y-153407671D01*
X148315908Y-153542517D01*
X148309501Y-153602116D01*
X148309500Y-153602135D01*
X148309500Y-155397870D01*
X148309501Y-155397876D01*
X148315908Y-155457483D01*
X148366202Y-155592328D01*
X148366206Y-155592335D01*
X148452452Y-155707544D01*
X148452455Y-155707547D01*
X148544208Y-155776234D01*
X148586079Y-155832168D01*
X148591063Y-155901859D01*
X148557577Y-155963182D01*
X148496254Y-155996666D01*
X148469897Y-155999500D01*
X138124500Y-155999500D01*
X138057461Y-155979815D01*
X138011706Y-155927011D01*
X138000500Y-155875500D01*
X138000500Y-153421153D01*
X141299500Y-153421153D01*
X141299500Y-153578846D01*
X141330261Y-153733489D01*
X141330264Y-153733501D01*
X141390602Y-153879172D01*
X141390609Y-153879185D01*
X141478210Y-154010288D01*
X141478213Y-154010292D01*
X141589707Y-154121786D01*
X141589711Y-154121789D01*
X141720814Y-154209390D01*
X141720827Y-154209397D01*
X141818853Y-154250000D01*
X141866503Y-154269737D01*
X142021153Y-154300499D01*
X142021156Y-154300500D01*
X142021158Y-154300500D01*
X142178844Y-154300500D01*
X142178845Y-154300499D01*
X142333497Y-154269737D01*
X142479179Y-154209394D01*
X142610289Y-154121789D01*
X142721789Y-154010289D01*
X142809394Y-153879179D01*
X142813803Y-153868536D01*
X142823138Y-153845998D01*
X142869737Y-153733497D01*
X142900500Y-153578842D01*
X142900500Y-153421158D01*
X142900500Y-153421155D01*
X142900499Y-153421153D01*
X142889642Y-153366574D01*
X142869737Y-153266503D01*
X142855730Y-153232687D01*
X142809397Y-153120827D01*
X142809390Y-153120814D01*
X142721789Y-152989711D01*
X142721786Y-152989707D01*
X142610292Y-152878213D01*
X142610288Y-152878210D01*
X142479185Y-152790609D01*
X142479172Y-152790602D01*
X142333501Y-152730264D01*
X142333489Y-152730261D01*
X142178845Y-152699500D01*
X142178842Y-152699500D01*
X142021158Y-152699500D01*
X142021155Y-152699500D01*
X141866510Y-152730261D01*
X141866498Y-152730264D01*
X141720827Y-152790602D01*
X141720814Y-152790609D01*
X141589711Y-152878210D01*
X141589707Y-152878213D01*
X141478213Y-152989707D01*
X141478210Y-152989711D01*
X141390609Y-153120814D01*
X141390602Y-153120827D01*
X141330264Y-153266498D01*
X141330261Y-153266510D01*
X141299500Y-153421153D01*
X138000500Y-153421153D01*
X138000500Y-150821153D01*
X141899500Y-150821153D01*
X141899500Y-150978846D01*
X141930261Y-151133489D01*
X141930264Y-151133501D01*
X141990602Y-151279172D01*
X141990609Y-151279185D01*
X142078210Y-151410288D01*
X142078213Y-151410292D01*
X142189707Y-151521786D01*
X142189711Y-151521789D01*
X142320814Y-151609390D01*
X142320827Y-151609397D01*
X142463536Y-151668508D01*
X142466503Y-151669737D01*
X142621153Y-151700499D01*
X142621156Y-151700500D01*
X142621158Y-151700500D01*
X142778844Y-151700500D01*
X142778845Y-151700499D01*
X142933497Y-151669737D01*
X143079179Y-151609394D01*
X143210289Y-151521789D01*
X143321789Y-151410289D01*
X143409394Y-151279179D01*
X143469737Y-151133497D01*
X143500500Y-150978842D01*
X143500500Y-150821158D01*
X143500500Y-150821155D01*
X143500499Y-150821153D01*
X143478269Y-150709397D01*
X143469737Y-150666503D01*
X143451215Y-150621786D01*
X143409397Y-150520827D01*
X143409390Y-150520814D01*
X143321789Y-150389711D01*
X143321786Y-150389707D01*
X143210292Y-150278213D01*
X143210288Y-150278210D01*
X143079185Y-150190609D01*
X143079172Y-150190602D01*
X142933501Y-150130264D01*
X142933489Y-150130261D01*
X142778845Y-150099500D01*
X142778842Y-150099500D01*
X142621158Y-150099500D01*
X142621155Y-150099500D01*
X142466510Y-150130261D01*
X142466498Y-150130264D01*
X142320827Y-150190602D01*
X142320814Y-150190609D01*
X142189711Y-150278210D01*
X142189707Y-150278213D01*
X142078213Y-150389707D01*
X142078210Y-150389711D01*
X141990609Y-150520814D01*
X141990602Y-150520827D01*
X141930264Y-150666498D01*
X141930261Y-150666510D01*
X141899500Y-150821153D01*
X138000500Y-150821153D01*
X138000500Y-149421153D01*
X146799500Y-149421153D01*
X146799500Y-149578846D01*
X146830261Y-149733489D01*
X146830264Y-149733501D01*
X146890602Y-149879172D01*
X146890609Y-149879185D01*
X146978210Y-150010288D01*
X146978213Y-150010292D01*
X147089707Y-150121786D01*
X147089711Y-150121789D01*
X147220814Y-150209390D01*
X147220827Y-150209397D01*
X147366498Y-150269735D01*
X147366503Y-150269737D01*
X147521153Y-150300499D01*
X147521156Y-150300500D01*
X147521158Y-150300500D01*
X147678844Y-150300500D01*
X147678845Y-150300499D01*
X147833497Y-150269737D01*
X147889120Y-150246697D01*
X147984808Y-150207063D01*
X147985898Y-150209694D01*
X148042316Y-150197886D01*
X148107587Y-150222818D01*
X148147058Y-150274045D01*
X148190602Y-150379172D01*
X148190609Y-150379185D01*
X148278210Y-150510288D01*
X148278213Y-150510292D01*
X148389707Y-150621786D01*
X148389711Y-150621789D01*
X148520814Y-150709390D01*
X148520827Y-150709397D01*
X148666498Y-150769735D01*
X148666503Y-150769737D01*
X148821153Y-150800499D01*
X148821156Y-150800500D01*
X148821158Y-150800500D01*
X148978844Y-150800500D01*
X148978845Y-150800499D01*
X149133497Y-150769737D01*
X149279179Y-150709394D01*
X149410289Y-150621789D01*
X149521789Y-150510289D01*
X149609394Y-150379179D01*
X149669737Y-150233497D01*
X149680563Y-150179072D01*
X149712947Y-150117161D01*
X149773663Y-150082587D01*
X149826372Y-150081646D01*
X149921155Y-150100500D01*
X149921158Y-150100500D01*
X150078844Y-150100500D01*
X150078845Y-150100499D01*
X150233497Y-150069737D01*
X150379179Y-150009394D01*
X150510289Y-149921789D01*
X150563551Y-149868527D01*
X150624874Y-149835041D01*
X150694566Y-149840025D01*
X150698677Y-149841642D01*
X150766503Y-149869737D01*
X150766506Y-149869737D01*
X150766511Y-149869739D01*
X150921153Y-149900499D01*
X150921156Y-149900500D01*
X150921158Y-149900500D01*
X151078844Y-149900500D01*
X151078845Y-149900499D01*
X151233497Y-149869737D01*
X151301315Y-149841645D01*
X151370782Y-149834177D01*
X151433261Y-149865452D01*
X151436447Y-149868526D01*
X151489707Y-149921786D01*
X151489711Y-149921789D01*
X151620814Y-150009390D01*
X151620827Y-150009397D01*
X151766498Y-150069735D01*
X151766503Y-150069737D01*
X151916131Y-150099500D01*
X151921153Y-150100499D01*
X151921156Y-150100500D01*
X151921158Y-150100500D01*
X152078844Y-150100500D01*
X152078845Y-150100499D01*
X152233497Y-150069737D01*
X152379179Y-150009394D01*
X152510289Y-149921789D01*
X152621789Y-149810289D01*
X152709394Y-149679179D01*
X152769737Y-149533497D01*
X152800500Y-149378842D01*
X152800500Y-149221158D01*
X152800500Y-149221155D01*
X152800499Y-149221153D01*
X152780543Y-149120827D01*
X152769737Y-149066503D01*
X152737929Y-148989711D01*
X152709397Y-148920827D01*
X152709390Y-148920814D01*
X152621789Y-148789711D01*
X152621786Y-148789707D01*
X152510292Y-148678213D01*
X152510288Y-148678210D01*
X152379185Y-148590609D01*
X152379172Y-148590602D01*
X152233501Y-148530264D01*
X152233489Y-148530261D01*
X152078845Y-148499500D01*
X152078842Y-148499500D01*
X151921158Y-148499500D01*
X151921155Y-148499500D01*
X151766505Y-148530261D01*
X151766497Y-148530264D01*
X151698682Y-148558353D01*
X151629213Y-148565820D01*
X151566734Y-148534544D01*
X151563551Y-148531472D01*
X151510292Y-148478213D01*
X151510288Y-148478210D01*
X151379185Y-148390609D01*
X151379172Y-148390602D01*
X151233501Y-148330264D01*
X151233489Y-148330261D01*
X151078845Y-148299500D01*
X151078842Y-148299500D01*
X150921158Y-148299500D01*
X150921155Y-148299500D01*
X150766510Y-148330261D01*
X150766498Y-148330264D01*
X150620827Y-148390602D01*
X150620814Y-148390609D01*
X150489711Y-148478210D01*
X150489706Y-148478214D01*
X150436446Y-148531474D01*
X150375123Y-148564958D01*
X150305431Y-148559973D01*
X150301354Y-148558369D01*
X150233497Y-148530263D01*
X150233490Y-148530261D01*
X150233489Y-148530261D01*
X150233488Y-148530260D01*
X150078845Y-148499500D01*
X150078842Y-148499500D01*
X149921158Y-148499500D01*
X149921155Y-148499500D01*
X149766510Y-148530261D01*
X149766498Y-148530264D01*
X149620827Y-148590602D01*
X149620814Y-148590609D01*
X149489711Y-148678210D01*
X149489707Y-148678213D01*
X149378213Y-148789707D01*
X149378210Y-148789711D01*
X149290609Y-148920814D01*
X149290602Y-148920827D01*
X149230264Y-149066498D01*
X149230261Y-149066507D01*
X149219436Y-149120929D01*
X149187050Y-149182840D01*
X149126334Y-149217413D01*
X149073628Y-149218353D01*
X148978846Y-149199500D01*
X148978842Y-149199500D01*
X148821158Y-149199500D01*
X148821155Y-149199500D01*
X148666510Y-149230261D01*
X148666498Y-149230264D01*
X148515193Y-149292937D01*
X148514133Y-149290379D01*
X148457251Y-149302079D01*
X148392068Y-149276919D01*
X148352942Y-149225957D01*
X148309394Y-149120821D01*
X148309390Y-149120814D01*
X148221789Y-148989711D01*
X148221786Y-148989707D01*
X148110292Y-148878213D01*
X148110288Y-148878210D01*
X147979185Y-148790609D01*
X147979172Y-148790602D01*
X147833501Y-148730264D01*
X147833489Y-148730261D01*
X147678845Y-148699500D01*
X147678842Y-148699500D01*
X147521158Y-148699500D01*
X147521155Y-148699500D01*
X147366510Y-148730261D01*
X147366498Y-148730264D01*
X147220827Y-148790602D01*
X147220814Y-148790609D01*
X147089711Y-148878210D01*
X147089707Y-148878213D01*
X146978213Y-148989707D01*
X146978210Y-148989711D01*
X146890609Y-149120814D01*
X146890602Y-149120827D01*
X146830264Y-149266498D01*
X146830261Y-149266510D01*
X146799500Y-149421153D01*
X138000500Y-149421153D01*
X138000500Y-147921153D01*
X144899500Y-147921153D01*
X144899500Y-148078846D01*
X144930261Y-148233489D01*
X144930264Y-148233501D01*
X144990602Y-148379172D01*
X144990609Y-148379185D01*
X145078210Y-148510288D01*
X145078213Y-148510292D01*
X145189707Y-148621786D01*
X145189711Y-148621789D01*
X145320814Y-148709390D01*
X145320827Y-148709397D01*
X145466498Y-148769735D01*
X145466503Y-148769737D01*
X145621153Y-148800499D01*
X145621156Y-148800500D01*
X145621158Y-148800500D01*
X145778844Y-148800500D01*
X145778845Y-148800499D01*
X145933497Y-148769737D01*
X146079179Y-148709394D01*
X146210289Y-148621789D01*
X146321789Y-148510289D01*
X146409394Y-148379179D01*
X146469737Y-148233497D01*
X146500500Y-148078842D01*
X146500500Y-147921158D01*
X146500500Y-147921155D01*
X146500499Y-147921153D01*
X146469738Y-147766510D01*
X146469737Y-147766503D01*
X146469735Y-147766498D01*
X146409397Y-147620827D01*
X146409390Y-147620814D01*
X146321789Y-147489711D01*
X146321786Y-147489707D01*
X146210292Y-147378213D01*
X146210288Y-147378210D01*
X146079185Y-147290609D01*
X146079172Y-147290602D01*
X145933501Y-147230264D01*
X145933489Y-147230261D01*
X145778845Y-147199500D01*
X145778842Y-147199500D01*
X145621158Y-147199500D01*
X145621155Y-147199500D01*
X145466510Y-147230261D01*
X145466498Y-147230264D01*
X145320827Y-147290602D01*
X145320814Y-147290609D01*
X145189711Y-147378210D01*
X145189707Y-147378213D01*
X145078213Y-147489707D01*
X145078210Y-147489711D01*
X144990609Y-147620814D01*
X144990602Y-147620827D01*
X144930264Y-147766498D01*
X144930261Y-147766510D01*
X144899500Y-147921153D01*
X138000500Y-147921153D01*
X138000500Y-145921153D01*
X146899500Y-145921153D01*
X146899500Y-146078846D01*
X146930261Y-146233489D01*
X146930264Y-146233501D01*
X146990602Y-146379172D01*
X146990609Y-146379185D01*
X147078210Y-146510288D01*
X147078213Y-146510292D01*
X147189707Y-146621786D01*
X147189711Y-146621789D01*
X147320814Y-146709390D01*
X147320827Y-146709397D01*
X147466498Y-146769735D01*
X147466503Y-146769737D01*
X147621153Y-146800499D01*
X147621156Y-146800500D01*
X147621158Y-146800500D01*
X147778844Y-146800500D01*
X147778845Y-146800499D01*
X147933497Y-146769737D01*
X148079179Y-146709394D01*
X148210289Y-146621789D01*
X148210925Y-146621153D01*
X152917000Y-146621153D01*
X152917000Y-146778846D01*
X152947761Y-146933489D01*
X152947764Y-146933501D01*
X153008102Y-147079172D01*
X153008109Y-147079185D01*
X153095710Y-147210288D01*
X153095713Y-147210292D01*
X153207207Y-147321786D01*
X153207211Y-147321789D01*
X153338314Y-147409390D01*
X153338327Y-147409397D01*
X153483998Y-147469735D01*
X153484003Y-147469737D01*
X153638653Y-147500499D01*
X153638656Y-147500500D01*
X153638658Y-147500500D01*
X153796344Y-147500500D01*
X153796345Y-147500499D01*
X153950997Y-147469737D01*
X154096679Y-147409394D01*
X154227789Y-147321789D01*
X154339289Y-147210289D01*
X154426894Y-147079179D01*
X154487237Y-146933497D01*
X154518000Y-146778842D01*
X154518000Y-146621158D01*
X154518000Y-146621155D01*
X154517999Y-146621153D01*
X154495947Y-146510292D01*
X154487237Y-146466503D01*
X154451069Y-146379185D01*
X154426897Y-146320827D01*
X154426890Y-146320814D01*
X154339289Y-146189711D01*
X154339286Y-146189707D01*
X154227792Y-146078213D01*
X154227788Y-146078210D01*
X154096685Y-145990609D01*
X154096672Y-145990602D01*
X153951001Y-145930264D01*
X153950989Y-145930261D01*
X153796345Y-145899500D01*
X153796342Y-145899500D01*
X153638658Y-145899500D01*
X153638655Y-145899500D01*
X153484010Y-145930261D01*
X153483998Y-145930264D01*
X153338327Y-145990602D01*
X153338314Y-145990609D01*
X153207211Y-146078210D01*
X153207207Y-146078213D01*
X153095713Y-146189707D01*
X153095710Y-146189711D01*
X153008109Y-146320814D01*
X153008102Y-146320827D01*
X152947764Y-146466498D01*
X152947761Y-146466510D01*
X152917000Y-146621153D01*
X148210925Y-146621153D01*
X148304694Y-146527385D01*
X148321786Y-146510292D01*
X148321789Y-146510289D01*
X148409394Y-146379179D01*
X148469737Y-146233497D01*
X148500500Y-146078842D01*
X148500500Y-145921158D01*
X148500500Y-145921155D01*
X148500499Y-145921153D01*
X148469738Y-145766510D01*
X148469737Y-145766503D01*
X148469735Y-145766498D01*
X148409397Y-145620827D01*
X148409390Y-145620814D01*
X148321789Y-145489711D01*
X148321786Y-145489707D01*
X148210292Y-145378213D01*
X148210288Y-145378210D01*
X148079185Y-145290609D01*
X148079172Y-145290602D01*
X147933501Y-145230264D01*
X147933489Y-145230261D01*
X147778845Y-145199500D01*
X147778842Y-145199500D01*
X147621158Y-145199500D01*
X147621155Y-145199500D01*
X147466510Y-145230261D01*
X147466498Y-145230264D01*
X147320827Y-145290602D01*
X147320814Y-145290609D01*
X147189711Y-145378210D01*
X147189707Y-145378213D01*
X147078213Y-145489707D01*
X147078210Y-145489711D01*
X146990609Y-145620814D01*
X146990602Y-145620827D01*
X146930264Y-145766498D01*
X146930261Y-145766510D01*
X146899500Y-145921153D01*
X138000500Y-145921153D01*
X138000500Y-138914632D01*
X138915300Y-138914632D01*
X138915300Y-139085367D01*
X138942009Y-139254002D01*
X138942009Y-139254005D01*
X138994767Y-139416377D01*
X138994769Y-139416380D01*
X139072282Y-139568509D01*
X139073621Y-139570694D01*
X139073876Y-139571637D01*
X139074493Y-139572848D01*
X139074238Y-139572977D01*
X139091862Y-139638140D01*
X139074519Y-139697209D01*
X139074921Y-139697414D01*
X139073831Y-139699552D01*
X139073623Y-139700262D01*
X139072713Y-139701746D01*
X138995233Y-139853808D01*
X138942496Y-140016115D01*
X138915800Y-140184666D01*
X138915800Y-140355333D01*
X138942496Y-140523884D01*
X138995233Y-140686191D01*
X139072711Y-140838250D01*
X139073918Y-140840219D01*
X139074147Y-140841068D01*
X139074921Y-140842586D01*
X139074601Y-140842748D01*
X139092156Y-140907667D01*
X139074653Y-140967277D01*
X139074921Y-140967414D01*
X139074194Y-140968840D01*
X139073918Y-140969781D01*
X139072711Y-140971749D01*
X138995233Y-141123808D01*
X138942496Y-141286115D01*
X138915800Y-141454666D01*
X138915800Y-141625333D01*
X138942496Y-141793884D01*
X138995233Y-141956191D01*
X139072713Y-142108253D01*
X139073623Y-142109738D01*
X139073796Y-142110378D01*
X139074921Y-142112586D01*
X139074457Y-142112822D01*
X139091862Y-142177185D01*
X139074286Y-142237047D01*
X139074493Y-142237153D01*
X139073931Y-142238254D01*
X139073625Y-142239299D01*
X139072285Y-142241485D01*
X138994768Y-142393619D01*
X138994767Y-142393622D01*
X138942009Y-142555994D01*
X138942009Y-142555997D01*
X138915300Y-142724632D01*
X138915300Y-142895367D01*
X138942009Y-143064002D01*
X138942009Y-143064005D01*
X138994767Y-143226377D01*
X138994769Y-143226380D01*
X139072282Y-143378509D01*
X139073621Y-143380694D01*
X139073876Y-143381637D01*
X139074493Y-143382848D01*
X139074238Y-143382977D01*
X139091862Y-143448140D01*
X139074519Y-143507209D01*
X139074921Y-143507414D01*
X139073831Y-143509552D01*
X139073623Y-143510262D01*
X139072713Y-143511746D01*
X138995233Y-143663808D01*
X138942496Y-143826115D01*
X138915800Y-143994666D01*
X138915800Y-144165333D01*
X138942496Y-144333884D01*
X138995233Y-144496193D01*
X139072711Y-144648249D01*
X139075019Y-144651425D01*
X139075020Y-144651425D01*
X139644400Y-144082045D01*
X139644400Y-144126816D01*
X139668634Y-144217256D01*
X139715450Y-144298343D01*
X139781657Y-144364550D01*
X139862744Y-144411366D01*
X139953184Y-144435600D01*
X139997952Y-144435600D01*
X139428574Y-145004978D01*
X139428574Y-145004980D01*
X139431750Y-145007288D01*
X139583806Y-145084766D01*
X139746115Y-145137503D01*
X139914667Y-145164200D01*
X140085333Y-145164200D01*
X140253884Y-145137503D01*
X140416191Y-145084766D01*
X140568237Y-145007294D01*
X140569715Y-145006389D01*
X140570354Y-145006215D01*
X140572586Y-145005079D01*
X140572824Y-145005547D01*
X140637158Y-144988136D01*
X140697045Y-145005716D01*
X140697152Y-145005507D01*
X140698265Y-145006074D01*
X140699310Y-145006381D01*
X140701493Y-145007719D01*
X140853620Y-145085231D01*
X140853622Y-145085232D01*
X141015995Y-145137990D01*
X141015996Y-145137990D01*
X141015999Y-145137991D01*
X141184632Y-145164700D01*
X141184633Y-145164700D01*
X141355367Y-145164700D01*
X141355368Y-145164700D01*
X141524001Y-145137991D01*
X141524004Y-145137990D01*
X141524005Y-145137990D01*
X141686377Y-145085232D01*
X141686377Y-145085231D01*
X141686380Y-145085231D01*
X141838507Y-145007719D01*
X141976635Y-144907363D01*
X142097363Y-144786635D01*
X142197719Y-144648507D01*
X142275231Y-144496380D01*
X142327991Y-144334001D01*
X142354700Y-144165368D01*
X142354700Y-143994632D01*
X142327991Y-143825999D01*
X142327990Y-143825995D01*
X142327990Y-143825994D01*
X142275232Y-143663622D01*
X142275230Y-143663619D01*
X142254963Y-143623842D01*
X142197719Y-143511493D01*
X142197710Y-143511481D01*
X142196681Y-143509801D01*
X142196481Y-143509065D01*
X142195507Y-143507152D01*
X142195908Y-143506947D01*
X142178430Y-143442357D01*
X142195851Y-143383023D01*
X142195507Y-143382848D01*
X142196442Y-143381012D01*
X142196681Y-143380199D01*
X142197706Y-143378523D01*
X142197719Y-143378507D01*
X142275231Y-143226380D01*
X142327991Y-143064001D01*
X142354700Y-142895368D01*
X142354700Y-142724632D01*
X142327991Y-142555999D01*
X142327990Y-142555995D01*
X142327990Y-142555994D01*
X142275232Y-142393622D01*
X142275230Y-142393619D01*
X142267701Y-142378842D01*
X142197719Y-142241493D01*
X142197710Y-142241481D01*
X142196681Y-142239801D01*
X142196481Y-142239065D01*
X142195507Y-142237152D01*
X142195908Y-142236947D01*
X142178430Y-142172357D01*
X142195851Y-142113023D01*
X142195507Y-142112848D01*
X142196442Y-142111012D01*
X142196681Y-142110199D01*
X142197706Y-142108523D01*
X142197719Y-142108507D01*
X142275231Y-141956380D01*
X142318065Y-141824550D01*
X142327990Y-141794005D01*
X142327990Y-141794004D01*
X142327991Y-141794001D01*
X142354700Y-141625368D01*
X142354700Y-141454632D01*
X142327991Y-141285999D01*
X142327990Y-141285995D01*
X142327990Y-141285994D01*
X142275232Y-141123622D01*
X142275230Y-141123619D01*
X142197719Y-140971493D01*
X142197710Y-140971481D01*
X142196681Y-140969801D01*
X142196481Y-140969065D01*
X142195507Y-140967152D01*
X142195908Y-140966947D01*
X142178430Y-140902357D01*
X142195851Y-140843023D01*
X142195507Y-140842848D01*
X142196442Y-140841012D01*
X142196681Y-140840199D01*
X142197706Y-140838523D01*
X142197719Y-140838507D01*
X142275231Y-140686380D01*
X142294980Y-140625600D01*
X142327990Y-140524005D01*
X142327990Y-140524004D01*
X142327991Y-140524001D01*
X142354700Y-140355368D01*
X142354700Y-140184632D01*
X142327991Y-140015999D01*
X142327990Y-140015995D01*
X142327990Y-140015994D01*
X142275232Y-139853622D01*
X142275231Y-139853619D01*
X142256470Y-139816799D01*
X142207736Y-139721153D01*
X161199500Y-139721153D01*
X161199500Y-139878846D01*
X161230261Y-140033489D01*
X161230264Y-140033501D01*
X161290602Y-140179172D01*
X161290609Y-140179185D01*
X161378210Y-140310288D01*
X161378213Y-140310292D01*
X161380240Y-140312319D01*
X161380962Y-140313642D01*
X161382076Y-140314999D01*
X161381818Y-140315210D01*
X161413725Y-140373642D01*
X161408741Y-140443334D01*
X161382001Y-140484939D01*
X161382076Y-140485001D01*
X161381552Y-140485639D01*
X161380240Y-140487681D01*
X161378213Y-140489707D01*
X161378210Y-140489711D01*
X161290609Y-140620814D01*
X161290602Y-140620827D01*
X161230264Y-140766498D01*
X161230261Y-140766510D01*
X161199500Y-140921153D01*
X161199500Y-141078846D01*
X161230261Y-141233489D01*
X161230264Y-141233501D01*
X161290602Y-141379172D01*
X161290609Y-141379185D01*
X161378210Y-141510288D01*
X161378213Y-141510292D01*
X161430240Y-141562319D01*
X161463725Y-141623642D01*
X161458741Y-141693334D01*
X161430240Y-141737681D01*
X161378213Y-141789707D01*
X161378210Y-141789711D01*
X161290609Y-141920814D01*
X161290602Y-141920827D01*
X161230264Y-142066498D01*
X161230261Y-142066510D01*
X161199500Y-142221153D01*
X161199500Y-142378846D01*
X161230261Y-142533489D01*
X161230264Y-142533501D01*
X161290602Y-142679172D01*
X161290609Y-142679185D01*
X161378210Y-142810288D01*
X161378213Y-142810292D01*
X161402740Y-142834819D01*
X161436225Y-142896142D01*
X161431241Y-142965834D01*
X161402740Y-143010181D01*
X161378213Y-143034707D01*
X161378210Y-143034711D01*
X161290609Y-143165814D01*
X161290602Y-143165827D01*
X161230264Y-143311498D01*
X161230261Y-143311510D01*
X161199500Y-143466153D01*
X161199500Y-143623846D01*
X161230261Y-143778489D01*
X161230264Y-143778501D01*
X161290602Y-143924172D01*
X161290609Y-143924185D01*
X161378210Y-144055288D01*
X161378213Y-144055292D01*
X161489707Y-144166786D01*
X161489711Y-144166789D01*
X161620814Y-144254390D01*
X161620827Y-144254397D01*
X161726924Y-144298343D01*
X161766503Y-144314737D01*
X161915915Y-144344457D01*
X161921153Y-144345499D01*
X161921156Y-144345500D01*
X161921158Y-144345500D01*
X162078844Y-144345500D01*
X162078845Y-144345499D01*
X162233497Y-144314737D01*
X162379179Y-144254394D01*
X162510289Y-144166789D01*
X162621789Y-144055289D01*
X162709394Y-143924179D01*
X162769737Y-143778497D01*
X162800500Y-143623842D01*
X162800500Y-143466158D01*
X162800500Y-143466155D01*
X162800499Y-143466153D01*
X162783928Y-143382848D01*
X162769737Y-143311503D01*
X162734477Y-143226377D01*
X162709397Y-143165827D01*
X162709390Y-143165814D01*
X162621790Y-143034712D01*
X162621785Y-143034707D01*
X162597258Y-143010180D01*
X162563774Y-142948860D01*
X162568757Y-142879168D01*
X162597258Y-142834819D01*
X162621789Y-142810289D01*
X162709394Y-142679179D01*
X162769737Y-142533497D01*
X162800500Y-142378842D01*
X162800500Y-142221158D01*
X162800500Y-142221155D01*
X162800499Y-142221153D01*
X162791753Y-142177185D01*
X162769737Y-142066503D01*
X162724045Y-141956191D01*
X162709397Y-141920827D01*
X162709390Y-141920814D01*
X162621789Y-141789711D01*
X162621786Y-141789707D01*
X162569760Y-141737681D01*
X162536275Y-141676358D01*
X162541259Y-141606666D01*
X162569760Y-141562319D01*
X162621786Y-141510292D01*
X162621789Y-141510289D01*
X162709394Y-141379179D01*
X162769737Y-141233497D01*
X162800500Y-141078842D01*
X162800500Y-140921158D01*
X162800500Y-140921155D01*
X162800499Y-140921153D01*
X162784396Y-140840199D01*
X162769737Y-140766503D01*
X162769735Y-140766498D01*
X162709397Y-140620827D01*
X162709390Y-140620814D01*
X162621789Y-140489711D01*
X162619766Y-140487688D01*
X162619043Y-140486365D01*
X162617924Y-140485001D01*
X162618182Y-140484788D01*
X162586276Y-140426368D01*
X162591255Y-140356676D01*
X162617999Y-140315060D01*
X162617924Y-140314999D01*
X162618454Y-140314351D01*
X162619766Y-140312312D01*
X162621789Y-140310289D01*
X162709394Y-140179179D01*
X162769737Y-140033497D01*
X162800500Y-139878842D01*
X162800500Y-139721158D01*
X162800500Y-139721155D01*
X162800499Y-139721153D01*
X162788714Y-139661907D01*
X162769737Y-139566503D01*
X162769735Y-139566498D01*
X162709397Y-139420827D01*
X162709390Y-139420814D01*
X162621789Y-139289711D01*
X162621786Y-139289707D01*
X162510292Y-139178213D01*
X162510288Y-139178210D01*
X162379185Y-139090609D01*
X162379172Y-139090602D01*
X162233501Y-139030264D01*
X162233489Y-139030261D01*
X162078845Y-138999500D01*
X162078842Y-138999500D01*
X161921158Y-138999500D01*
X161921155Y-138999500D01*
X161766510Y-139030261D01*
X161766498Y-139030264D01*
X161620827Y-139090602D01*
X161620814Y-139090609D01*
X161489711Y-139178210D01*
X161489707Y-139178213D01*
X161378213Y-139289707D01*
X161378210Y-139289711D01*
X161290609Y-139420814D01*
X161290602Y-139420827D01*
X161230264Y-139566498D01*
X161230261Y-139566510D01*
X161199500Y-139721153D01*
X142207736Y-139721153D01*
X142197719Y-139701493D01*
X142195876Y-139698957D01*
X142192256Y-139691955D01*
X142186426Y-139661907D01*
X142178430Y-139632357D01*
X142179793Y-139627714D01*
X142178949Y-139623364D01*
X142186985Y-139603217D01*
X142195851Y-139573023D01*
X142195507Y-139572848D01*
X142196442Y-139571012D01*
X142196681Y-139570199D01*
X142197706Y-139568523D01*
X142197719Y-139568507D01*
X142275231Y-139416380D01*
X142316388Y-139289711D01*
X142327990Y-139254005D01*
X142327990Y-139254004D01*
X142327991Y-139254001D01*
X142354700Y-139085368D01*
X142354700Y-138914632D01*
X142327991Y-138745999D01*
X142327990Y-138745995D01*
X142327990Y-138745994D01*
X142275232Y-138583622D01*
X142275228Y-138583614D01*
X142218033Y-138471360D01*
X142197720Y-138431494D01*
X142190207Y-138421153D01*
X148699500Y-138421153D01*
X148699500Y-138578846D01*
X148730261Y-138733489D01*
X148730264Y-138733501D01*
X148790602Y-138879172D01*
X148790609Y-138879185D01*
X148878210Y-139010288D01*
X148878213Y-139010292D01*
X148989707Y-139121786D01*
X148989711Y-139121789D01*
X149120814Y-139209390D01*
X149120827Y-139209397D01*
X149228515Y-139254002D01*
X149266503Y-139269737D01*
X149421153Y-139300499D01*
X149421156Y-139300500D01*
X149421158Y-139300500D01*
X149578844Y-139300500D01*
X149578845Y-139300499D01*
X149733497Y-139269737D01*
X149879179Y-139209394D01*
X150010289Y-139121789D01*
X150121789Y-139010289D01*
X150209394Y-138879179D01*
X150269737Y-138733497D01*
X150300500Y-138578842D01*
X150300500Y-138421158D01*
X150300500Y-138421155D01*
X150300499Y-138421153D01*
X150275080Y-138293365D01*
X150269737Y-138266503D01*
X150230857Y-138172637D01*
X150209397Y-138120827D01*
X150209390Y-138120814D01*
X150121789Y-137989711D01*
X150121786Y-137989707D01*
X150010292Y-137878213D01*
X150010288Y-137878210D01*
X149879185Y-137790609D01*
X149879172Y-137790602D01*
X149733501Y-137730264D01*
X149733489Y-137730261D01*
X149578845Y-137699500D01*
X149578842Y-137699500D01*
X149421158Y-137699500D01*
X149421155Y-137699500D01*
X149266510Y-137730261D01*
X149266498Y-137730264D01*
X149120827Y-137790602D01*
X149120814Y-137790609D01*
X148989711Y-137878210D01*
X148989707Y-137878213D01*
X148878213Y-137989707D01*
X148878210Y-137989711D01*
X148790609Y-138120814D01*
X148790602Y-138120827D01*
X148730264Y-138266498D01*
X148730261Y-138266510D01*
X148699500Y-138421153D01*
X142190207Y-138421153D01*
X142182643Y-138410743D01*
X142097363Y-138293365D01*
X141976635Y-138172637D01*
X141838507Y-138072281D01*
X141686380Y-137994769D01*
X141686377Y-137994767D01*
X141524004Y-137942009D01*
X141397526Y-137921977D01*
X141355368Y-137915300D01*
X141184632Y-137915300D01*
X141128421Y-137924203D01*
X141015997Y-137942009D01*
X141015994Y-137942009D01*
X140853622Y-137994767D01*
X140853619Y-137994769D01*
X140701493Y-138072280D01*
X140699788Y-138073326D01*
X140699051Y-138073525D01*
X140697152Y-138074493D01*
X140696948Y-138074093D01*
X140632341Y-138091568D01*
X140573022Y-138074151D01*
X140572848Y-138074493D01*
X140571027Y-138073565D01*
X140570212Y-138073326D01*
X140568506Y-138072280D01*
X140416380Y-137994769D01*
X140416377Y-137994767D01*
X140254004Y-137942009D01*
X140127526Y-137921977D01*
X140085368Y-137915300D01*
X139914632Y-137915300D01*
X139858421Y-137924203D01*
X139745997Y-137942009D01*
X139745994Y-137942009D01*
X139583622Y-137994767D01*
X139583619Y-137994769D01*
X139431492Y-138072281D01*
X139364675Y-138120827D01*
X139293365Y-138172637D01*
X139293363Y-138172639D01*
X139293362Y-138172639D01*
X139172639Y-138293362D01*
X139172639Y-138293363D01*
X139172637Y-138293365D01*
X139129538Y-138352685D01*
X139072281Y-138431492D01*
X138994769Y-138583619D01*
X138994767Y-138583622D01*
X138942009Y-138745994D01*
X138942009Y-138745997D01*
X138915300Y-138914632D01*
X138000500Y-138914632D01*
X138000500Y-133371153D01*
X142699500Y-133371153D01*
X142699500Y-133528846D01*
X142730261Y-133683489D01*
X142730264Y-133683501D01*
X142790602Y-133829172D01*
X142790609Y-133829185D01*
X142878210Y-133960288D01*
X142878213Y-133960292D01*
X142989707Y-134071786D01*
X142989711Y-134071789D01*
X143120814Y-134159390D01*
X143120827Y-134159397D01*
X143266498Y-134219735D01*
X143266503Y-134219737D01*
X143421153Y-134250499D01*
X143421156Y-134250500D01*
X143421158Y-134250500D01*
X143578844Y-134250500D01*
X143578845Y-134250499D01*
X143733497Y-134219737D01*
X143879179Y-134159394D01*
X144010289Y-134071789D01*
X144121789Y-133960289D01*
X144209394Y-133829179D01*
X144254139Y-133721153D01*
X147699500Y-133721153D01*
X147699500Y-133878846D01*
X147730261Y-134033489D01*
X147730264Y-134033501D01*
X147790602Y-134179172D01*
X147790609Y-134179185D01*
X147878210Y-134310288D01*
X147878213Y-134310292D01*
X147989707Y-134421786D01*
X147989711Y-134421789D01*
X148120814Y-134509390D01*
X148120827Y-134509397D01*
X148266498Y-134569735D01*
X148266503Y-134569737D01*
X148421153Y-134600499D01*
X148421156Y-134600500D01*
X148421158Y-134600500D01*
X148578844Y-134600500D01*
X148578845Y-134600499D01*
X148733497Y-134569737D01*
X148850790Y-134521153D01*
X152899500Y-134521153D01*
X152899500Y-134678846D01*
X152930261Y-134833489D01*
X152930264Y-134833501D01*
X152990602Y-134979172D01*
X152990609Y-134979185D01*
X153078210Y-135110288D01*
X153078213Y-135110292D01*
X153189707Y-135221786D01*
X153189711Y-135221789D01*
X153320814Y-135309390D01*
X153320827Y-135309397D01*
X153466498Y-135369735D01*
X153466503Y-135369737D01*
X153621153Y-135400499D01*
X153621156Y-135400500D01*
X153621158Y-135400500D01*
X153778844Y-135400500D01*
X153778845Y-135400499D01*
X153933497Y-135369737D01*
X154079179Y-135309394D01*
X154210289Y-135221789D01*
X154210292Y-135221786D01*
X154246069Y-135186010D01*
X154307392Y-135152525D01*
X154377084Y-135157509D01*
X154421431Y-135186010D01*
X154457207Y-135221786D01*
X154457211Y-135221789D01*
X154588314Y-135309390D01*
X154588327Y-135309397D01*
X154733998Y-135369735D01*
X154734003Y-135369737D01*
X154888653Y-135400499D01*
X154888656Y-135400500D01*
X154888658Y-135400500D01*
X155046344Y-135400500D01*
X155046345Y-135400499D01*
X155200997Y-135369737D01*
X155346679Y-135309394D01*
X155477789Y-135221789D01*
X155477792Y-135221786D01*
X155504819Y-135194760D01*
X155566142Y-135161275D01*
X155635834Y-135166259D01*
X155680181Y-135194760D01*
X155707207Y-135221786D01*
X155707211Y-135221789D01*
X155838314Y-135309390D01*
X155838327Y-135309397D01*
X155983998Y-135369735D01*
X155984003Y-135369737D01*
X156138653Y-135400499D01*
X156138656Y-135400500D01*
X156138658Y-135400500D01*
X156296344Y-135400500D01*
X156296345Y-135400499D01*
X156450997Y-135369737D01*
X156596679Y-135309394D01*
X156727789Y-135221789D01*
X156727792Y-135221786D01*
X156754819Y-135194760D01*
X156816142Y-135161275D01*
X156885834Y-135166259D01*
X156930181Y-135194760D01*
X156957207Y-135221786D01*
X156957211Y-135221789D01*
X157088314Y-135309390D01*
X157088327Y-135309397D01*
X157233998Y-135369735D01*
X157234003Y-135369737D01*
X157388653Y-135400499D01*
X157388656Y-135400500D01*
X157388658Y-135400500D01*
X157546344Y-135400500D01*
X157546345Y-135400499D01*
X157700997Y-135369737D01*
X157846679Y-135309394D01*
X157977789Y-135221789D01*
X158089289Y-135110289D01*
X158176894Y-134979179D01*
X158237237Y-134833497D01*
X158268000Y-134678842D01*
X158268000Y-134521158D01*
X158268000Y-134521155D01*
X158267999Y-134521153D01*
X159167000Y-134521153D01*
X159167000Y-134678846D01*
X159197761Y-134833489D01*
X159197764Y-134833501D01*
X159258102Y-134979172D01*
X159258109Y-134979185D01*
X159345710Y-135110288D01*
X159345713Y-135110292D01*
X159457207Y-135221786D01*
X159457211Y-135221789D01*
X159588314Y-135309390D01*
X159588327Y-135309397D01*
X159733998Y-135369735D01*
X159734003Y-135369737D01*
X159888653Y-135400499D01*
X159888656Y-135400500D01*
X159888658Y-135400500D01*
X160046344Y-135400500D01*
X160046345Y-135400499D01*
X160200997Y-135369737D01*
X160346679Y-135309394D01*
X160477789Y-135221789D01*
X160589289Y-135110289D01*
X160676894Y-134979179D01*
X160737237Y-134833497D01*
X160768000Y-134678842D01*
X160768000Y-134521158D01*
X160768000Y-134521155D01*
X160767999Y-134521153D01*
X160748234Y-134421788D01*
X160737237Y-134366503D01*
X160713952Y-134310288D01*
X160676897Y-134220827D01*
X160676890Y-134220814D01*
X160589289Y-134089711D01*
X160589286Y-134089707D01*
X160477792Y-133978213D01*
X160477788Y-133978210D01*
X160392397Y-133921153D01*
X165799500Y-133921153D01*
X165799500Y-134078846D01*
X165830261Y-134233489D01*
X165830264Y-134233501D01*
X165890602Y-134379172D01*
X165890609Y-134379185D01*
X165978210Y-134510288D01*
X165978213Y-134510292D01*
X166089707Y-134621786D01*
X166089711Y-134621789D01*
X166220814Y-134709390D01*
X166220827Y-134709397D01*
X166366498Y-134769735D01*
X166366503Y-134769737D01*
X166521153Y-134800499D01*
X166521156Y-134800500D01*
X166521158Y-134800500D01*
X166678844Y-134800500D01*
X166678845Y-134800499D01*
X166833497Y-134769737D01*
X166979179Y-134709394D01*
X167110289Y-134621789D01*
X167221789Y-134510289D01*
X167309394Y-134379179D01*
X167369737Y-134233497D01*
X167400500Y-134078842D01*
X167400500Y-133921158D01*
X167400500Y-133921155D01*
X167400499Y-133921153D01*
X167394422Y-133890602D01*
X167369737Y-133766503D01*
X167350955Y-133721158D01*
X167309397Y-133620827D01*
X167309390Y-133620814D01*
X167221789Y-133489711D01*
X167221786Y-133489707D01*
X167110292Y-133378213D01*
X167110288Y-133378210D01*
X166979185Y-133290609D01*
X166979172Y-133290602D01*
X166833501Y-133230264D01*
X166833489Y-133230261D01*
X166678845Y-133199500D01*
X166678842Y-133199500D01*
X166521158Y-133199500D01*
X166521155Y-133199500D01*
X166366510Y-133230261D01*
X166366498Y-133230264D01*
X166220827Y-133290602D01*
X166220814Y-133290609D01*
X166089711Y-133378210D01*
X166089707Y-133378213D01*
X165978213Y-133489707D01*
X165978210Y-133489711D01*
X165890609Y-133620814D01*
X165890602Y-133620827D01*
X165830264Y-133766498D01*
X165830261Y-133766510D01*
X165799500Y-133921153D01*
X160392397Y-133921153D01*
X160346685Y-133890609D01*
X160346672Y-133890602D01*
X160201001Y-133830264D01*
X160200989Y-133830261D01*
X160046345Y-133799500D01*
X160046342Y-133799500D01*
X159888658Y-133799500D01*
X159888655Y-133799500D01*
X159734010Y-133830261D01*
X159733998Y-133830264D01*
X159588327Y-133890602D01*
X159588314Y-133890609D01*
X159457211Y-133978210D01*
X159457207Y-133978213D01*
X159345713Y-134089707D01*
X159345710Y-134089711D01*
X159258109Y-134220814D01*
X159258102Y-134220827D01*
X159197764Y-134366498D01*
X159197761Y-134366510D01*
X159167000Y-134521153D01*
X158267999Y-134521153D01*
X158248234Y-134421788D01*
X158237237Y-134366503D01*
X158213952Y-134310288D01*
X158176897Y-134220827D01*
X158176890Y-134220814D01*
X158089289Y-134089711D01*
X158089286Y-134089707D01*
X157977792Y-133978213D01*
X157977788Y-133978210D01*
X157846685Y-133890609D01*
X157846672Y-133890602D01*
X157701001Y-133830264D01*
X157700989Y-133830261D01*
X157546345Y-133799500D01*
X157546342Y-133799500D01*
X157388658Y-133799500D01*
X157388655Y-133799500D01*
X157234010Y-133830261D01*
X157233998Y-133830264D01*
X157088327Y-133890602D01*
X157088314Y-133890609D01*
X156957211Y-133978210D01*
X156957207Y-133978213D01*
X156930181Y-134005240D01*
X156868858Y-134038725D01*
X156799166Y-134033741D01*
X156754819Y-134005240D01*
X156727792Y-133978213D01*
X156727788Y-133978210D01*
X156596685Y-133890609D01*
X156596672Y-133890602D01*
X156451001Y-133830264D01*
X156450989Y-133830261D01*
X156296345Y-133799500D01*
X156296342Y-133799500D01*
X156138658Y-133799500D01*
X156138655Y-133799500D01*
X155984010Y-133830261D01*
X155983998Y-133830264D01*
X155838327Y-133890602D01*
X155838314Y-133890609D01*
X155707211Y-133978210D01*
X155707207Y-133978213D01*
X155680181Y-134005240D01*
X155618858Y-134038725D01*
X155549166Y-134033741D01*
X155504819Y-134005240D01*
X155477792Y-133978213D01*
X155477788Y-133978210D01*
X155346685Y-133890609D01*
X155346672Y-133890602D01*
X155201001Y-133830264D01*
X155200989Y-133830261D01*
X155046345Y-133799500D01*
X155046342Y-133799500D01*
X154888658Y-133799500D01*
X154888655Y-133799500D01*
X154734010Y-133830261D01*
X154733998Y-133830264D01*
X154588327Y-133890602D01*
X154588314Y-133890609D01*
X154457211Y-133978210D01*
X154457207Y-133978213D01*
X154421431Y-134013990D01*
X154360108Y-134047475D01*
X154290416Y-134042491D01*
X154246069Y-134013990D01*
X154210292Y-133978213D01*
X154210288Y-133978210D01*
X154079185Y-133890609D01*
X154079172Y-133890602D01*
X153933501Y-133830264D01*
X153933489Y-133830261D01*
X153778845Y-133799500D01*
X153778842Y-133799500D01*
X153621158Y-133799500D01*
X153621155Y-133799500D01*
X153466510Y-133830261D01*
X153466498Y-133830264D01*
X153320827Y-133890602D01*
X153320814Y-133890609D01*
X153189711Y-133978210D01*
X153189707Y-133978213D01*
X153078213Y-134089707D01*
X153078210Y-134089711D01*
X152990609Y-134220814D01*
X152990602Y-134220827D01*
X152930264Y-134366498D01*
X152930261Y-134366510D01*
X152899500Y-134521153D01*
X148850790Y-134521153D01*
X148879179Y-134509394D01*
X149010289Y-134421789D01*
X149121789Y-134310289D01*
X149209394Y-134179179D01*
X149269737Y-134033497D01*
X149300500Y-133878842D01*
X149300500Y-133721158D01*
X149300500Y-133721155D01*
X149300499Y-133721153D01*
X149269737Y-133566503D01*
X149254138Y-133528844D01*
X149209397Y-133420827D01*
X149209390Y-133420814D01*
X149121789Y-133289711D01*
X149121786Y-133289707D01*
X149010292Y-133178213D01*
X149010288Y-133178210D01*
X148879185Y-133090609D01*
X148879172Y-133090602D01*
X148733501Y-133030264D01*
X148733489Y-133030261D01*
X148578845Y-132999500D01*
X148578842Y-132999500D01*
X148421158Y-132999500D01*
X148421155Y-132999500D01*
X148266510Y-133030261D01*
X148266498Y-133030264D01*
X148120827Y-133090602D01*
X148120814Y-133090609D01*
X147989711Y-133178210D01*
X147989707Y-133178213D01*
X147878213Y-133289707D01*
X147878210Y-133289711D01*
X147790609Y-133420814D01*
X147790602Y-133420827D01*
X147730264Y-133566498D01*
X147730261Y-133566510D01*
X147699500Y-133721153D01*
X144254139Y-133721153D01*
X144269737Y-133683497D01*
X144300500Y-133528842D01*
X144300500Y-133371158D01*
X144300500Y-133371155D01*
X144300499Y-133371153D01*
X144269737Y-133216503D01*
X144253876Y-133178210D01*
X144209397Y-133070827D01*
X144209390Y-133070814D01*
X144121789Y-132939711D01*
X144121786Y-132939707D01*
X144010292Y-132828213D01*
X144010288Y-132828210D01*
X143879185Y-132740609D01*
X143879172Y-132740602D01*
X143733501Y-132680264D01*
X143733489Y-132680261D01*
X143578845Y-132649500D01*
X143578842Y-132649500D01*
X143421158Y-132649500D01*
X143421155Y-132649500D01*
X143266510Y-132680261D01*
X143266498Y-132680264D01*
X143120827Y-132740602D01*
X143120814Y-132740609D01*
X142989711Y-132828210D01*
X142989707Y-132828213D01*
X142878213Y-132939707D01*
X142878210Y-132939711D01*
X142790609Y-133070814D01*
X142790602Y-133070827D01*
X142730264Y-133216498D01*
X142730261Y-133216510D01*
X142699500Y-133371153D01*
X138000500Y-133371153D01*
X138000500Y-131599983D01*
X138624500Y-131599983D01*
X138624500Y-132400001D01*
X138624501Y-132400019D01*
X138635000Y-132502796D01*
X138635001Y-132502799D01*
X138690185Y-132669331D01*
X138690187Y-132669336D01*
X138725069Y-132725888D01*
X138782288Y-132818656D01*
X138906344Y-132942712D01*
X139055666Y-133034814D01*
X139222203Y-133089999D01*
X139324991Y-133100500D01*
X140675008Y-133100499D01*
X140777797Y-133089999D01*
X140944334Y-133034814D01*
X141093656Y-132942712D01*
X141217712Y-132818656D01*
X141309814Y-132669334D01*
X141364999Y-132502797D01*
X141375500Y-132400009D01*
X141375499Y-131599992D01*
X141364999Y-131497203D01*
X141309814Y-131330666D01*
X141217712Y-131181344D01*
X141093656Y-131057288D01*
X141093655Y-131057287D01*
X141029019Y-131017420D01*
X140982294Y-130965472D01*
X140971071Y-130896510D01*
X140998914Y-130832428D01*
X141006434Y-130824199D01*
X141114035Y-130716598D01*
X141215804Y-130576524D01*
X141294408Y-130422255D01*
X141294766Y-130421153D01*
X142699500Y-130421153D01*
X142699500Y-130578846D01*
X142730261Y-130733489D01*
X142730264Y-130733501D01*
X142790602Y-130879172D01*
X142790609Y-130879185D01*
X142878210Y-131010288D01*
X142878213Y-131010292D01*
X142989707Y-131121786D01*
X142989711Y-131121789D01*
X143120814Y-131209390D01*
X143120827Y-131209397D01*
X143266498Y-131269735D01*
X143266503Y-131269737D01*
X143421153Y-131300499D01*
X143421156Y-131300500D01*
X143421158Y-131300500D01*
X143578844Y-131300500D01*
X143578845Y-131300499D01*
X143733497Y-131269737D01*
X143879179Y-131209394D01*
X144010289Y-131121789D01*
X144121789Y-131010289D01*
X144209394Y-130879179D01*
X144269737Y-130733497D01*
X144300500Y-130578842D01*
X144300500Y-130421158D01*
X144300500Y-130421155D01*
X144300499Y-130421153D01*
X144291666Y-130376747D01*
X144269737Y-130266503D01*
X144219304Y-130144745D01*
X144209397Y-130120827D01*
X144209390Y-130120814D01*
X144121789Y-129989711D01*
X144121786Y-129989707D01*
X144010292Y-129878213D01*
X144010288Y-129878210D01*
X143879185Y-129790609D01*
X143879172Y-129790602D01*
X143733501Y-129730264D01*
X143733489Y-129730261D01*
X143578845Y-129699500D01*
X143578842Y-129699500D01*
X143421158Y-129699500D01*
X143421155Y-129699500D01*
X143266510Y-129730261D01*
X143266498Y-129730264D01*
X143120827Y-129790602D01*
X143120814Y-129790609D01*
X142989711Y-129878210D01*
X142989707Y-129878213D01*
X142878213Y-129989707D01*
X142878210Y-129989711D01*
X142790609Y-130120814D01*
X142790602Y-130120827D01*
X142730264Y-130266498D01*
X142730261Y-130266510D01*
X142699500Y-130421153D01*
X141294766Y-130421153D01*
X141309195Y-130376748D01*
X141309195Y-130376747D01*
X141347914Y-130257582D01*
X141349115Y-130250000D01*
X140280330Y-130250000D01*
X140300075Y-130230255D01*
X140349444Y-130144745D01*
X140375000Y-130049370D01*
X140375000Y-129950630D01*
X140349444Y-129855255D01*
X140300075Y-129769745D01*
X140280330Y-129750000D01*
X141349115Y-129750000D01*
X141349115Y-129749999D01*
X141347914Y-129742415D01*
X141294408Y-129577744D01*
X141215804Y-129423475D01*
X141114032Y-129283397D01*
X140991602Y-129160967D01*
X140851524Y-129059195D01*
X140697257Y-128980591D01*
X140532584Y-128927085D01*
X140361571Y-128900000D01*
X140250000Y-128900000D01*
X140250000Y-129719670D01*
X140230255Y-129699925D01*
X140144745Y-129650556D01*
X140049370Y-129625000D01*
X139950630Y-129625000D01*
X139855255Y-129650556D01*
X139769745Y-129699925D01*
X139750000Y-129719670D01*
X139750000Y-128900000D01*
X139638429Y-128900000D01*
X139467415Y-128927085D01*
X139302742Y-128980591D01*
X139148475Y-129059195D01*
X139008397Y-129160967D01*
X138885967Y-129283397D01*
X138784195Y-129423475D01*
X138705591Y-129577744D01*
X138652085Y-129742415D01*
X138650884Y-129749999D01*
X138650885Y-129750000D01*
X139719670Y-129750000D01*
X139699925Y-129769745D01*
X139650556Y-129855255D01*
X139625000Y-129950630D01*
X139625000Y-130049370D01*
X139650556Y-130144745D01*
X139699925Y-130230255D01*
X139719670Y-130250000D01*
X138650885Y-130250000D01*
X138652085Y-130257584D01*
X138705591Y-130422255D01*
X138784195Y-130576524D01*
X138885967Y-130716602D01*
X138993565Y-130824200D01*
X139027050Y-130885523D01*
X139022066Y-130955215D01*
X138980194Y-131011148D01*
X138970981Y-131017420D01*
X138906342Y-131057289D01*
X138782289Y-131181342D01*
X138690187Y-131330663D01*
X138690186Y-131330666D01*
X138635001Y-131497203D01*
X138635001Y-131497204D01*
X138635000Y-131497204D01*
X138624500Y-131599983D01*
X138000500Y-131599983D01*
X138000500Y-123624500D01*
X138020185Y-123557461D01*
X138072989Y-123511706D01*
X138124500Y-123500500D01*
X138809897Y-123500500D01*
X138876936Y-123520185D01*
G37*
G04 #@! TD.AperFunction*
G04 #@! TD*
M02*
