%TF.GenerationSoftware,KiCad,Pcbnew,9.0.0*%
%TF.CreationDate,2025-07-01T12:28:05-04:00*%
%TF.ProjectId,wio-e5-test,77696f2d-6535-42d7-9465-73742e6b6963,rev?*%
%TF.SameCoordinates,Original*%
%TF.FileFunction,Drillmap*%
%TF.FilePolarity,Positive*%
%FSLAX45Y45*%
G04 Gerber Fmt 4.5, Leading zero omitted, Abs format (unit mm)*
G04 Created by KiCad (PCBNEW 9.0.0) date 2025-07-01 12:28:05*
%MOMM*%
%LPD*%
G01*
G04 APERTURE LIST*
%ADD10C,0.050000*%
%ADD11C,0.200000*%
%ADD12C,0.100000*%
G04 APERTURE END LIST*
D10*
X13750000Y-12300000D02*
X17260000Y-12300000D01*
X17260000Y-15650000D01*
X13750000Y-15650000D01*
X13750000Y-12300000D01*
D11*
D12*
X13865000Y-15375000D02*
X13895000Y-15405000D01*
X13895000Y-15375000D02*
X13865000Y-15405000D01*
X13985000Y-13485000D02*
X14015000Y-13515000D01*
X14015000Y-13485000D02*
X13985000Y-13515000D01*
X13985000Y-13685000D02*
X14015000Y-13715000D01*
X14015000Y-13685000D02*
X13985000Y-13715000D01*
X13985000Y-14685000D02*
X14015000Y-14715000D01*
X14015000Y-14685000D02*
X13985000Y-14715000D01*
X13985000Y-14885000D02*
X14015000Y-14915000D01*
X14015000Y-14885000D02*
X13985000Y-14915000D01*
X14185000Y-13485000D02*
X14215000Y-13515000D01*
X14215000Y-13485000D02*
X14185000Y-13515000D01*
X14185000Y-13685000D02*
X14215000Y-13715000D01*
X14215000Y-13685000D02*
X14185000Y-13715000D01*
X14185000Y-14685000D02*
X14215000Y-14715000D01*
X14215000Y-14685000D02*
X14185000Y-14715000D01*
X14195000Y-15335000D02*
X14225000Y-15365000D01*
X14225000Y-15335000D02*
X14195000Y-15365000D01*
X14255000Y-15075000D02*
X14285000Y-15105000D01*
X14285000Y-15075000D02*
X14255000Y-15105000D01*
X14295000Y-15335000D02*
X14325000Y-15365000D01*
X14325000Y-15335000D02*
X14295000Y-15365000D01*
X14315000Y-12835000D02*
X14345000Y-12865000D01*
X14345000Y-12835000D02*
X14315000Y-12865000D01*
X14315885Y-13175885D02*
X14345885Y-13205885D01*
X14345885Y-13175885D02*
X14315885Y-13205885D01*
X14335000Y-13035000D02*
X14365000Y-13065000D01*
X14365000Y-13035000D02*
X14335000Y-13065000D01*
X14335000Y-13330000D02*
X14365000Y-13360000D01*
X14365000Y-13330000D02*
X14335000Y-13360000D01*
X14385000Y-13685000D02*
X14415000Y-13715000D01*
X14415000Y-13685000D02*
X14385000Y-13715000D01*
X14385000Y-13885000D02*
X14415000Y-13915000D01*
X14415000Y-13885000D02*
X14385000Y-13915000D01*
X14385000Y-14485000D02*
X14415000Y-14515000D01*
X14415000Y-14485000D02*
X14385000Y-14515000D01*
X14425000Y-15375000D02*
X14455000Y-15405000D01*
X14455000Y-15375000D02*
X14425000Y-15405000D01*
X14485000Y-12805000D02*
X14515000Y-12835000D01*
X14515000Y-12805000D02*
X14485000Y-12835000D01*
X14525000Y-13235000D02*
X14555000Y-13265000D01*
X14555000Y-13235000D02*
X14525000Y-13265000D01*
X14525000Y-13425000D02*
X14555000Y-13455000D01*
X14555000Y-13425000D02*
X14525000Y-13455000D01*
X14555000Y-14785000D02*
X14585000Y-14815000D01*
X14585000Y-14785000D02*
X14555000Y-14815000D01*
X14585000Y-13685000D02*
X14615000Y-13715000D01*
X14615000Y-13685000D02*
X14585000Y-13715000D01*
X14585000Y-13885000D02*
X14615000Y-13915000D01*
X14615000Y-13885000D02*
X14585000Y-13915000D01*
X14615000Y-14395000D02*
X14645000Y-14425000D01*
X14645000Y-14395000D02*
X14615000Y-14425000D01*
X14615000Y-14965000D02*
X14645000Y-14995000D01*
X14645000Y-14965000D02*
X14615000Y-14995000D01*
X14683550Y-15195870D02*
X14713550Y-15225870D01*
X14713550Y-15195870D02*
X14683550Y-15225870D01*
X14705000Y-15495000D02*
X14735000Y-15525000D01*
X14735000Y-15495000D02*
X14705000Y-15525000D01*
X14745000Y-14935000D02*
X14775000Y-14965000D01*
X14775000Y-14935000D02*
X14745000Y-14965000D01*
X14755000Y-14585000D02*
X14785000Y-14615000D01*
X14785000Y-14585000D02*
X14755000Y-14615000D01*
X14785000Y-13485000D02*
X14815000Y-13515000D01*
X14815000Y-13485000D02*
X14785000Y-13515000D01*
X14785000Y-13685000D02*
X14815000Y-13715000D01*
X14815000Y-13685000D02*
X14785000Y-13715000D01*
X14795000Y-15225000D02*
X14825000Y-15255000D01*
X14825000Y-15225000D02*
X14795000Y-15255000D01*
X14825000Y-15145000D02*
X14855000Y-15175000D01*
X14855000Y-15145000D02*
X14825000Y-15175000D01*
X14831396Y-15079065D02*
X14861396Y-15109065D01*
X14861396Y-15079065D02*
X14831396Y-15109065D01*
X14835000Y-12755000D02*
X14865000Y-12785000D01*
X14865000Y-12755000D02*
X14835000Y-12785000D01*
X14835000Y-13365000D02*
X14865000Y-13395000D01*
X14865000Y-13365000D02*
X14835000Y-13395000D01*
X14875000Y-14985000D02*
X14905000Y-15015000D01*
X14905000Y-14985000D02*
X14875000Y-15015000D01*
X14905000Y-14745000D02*
X14935000Y-14775000D01*
X14935000Y-14745000D02*
X14905000Y-14775000D01*
X14915000Y-15135000D02*
X14945000Y-15165000D01*
X14945000Y-15135000D02*
X14915000Y-15165000D01*
X14935000Y-13835000D02*
X14965000Y-13865000D01*
X14965000Y-13835000D02*
X14935000Y-13865000D01*
X14935000Y-13985000D02*
X14965000Y-14015000D01*
X14965000Y-13985000D02*
X14935000Y-14015000D01*
X14985000Y-13485000D02*
X15015000Y-13515000D01*
X15015000Y-13485000D02*
X14985000Y-13515000D01*
X14985000Y-13685000D02*
X15015000Y-13715000D01*
X15015000Y-13685000D02*
X14985000Y-13715000D01*
X14985000Y-14915000D02*
X15015000Y-14945000D01*
X15015000Y-14915000D02*
X14985000Y-14945000D01*
X15045000Y-12755000D02*
X15075000Y-12785000D01*
X15075000Y-12755000D02*
X15045000Y-12785000D01*
X15085000Y-14895000D02*
X15115000Y-14925000D01*
X15115000Y-14895000D02*
X15085000Y-14925000D01*
X15125000Y-15195000D02*
X15155000Y-15225000D01*
X15155000Y-15195000D02*
X15125000Y-15225000D01*
X15185000Y-13485000D02*
X15215000Y-13515000D01*
X15215000Y-13485000D02*
X15185000Y-13515000D01*
X15185000Y-13685000D02*
X15215000Y-13715000D01*
X15215000Y-13685000D02*
X15185000Y-13715000D01*
X15185000Y-14915000D02*
X15215000Y-14945000D01*
X15215000Y-14915000D02*
X15185000Y-14945000D01*
X15275000Y-13965000D02*
X15305000Y-13995000D01*
X15305000Y-13965000D02*
X15275000Y-13995000D01*
X15355000Y-13445000D02*
X15385000Y-13475000D01*
X15385000Y-13445000D02*
X15355000Y-13475000D01*
X15356750Y-14655000D02*
X15386750Y-14685000D01*
X15386750Y-14655000D02*
X15356750Y-14685000D01*
X15385000Y-13885000D02*
X15415000Y-13915000D01*
X15415000Y-13885000D02*
X15385000Y-13915000D01*
X15385000Y-14085000D02*
X15415000Y-14115000D01*
X15415000Y-14085000D02*
X15385000Y-14115000D01*
X15385000Y-14285000D02*
X15415000Y-14315000D01*
X15415000Y-14285000D02*
X15385000Y-14315000D01*
X15385000Y-14485000D02*
X15415000Y-14515000D01*
X15415000Y-14485000D02*
X15385000Y-14515000D01*
X15481750Y-13445000D02*
X15511750Y-13475000D01*
X15511750Y-13445000D02*
X15481750Y-13475000D01*
X15585000Y-13885000D02*
X15615000Y-13915000D01*
X15615000Y-13885000D02*
X15585000Y-13915000D01*
X15585000Y-14085000D02*
X15615000Y-14115000D01*
X15615000Y-14085000D02*
X15585000Y-14115000D01*
X15585000Y-14285000D02*
X15615000Y-14315000D01*
X15615000Y-14285000D02*
X15585000Y-14315000D01*
X15585000Y-14485000D02*
X15615000Y-14515000D01*
X15615000Y-14485000D02*
X15585000Y-14515000D01*
X15585000Y-15185000D02*
X15615000Y-15215000D01*
X15615000Y-15185000D02*
X15585000Y-15215000D01*
X15606750Y-13445000D02*
X15636750Y-13475000D01*
X15636750Y-13445000D02*
X15606750Y-13475000D01*
X15675000Y-12995000D02*
X15705000Y-13025000D01*
X15705000Y-12995000D02*
X15675000Y-13025000D01*
X15731750Y-13445000D02*
X15761750Y-13475000D01*
X15761750Y-13445000D02*
X15731750Y-13475000D01*
X15785000Y-13885000D02*
X15815000Y-13915000D01*
X15815000Y-13885000D02*
X15785000Y-13915000D01*
X15785000Y-14085000D02*
X15815000Y-14115000D01*
X15815000Y-14085000D02*
X15785000Y-14115000D01*
X15785000Y-14285000D02*
X15815000Y-14315000D01*
X15815000Y-14285000D02*
X15785000Y-14315000D01*
X15785000Y-14485000D02*
X15815000Y-14515000D01*
X15815000Y-14485000D02*
X15785000Y-14515000D01*
X15785000Y-15185000D02*
X15815000Y-15215000D01*
X15815000Y-15185000D02*
X15785000Y-15215000D01*
X15815000Y-13145000D02*
X15845000Y-13175000D01*
X15845000Y-13145000D02*
X15815000Y-13175000D01*
X15981750Y-13445000D02*
X16011750Y-13475000D01*
X16011750Y-13445000D02*
X15981750Y-13475000D01*
X15985000Y-13885000D02*
X16015000Y-13915000D01*
X16015000Y-13885000D02*
X15985000Y-13915000D01*
X15985000Y-14085000D02*
X16015000Y-14115000D01*
X16015000Y-14085000D02*
X15985000Y-14115000D01*
X15985000Y-14285000D02*
X16015000Y-14315000D01*
X16015000Y-14285000D02*
X15985000Y-14315000D01*
X15985000Y-14485000D02*
X16015000Y-14515000D01*
X16015000Y-14485000D02*
X15985000Y-14515000D01*
X16105000Y-13475000D02*
X16135000Y-13505000D01*
X16135000Y-13475000D02*
X16105000Y-13505000D01*
X16105000Y-13755000D02*
X16135000Y-13785000D01*
X16135000Y-13755000D02*
X16105000Y-13785000D01*
X16105000Y-14665000D02*
X16135000Y-14695000D01*
X16135000Y-14665000D02*
X16105000Y-14695000D01*
X16115000Y-14565000D02*
X16145000Y-14595000D01*
X16145000Y-14565000D02*
X16115000Y-14595000D01*
X16135000Y-12835000D02*
X16165000Y-12865000D01*
X16165000Y-12835000D02*
X16135000Y-12865000D01*
X16135000Y-13225000D02*
X16165000Y-13255000D01*
X16165000Y-13225000D02*
X16135000Y-13255000D01*
X16185000Y-13965000D02*
X16215000Y-13995000D01*
X16215000Y-13965000D02*
X16185000Y-13995000D01*
X16185000Y-14085000D02*
X16215000Y-14115000D01*
X16215000Y-14085000D02*
X16185000Y-14115000D01*
X16185000Y-14215000D02*
X16215000Y-14245000D01*
X16215000Y-14215000D02*
X16185000Y-14245000D01*
X16185000Y-14339500D02*
X16215000Y-14369500D01*
X16215000Y-14339500D02*
X16185000Y-14369500D01*
X16185000Y-14465000D02*
X16215000Y-14495000D01*
X16215000Y-14465000D02*
X16185000Y-14495000D01*
X16185000Y-14815000D02*
X16215000Y-14845000D01*
X16215000Y-14815000D02*
X16185000Y-14845000D01*
X16255000Y-14735000D02*
X16285000Y-14765000D01*
X16285000Y-14735000D02*
X16255000Y-14765000D01*
X16385000Y-14735000D02*
X16415000Y-14765000D01*
X16415000Y-14735000D02*
X16385000Y-14765000D01*
X16385000Y-14885000D02*
X16415000Y-14915000D01*
X16415000Y-14885000D02*
X16385000Y-14915000D01*
X16485000Y-12895000D02*
X16515000Y-12925000D01*
X16515000Y-12895000D02*
X16485000Y-12925000D01*
X16485000Y-13215000D02*
X16515000Y-13245000D01*
X16515000Y-13215000D02*
X16485000Y-13245000D01*
X16515000Y-13765000D02*
X16545000Y-13795000D01*
X16545000Y-13765000D02*
X16515000Y-13795000D01*
X16515000Y-13865000D02*
X16545000Y-13895000D01*
X16545000Y-13865000D02*
X16515000Y-13895000D01*
X16515000Y-13965000D02*
X16545000Y-13995000D01*
X16545000Y-13965000D02*
X16515000Y-13995000D01*
X16515000Y-14065000D02*
X16545000Y-14095000D01*
X16545000Y-14065000D02*
X16515000Y-14095000D01*
X16515000Y-14165000D02*
X16545000Y-14195000D01*
X16545000Y-14165000D02*
X16515000Y-14195000D01*
X16515000Y-14265000D02*
X16545000Y-14295000D01*
X16545000Y-14265000D02*
X16515000Y-14295000D01*
X16515000Y-14365000D02*
X16545000Y-14395000D01*
X16545000Y-14365000D02*
X16515000Y-14395000D01*
X16515000Y-14465000D02*
X16545000Y-14495000D01*
X16545000Y-14465000D02*
X16515000Y-14495000D01*
X16515000Y-14735000D02*
X16545000Y-14765000D01*
X16545000Y-14735000D02*
X16515000Y-14765000D01*
X16585000Y-13585000D02*
X16615000Y-13615000D01*
X16615000Y-13585000D02*
X16585000Y-13615000D01*
X16585000Y-14885000D02*
X16615000Y-14915000D01*
X16615000Y-14885000D02*
X16585000Y-14915000D01*
X16585000Y-15085000D02*
X16615000Y-15115000D01*
X16615000Y-15085000D02*
X16585000Y-15115000D01*
X16635000Y-13765000D02*
X16665000Y-13795000D01*
X16665000Y-13765000D02*
X16635000Y-13795000D01*
X16645000Y-13385000D02*
X16675000Y-13415000D01*
X16675000Y-13385000D02*
X16645000Y-13415000D01*
X16755000Y-13765000D02*
X16785000Y-13795000D01*
X16785000Y-13765000D02*
X16755000Y-13795000D01*
X16755000Y-13865000D02*
X16785000Y-13895000D01*
X16785000Y-13865000D02*
X16755000Y-13895000D01*
X16755000Y-13965000D02*
X16785000Y-13995000D01*
X16785000Y-13965000D02*
X16755000Y-13995000D01*
X16755000Y-14135000D02*
X16785000Y-14165000D01*
X16785000Y-14135000D02*
X16755000Y-14165000D01*
X16755000Y-14235000D02*
X16785000Y-14265000D01*
X16785000Y-14235000D02*
X16755000Y-14265000D01*
X16755000Y-14335000D02*
X16785000Y-14365000D01*
X16785000Y-14335000D02*
X16755000Y-14365000D01*
X16755000Y-14435000D02*
X16785000Y-14465000D01*
X16785000Y-14435000D02*
X16755000Y-14465000D01*
X16755000Y-14535000D02*
X16785000Y-14565000D01*
X16785000Y-14535000D02*
X16755000Y-14565000D01*
X16755000Y-14635000D02*
X16785000Y-14665000D01*
X16785000Y-14635000D02*
X16755000Y-14665000D01*
X16755000Y-14735000D02*
X16785000Y-14765000D01*
X16785000Y-14735000D02*
X16755000Y-14765000D01*
X16785000Y-12785000D02*
X16815000Y-12815000D01*
X16815000Y-12785000D02*
X16785000Y-12815000D01*
X16785000Y-12985000D02*
X16815000Y-13015000D01*
X16815000Y-12985000D02*
X16785000Y-13015000D01*
X16785000Y-13185000D02*
X16815000Y-13215000D01*
X16815000Y-13185000D02*
X16785000Y-13215000D01*
X16785000Y-13385000D02*
X16815000Y-13415000D01*
X16815000Y-13385000D02*
X16785000Y-13415000D01*
X16785000Y-13585000D02*
X16815000Y-13615000D01*
X16815000Y-13585000D02*
X16785000Y-13615000D01*
X16785000Y-14885000D02*
X16815000Y-14915000D01*
X16815000Y-14885000D02*
X16785000Y-14915000D01*
X16785000Y-15085000D02*
X16815000Y-15115000D01*
X16815000Y-15085000D02*
X16785000Y-15115000D01*
X16985000Y-12785000D02*
X17015000Y-12815000D01*
X17015000Y-12785000D02*
X16985000Y-12815000D01*
X16985000Y-12985000D02*
X17015000Y-13015000D01*
X17015000Y-12985000D02*
X16985000Y-13015000D01*
X16985000Y-13185000D02*
X17015000Y-13215000D01*
X17015000Y-13185000D02*
X16985000Y-13215000D01*
X16985000Y-13385000D02*
X17015000Y-13415000D01*
X17015000Y-13385000D02*
X16985000Y-13415000D01*
X16985000Y-13585000D02*
X17015000Y-13615000D01*
X17015000Y-13585000D02*
X16985000Y-13615000D01*
X16985000Y-14485000D02*
X17015000Y-14515000D01*
X17015000Y-14485000D02*
X16985000Y-14515000D01*
X16985000Y-14685000D02*
X17015000Y-14715000D01*
X17015000Y-14685000D02*
X16985000Y-14715000D01*
X16985000Y-14885000D02*
X17015000Y-14915000D01*
X17015000Y-14885000D02*
X16985000Y-14915000D01*
X16985000Y-15085000D02*
X17015000Y-15115000D01*
X17015000Y-15085000D02*
X16985000Y-15115000D01*
X17165000Y-12785000D02*
X17195000Y-12815000D01*
X17195000Y-12785000D02*
X17165000Y-12815000D01*
X17165000Y-12985000D02*
X17195000Y-13015000D01*
X17195000Y-12985000D02*
X17165000Y-13015000D01*
X17165000Y-13185000D02*
X17195000Y-13215000D01*
X17195000Y-13185000D02*
X17165000Y-13215000D01*
X17165000Y-13385000D02*
X17195000Y-13415000D01*
X17195000Y-13385000D02*
X17165000Y-13415000D01*
X17165000Y-13585000D02*
X17195000Y-13615000D01*
X17195000Y-13585000D02*
X17165000Y-13615000D01*
X17165000Y-14485000D02*
X17195000Y-14515000D01*
X17195000Y-14485000D02*
X17165000Y-14515000D01*
X17165000Y-14685000D02*
X17195000Y-14715000D01*
X17195000Y-14685000D02*
X17165000Y-14715000D01*
X17165000Y-14885000D02*
X17195000Y-14915000D01*
X17195000Y-14885000D02*
X17165000Y-14915000D01*
X17165000Y-15085000D02*
X17195000Y-15115000D01*
X17195000Y-15085000D02*
X17165000Y-15115000D01*
X14035560Y-13900000D02*
G75*
G02*
X13964440Y-13900000I-35560J0D01*
G01*
X13964440Y-13900000D02*
G75*
G02*
X14035560Y-13900000I35560J0D01*
G01*
X14035560Y-14027000D02*
G75*
G02*
X13964440Y-14027000I-35560J0D01*
G01*
X13964440Y-14027000D02*
G75*
G02*
X14035560Y-14027000I35560J0D01*
G01*
X14035560Y-14154000D02*
G75*
G02*
X13964440Y-14154000I-35560J0D01*
G01*
X13964440Y-14154000D02*
G75*
G02*
X14035560Y-14154000I35560J0D01*
G01*
X14035560Y-14281000D02*
G75*
G02*
X13964440Y-14281000I-35560J0D01*
G01*
X13964440Y-14281000D02*
G75*
G02*
X14035560Y-14281000I35560J0D01*
G01*
X14035560Y-14408000D02*
G75*
G02*
X13964440Y-14408000I-35560J0D01*
G01*
X13964440Y-14408000D02*
G75*
G02*
X14035560Y-14408000I35560J0D01*
G01*
X14162560Y-13900000D02*
G75*
G02*
X14091440Y-13900000I-35560J0D01*
G01*
X14091440Y-13900000D02*
G75*
G02*
X14162560Y-13900000I35560J0D01*
G01*
X14162560Y-14027000D02*
G75*
G02*
X14091440Y-14027000I-35560J0D01*
G01*
X14091440Y-14027000D02*
G75*
G02*
X14162560Y-14027000I35560J0D01*
G01*
X14162560Y-14154000D02*
G75*
G02*
X14091440Y-14154000I-35560J0D01*
G01*
X14091440Y-14154000D02*
G75*
G02*
X14162560Y-14154000I35560J0D01*
G01*
X14162560Y-14281000D02*
G75*
G02*
X14091440Y-14281000I-35560J0D01*
G01*
X14091440Y-14281000D02*
G75*
G02*
X14162560Y-14281000I35560J0D01*
G01*
X14162560Y-14408000D02*
G75*
G02*
X14091440Y-14408000I-35560J0D01*
G01*
X14091440Y-14408000D02*
G75*
G02*
X14162560Y-14408000I35560J0D01*
G01*
X14000000Y-12962500D02*
X14000000Y-13037500D01*
X13962500Y-13000000D02*
X14037500Y-13000000D01*
X14000000Y-13162500D02*
X14000000Y-13237500D01*
X13962500Y-13200000D02*
X14037500Y-13200000D01*
X14035356Y-12535356D02*
X14035356Y-12464644D01*
X13964644Y-12464644D01*
X13964644Y-12535356D01*
X14035356Y-12535356D01*
X14289356Y-12535356D02*
X14289356Y-12464644D01*
X14218644Y-12464644D01*
X14218644Y-12535356D01*
X14289356Y-12535356D01*
X14543356Y-12535356D02*
X14543356Y-12464644D01*
X14472644Y-12464644D01*
X14472644Y-12535356D01*
X14543356Y-12535356D01*
X14797356Y-12535356D02*
X14797356Y-12464644D01*
X14726644Y-12464644D01*
X14726644Y-12535356D01*
X14797356Y-12535356D01*
X15001356Y-15485356D02*
X15001356Y-15414644D01*
X14930644Y-15414644D01*
X14930644Y-15485356D01*
X15001356Y-15485356D01*
X15051356Y-12535356D02*
X15051356Y-12464644D01*
X14980644Y-12464644D01*
X14980644Y-12535356D01*
X15051356Y-12535356D01*
X15255356Y-15485356D02*
X15255356Y-15414644D01*
X15184644Y-15414644D01*
X15184644Y-15485356D01*
X15255356Y-15485356D01*
X15305356Y-12535356D02*
X15305356Y-12464644D01*
X15234644Y-12464644D01*
X15234644Y-12535356D01*
X15305356Y-12535356D01*
X15509356Y-15485356D02*
X15509356Y-15414644D01*
X15438644Y-15414644D01*
X15438644Y-15485356D01*
X15509356Y-15485356D01*
X15559356Y-12535356D02*
X15559356Y-12464644D01*
X15488644Y-12464644D01*
X15488644Y-12535356D01*
X15559356Y-12535356D01*
X15763356Y-15485356D02*
X15763356Y-15414644D01*
X15692644Y-15414644D01*
X15692644Y-15485356D01*
X15763356Y-15485356D01*
X15813356Y-12535356D02*
X15813356Y-12464644D01*
X15742644Y-12464644D01*
X15742644Y-12535356D01*
X15813356Y-12535356D01*
X16017356Y-15485356D02*
X16017356Y-15414644D01*
X15946644Y-15414644D01*
X15946644Y-15485356D01*
X16017356Y-15485356D01*
X16067356Y-12535356D02*
X16067356Y-12464644D01*
X15996644Y-12464644D01*
X15996644Y-12535356D01*
X16067356Y-12535356D01*
X16271356Y-15485356D02*
X16271356Y-15414644D01*
X16200644Y-15414644D01*
X16200644Y-15485356D01*
X16271356Y-15485356D01*
X16321356Y-12535356D02*
X16321356Y-12464644D01*
X16250644Y-12464644D01*
X16250644Y-12535356D01*
X16321356Y-12535356D01*
X16525356Y-15485356D02*
X16525356Y-15414644D01*
X16454644Y-15414644D01*
X16454644Y-15485356D01*
X16525356Y-15485356D01*
X16575356Y-12535356D02*
X16575356Y-12464644D01*
X16504644Y-12464644D01*
X16504644Y-12535356D01*
X16575356Y-12535356D01*
X16779356Y-15485356D02*
X16779356Y-15414644D01*
X16708644Y-15414644D01*
X16708644Y-15485356D01*
X16779356Y-15485356D01*
X16829356Y-12535356D02*
X16829356Y-12464644D01*
X16758644Y-12464644D01*
X16758644Y-12535356D01*
X16829356Y-12535356D01*
X17033356Y-15485356D02*
X17033356Y-15414644D01*
X16962644Y-15414644D01*
X16962644Y-15485356D01*
X17033356Y-15485356D01*
X17083356Y-12535356D02*
X17083356Y-12464644D01*
X17012644Y-12464644D01*
X17012644Y-12535356D01*
X17083356Y-12535356D01*
D11*
X14008277Y-15963984D02*
X14008277Y-15763984D01*
X14008277Y-15763984D02*
X14055896Y-15763984D01*
X14055896Y-15763984D02*
X14084467Y-15773508D01*
X14084467Y-15773508D02*
X14103515Y-15792555D01*
X14103515Y-15792555D02*
X14113039Y-15811603D01*
X14113039Y-15811603D02*
X14122562Y-15849698D01*
X14122562Y-15849698D02*
X14122562Y-15878269D01*
X14122562Y-15878269D02*
X14113039Y-15916365D01*
X14113039Y-15916365D02*
X14103515Y-15935412D01*
X14103515Y-15935412D02*
X14084467Y-15954460D01*
X14084467Y-15954460D02*
X14055896Y-15963984D01*
X14055896Y-15963984D02*
X14008277Y-15963984D01*
X14208277Y-15963984D02*
X14208277Y-15830650D01*
X14208277Y-15868746D02*
X14217801Y-15849698D01*
X14217801Y-15849698D02*
X14227324Y-15840174D01*
X14227324Y-15840174D02*
X14246372Y-15830650D01*
X14246372Y-15830650D02*
X14265420Y-15830650D01*
X14332086Y-15963984D02*
X14332086Y-15830650D01*
X14332086Y-15763984D02*
X14322562Y-15773508D01*
X14322562Y-15773508D02*
X14332086Y-15783031D01*
X14332086Y-15783031D02*
X14341610Y-15773508D01*
X14341610Y-15773508D02*
X14332086Y-15763984D01*
X14332086Y-15763984D02*
X14332086Y-15783031D01*
X14455896Y-15963984D02*
X14436848Y-15954460D01*
X14436848Y-15954460D02*
X14427324Y-15935412D01*
X14427324Y-15935412D02*
X14427324Y-15763984D01*
X14560658Y-15963984D02*
X14541610Y-15954460D01*
X14541610Y-15954460D02*
X14532086Y-15935412D01*
X14532086Y-15935412D02*
X14532086Y-15763984D01*
X14789229Y-15963984D02*
X14789229Y-15763984D01*
X14789229Y-15763984D02*
X14855896Y-15906841D01*
X14855896Y-15906841D02*
X14922562Y-15763984D01*
X14922562Y-15763984D02*
X14922562Y-15963984D01*
X15103515Y-15963984D02*
X15103515Y-15859222D01*
X15103515Y-15859222D02*
X15093991Y-15840174D01*
X15093991Y-15840174D02*
X15074943Y-15830650D01*
X15074943Y-15830650D02*
X15036848Y-15830650D01*
X15036848Y-15830650D02*
X15017801Y-15840174D01*
X15103515Y-15954460D02*
X15084467Y-15963984D01*
X15084467Y-15963984D02*
X15036848Y-15963984D01*
X15036848Y-15963984D02*
X15017801Y-15954460D01*
X15017801Y-15954460D02*
X15008277Y-15935412D01*
X15008277Y-15935412D02*
X15008277Y-15916365D01*
X15008277Y-15916365D02*
X15017801Y-15897317D01*
X15017801Y-15897317D02*
X15036848Y-15887793D01*
X15036848Y-15887793D02*
X15084467Y-15887793D01*
X15084467Y-15887793D02*
X15103515Y-15878269D01*
X15198753Y-15830650D02*
X15198753Y-16030650D01*
X15198753Y-15840174D02*
X15217801Y-15830650D01*
X15217801Y-15830650D02*
X15255896Y-15830650D01*
X15255896Y-15830650D02*
X15274943Y-15840174D01*
X15274943Y-15840174D02*
X15284467Y-15849698D01*
X15284467Y-15849698D02*
X15293991Y-15868746D01*
X15293991Y-15868746D02*
X15293991Y-15925888D01*
X15293991Y-15925888D02*
X15284467Y-15944936D01*
X15284467Y-15944936D02*
X15274943Y-15954460D01*
X15274943Y-15954460D02*
X15255896Y-15963984D01*
X15255896Y-15963984D02*
X15217801Y-15963984D01*
X15217801Y-15963984D02*
X15198753Y-15954460D01*
X15379705Y-15944936D02*
X15389229Y-15954460D01*
X15389229Y-15954460D02*
X15379705Y-15963984D01*
X15379705Y-15963984D02*
X15370182Y-15954460D01*
X15370182Y-15954460D02*
X15379705Y-15944936D01*
X15379705Y-15944936D02*
X15379705Y-15963984D01*
X15379705Y-15840174D02*
X15389229Y-15849698D01*
X15389229Y-15849698D02*
X15379705Y-15859222D01*
X15379705Y-15859222D02*
X15370182Y-15849698D01*
X15370182Y-15849698D02*
X15379705Y-15840174D01*
X15379705Y-15840174D02*
X15379705Y-15859222D01*
D12*
X13717500Y-16277500D02*
X13747500Y-16307500D01*
X13747500Y-16277500D02*
X13717500Y-16307500D01*
D11*
X14046372Y-16183984D02*
X14065420Y-16183984D01*
X14065420Y-16183984D02*
X14084467Y-16193508D01*
X14084467Y-16193508D02*
X14093991Y-16203031D01*
X14093991Y-16203031D02*
X14103515Y-16222079D01*
X14103515Y-16222079D02*
X14113039Y-16260174D01*
X14113039Y-16260174D02*
X14113039Y-16307793D01*
X14113039Y-16307793D02*
X14103515Y-16345888D01*
X14103515Y-16345888D02*
X14093991Y-16364936D01*
X14093991Y-16364936D02*
X14084467Y-16374460D01*
X14084467Y-16374460D02*
X14065420Y-16383984D01*
X14065420Y-16383984D02*
X14046372Y-16383984D01*
X14046372Y-16383984D02*
X14027324Y-16374460D01*
X14027324Y-16374460D02*
X14017801Y-16364936D01*
X14017801Y-16364936D02*
X14008277Y-16345888D01*
X14008277Y-16345888D02*
X13998753Y-16307793D01*
X13998753Y-16307793D02*
X13998753Y-16260174D01*
X13998753Y-16260174D02*
X14008277Y-16222079D01*
X14008277Y-16222079D02*
X14017801Y-16203031D01*
X14017801Y-16203031D02*
X14027324Y-16193508D01*
X14027324Y-16193508D02*
X14046372Y-16183984D01*
X14198753Y-16364936D02*
X14208277Y-16374460D01*
X14208277Y-16374460D02*
X14198753Y-16383984D01*
X14198753Y-16383984D02*
X14189229Y-16374460D01*
X14189229Y-16374460D02*
X14198753Y-16364936D01*
X14198753Y-16364936D02*
X14198753Y-16383984D01*
X14274943Y-16183984D02*
X14398753Y-16183984D01*
X14398753Y-16183984D02*
X14332086Y-16260174D01*
X14332086Y-16260174D02*
X14360658Y-16260174D01*
X14360658Y-16260174D02*
X14379705Y-16269698D01*
X14379705Y-16269698D02*
X14389229Y-16279222D01*
X14389229Y-16279222D02*
X14398753Y-16298269D01*
X14398753Y-16298269D02*
X14398753Y-16345888D01*
X14398753Y-16345888D02*
X14389229Y-16364936D01*
X14389229Y-16364936D02*
X14379705Y-16374460D01*
X14379705Y-16374460D02*
X14360658Y-16383984D01*
X14360658Y-16383984D02*
X14303515Y-16383984D01*
X14303515Y-16383984D02*
X14284467Y-16374460D01*
X14284467Y-16374460D02*
X14274943Y-16364936D01*
X14522562Y-16183984D02*
X14541610Y-16183984D01*
X14541610Y-16183984D02*
X14560658Y-16193508D01*
X14560658Y-16193508D02*
X14570182Y-16203031D01*
X14570182Y-16203031D02*
X14579705Y-16222079D01*
X14579705Y-16222079D02*
X14589229Y-16260174D01*
X14589229Y-16260174D02*
X14589229Y-16307793D01*
X14589229Y-16307793D02*
X14579705Y-16345888D01*
X14579705Y-16345888D02*
X14570182Y-16364936D01*
X14570182Y-16364936D02*
X14560658Y-16374460D01*
X14560658Y-16374460D02*
X14541610Y-16383984D01*
X14541610Y-16383984D02*
X14522562Y-16383984D01*
X14522562Y-16383984D02*
X14503515Y-16374460D01*
X14503515Y-16374460D02*
X14493991Y-16364936D01*
X14493991Y-16364936D02*
X14484467Y-16345888D01*
X14484467Y-16345888D02*
X14474943Y-16307793D01*
X14474943Y-16307793D02*
X14474943Y-16260174D01*
X14474943Y-16260174D02*
X14484467Y-16222079D01*
X14484467Y-16222079D02*
X14493991Y-16203031D01*
X14493991Y-16203031D02*
X14503515Y-16193508D01*
X14503515Y-16193508D02*
X14522562Y-16183984D01*
X14713039Y-16183984D02*
X14732086Y-16183984D01*
X14732086Y-16183984D02*
X14751134Y-16193508D01*
X14751134Y-16193508D02*
X14760658Y-16203031D01*
X14760658Y-16203031D02*
X14770182Y-16222079D01*
X14770182Y-16222079D02*
X14779705Y-16260174D01*
X14779705Y-16260174D02*
X14779705Y-16307793D01*
X14779705Y-16307793D02*
X14770182Y-16345888D01*
X14770182Y-16345888D02*
X14760658Y-16364936D01*
X14760658Y-16364936D02*
X14751134Y-16374460D01*
X14751134Y-16374460D02*
X14732086Y-16383984D01*
X14732086Y-16383984D02*
X14713039Y-16383984D01*
X14713039Y-16383984D02*
X14693991Y-16374460D01*
X14693991Y-16374460D02*
X14684467Y-16364936D01*
X14684467Y-16364936D02*
X14674943Y-16345888D01*
X14674943Y-16345888D02*
X14665420Y-16307793D01*
X14665420Y-16307793D02*
X14665420Y-16260174D01*
X14665420Y-16260174D02*
X14674943Y-16222079D01*
X14674943Y-16222079D02*
X14684467Y-16203031D01*
X14684467Y-16203031D02*
X14693991Y-16193508D01*
X14693991Y-16193508D02*
X14713039Y-16183984D01*
X14865420Y-16383984D02*
X14865420Y-16250650D01*
X14865420Y-16269698D02*
X14874943Y-16260174D01*
X14874943Y-16260174D02*
X14893991Y-16250650D01*
X14893991Y-16250650D02*
X14922563Y-16250650D01*
X14922563Y-16250650D02*
X14941610Y-16260174D01*
X14941610Y-16260174D02*
X14951134Y-16279222D01*
X14951134Y-16279222D02*
X14951134Y-16383984D01*
X14951134Y-16279222D02*
X14960658Y-16260174D01*
X14960658Y-16260174D02*
X14979705Y-16250650D01*
X14979705Y-16250650D02*
X15008277Y-16250650D01*
X15008277Y-16250650D02*
X15027324Y-16260174D01*
X15027324Y-16260174D02*
X15036848Y-16279222D01*
X15036848Y-16279222D02*
X15036848Y-16383984D01*
X15132086Y-16383984D02*
X15132086Y-16250650D01*
X15132086Y-16269698D02*
X15141610Y-16260174D01*
X15141610Y-16260174D02*
X15160658Y-16250650D01*
X15160658Y-16250650D02*
X15189229Y-16250650D01*
X15189229Y-16250650D02*
X15208277Y-16260174D01*
X15208277Y-16260174D02*
X15217801Y-16279222D01*
X15217801Y-16279222D02*
X15217801Y-16383984D01*
X15217801Y-16279222D02*
X15227324Y-16260174D01*
X15227324Y-16260174D02*
X15246372Y-16250650D01*
X15246372Y-16250650D02*
X15274943Y-16250650D01*
X15274943Y-16250650D02*
X15293991Y-16260174D01*
X15293991Y-16260174D02*
X15303515Y-16279222D01*
X15303515Y-16279222D02*
X15303515Y-16383984D01*
X15693991Y-16174460D02*
X15522563Y-16431603D01*
X15951134Y-16183984D02*
X15970182Y-16183984D01*
X15970182Y-16183984D02*
X15989229Y-16193508D01*
X15989229Y-16193508D02*
X15998753Y-16203031D01*
X15998753Y-16203031D02*
X16008277Y-16222079D01*
X16008277Y-16222079D02*
X16017801Y-16260174D01*
X16017801Y-16260174D02*
X16017801Y-16307793D01*
X16017801Y-16307793D02*
X16008277Y-16345888D01*
X16008277Y-16345888D02*
X15998753Y-16364936D01*
X15998753Y-16364936D02*
X15989229Y-16374460D01*
X15989229Y-16374460D02*
X15970182Y-16383984D01*
X15970182Y-16383984D02*
X15951134Y-16383984D01*
X15951134Y-16383984D02*
X15932086Y-16374460D01*
X15932086Y-16374460D02*
X15922563Y-16364936D01*
X15922563Y-16364936D02*
X15913039Y-16345888D01*
X15913039Y-16345888D02*
X15903515Y-16307793D01*
X15903515Y-16307793D02*
X15903515Y-16260174D01*
X15903515Y-16260174D02*
X15913039Y-16222079D01*
X15913039Y-16222079D02*
X15922563Y-16203031D01*
X15922563Y-16203031D02*
X15932086Y-16193508D01*
X15932086Y-16193508D02*
X15951134Y-16183984D01*
X16103515Y-16364936D02*
X16113039Y-16374460D01*
X16113039Y-16374460D02*
X16103515Y-16383984D01*
X16103515Y-16383984D02*
X16093991Y-16374460D01*
X16093991Y-16374460D02*
X16103515Y-16364936D01*
X16103515Y-16364936D02*
X16103515Y-16383984D01*
X16236848Y-16183984D02*
X16255896Y-16183984D01*
X16255896Y-16183984D02*
X16274944Y-16193508D01*
X16274944Y-16193508D02*
X16284467Y-16203031D01*
X16284467Y-16203031D02*
X16293991Y-16222079D01*
X16293991Y-16222079D02*
X16303515Y-16260174D01*
X16303515Y-16260174D02*
X16303515Y-16307793D01*
X16303515Y-16307793D02*
X16293991Y-16345888D01*
X16293991Y-16345888D02*
X16284467Y-16364936D01*
X16284467Y-16364936D02*
X16274944Y-16374460D01*
X16274944Y-16374460D02*
X16255896Y-16383984D01*
X16255896Y-16383984D02*
X16236848Y-16383984D01*
X16236848Y-16383984D02*
X16217801Y-16374460D01*
X16217801Y-16374460D02*
X16208277Y-16364936D01*
X16208277Y-16364936D02*
X16198753Y-16345888D01*
X16198753Y-16345888D02*
X16189229Y-16307793D01*
X16189229Y-16307793D02*
X16189229Y-16260174D01*
X16189229Y-16260174D02*
X16198753Y-16222079D01*
X16198753Y-16222079D02*
X16208277Y-16203031D01*
X16208277Y-16203031D02*
X16217801Y-16193508D01*
X16217801Y-16193508D02*
X16236848Y-16183984D01*
X16493991Y-16383984D02*
X16379706Y-16383984D01*
X16436848Y-16383984D02*
X16436848Y-16183984D01*
X16436848Y-16183984D02*
X16417801Y-16212555D01*
X16417801Y-16212555D02*
X16398753Y-16231603D01*
X16398753Y-16231603D02*
X16379706Y-16241127D01*
X16684467Y-16383984D02*
X16570182Y-16383984D01*
X16627325Y-16383984D02*
X16627325Y-16183984D01*
X16627325Y-16183984D02*
X16608277Y-16212555D01*
X16608277Y-16212555D02*
X16589229Y-16231603D01*
X16589229Y-16231603D02*
X16570182Y-16241127D01*
X16798753Y-16269698D02*
X16779706Y-16260174D01*
X16779706Y-16260174D02*
X16770182Y-16250650D01*
X16770182Y-16250650D02*
X16760658Y-16231603D01*
X16760658Y-16231603D02*
X16760658Y-16222079D01*
X16760658Y-16222079D02*
X16770182Y-16203031D01*
X16770182Y-16203031D02*
X16779706Y-16193508D01*
X16779706Y-16193508D02*
X16798753Y-16183984D01*
X16798753Y-16183984D02*
X16836849Y-16183984D01*
X16836849Y-16183984D02*
X16855896Y-16193508D01*
X16855896Y-16193508D02*
X16865420Y-16203031D01*
X16865420Y-16203031D02*
X16874944Y-16222079D01*
X16874944Y-16222079D02*
X16874944Y-16231603D01*
X16874944Y-16231603D02*
X16865420Y-16250650D01*
X16865420Y-16250650D02*
X16855896Y-16260174D01*
X16855896Y-16260174D02*
X16836849Y-16269698D01*
X16836849Y-16269698D02*
X16798753Y-16269698D01*
X16798753Y-16269698D02*
X16779706Y-16279222D01*
X16779706Y-16279222D02*
X16770182Y-16288746D01*
X16770182Y-16288746D02*
X16760658Y-16307793D01*
X16760658Y-16307793D02*
X16760658Y-16345888D01*
X16760658Y-16345888D02*
X16770182Y-16364936D01*
X16770182Y-16364936D02*
X16779706Y-16374460D01*
X16779706Y-16374460D02*
X16798753Y-16383984D01*
X16798753Y-16383984D02*
X16836849Y-16383984D01*
X16836849Y-16383984D02*
X16855896Y-16374460D01*
X16855896Y-16374460D02*
X16865420Y-16364936D01*
X16865420Y-16364936D02*
X16874944Y-16345888D01*
X16874944Y-16345888D02*
X16874944Y-16307793D01*
X16874944Y-16307793D02*
X16865420Y-16288746D01*
X16865420Y-16288746D02*
X16855896Y-16279222D01*
X16855896Y-16279222D02*
X16836849Y-16269698D01*
X16951134Y-16183984D02*
X16951134Y-16222079D01*
X17027325Y-16183984D02*
X17027325Y-16222079D01*
X17322563Y-16460174D02*
X17313039Y-16450650D01*
X17313039Y-16450650D02*
X17293991Y-16422079D01*
X17293991Y-16422079D02*
X17284468Y-16403031D01*
X17284468Y-16403031D02*
X17274944Y-16374460D01*
X17274944Y-16374460D02*
X17265420Y-16326841D01*
X17265420Y-16326841D02*
X17265420Y-16288746D01*
X17265420Y-16288746D02*
X17274944Y-16241127D01*
X17274944Y-16241127D02*
X17284468Y-16212555D01*
X17284468Y-16212555D02*
X17293991Y-16193508D01*
X17293991Y-16193508D02*
X17313039Y-16164936D01*
X17313039Y-16164936D02*
X17322563Y-16155412D01*
X17503515Y-16383984D02*
X17389230Y-16383984D01*
X17446372Y-16383984D02*
X17446372Y-16183984D01*
X17446372Y-16183984D02*
X17427325Y-16212555D01*
X17427325Y-16212555D02*
X17408277Y-16231603D01*
X17408277Y-16231603D02*
X17389230Y-16241127D01*
X17674944Y-16250650D02*
X17674944Y-16383984D01*
X17627325Y-16174460D02*
X17579706Y-16317317D01*
X17579706Y-16317317D02*
X17703515Y-16317317D01*
X17874944Y-16183984D02*
X17779706Y-16183984D01*
X17779706Y-16183984D02*
X17770182Y-16279222D01*
X17770182Y-16279222D02*
X17779706Y-16269698D01*
X17779706Y-16269698D02*
X17798753Y-16260174D01*
X17798753Y-16260174D02*
X17846372Y-16260174D01*
X17846372Y-16260174D02*
X17865420Y-16269698D01*
X17865420Y-16269698D02*
X17874944Y-16279222D01*
X17874944Y-16279222D02*
X17884468Y-16298269D01*
X17884468Y-16298269D02*
X17884468Y-16345888D01*
X17884468Y-16345888D02*
X17874944Y-16364936D01*
X17874944Y-16364936D02*
X17865420Y-16374460D01*
X17865420Y-16374460D02*
X17846372Y-16383984D01*
X17846372Y-16383984D02*
X17798753Y-16383984D01*
X17798753Y-16383984D02*
X17779706Y-16374460D01*
X17779706Y-16374460D02*
X17770182Y-16364936D01*
X18122563Y-16383984D02*
X18122563Y-16183984D01*
X18208277Y-16383984D02*
X18208277Y-16279222D01*
X18208277Y-16279222D02*
X18198753Y-16260174D01*
X18198753Y-16260174D02*
X18179706Y-16250650D01*
X18179706Y-16250650D02*
X18151134Y-16250650D01*
X18151134Y-16250650D02*
X18132087Y-16260174D01*
X18132087Y-16260174D02*
X18122563Y-16269698D01*
X18332087Y-16383984D02*
X18313039Y-16374460D01*
X18313039Y-16374460D02*
X18303515Y-16364936D01*
X18303515Y-16364936D02*
X18293992Y-16345888D01*
X18293992Y-16345888D02*
X18293992Y-16288746D01*
X18293992Y-16288746D02*
X18303515Y-16269698D01*
X18303515Y-16269698D02*
X18313039Y-16260174D01*
X18313039Y-16260174D02*
X18332087Y-16250650D01*
X18332087Y-16250650D02*
X18360658Y-16250650D01*
X18360658Y-16250650D02*
X18379706Y-16260174D01*
X18379706Y-16260174D02*
X18389230Y-16269698D01*
X18389230Y-16269698D02*
X18398753Y-16288746D01*
X18398753Y-16288746D02*
X18398753Y-16345888D01*
X18398753Y-16345888D02*
X18389230Y-16364936D01*
X18389230Y-16364936D02*
X18379706Y-16374460D01*
X18379706Y-16374460D02*
X18360658Y-16383984D01*
X18360658Y-16383984D02*
X18332087Y-16383984D01*
X18513039Y-16383984D02*
X18493992Y-16374460D01*
X18493992Y-16374460D02*
X18484468Y-16355412D01*
X18484468Y-16355412D02*
X18484468Y-16183984D01*
X18665420Y-16374460D02*
X18646373Y-16383984D01*
X18646373Y-16383984D02*
X18608277Y-16383984D01*
X18608277Y-16383984D02*
X18589230Y-16374460D01*
X18589230Y-16374460D02*
X18579706Y-16355412D01*
X18579706Y-16355412D02*
X18579706Y-16279222D01*
X18579706Y-16279222D02*
X18589230Y-16260174D01*
X18589230Y-16260174D02*
X18608277Y-16250650D01*
X18608277Y-16250650D02*
X18646373Y-16250650D01*
X18646373Y-16250650D02*
X18665420Y-16260174D01*
X18665420Y-16260174D02*
X18674944Y-16279222D01*
X18674944Y-16279222D02*
X18674944Y-16298269D01*
X18674944Y-16298269D02*
X18579706Y-16317317D01*
X18751134Y-16374460D02*
X18770182Y-16383984D01*
X18770182Y-16383984D02*
X18808277Y-16383984D01*
X18808277Y-16383984D02*
X18827325Y-16374460D01*
X18827325Y-16374460D02*
X18836849Y-16355412D01*
X18836849Y-16355412D02*
X18836849Y-16345888D01*
X18836849Y-16345888D02*
X18827325Y-16326841D01*
X18827325Y-16326841D02*
X18808277Y-16317317D01*
X18808277Y-16317317D02*
X18779706Y-16317317D01*
X18779706Y-16317317D02*
X18760658Y-16307793D01*
X18760658Y-16307793D02*
X18751134Y-16288746D01*
X18751134Y-16288746D02*
X18751134Y-16279222D01*
X18751134Y-16279222D02*
X18760658Y-16260174D01*
X18760658Y-16260174D02*
X18779706Y-16250650D01*
X18779706Y-16250650D02*
X18808277Y-16250650D01*
X18808277Y-16250650D02*
X18827325Y-16260174D01*
X18903515Y-16460174D02*
X18913039Y-16450650D01*
X18913039Y-16450650D02*
X18932087Y-16422079D01*
X18932087Y-16422079D02*
X18941611Y-16403031D01*
X18941611Y-16403031D02*
X18951134Y-16374460D01*
X18951134Y-16374460D02*
X18960658Y-16326841D01*
X18960658Y-16326841D02*
X18960658Y-16288746D01*
X18960658Y-16288746D02*
X18951134Y-16241127D01*
X18951134Y-16241127D02*
X18941611Y-16212555D01*
X18941611Y-16212555D02*
X18932087Y-16193508D01*
X18932087Y-16193508D02*
X18913039Y-16164936D01*
X18913039Y-16164936D02*
X18903515Y-16155412D01*
D12*
X13747500Y-16556500D02*
G75*
G02*
X13676380Y-16556500I-35560J0D01*
G01*
X13676380Y-16556500D02*
G75*
G02*
X13747500Y-16556500I35560J0D01*
G01*
D11*
X14046372Y-16447984D02*
X14065420Y-16447984D01*
X14065420Y-16447984D02*
X14084467Y-16457508D01*
X14084467Y-16457508D02*
X14093991Y-16467031D01*
X14093991Y-16467031D02*
X14103515Y-16486079D01*
X14103515Y-16486079D02*
X14113039Y-16524174D01*
X14113039Y-16524174D02*
X14113039Y-16571793D01*
X14113039Y-16571793D02*
X14103515Y-16609888D01*
X14103515Y-16609888D02*
X14093991Y-16628936D01*
X14093991Y-16628936D02*
X14084467Y-16638460D01*
X14084467Y-16638460D02*
X14065420Y-16647984D01*
X14065420Y-16647984D02*
X14046372Y-16647984D01*
X14046372Y-16647984D02*
X14027324Y-16638460D01*
X14027324Y-16638460D02*
X14017801Y-16628936D01*
X14017801Y-16628936D02*
X14008277Y-16609888D01*
X14008277Y-16609888D02*
X13998753Y-16571793D01*
X13998753Y-16571793D02*
X13998753Y-16524174D01*
X13998753Y-16524174D02*
X14008277Y-16486079D01*
X14008277Y-16486079D02*
X14017801Y-16467031D01*
X14017801Y-16467031D02*
X14027324Y-16457508D01*
X14027324Y-16457508D02*
X14046372Y-16447984D01*
X14198753Y-16628936D02*
X14208277Y-16638460D01*
X14208277Y-16638460D02*
X14198753Y-16647984D01*
X14198753Y-16647984D02*
X14189229Y-16638460D01*
X14189229Y-16638460D02*
X14198753Y-16628936D01*
X14198753Y-16628936D02*
X14198753Y-16647984D01*
X14274943Y-16447984D02*
X14408277Y-16447984D01*
X14408277Y-16447984D02*
X14322562Y-16647984D01*
X14589229Y-16647984D02*
X14474943Y-16647984D01*
X14532086Y-16647984D02*
X14532086Y-16447984D01*
X14532086Y-16447984D02*
X14513039Y-16476555D01*
X14513039Y-16476555D02*
X14493991Y-16495603D01*
X14493991Y-16495603D02*
X14474943Y-16505127D01*
X14779705Y-16647984D02*
X14665420Y-16647984D01*
X14722562Y-16647984D02*
X14722562Y-16447984D01*
X14722562Y-16447984D02*
X14703515Y-16476555D01*
X14703515Y-16476555D02*
X14684467Y-16495603D01*
X14684467Y-16495603D02*
X14665420Y-16505127D01*
X14865420Y-16647984D02*
X14865420Y-16514650D01*
X14865420Y-16533698D02*
X14874943Y-16524174D01*
X14874943Y-16524174D02*
X14893991Y-16514650D01*
X14893991Y-16514650D02*
X14922563Y-16514650D01*
X14922563Y-16514650D02*
X14941610Y-16524174D01*
X14941610Y-16524174D02*
X14951134Y-16543222D01*
X14951134Y-16543222D02*
X14951134Y-16647984D01*
X14951134Y-16543222D02*
X14960658Y-16524174D01*
X14960658Y-16524174D02*
X14979705Y-16514650D01*
X14979705Y-16514650D02*
X15008277Y-16514650D01*
X15008277Y-16514650D02*
X15027324Y-16524174D01*
X15027324Y-16524174D02*
X15036848Y-16543222D01*
X15036848Y-16543222D02*
X15036848Y-16647984D01*
X15132086Y-16647984D02*
X15132086Y-16514650D01*
X15132086Y-16533698D02*
X15141610Y-16524174D01*
X15141610Y-16524174D02*
X15160658Y-16514650D01*
X15160658Y-16514650D02*
X15189229Y-16514650D01*
X15189229Y-16514650D02*
X15208277Y-16524174D01*
X15208277Y-16524174D02*
X15217801Y-16543222D01*
X15217801Y-16543222D02*
X15217801Y-16647984D01*
X15217801Y-16543222D02*
X15227324Y-16524174D01*
X15227324Y-16524174D02*
X15246372Y-16514650D01*
X15246372Y-16514650D02*
X15274943Y-16514650D01*
X15274943Y-16514650D02*
X15293991Y-16524174D01*
X15293991Y-16524174D02*
X15303515Y-16543222D01*
X15303515Y-16543222D02*
X15303515Y-16647984D01*
X15693991Y-16438460D02*
X15522563Y-16695603D01*
X15951134Y-16447984D02*
X15970182Y-16447984D01*
X15970182Y-16447984D02*
X15989229Y-16457508D01*
X15989229Y-16457508D02*
X15998753Y-16467031D01*
X15998753Y-16467031D02*
X16008277Y-16486079D01*
X16008277Y-16486079D02*
X16017801Y-16524174D01*
X16017801Y-16524174D02*
X16017801Y-16571793D01*
X16017801Y-16571793D02*
X16008277Y-16609888D01*
X16008277Y-16609888D02*
X15998753Y-16628936D01*
X15998753Y-16628936D02*
X15989229Y-16638460D01*
X15989229Y-16638460D02*
X15970182Y-16647984D01*
X15970182Y-16647984D02*
X15951134Y-16647984D01*
X15951134Y-16647984D02*
X15932086Y-16638460D01*
X15932086Y-16638460D02*
X15922563Y-16628936D01*
X15922563Y-16628936D02*
X15913039Y-16609888D01*
X15913039Y-16609888D02*
X15903515Y-16571793D01*
X15903515Y-16571793D02*
X15903515Y-16524174D01*
X15903515Y-16524174D02*
X15913039Y-16486079D01*
X15913039Y-16486079D02*
X15922563Y-16467031D01*
X15922563Y-16467031D02*
X15932086Y-16457508D01*
X15932086Y-16457508D02*
X15951134Y-16447984D01*
X16103515Y-16628936D02*
X16113039Y-16638460D01*
X16113039Y-16638460D02*
X16103515Y-16647984D01*
X16103515Y-16647984D02*
X16093991Y-16638460D01*
X16093991Y-16638460D02*
X16103515Y-16628936D01*
X16103515Y-16628936D02*
X16103515Y-16647984D01*
X16236848Y-16447984D02*
X16255896Y-16447984D01*
X16255896Y-16447984D02*
X16274944Y-16457508D01*
X16274944Y-16457508D02*
X16284467Y-16467031D01*
X16284467Y-16467031D02*
X16293991Y-16486079D01*
X16293991Y-16486079D02*
X16303515Y-16524174D01*
X16303515Y-16524174D02*
X16303515Y-16571793D01*
X16303515Y-16571793D02*
X16293991Y-16609888D01*
X16293991Y-16609888D02*
X16284467Y-16628936D01*
X16284467Y-16628936D02*
X16274944Y-16638460D01*
X16274944Y-16638460D02*
X16255896Y-16647984D01*
X16255896Y-16647984D02*
X16236848Y-16647984D01*
X16236848Y-16647984D02*
X16217801Y-16638460D01*
X16217801Y-16638460D02*
X16208277Y-16628936D01*
X16208277Y-16628936D02*
X16198753Y-16609888D01*
X16198753Y-16609888D02*
X16189229Y-16571793D01*
X16189229Y-16571793D02*
X16189229Y-16524174D01*
X16189229Y-16524174D02*
X16198753Y-16486079D01*
X16198753Y-16486079D02*
X16208277Y-16467031D01*
X16208277Y-16467031D02*
X16217801Y-16457508D01*
X16217801Y-16457508D02*
X16236848Y-16447984D01*
X16379706Y-16467031D02*
X16389229Y-16457508D01*
X16389229Y-16457508D02*
X16408277Y-16447984D01*
X16408277Y-16447984D02*
X16455896Y-16447984D01*
X16455896Y-16447984D02*
X16474944Y-16457508D01*
X16474944Y-16457508D02*
X16484467Y-16467031D01*
X16484467Y-16467031D02*
X16493991Y-16486079D01*
X16493991Y-16486079D02*
X16493991Y-16505127D01*
X16493991Y-16505127D02*
X16484467Y-16533698D01*
X16484467Y-16533698D02*
X16370182Y-16647984D01*
X16370182Y-16647984D02*
X16493991Y-16647984D01*
X16608277Y-16533698D02*
X16589229Y-16524174D01*
X16589229Y-16524174D02*
X16579706Y-16514650D01*
X16579706Y-16514650D02*
X16570182Y-16495603D01*
X16570182Y-16495603D02*
X16570182Y-16486079D01*
X16570182Y-16486079D02*
X16579706Y-16467031D01*
X16579706Y-16467031D02*
X16589229Y-16457508D01*
X16589229Y-16457508D02*
X16608277Y-16447984D01*
X16608277Y-16447984D02*
X16646372Y-16447984D01*
X16646372Y-16447984D02*
X16665420Y-16457508D01*
X16665420Y-16457508D02*
X16674944Y-16467031D01*
X16674944Y-16467031D02*
X16684467Y-16486079D01*
X16684467Y-16486079D02*
X16684467Y-16495603D01*
X16684467Y-16495603D02*
X16674944Y-16514650D01*
X16674944Y-16514650D02*
X16665420Y-16524174D01*
X16665420Y-16524174D02*
X16646372Y-16533698D01*
X16646372Y-16533698D02*
X16608277Y-16533698D01*
X16608277Y-16533698D02*
X16589229Y-16543222D01*
X16589229Y-16543222D02*
X16579706Y-16552746D01*
X16579706Y-16552746D02*
X16570182Y-16571793D01*
X16570182Y-16571793D02*
X16570182Y-16609888D01*
X16570182Y-16609888D02*
X16579706Y-16628936D01*
X16579706Y-16628936D02*
X16589229Y-16638460D01*
X16589229Y-16638460D02*
X16608277Y-16647984D01*
X16608277Y-16647984D02*
X16646372Y-16647984D01*
X16646372Y-16647984D02*
X16665420Y-16638460D01*
X16665420Y-16638460D02*
X16674944Y-16628936D01*
X16674944Y-16628936D02*
X16684467Y-16609888D01*
X16684467Y-16609888D02*
X16684467Y-16571793D01*
X16684467Y-16571793D02*
X16674944Y-16552746D01*
X16674944Y-16552746D02*
X16665420Y-16543222D01*
X16665420Y-16543222D02*
X16646372Y-16533698D01*
X16808277Y-16447984D02*
X16827325Y-16447984D01*
X16827325Y-16447984D02*
X16846372Y-16457508D01*
X16846372Y-16457508D02*
X16855896Y-16467031D01*
X16855896Y-16467031D02*
X16865420Y-16486079D01*
X16865420Y-16486079D02*
X16874944Y-16524174D01*
X16874944Y-16524174D02*
X16874944Y-16571793D01*
X16874944Y-16571793D02*
X16865420Y-16609888D01*
X16865420Y-16609888D02*
X16855896Y-16628936D01*
X16855896Y-16628936D02*
X16846372Y-16638460D01*
X16846372Y-16638460D02*
X16827325Y-16647984D01*
X16827325Y-16647984D02*
X16808277Y-16647984D01*
X16808277Y-16647984D02*
X16789229Y-16638460D01*
X16789229Y-16638460D02*
X16779706Y-16628936D01*
X16779706Y-16628936D02*
X16770182Y-16609888D01*
X16770182Y-16609888D02*
X16760658Y-16571793D01*
X16760658Y-16571793D02*
X16760658Y-16524174D01*
X16760658Y-16524174D02*
X16770182Y-16486079D01*
X16770182Y-16486079D02*
X16779706Y-16467031D01*
X16779706Y-16467031D02*
X16789229Y-16457508D01*
X16789229Y-16457508D02*
X16808277Y-16447984D01*
X16951134Y-16447984D02*
X16951134Y-16486079D01*
X17027325Y-16447984D02*
X17027325Y-16486079D01*
X17322563Y-16724174D02*
X17313039Y-16714650D01*
X17313039Y-16714650D02*
X17293991Y-16686079D01*
X17293991Y-16686079D02*
X17284468Y-16667031D01*
X17284468Y-16667031D02*
X17274944Y-16638460D01*
X17274944Y-16638460D02*
X17265420Y-16590841D01*
X17265420Y-16590841D02*
X17265420Y-16552746D01*
X17265420Y-16552746D02*
X17274944Y-16505127D01*
X17274944Y-16505127D02*
X17284468Y-16476555D01*
X17284468Y-16476555D02*
X17293991Y-16457508D01*
X17293991Y-16457508D02*
X17313039Y-16428936D01*
X17313039Y-16428936D02*
X17322563Y-16419412D01*
X17503515Y-16647984D02*
X17389230Y-16647984D01*
X17446372Y-16647984D02*
X17446372Y-16447984D01*
X17446372Y-16447984D02*
X17427325Y-16476555D01*
X17427325Y-16476555D02*
X17408277Y-16495603D01*
X17408277Y-16495603D02*
X17389230Y-16505127D01*
X17627325Y-16447984D02*
X17646372Y-16447984D01*
X17646372Y-16447984D02*
X17665420Y-16457508D01*
X17665420Y-16457508D02*
X17674944Y-16467031D01*
X17674944Y-16467031D02*
X17684468Y-16486079D01*
X17684468Y-16486079D02*
X17693991Y-16524174D01*
X17693991Y-16524174D02*
X17693991Y-16571793D01*
X17693991Y-16571793D02*
X17684468Y-16609888D01*
X17684468Y-16609888D02*
X17674944Y-16628936D01*
X17674944Y-16628936D02*
X17665420Y-16638460D01*
X17665420Y-16638460D02*
X17646372Y-16647984D01*
X17646372Y-16647984D02*
X17627325Y-16647984D01*
X17627325Y-16647984D02*
X17608277Y-16638460D01*
X17608277Y-16638460D02*
X17598753Y-16628936D01*
X17598753Y-16628936D02*
X17589230Y-16609888D01*
X17589230Y-16609888D02*
X17579706Y-16571793D01*
X17579706Y-16571793D02*
X17579706Y-16524174D01*
X17579706Y-16524174D02*
X17589230Y-16486079D01*
X17589230Y-16486079D02*
X17598753Y-16467031D01*
X17598753Y-16467031D02*
X17608277Y-16457508D01*
X17608277Y-16457508D02*
X17627325Y-16447984D01*
X17932087Y-16647984D02*
X17932087Y-16447984D01*
X18017801Y-16647984D02*
X18017801Y-16543222D01*
X18017801Y-16543222D02*
X18008277Y-16524174D01*
X18008277Y-16524174D02*
X17989230Y-16514650D01*
X17989230Y-16514650D02*
X17960658Y-16514650D01*
X17960658Y-16514650D02*
X17941611Y-16524174D01*
X17941611Y-16524174D02*
X17932087Y-16533698D01*
X18141611Y-16647984D02*
X18122563Y-16638460D01*
X18122563Y-16638460D02*
X18113039Y-16628936D01*
X18113039Y-16628936D02*
X18103515Y-16609888D01*
X18103515Y-16609888D02*
X18103515Y-16552746D01*
X18103515Y-16552746D02*
X18113039Y-16533698D01*
X18113039Y-16533698D02*
X18122563Y-16524174D01*
X18122563Y-16524174D02*
X18141611Y-16514650D01*
X18141611Y-16514650D02*
X18170182Y-16514650D01*
X18170182Y-16514650D02*
X18189230Y-16524174D01*
X18189230Y-16524174D02*
X18198753Y-16533698D01*
X18198753Y-16533698D02*
X18208277Y-16552746D01*
X18208277Y-16552746D02*
X18208277Y-16609888D01*
X18208277Y-16609888D02*
X18198753Y-16628936D01*
X18198753Y-16628936D02*
X18189230Y-16638460D01*
X18189230Y-16638460D02*
X18170182Y-16647984D01*
X18170182Y-16647984D02*
X18141611Y-16647984D01*
X18322563Y-16647984D02*
X18303515Y-16638460D01*
X18303515Y-16638460D02*
X18293992Y-16619412D01*
X18293992Y-16619412D02*
X18293992Y-16447984D01*
X18474944Y-16638460D02*
X18455896Y-16647984D01*
X18455896Y-16647984D02*
X18417801Y-16647984D01*
X18417801Y-16647984D02*
X18398753Y-16638460D01*
X18398753Y-16638460D02*
X18389230Y-16619412D01*
X18389230Y-16619412D02*
X18389230Y-16543222D01*
X18389230Y-16543222D02*
X18398753Y-16524174D01*
X18398753Y-16524174D02*
X18417801Y-16514650D01*
X18417801Y-16514650D02*
X18455896Y-16514650D01*
X18455896Y-16514650D02*
X18474944Y-16524174D01*
X18474944Y-16524174D02*
X18484468Y-16543222D01*
X18484468Y-16543222D02*
X18484468Y-16562269D01*
X18484468Y-16562269D02*
X18389230Y-16581317D01*
X18560658Y-16638460D02*
X18579706Y-16647984D01*
X18579706Y-16647984D02*
X18617801Y-16647984D01*
X18617801Y-16647984D02*
X18636849Y-16638460D01*
X18636849Y-16638460D02*
X18646373Y-16619412D01*
X18646373Y-16619412D02*
X18646373Y-16609888D01*
X18646373Y-16609888D02*
X18636849Y-16590841D01*
X18636849Y-16590841D02*
X18617801Y-16581317D01*
X18617801Y-16581317D02*
X18589230Y-16581317D01*
X18589230Y-16581317D02*
X18570182Y-16571793D01*
X18570182Y-16571793D02*
X18560658Y-16552746D01*
X18560658Y-16552746D02*
X18560658Y-16543222D01*
X18560658Y-16543222D02*
X18570182Y-16524174D01*
X18570182Y-16524174D02*
X18589230Y-16514650D01*
X18589230Y-16514650D02*
X18617801Y-16514650D01*
X18617801Y-16514650D02*
X18636849Y-16524174D01*
X18713039Y-16724174D02*
X18722563Y-16714650D01*
X18722563Y-16714650D02*
X18741611Y-16686079D01*
X18741611Y-16686079D02*
X18751134Y-16667031D01*
X18751134Y-16667031D02*
X18760658Y-16638460D01*
X18760658Y-16638460D02*
X18770182Y-16590841D01*
X18770182Y-16590841D02*
X18770182Y-16552746D01*
X18770182Y-16552746D02*
X18760658Y-16505127D01*
X18760658Y-16505127D02*
X18751134Y-16476555D01*
X18751134Y-16476555D02*
X18741611Y-16457508D01*
X18741611Y-16457508D02*
X18722563Y-16428936D01*
X18722563Y-16428936D02*
X18713039Y-16419412D01*
D12*
X13710000Y-16783000D02*
X13710000Y-16858000D01*
X13672500Y-16820500D02*
X13747500Y-16820500D01*
D11*
X14046372Y-16711984D02*
X14065420Y-16711984D01*
X14065420Y-16711984D02*
X14084467Y-16721508D01*
X14084467Y-16721508D02*
X14093991Y-16731031D01*
X14093991Y-16731031D02*
X14103515Y-16750079D01*
X14103515Y-16750079D02*
X14113039Y-16788174D01*
X14113039Y-16788174D02*
X14113039Y-16835793D01*
X14113039Y-16835793D02*
X14103515Y-16873889D01*
X14103515Y-16873889D02*
X14093991Y-16892936D01*
X14093991Y-16892936D02*
X14084467Y-16902460D01*
X14084467Y-16902460D02*
X14065420Y-16911984D01*
X14065420Y-16911984D02*
X14046372Y-16911984D01*
X14046372Y-16911984D02*
X14027324Y-16902460D01*
X14027324Y-16902460D02*
X14017801Y-16892936D01*
X14017801Y-16892936D02*
X14008277Y-16873889D01*
X14008277Y-16873889D02*
X13998753Y-16835793D01*
X13998753Y-16835793D02*
X13998753Y-16788174D01*
X13998753Y-16788174D02*
X14008277Y-16750079D01*
X14008277Y-16750079D02*
X14017801Y-16731031D01*
X14017801Y-16731031D02*
X14027324Y-16721508D01*
X14027324Y-16721508D02*
X14046372Y-16711984D01*
X14198753Y-16892936D02*
X14208277Y-16902460D01*
X14208277Y-16902460D02*
X14198753Y-16911984D01*
X14198753Y-16911984D02*
X14189229Y-16902460D01*
X14189229Y-16902460D02*
X14198753Y-16892936D01*
X14198753Y-16892936D02*
X14198753Y-16911984D01*
X14274943Y-16711984D02*
X14408277Y-16711984D01*
X14408277Y-16711984D02*
X14322562Y-16911984D01*
X14579705Y-16711984D02*
X14484467Y-16711984D01*
X14484467Y-16711984D02*
X14474943Y-16807222D01*
X14474943Y-16807222D02*
X14484467Y-16797698D01*
X14484467Y-16797698D02*
X14503515Y-16788174D01*
X14503515Y-16788174D02*
X14551134Y-16788174D01*
X14551134Y-16788174D02*
X14570182Y-16797698D01*
X14570182Y-16797698D02*
X14579705Y-16807222D01*
X14579705Y-16807222D02*
X14589229Y-16826270D01*
X14589229Y-16826270D02*
X14589229Y-16873889D01*
X14589229Y-16873889D02*
X14579705Y-16892936D01*
X14579705Y-16892936D02*
X14570182Y-16902460D01*
X14570182Y-16902460D02*
X14551134Y-16911984D01*
X14551134Y-16911984D02*
X14503515Y-16911984D01*
X14503515Y-16911984D02*
X14484467Y-16902460D01*
X14484467Y-16902460D02*
X14474943Y-16892936D01*
X14713039Y-16711984D02*
X14732086Y-16711984D01*
X14732086Y-16711984D02*
X14751134Y-16721508D01*
X14751134Y-16721508D02*
X14760658Y-16731031D01*
X14760658Y-16731031D02*
X14770182Y-16750079D01*
X14770182Y-16750079D02*
X14779705Y-16788174D01*
X14779705Y-16788174D02*
X14779705Y-16835793D01*
X14779705Y-16835793D02*
X14770182Y-16873889D01*
X14770182Y-16873889D02*
X14760658Y-16892936D01*
X14760658Y-16892936D02*
X14751134Y-16902460D01*
X14751134Y-16902460D02*
X14732086Y-16911984D01*
X14732086Y-16911984D02*
X14713039Y-16911984D01*
X14713039Y-16911984D02*
X14693991Y-16902460D01*
X14693991Y-16902460D02*
X14684467Y-16892936D01*
X14684467Y-16892936D02*
X14674943Y-16873889D01*
X14674943Y-16873889D02*
X14665420Y-16835793D01*
X14665420Y-16835793D02*
X14665420Y-16788174D01*
X14665420Y-16788174D02*
X14674943Y-16750079D01*
X14674943Y-16750079D02*
X14684467Y-16731031D01*
X14684467Y-16731031D02*
X14693991Y-16721508D01*
X14693991Y-16721508D02*
X14713039Y-16711984D01*
X14865420Y-16911984D02*
X14865420Y-16778650D01*
X14865420Y-16797698D02*
X14874943Y-16788174D01*
X14874943Y-16788174D02*
X14893991Y-16778650D01*
X14893991Y-16778650D02*
X14922563Y-16778650D01*
X14922563Y-16778650D02*
X14941610Y-16788174D01*
X14941610Y-16788174D02*
X14951134Y-16807222D01*
X14951134Y-16807222D02*
X14951134Y-16911984D01*
X14951134Y-16807222D02*
X14960658Y-16788174D01*
X14960658Y-16788174D02*
X14979705Y-16778650D01*
X14979705Y-16778650D02*
X15008277Y-16778650D01*
X15008277Y-16778650D02*
X15027324Y-16788174D01*
X15027324Y-16788174D02*
X15036848Y-16807222D01*
X15036848Y-16807222D02*
X15036848Y-16911984D01*
X15132086Y-16911984D02*
X15132086Y-16778650D01*
X15132086Y-16797698D02*
X15141610Y-16788174D01*
X15141610Y-16788174D02*
X15160658Y-16778650D01*
X15160658Y-16778650D02*
X15189229Y-16778650D01*
X15189229Y-16778650D02*
X15208277Y-16788174D01*
X15208277Y-16788174D02*
X15217801Y-16807222D01*
X15217801Y-16807222D02*
X15217801Y-16911984D01*
X15217801Y-16807222D02*
X15227324Y-16788174D01*
X15227324Y-16788174D02*
X15246372Y-16778650D01*
X15246372Y-16778650D02*
X15274943Y-16778650D01*
X15274943Y-16778650D02*
X15293991Y-16788174D01*
X15293991Y-16788174D02*
X15303515Y-16807222D01*
X15303515Y-16807222D02*
X15303515Y-16911984D01*
X15693991Y-16702460D02*
X15522563Y-16959603D01*
X15951134Y-16711984D02*
X15970182Y-16711984D01*
X15970182Y-16711984D02*
X15989229Y-16721508D01*
X15989229Y-16721508D02*
X15998753Y-16731031D01*
X15998753Y-16731031D02*
X16008277Y-16750079D01*
X16008277Y-16750079D02*
X16017801Y-16788174D01*
X16017801Y-16788174D02*
X16017801Y-16835793D01*
X16017801Y-16835793D02*
X16008277Y-16873889D01*
X16008277Y-16873889D02*
X15998753Y-16892936D01*
X15998753Y-16892936D02*
X15989229Y-16902460D01*
X15989229Y-16902460D02*
X15970182Y-16911984D01*
X15970182Y-16911984D02*
X15951134Y-16911984D01*
X15951134Y-16911984D02*
X15932086Y-16902460D01*
X15932086Y-16902460D02*
X15922563Y-16892936D01*
X15922563Y-16892936D02*
X15913039Y-16873889D01*
X15913039Y-16873889D02*
X15903515Y-16835793D01*
X15903515Y-16835793D02*
X15903515Y-16788174D01*
X15903515Y-16788174D02*
X15913039Y-16750079D01*
X15913039Y-16750079D02*
X15922563Y-16731031D01*
X15922563Y-16731031D02*
X15932086Y-16721508D01*
X15932086Y-16721508D02*
X15951134Y-16711984D01*
X16103515Y-16892936D02*
X16113039Y-16902460D01*
X16113039Y-16902460D02*
X16103515Y-16911984D01*
X16103515Y-16911984D02*
X16093991Y-16902460D01*
X16093991Y-16902460D02*
X16103515Y-16892936D01*
X16103515Y-16892936D02*
X16103515Y-16911984D01*
X16236848Y-16711984D02*
X16255896Y-16711984D01*
X16255896Y-16711984D02*
X16274944Y-16721508D01*
X16274944Y-16721508D02*
X16284467Y-16731031D01*
X16284467Y-16731031D02*
X16293991Y-16750079D01*
X16293991Y-16750079D02*
X16303515Y-16788174D01*
X16303515Y-16788174D02*
X16303515Y-16835793D01*
X16303515Y-16835793D02*
X16293991Y-16873889D01*
X16293991Y-16873889D02*
X16284467Y-16892936D01*
X16284467Y-16892936D02*
X16274944Y-16902460D01*
X16274944Y-16902460D02*
X16255896Y-16911984D01*
X16255896Y-16911984D02*
X16236848Y-16911984D01*
X16236848Y-16911984D02*
X16217801Y-16902460D01*
X16217801Y-16902460D02*
X16208277Y-16892936D01*
X16208277Y-16892936D02*
X16198753Y-16873889D01*
X16198753Y-16873889D02*
X16189229Y-16835793D01*
X16189229Y-16835793D02*
X16189229Y-16788174D01*
X16189229Y-16788174D02*
X16198753Y-16750079D01*
X16198753Y-16750079D02*
X16208277Y-16731031D01*
X16208277Y-16731031D02*
X16217801Y-16721508D01*
X16217801Y-16721508D02*
X16236848Y-16711984D01*
X16379706Y-16731031D02*
X16389229Y-16721508D01*
X16389229Y-16721508D02*
X16408277Y-16711984D01*
X16408277Y-16711984D02*
X16455896Y-16711984D01*
X16455896Y-16711984D02*
X16474944Y-16721508D01*
X16474944Y-16721508D02*
X16484467Y-16731031D01*
X16484467Y-16731031D02*
X16493991Y-16750079D01*
X16493991Y-16750079D02*
X16493991Y-16769127D01*
X16493991Y-16769127D02*
X16484467Y-16797698D01*
X16484467Y-16797698D02*
X16370182Y-16911984D01*
X16370182Y-16911984D02*
X16493991Y-16911984D01*
X16589229Y-16911984D02*
X16627325Y-16911984D01*
X16627325Y-16911984D02*
X16646372Y-16902460D01*
X16646372Y-16902460D02*
X16655896Y-16892936D01*
X16655896Y-16892936D02*
X16674944Y-16864365D01*
X16674944Y-16864365D02*
X16684467Y-16826270D01*
X16684467Y-16826270D02*
X16684467Y-16750079D01*
X16684467Y-16750079D02*
X16674944Y-16731031D01*
X16674944Y-16731031D02*
X16665420Y-16721508D01*
X16665420Y-16721508D02*
X16646372Y-16711984D01*
X16646372Y-16711984D02*
X16608277Y-16711984D01*
X16608277Y-16711984D02*
X16589229Y-16721508D01*
X16589229Y-16721508D02*
X16579706Y-16731031D01*
X16579706Y-16731031D02*
X16570182Y-16750079D01*
X16570182Y-16750079D02*
X16570182Y-16797698D01*
X16570182Y-16797698D02*
X16579706Y-16816746D01*
X16579706Y-16816746D02*
X16589229Y-16826270D01*
X16589229Y-16826270D02*
X16608277Y-16835793D01*
X16608277Y-16835793D02*
X16646372Y-16835793D01*
X16646372Y-16835793D02*
X16665420Y-16826270D01*
X16665420Y-16826270D02*
X16674944Y-16816746D01*
X16674944Y-16816746D02*
X16684467Y-16797698D01*
X16865420Y-16711984D02*
X16770182Y-16711984D01*
X16770182Y-16711984D02*
X16760658Y-16807222D01*
X16760658Y-16807222D02*
X16770182Y-16797698D01*
X16770182Y-16797698D02*
X16789229Y-16788174D01*
X16789229Y-16788174D02*
X16836849Y-16788174D01*
X16836849Y-16788174D02*
X16855896Y-16797698D01*
X16855896Y-16797698D02*
X16865420Y-16807222D01*
X16865420Y-16807222D02*
X16874944Y-16826270D01*
X16874944Y-16826270D02*
X16874944Y-16873889D01*
X16874944Y-16873889D02*
X16865420Y-16892936D01*
X16865420Y-16892936D02*
X16855896Y-16902460D01*
X16855896Y-16902460D02*
X16836849Y-16911984D01*
X16836849Y-16911984D02*
X16789229Y-16911984D01*
X16789229Y-16911984D02*
X16770182Y-16902460D01*
X16770182Y-16902460D02*
X16760658Y-16892936D01*
X16951134Y-16711984D02*
X16951134Y-16750079D01*
X17027325Y-16711984D02*
X17027325Y-16750079D01*
X17322563Y-16988174D02*
X17313039Y-16978650D01*
X17313039Y-16978650D02*
X17293991Y-16950079D01*
X17293991Y-16950079D02*
X17284468Y-16931031D01*
X17284468Y-16931031D02*
X17274944Y-16902460D01*
X17274944Y-16902460D02*
X17265420Y-16854841D01*
X17265420Y-16854841D02*
X17265420Y-16816746D01*
X17265420Y-16816746D02*
X17274944Y-16769127D01*
X17274944Y-16769127D02*
X17284468Y-16740555D01*
X17284468Y-16740555D02*
X17293991Y-16721508D01*
X17293991Y-16721508D02*
X17313039Y-16692936D01*
X17313039Y-16692936D02*
X17322563Y-16683412D01*
X17389230Y-16731031D02*
X17398753Y-16721508D01*
X17398753Y-16721508D02*
X17417801Y-16711984D01*
X17417801Y-16711984D02*
X17465420Y-16711984D01*
X17465420Y-16711984D02*
X17484468Y-16721508D01*
X17484468Y-16721508D02*
X17493991Y-16731031D01*
X17493991Y-16731031D02*
X17503515Y-16750079D01*
X17503515Y-16750079D02*
X17503515Y-16769127D01*
X17503515Y-16769127D02*
X17493991Y-16797698D01*
X17493991Y-16797698D02*
X17379706Y-16911984D01*
X17379706Y-16911984D02*
X17503515Y-16911984D01*
X17741611Y-16911984D02*
X17741611Y-16711984D01*
X17827325Y-16911984D02*
X17827325Y-16807222D01*
X17827325Y-16807222D02*
X17817801Y-16788174D01*
X17817801Y-16788174D02*
X17798753Y-16778650D01*
X17798753Y-16778650D02*
X17770182Y-16778650D01*
X17770182Y-16778650D02*
X17751134Y-16788174D01*
X17751134Y-16788174D02*
X17741611Y-16797698D01*
X17951134Y-16911984D02*
X17932087Y-16902460D01*
X17932087Y-16902460D02*
X17922563Y-16892936D01*
X17922563Y-16892936D02*
X17913039Y-16873889D01*
X17913039Y-16873889D02*
X17913039Y-16816746D01*
X17913039Y-16816746D02*
X17922563Y-16797698D01*
X17922563Y-16797698D02*
X17932087Y-16788174D01*
X17932087Y-16788174D02*
X17951134Y-16778650D01*
X17951134Y-16778650D02*
X17979706Y-16778650D01*
X17979706Y-16778650D02*
X17998753Y-16788174D01*
X17998753Y-16788174D02*
X18008277Y-16797698D01*
X18008277Y-16797698D02*
X18017801Y-16816746D01*
X18017801Y-16816746D02*
X18017801Y-16873889D01*
X18017801Y-16873889D02*
X18008277Y-16892936D01*
X18008277Y-16892936D02*
X17998753Y-16902460D01*
X17998753Y-16902460D02*
X17979706Y-16911984D01*
X17979706Y-16911984D02*
X17951134Y-16911984D01*
X18132087Y-16911984D02*
X18113039Y-16902460D01*
X18113039Y-16902460D02*
X18103515Y-16883412D01*
X18103515Y-16883412D02*
X18103515Y-16711984D01*
X18284468Y-16902460D02*
X18265420Y-16911984D01*
X18265420Y-16911984D02*
X18227325Y-16911984D01*
X18227325Y-16911984D02*
X18208277Y-16902460D01*
X18208277Y-16902460D02*
X18198753Y-16883412D01*
X18198753Y-16883412D02*
X18198753Y-16807222D01*
X18198753Y-16807222D02*
X18208277Y-16788174D01*
X18208277Y-16788174D02*
X18227325Y-16778650D01*
X18227325Y-16778650D02*
X18265420Y-16778650D01*
X18265420Y-16778650D02*
X18284468Y-16788174D01*
X18284468Y-16788174D02*
X18293992Y-16807222D01*
X18293992Y-16807222D02*
X18293992Y-16826270D01*
X18293992Y-16826270D02*
X18198753Y-16845317D01*
X18370182Y-16902460D02*
X18389230Y-16911984D01*
X18389230Y-16911984D02*
X18427325Y-16911984D01*
X18427325Y-16911984D02*
X18446373Y-16902460D01*
X18446373Y-16902460D02*
X18455896Y-16883412D01*
X18455896Y-16883412D02*
X18455896Y-16873889D01*
X18455896Y-16873889D02*
X18446373Y-16854841D01*
X18446373Y-16854841D02*
X18427325Y-16845317D01*
X18427325Y-16845317D02*
X18398753Y-16845317D01*
X18398753Y-16845317D02*
X18379706Y-16835793D01*
X18379706Y-16835793D02*
X18370182Y-16816746D01*
X18370182Y-16816746D02*
X18370182Y-16807222D01*
X18370182Y-16807222D02*
X18379706Y-16788174D01*
X18379706Y-16788174D02*
X18398753Y-16778650D01*
X18398753Y-16778650D02*
X18427325Y-16778650D01*
X18427325Y-16778650D02*
X18446373Y-16788174D01*
X18522563Y-16988174D02*
X18532087Y-16978650D01*
X18532087Y-16978650D02*
X18551134Y-16950079D01*
X18551134Y-16950079D02*
X18560658Y-16931031D01*
X18560658Y-16931031D02*
X18570182Y-16902460D01*
X18570182Y-16902460D02*
X18579706Y-16854841D01*
X18579706Y-16854841D02*
X18579706Y-16816746D01*
X18579706Y-16816746D02*
X18570182Y-16769127D01*
X18570182Y-16769127D02*
X18560658Y-16740555D01*
X18560658Y-16740555D02*
X18551134Y-16721508D01*
X18551134Y-16721508D02*
X18532087Y-16692936D01*
X18532087Y-16692936D02*
X18522563Y-16683412D01*
D12*
X13732856Y-17119856D02*
X13732856Y-17049144D01*
X13662144Y-17049144D01*
X13662144Y-17119856D01*
X13732856Y-17119856D01*
D11*
X14113039Y-17175984D02*
X13998753Y-17175984D01*
X14055896Y-17175984D02*
X14055896Y-16975984D01*
X14055896Y-16975984D02*
X14036848Y-17004555D01*
X14036848Y-17004555D02*
X14017801Y-17023603D01*
X14017801Y-17023603D02*
X13998753Y-17033127D01*
X14198753Y-17156936D02*
X14208277Y-17166460D01*
X14208277Y-17166460D02*
X14198753Y-17175984D01*
X14198753Y-17175984D02*
X14189229Y-17166460D01*
X14189229Y-17166460D02*
X14198753Y-17156936D01*
X14198753Y-17156936D02*
X14198753Y-17175984D01*
X14332086Y-16975984D02*
X14351134Y-16975984D01*
X14351134Y-16975984D02*
X14370182Y-16985508D01*
X14370182Y-16985508D02*
X14379705Y-16995031D01*
X14379705Y-16995031D02*
X14389229Y-17014079D01*
X14389229Y-17014079D02*
X14398753Y-17052174D01*
X14398753Y-17052174D02*
X14398753Y-17099793D01*
X14398753Y-17099793D02*
X14389229Y-17137889D01*
X14389229Y-17137889D02*
X14379705Y-17156936D01*
X14379705Y-17156936D02*
X14370182Y-17166460D01*
X14370182Y-17166460D02*
X14351134Y-17175984D01*
X14351134Y-17175984D02*
X14332086Y-17175984D01*
X14332086Y-17175984D02*
X14313039Y-17166460D01*
X14313039Y-17166460D02*
X14303515Y-17156936D01*
X14303515Y-17156936D02*
X14293991Y-17137889D01*
X14293991Y-17137889D02*
X14284467Y-17099793D01*
X14284467Y-17099793D02*
X14284467Y-17052174D01*
X14284467Y-17052174D02*
X14293991Y-17014079D01*
X14293991Y-17014079D02*
X14303515Y-16995031D01*
X14303515Y-16995031D02*
X14313039Y-16985508D01*
X14313039Y-16985508D02*
X14332086Y-16975984D01*
X14522562Y-16975984D02*
X14541610Y-16975984D01*
X14541610Y-16975984D02*
X14560658Y-16985508D01*
X14560658Y-16985508D02*
X14570182Y-16995031D01*
X14570182Y-16995031D02*
X14579705Y-17014079D01*
X14579705Y-17014079D02*
X14589229Y-17052174D01*
X14589229Y-17052174D02*
X14589229Y-17099793D01*
X14589229Y-17099793D02*
X14579705Y-17137889D01*
X14579705Y-17137889D02*
X14570182Y-17156936D01*
X14570182Y-17156936D02*
X14560658Y-17166460D01*
X14560658Y-17166460D02*
X14541610Y-17175984D01*
X14541610Y-17175984D02*
X14522562Y-17175984D01*
X14522562Y-17175984D02*
X14503515Y-17166460D01*
X14503515Y-17166460D02*
X14493991Y-17156936D01*
X14493991Y-17156936D02*
X14484467Y-17137889D01*
X14484467Y-17137889D02*
X14474943Y-17099793D01*
X14474943Y-17099793D02*
X14474943Y-17052174D01*
X14474943Y-17052174D02*
X14484467Y-17014079D01*
X14484467Y-17014079D02*
X14493991Y-16995031D01*
X14493991Y-16995031D02*
X14503515Y-16985508D01*
X14503515Y-16985508D02*
X14522562Y-16975984D01*
X14713039Y-16975984D02*
X14732086Y-16975984D01*
X14732086Y-16975984D02*
X14751134Y-16985508D01*
X14751134Y-16985508D02*
X14760658Y-16995031D01*
X14760658Y-16995031D02*
X14770182Y-17014079D01*
X14770182Y-17014079D02*
X14779705Y-17052174D01*
X14779705Y-17052174D02*
X14779705Y-17099793D01*
X14779705Y-17099793D02*
X14770182Y-17137889D01*
X14770182Y-17137889D02*
X14760658Y-17156936D01*
X14760658Y-17156936D02*
X14751134Y-17166460D01*
X14751134Y-17166460D02*
X14732086Y-17175984D01*
X14732086Y-17175984D02*
X14713039Y-17175984D01*
X14713039Y-17175984D02*
X14693991Y-17166460D01*
X14693991Y-17166460D02*
X14684467Y-17156936D01*
X14684467Y-17156936D02*
X14674943Y-17137889D01*
X14674943Y-17137889D02*
X14665420Y-17099793D01*
X14665420Y-17099793D02*
X14665420Y-17052174D01*
X14665420Y-17052174D02*
X14674943Y-17014079D01*
X14674943Y-17014079D02*
X14684467Y-16995031D01*
X14684467Y-16995031D02*
X14693991Y-16985508D01*
X14693991Y-16985508D02*
X14713039Y-16975984D01*
X14865420Y-17175984D02*
X14865420Y-17042650D01*
X14865420Y-17061698D02*
X14874943Y-17052174D01*
X14874943Y-17052174D02*
X14893991Y-17042650D01*
X14893991Y-17042650D02*
X14922563Y-17042650D01*
X14922563Y-17042650D02*
X14941610Y-17052174D01*
X14941610Y-17052174D02*
X14951134Y-17071222D01*
X14951134Y-17071222D02*
X14951134Y-17175984D01*
X14951134Y-17071222D02*
X14960658Y-17052174D01*
X14960658Y-17052174D02*
X14979705Y-17042650D01*
X14979705Y-17042650D02*
X15008277Y-17042650D01*
X15008277Y-17042650D02*
X15027324Y-17052174D01*
X15027324Y-17052174D02*
X15036848Y-17071222D01*
X15036848Y-17071222D02*
X15036848Y-17175984D01*
X15132086Y-17175984D02*
X15132086Y-17042650D01*
X15132086Y-17061698D02*
X15141610Y-17052174D01*
X15141610Y-17052174D02*
X15160658Y-17042650D01*
X15160658Y-17042650D02*
X15189229Y-17042650D01*
X15189229Y-17042650D02*
X15208277Y-17052174D01*
X15208277Y-17052174D02*
X15217801Y-17071222D01*
X15217801Y-17071222D02*
X15217801Y-17175984D01*
X15217801Y-17071222D02*
X15227324Y-17052174D01*
X15227324Y-17052174D02*
X15246372Y-17042650D01*
X15246372Y-17042650D02*
X15274943Y-17042650D01*
X15274943Y-17042650D02*
X15293991Y-17052174D01*
X15293991Y-17052174D02*
X15303515Y-17071222D01*
X15303515Y-17071222D02*
X15303515Y-17175984D01*
X15693991Y-16966460D02*
X15522563Y-17223603D01*
X15951134Y-16975984D02*
X15970182Y-16975984D01*
X15970182Y-16975984D02*
X15989229Y-16985508D01*
X15989229Y-16985508D02*
X15998753Y-16995031D01*
X15998753Y-16995031D02*
X16008277Y-17014079D01*
X16008277Y-17014079D02*
X16017801Y-17052174D01*
X16017801Y-17052174D02*
X16017801Y-17099793D01*
X16017801Y-17099793D02*
X16008277Y-17137889D01*
X16008277Y-17137889D02*
X15998753Y-17156936D01*
X15998753Y-17156936D02*
X15989229Y-17166460D01*
X15989229Y-17166460D02*
X15970182Y-17175984D01*
X15970182Y-17175984D02*
X15951134Y-17175984D01*
X15951134Y-17175984D02*
X15932086Y-17166460D01*
X15932086Y-17166460D02*
X15922563Y-17156936D01*
X15922563Y-17156936D02*
X15913039Y-17137889D01*
X15913039Y-17137889D02*
X15903515Y-17099793D01*
X15903515Y-17099793D02*
X15903515Y-17052174D01*
X15903515Y-17052174D02*
X15913039Y-17014079D01*
X15913039Y-17014079D02*
X15922563Y-16995031D01*
X15922563Y-16995031D02*
X15932086Y-16985508D01*
X15932086Y-16985508D02*
X15951134Y-16975984D01*
X16103515Y-17156936D02*
X16113039Y-17166460D01*
X16113039Y-17166460D02*
X16103515Y-17175984D01*
X16103515Y-17175984D02*
X16093991Y-17166460D01*
X16093991Y-17166460D02*
X16103515Y-17156936D01*
X16103515Y-17156936D02*
X16103515Y-17175984D01*
X16236848Y-16975984D02*
X16255896Y-16975984D01*
X16255896Y-16975984D02*
X16274944Y-16985508D01*
X16274944Y-16985508D02*
X16284467Y-16995031D01*
X16284467Y-16995031D02*
X16293991Y-17014079D01*
X16293991Y-17014079D02*
X16303515Y-17052174D01*
X16303515Y-17052174D02*
X16303515Y-17099793D01*
X16303515Y-17099793D02*
X16293991Y-17137889D01*
X16293991Y-17137889D02*
X16284467Y-17156936D01*
X16284467Y-17156936D02*
X16274944Y-17166460D01*
X16274944Y-17166460D02*
X16255896Y-17175984D01*
X16255896Y-17175984D02*
X16236848Y-17175984D01*
X16236848Y-17175984D02*
X16217801Y-17166460D01*
X16217801Y-17166460D02*
X16208277Y-17156936D01*
X16208277Y-17156936D02*
X16198753Y-17137889D01*
X16198753Y-17137889D02*
X16189229Y-17099793D01*
X16189229Y-17099793D02*
X16189229Y-17052174D01*
X16189229Y-17052174D02*
X16198753Y-17014079D01*
X16198753Y-17014079D02*
X16208277Y-16995031D01*
X16208277Y-16995031D02*
X16217801Y-16985508D01*
X16217801Y-16985508D02*
X16236848Y-16975984D01*
X16370182Y-16975984D02*
X16493991Y-16975984D01*
X16493991Y-16975984D02*
X16427325Y-17052174D01*
X16427325Y-17052174D02*
X16455896Y-17052174D01*
X16455896Y-17052174D02*
X16474944Y-17061698D01*
X16474944Y-17061698D02*
X16484467Y-17071222D01*
X16484467Y-17071222D02*
X16493991Y-17090270D01*
X16493991Y-17090270D02*
X16493991Y-17137889D01*
X16493991Y-17137889D02*
X16484467Y-17156936D01*
X16484467Y-17156936D02*
X16474944Y-17166460D01*
X16474944Y-17166460D02*
X16455896Y-17175984D01*
X16455896Y-17175984D02*
X16398753Y-17175984D01*
X16398753Y-17175984D02*
X16379706Y-17166460D01*
X16379706Y-17166460D02*
X16370182Y-17156936D01*
X16589229Y-17175984D02*
X16627325Y-17175984D01*
X16627325Y-17175984D02*
X16646372Y-17166460D01*
X16646372Y-17166460D02*
X16655896Y-17156936D01*
X16655896Y-17156936D02*
X16674944Y-17128365D01*
X16674944Y-17128365D02*
X16684467Y-17090270D01*
X16684467Y-17090270D02*
X16684467Y-17014079D01*
X16684467Y-17014079D02*
X16674944Y-16995031D01*
X16674944Y-16995031D02*
X16665420Y-16985508D01*
X16665420Y-16985508D02*
X16646372Y-16975984D01*
X16646372Y-16975984D02*
X16608277Y-16975984D01*
X16608277Y-16975984D02*
X16589229Y-16985508D01*
X16589229Y-16985508D02*
X16579706Y-16995031D01*
X16579706Y-16995031D02*
X16570182Y-17014079D01*
X16570182Y-17014079D02*
X16570182Y-17061698D01*
X16570182Y-17061698D02*
X16579706Y-17080746D01*
X16579706Y-17080746D02*
X16589229Y-17090270D01*
X16589229Y-17090270D02*
X16608277Y-17099793D01*
X16608277Y-17099793D02*
X16646372Y-17099793D01*
X16646372Y-17099793D02*
X16665420Y-17090270D01*
X16665420Y-17090270D02*
X16674944Y-17080746D01*
X16674944Y-17080746D02*
X16684467Y-17061698D01*
X16855896Y-17042650D02*
X16855896Y-17175984D01*
X16808277Y-16966460D02*
X16760658Y-17109317D01*
X16760658Y-17109317D02*
X16884468Y-17109317D01*
X16951134Y-16975984D02*
X16951134Y-17014079D01*
X17027325Y-16975984D02*
X17027325Y-17014079D01*
X17322563Y-17252174D02*
X17313039Y-17242650D01*
X17313039Y-17242650D02*
X17293991Y-17214079D01*
X17293991Y-17214079D02*
X17284468Y-17195031D01*
X17284468Y-17195031D02*
X17274944Y-17166460D01*
X17274944Y-17166460D02*
X17265420Y-17118841D01*
X17265420Y-17118841D02*
X17265420Y-17080746D01*
X17265420Y-17080746D02*
X17274944Y-17033127D01*
X17274944Y-17033127D02*
X17284468Y-17004555D01*
X17284468Y-17004555D02*
X17293991Y-16985508D01*
X17293991Y-16985508D02*
X17313039Y-16956936D01*
X17313039Y-16956936D02*
X17322563Y-16947412D01*
X17389230Y-16995031D02*
X17398753Y-16985508D01*
X17398753Y-16985508D02*
X17417801Y-16975984D01*
X17417801Y-16975984D02*
X17465420Y-16975984D01*
X17465420Y-16975984D02*
X17484468Y-16985508D01*
X17484468Y-16985508D02*
X17493991Y-16995031D01*
X17493991Y-16995031D02*
X17503515Y-17014079D01*
X17503515Y-17014079D02*
X17503515Y-17033127D01*
X17503515Y-17033127D02*
X17493991Y-17061698D01*
X17493991Y-17061698D02*
X17379706Y-17175984D01*
X17379706Y-17175984D02*
X17503515Y-17175984D01*
X17579706Y-16995031D02*
X17589230Y-16985508D01*
X17589230Y-16985508D02*
X17608277Y-16975984D01*
X17608277Y-16975984D02*
X17655896Y-16975984D01*
X17655896Y-16975984D02*
X17674944Y-16985508D01*
X17674944Y-16985508D02*
X17684468Y-16995031D01*
X17684468Y-16995031D02*
X17693991Y-17014079D01*
X17693991Y-17014079D02*
X17693991Y-17033127D01*
X17693991Y-17033127D02*
X17684468Y-17061698D01*
X17684468Y-17061698D02*
X17570182Y-17175984D01*
X17570182Y-17175984D02*
X17693991Y-17175984D01*
X17932087Y-17175984D02*
X17932087Y-16975984D01*
X18017801Y-17175984D02*
X18017801Y-17071222D01*
X18017801Y-17071222D02*
X18008277Y-17052174D01*
X18008277Y-17052174D02*
X17989230Y-17042650D01*
X17989230Y-17042650D02*
X17960658Y-17042650D01*
X17960658Y-17042650D02*
X17941611Y-17052174D01*
X17941611Y-17052174D02*
X17932087Y-17061698D01*
X18141611Y-17175984D02*
X18122563Y-17166460D01*
X18122563Y-17166460D02*
X18113039Y-17156936D01*
X18113039Y-17156936D02*
X18103515Y-17137889D01*
X18103515Y-17137889D02*
X18103515Y-17080746D01*
X18103515Y-17080746D02*
X18113039Y-17061698D01*
X18113039Y-17061698D02*
X18122563Y-17052174D01*
X18122563Y-17052174D02*
X18141611Y-17042650D01*
X18141611Y-17042650D02*
X18170182Y-17042650D01*
X18170182Y-17042650D02*
X18189230Y-17052174D01*
X18189230Y-17052174D02*
X18198753Y-17061698D01*
X18198753Y-17061698D02*
X18208277Y-17080746D01*
X18208277Y-17080746D02*
X18208277Y-17137889D01*
X18208277Y-17137889D02*
X18198753Y-17156936D01*
X18198753Y-17156936D02*
X18189230Y-17166460D01*
X18189230Y-17166460D02*
X18170182Y-17175984D01*
X18170182Y-17175984D02*
X18141611Y-17175984D01*
X18322563Y-17175984D02*
X18303515Y-17166460D01*
X18303515Y-17166460D02*
X18293992Y-17147412D01*
X18293992Y-17147412D02*
X18293992Y-16975984D01*
X18474944Y-17166460D02*
X18455896Y-17175984D01*
X18455896Y-17175984D02*
X18417801Y-17175984D01*
X18417801Y-17175984D02*
X18398753Y-17166460D01*
X18398753Y-17166460D02*
X18389230Y-17147412D01*
X18389230Y-17147412D02*
X18389230Y-17071222D01*
X18389230Y-17071222D02*
X18398753Y-17052174D01*
X18398753Y-17052174D02*
X18417801Y-17042650D01*
X18417801Y-17042650D02*
X18455896Y-17042650D01*
X18455896Y-17042650D02*
X18474944Y-17052174D01*
X18474944Y-17052174D02*
X18484468Y-17071222D01*
X18484468Y-17071222D02*
X18484468Y-17090270D01*
X18484468Y-17090270D02*
X18389230Y-17109317D01*
X18560658Y-17166460D02*
X18579706Y-17175984D01*
X18579706Y-17175984D02*
X18617801Y-17175984D01*
X18617801Y-17175984D02*
X18636849Y-17166460D01*
X18636849Y-17166460D02*
X18646373Y-17147412D01*
X18646373Y-17147412D02*
X18646373Y-17137889D01*
X18646373Y-17137889D02*
X18636849Y-17118841D01*
X18636849Y-17118841D02*
X18617801Y-17109317D01*
X18617801Y-17109317D02*
X18589230Y-17109317D01*
X18589230Y-17109317D02*
X18570182Y-17099793D01*
X18570182Y-17099793D02*
X18560658Y-17080746D01*
X18560658Y-17080746D02*
X18560658Y-17071222D01*
X18560658Y-17071222D02*
X18570182Y-17052174D01*
X18570182Y-17052174D02*
X18589230Y-17042650D01*
X18589230Y-17042650D02*
X18617801Y-17042650D01*
X18617801Y-17042650D02*
X18636849Y-17052174D01*
X18713039Y-17252174D02*
X18722563Y-17242650D01*
X18722563Y-17242650D02*
X18741611Y-17214079D01*
X18741611Y-17214079D02*
X18751134Y-17195031D01*
X18751134Y-17195031D02*
X18760658Y-17166460D01*
X18760658Y-17166460D02*
X18770182Y-17118841D01*
X18770182Y-17118841D02*
X18770182Y-17080746D01*
X18770182Y-17080746D02*
X18760658Y-17033127D01*
X18760658Y-17033127D02*
X18751134Y-17004555D01*
X18751134Y-17004555D02*
X18741611Y-16985508D01*
X18741611Y-16985508D02*
X18722563Y-16956936D01*
X18722563Y-16956936D02*
X18713039Y-16947412D01*
M02*
