G04 #@! TF.GenerationSoftware,KiCad,Pcbnew,9.0.0*
G04 #@! TF.CreationDate,2025-07-01T12:28:05-04:00*
G04 #@! TF.ProjectId,wio-e5-test,77696f2d-6535-42d7-9465-73742e6b6963,rev?*
G04 #@! TF.SameCoordinates,Original*
G04 #@! TF.FileFunction,Copper,L1,Top*
G04 #@! TF.FilePolarity,Positive*
%FSLAX46Y46*%
G04 Gerber Fmt 4.6, Leading zero omitted, Abs format (unit mm)*
G04 Created by KiCad (PCBNEW 9.0.0) date 2025-07-01 12:28:05*
%MOMM*%
%LPD*%
G01*
G04 APERTURE LIST*
G04 Aperture macros list*
%AMRoundRect*
0 Rectangle with rounded corners*
0 $1 Rounding radius*
0 $2 $3 $4 $5 $6 $7 $8 $9 X,Y pos of 4 corners*
0 Add a 4 corners polygon primitive as box body*
4,1,4,$2,$3,$4,$5,$6,$7,$8,$9,$2,$3,0*
0 Add four circle primitives for the rounded corners*
1,1,$1+$1,$2,$3*
1,1,$1+$1,$4,$5*
1,1,$1+$1,$6,$7*
1,1,$1+$1,$8,$9*
0 Add four rect primitives between the rounded corners*
20,1,$1+$1,$2,$3,$4,$5,0*
20,1,$1+$1,$4,$5,$6,$7,0*
20,1,$1+$1,$6,$7,$8,$9,0*
20,1,$1+$1,$8,$9,$2,$3,0*%
G04 Aperture macros list end*
G04 #@! TA.AperFunction,ComponentPad*
%ADD10C,1.168400*%
G04 #@! TD*
G04 #@! TA.AperFunction,ComponentPad*
%ADD11R,1.700000X1.700000*%
G04 #@! TD*
G04 #@! TA.AperFunction,ComponentPad*
%ADD12O,1.700000X1.700000*%
G04 #@! TD*
G04 #@! TA.AperFunction,SMDPad,CuDef*
%ADD13RoundRect,0.100000X1.050000X-0.400000X1.050000X0.400000X-1.050000X0.400000X-1.050000X-0.400000X0*%
G04 #@! TD*
G04 #@! TA.AperFunction,SMDPad,CuDef*
%ADD14RoundRect,0.100000X0.400000X1.050000X-0.400000X1.050000X-0.400000X-1.050000X0.400000X-1.050000X0*%
G04 #@! TD*
G04 #@! TA.AperFunction,SMDPad,CuDef*
%ADD15RoundRect,0.100000X-1.050000X0.400000X-1.050000X-0.400000X1.050000X-0.400000X1.050000X0.400000X0*%
G04 #@! TD*
G04 #@! TA.AperFunction,SMDPad,CuDef*
%ADD16RoundRect,0.100000X-0.400000X-1.050000X0.400000X-1.050000X0.400000X1.050000X-0.400000X1.050000X0*%
G04 #@! TD*
G04 #@! TA.AperFunction,SMDPad,CuDef*
%ADD17RoundRect,0.218750X0.256250X-0.218750X0.256250X0.218750X-0.256250X0.218750X-0.256250X-0.218750X0*%
G04 #@! TD*
G04 #@! TA.AperFunction,SMDPad,CuDef*
%ADD18RoundRect,0.200000X0.275000X-0.200000X0.275000X0.200000X-0.275000X0.200000X-0.275000X-0.200000X0*%
G04 #@! TD*
G04 #@! TA.AperFunction,SMDPad,CuDef*
%ADD19RoundRect,0.225000X0.225000X0.250000X-0.225000X0.250000X-0.225000X-0.250000X0.225000X-0.250000X0*%
G04 #@! TD*
G04 #@! TA.AperFunction,SMDPad,CuDef*
%ADD20RoundRect,0.225000X0.250000X-0.225000X0.250000X0.225000X-0.250000X0.225000X-0.250000X-0.225000X0*%
G04 #@! TD*
G04 #@! TA.AperFunction,SMDPad,CuDef*
%ADD21RoundRect,0.250000X1.350000X-0.385000X1.350000X0.385000X-1.350000X0.385000X-1.350000X-0.385000X0*%
G04 #@! TD*
G04 #@! TA.AperFunction,SMDPad,CuDef*
%ADD22RoundRect,0.250000X1.600000X-0.425000X1.600000X0.425000X-1.600000X0.425000X-1.600000X-0.425000X0*%
G04 #@! TD*
G04 #@! TA.AperFunction,SMDPad,CuDef*
%ADD23RoundRect,0.225000X-0.250000X0.225000X-0.250000X-0.225000X0.250000X-0.225000X0.250000X0.225000X0*%
G04 #@! TD*
G04 #@! TA.AperFunction,SMDPad,CuDef*
%ADD24RoundRect,0.200000X0.200000X0.275000X-0.200000X0.275000X-0.200000X-0.275000X0.200000X-0.275000X0*%
G04 #@! TD*
G04 #@! TA.AperFunction,SMDPad,CuDef*
%ADD25RoundRect,0.200000X-0.275000X0.200000X-0.275000X-0.200000X0.275000X-0.200000X0.275000X0.200000X0*%
G04 #@! TD*
G04 #@! TA.AperFunction,SMDPad,CuDef*
%ADD26RoundRect,0.066040X0.264160X0.708660X-0.264160X0.708660X-0.264160X-0.708660X0.264160X-0.708660X0*%
G04 #@! TD*
G04 #@! TA.AperFunction,SMDPad,CuDef*
%ADD27RoundRect,0.129540X0.518160X0.822960X-0.518160X0.822960X-0.518160X-0.822960X0.518160X-0.822960X0*%
G04 #@! TD*
G04 #@! TA.AperFunction,SMDPad,CuDef*
%ADD28R,0.711200X0.990600*%
G04 #@! TD*
G04 #@! TA.AperFunction,SMDPad,CuDef*
%ADD29RoundRect,0.218750X-0.256250X0.218750X-0.256250X-0.218750X0.256250X-0.218750X0.256250X0.218750X0*%
G04 #@! TD*
G04 #@! TA.AperFunction,SMDPad,CuDef*
%ADD30RoundRect,0.087500X-0.087500X0.125000X-0.087500X-0.125000X0.087500X-0.125000X0.087500X0.125000X0*%
G04 #@! TD*
G04 #@! TA.AperFunction,SMDPad,CuDef*
%ADD31RoundRect,0.087500X-0.125000X0.087500X-0.125000X-0.087500X0.125000X-0.087500X0.125000X0.087500X0*%
G04 #@! TD*
G04 #@! TA.AperFunction,SMDPad,CuDef*
%ADD32RoundRect,0.200000X-0.200000X-0.275000X0.200000X-0.275000X0.200000X0.275000X-0.200000X0.275000X0*%
G04 #@! TD*
G04 #@! TA.AperFunction,SMDPad,CuDef*
%ADD33RoundRect,0.150000X0.150000X-0.512500X0.150000X0.512500X-0.150000X0.512500X-0.150000X-0.512500X0*%
G04 #@! TD*
G04 #@! TA.AperFunction,ComponentPad*
%ADD34RoundRect,0.250000X-0.625000X0.350000X-0.625000X-0.350000X0.625000X-0.350000X0.625000X0.350000X0*%
G04 #@! TD*
G04 #@! TA.AperFunction,ComponentPad*
%ADD35O,1.750000X1.200000*%
G04 #@! TD*
G04 #@! TA.AperFunction,ViaPad*
%ADD36C,0.600000*%
G04 #@! TD*
G04 #@! TA.AperFunction,Conductor*
%ADD37C,0.500000*%
G04 #@! TD*
G04 #@! TA.AperFunction,Conductor*
%ADD38C,0.300000*%
G04 #@! TD*
G04 #@! TA.AperFunction,Conductor*
%ADD39C,0.200000*%
G04 #@! TD*
G04 #@! TA.AperFunction,Conductor*
%ADD40C,0.750000*%
G04 #@! TD*
G04 #@! TA.AperFunction,Conductor*
%ADD41C,1.000000*%
G04 #@! TD*
G04 #@! TA.AperFunction,Conductor*
%ADD42C,0.350000*%
G04 #@! TD*
G04 APERTURE END LIST*
D10*
G04 #@! TO.P,J3,1,VTref*
G04 #@! TO.N,+3V3*
X140000000Y-139000000D03*
G04 #@! TO.P,J3,2,SWDIO/TMS*
G04 #@! TO.N,/SWDIO*
X141270000Y-139000000D03*
G04 #@! TO.P,J3,3,GND*
G04 #@! TO.N,GND*
X140000000Y-140270000D03*
G04 #@! TO.P,J3,4,SWCLK/TCK*
G04 #@! TO.N,/SWCLK*
X141270000Y-140270000D03*
G04 #@! TO.P,J3,5,GND*
G04 #@! TO.N,GND*
X140000000Y-141540000D03*
G04 #@! TO.P,J3,6,SWO/TDO*
G04 #@! TO.N,/SWO*
X141270000Y-141540000D03*
G04 #@! TO.P,J3,7,KEY*
G04 #@! TO.N,unconnected-(J3-KEY-Pad7)*
X140000000Y-142810000D03*
G04 #@! TO.P,J3,8,NC/TDI*
G04 #@! TO.N,unconnected-(J3-NC{slash}TDI-Pad8)*
X141270000Y-142810000D03*
G04 #@! TO.P,J3,9,GNDDetect*
G04 #@! TO.N,GND*
X140000000Y-144080000D03*
G04 #@! TO.P,J3,10,~{RESET}*
G04 #@! TO.N,/~{RST}*
X141270000Y-144080000D03*
G04 #@! TD*
D11*
G04 #@! TO.P,J7,1,Pin_1*
G04 #@! TO.N,/UART1_RX*
X149660000Y-154500000D03*
D12*
G04 #@! TO.P,J7,2,Pin_2*
G04 #@! TO.N,/UART1_TX*
X152200000Y-154500000D03*
G04 #@! TO.P,J7,3,Pin_3*
G04 #@! TO.N,/~{RST}*
X154740000Y-154500000D03*
G04 #@! TO.P,J7,4,Pin_4*
G04 #@! TO.N,GND*
X157280000Y-154500000D03*
G04 #@! TO.P,J7,5,Pin_5*
G04 #@! TO.N,+3V3*
X159820000Y-154500000D03*
G04 #@! TO.P,J7,6,Pin_6*
G04 #@! TO.N,/PB5*
X162360000Y-154500000D03*
G04 #@! TO.P,J7,7,Pin_7*
G04 #@! TO.N,/PC1*
X164900000Y-154500000D03*
G04 #@! TO.P,J7,8,Pin_8*
G04 #@! TO.N,/PC0*
X167440000Y-154500000D03*
G04 #@! TO.P,J7,9,Pin_9*
G04 #@! TO.N,GND*
X169980000Y-154500000D03*
G04 #@! TD*
D13*
G04 #@! TO.P,U3,1,VCC*
G04 #@! TO.N,+3V3*
X151467500Y-138545000D03*
G04 #@! TO.P,U3,2,GND*
G04 #@! TO.N,GND*
X151467500Y-139795000D03*
G04 #@! TO.P,U3,3,PA13*
G04 #@! TO.N,/SWDIO*
X151467500Y-141045000D03*
G04 #@! TO.P,U3,4,PA14*
G04 #@! TO.N,/SWCLK*
X151467500Y-142295000D03*
G04 #@! TO.P,U3,5,PB15*
G04 #@! TO.N,/I2C2_SCL*
X151467500Y-143545000D03*
G04 #@! TO.P,U3,6,PA15*
G04 #@! TO.N,/I2C2_SDA*
X151467500Y-144795000D03*
G04 #@! TO.P,U3,7,PB4*
G04 #@! TO.N,/LPS22_INT*
X151467500Y-146045000D03*
D14*
G04 #@! TO.P,U3,8,PB3*
G04 #@! TO.N,/SWO*
X153717500Y-148295000D03*
G04 #@! TO.P,U3,9,PB7*
G04 #@! TO.N,/UART1_RX*
X154967500Y-148295000D03*
G04 #@! TO.P,U3,10,PB6*
G04 #@! TO.N,/UART1_TX*
X156217500Y-148295000D03*
G04 #@! TO.P,U3,11,PB5*
G04 #@! TO.N,/PB5*
X157467500Y-148295000D03*
G04 #@! TO.P,U3,12,PC1*
G04 #@! TO.N,/PC1*
X158717500Y-148295000D03*
G04 #@! TO.P,U3,13,PC0*
G04 #@! TO.N,/PC0*
X159967500Y-148295000D03*
G04 #@! TO.P,U3,14,GND*
G04 #@! TO.N,GND*
X161217500Y-148295000D03*
D15*
G04 #@! TO.P,U3,15,RFIO*
G04 #@! TO.N,Net-(U3-RFIO)*
X163467500Y-146045000D03*
G04 #@! TO.P,U3,16,GND*
G04 #@! TO.N,GND*
X163467500Y-144795000D03*
G04 #@! TO.P,U3,17,~{RST}*
G04 #@! TO.N,/~{RST}*
X163467500Y-143545000D03*
G04 #@! TO.P,U3,18,PA3*
G04 #@! TO.N,/PA3*
X163467500Y-142295000D03*
G04 #@! TO.P,U3,19,PA2*
G04 #@! TO.N,/PA2*
X163467500Y-141045000D03*
G04 #@! TO.P,U3,20,PB10*
G04 #@! TO.N,/PB10*
X163467500Y-139795000D03*
G04 #@! TO.P,U3,21,PA9*
G04 #@! TO.N,/PA9*
X163467500Y-138545000D03*
D16*
G04 #@! TO.P,U3,22,GND*
G04 #@! TO.N,GND*
X161217500Y-136295000D03*
G04 #@! TO.P,U3,23,PA0*
G04 #@! TO.N,/PA0*
X159967500Y-136295000D03*
G04 #@! TO.P,U3,24,PB13*
G04 #@! TO.N,/BOOT*
X158717500Y-136295000D03*
G04 #@! TO.P,U3,25,PB9*
G04 #@! TO.N,/PB9*
X157467500Y-136295000D03*
G04 #@! TO.P,U3,26,PB14*
G04 #@! TO.N,/PB14*
X156217500Y-136295000D03*
G04 #@! TO.P,U3,27,PA10*
G04 #@! TO.N,/PA10*
X154967500Y-136295000D03*
G04 #@! TO.P,U3,28,PB0*
G04 #@! TO.N,unconnected-(U3-PB0-Pad28)*
X153717500Y-136295000D03*
G04 #@! TD*
D17*
G04 #@! TO.P,L1,1*
G04 #@! TO.N,Net-(U3-RFIO)*
X166500000Y-144000000D03*
G04 #@! TO.P,L1,2*
G04 #@! TO.N,Net-(J5-In)*
X166500000Y-142425000D03*
G04 #@! TD*
D18*
G04 #@! TO.P,R5,1*
G04 #@! TO.N,/PA0*
X150600000Y-133100000D03*
G04 #@! TO.P,R5,2*
G04 #@! TO.N,Net-(D2-A)*
X150600000Y-131450000D03*
G04 #@! TD*
D19*
G04 #@! TO.P,C5,1*
G04 #@! TO.N,Net-(U1-BYP)*
X146500000Y-129000000D03*
G04 #@! TO.P,C5,2*
G04 #@! TO.N,GND*
X144950000Y-129000000D03*
G04 #@! TD*
D20*
G04 #@! TO.P,C8,1*
G04 #@! TO.N,Net-(J5-In)*
X166500000Y-140500000D03*
G04 #@! TO.P,C8,2*
G04 #@! TO.N,GND*
X166500000Y-138950000D03*
G04 #@! TD*
D21*
G04 #@! TO.P,J5,1,In*
G04 #@! TO.N,Net-(J5-In)*
X170500000Y-140500000D03*
D22*
G04 #@! TO.P,J5,2,Ext*
G04 #@! TO.N,GND*
X170250000Y-137675000D03*
X170250000Y-143325000D03*
G04 #@! TD*
D23*
G04 #@! TO.P,C1,1*
G04 #@! TO.N,+3V3*
X152000000Y-150000000D03*
G04 #@! TO.P,C1,2*
G04 #@! TO.N,GND*
X152000000Y-151550000D03*
G04 #@! TD*
D24*
G04 #@! TO.P,R7,1*
G04 #@! TO.N,/I2C2_SCL*
X148500000Y-143500000D03*
G04 #@! TO.P,R7,2*
G04 #@! TO.N,GND*
X146850000Y-143500000D03*
G04 #@! TD*
D25*
G04 #@! TO.P,R4,1*
G04 #@! TO.N,Net-(R4-Pad1)*
X157600000Y-128400000D03*
G04 #@! TO.P,R4,2*
G04 #@! TO.N,GND*
X157600000Y-130050000D03*
G04 #@! TD*
G04 #@! TO.P,R6,1*
G04 #@! TO.N,/I2C2_SDA*
X148500000Y-146000000D03*
G04 #@! TO.P,R6,2*
G04 #@! TO.N,GND*
X148500000Y-147650000D03*
G04 #@! TD*
D20*
G04 #@! TO.P,C4,1*
G04 #@! TO.N,+3V3*
X142500000Y-130000000D03*
G04 #@! TO.P,C4,2*
G04 #@! TO.N,GND*
X142500000Y-128450000D03*
G04 #@! TD*
D23*
G04 #@! TO.P,C6,1*
G04 #@! TO.N,+3V3*
X148500000Y-138500000D03*
G04 #@! TO.P,C6,2*
G04 #@! TO.N,GND*
X148500000Y-140050000D03*
G04 #@! TD*
D25*
G04 #@! TO.P,R3,1*
G04 #@! TO.N,Net-(U2-SA0)*
X146500000Y-153500000D03*
G04 #@! TO.P,R3,2*
G04 #@! TO.N,GND*
X146500000Y-155150000D03*
G04 #@! TD*
D26*
G04 #@! TO.P,J6,1,GND*
G04 #@! TO.N,GND*
X143100000Y-152500000D03*
G04 #@! TO.P,J6,2,3V3*
G04 #@! TO.N,+3V3*
X142099999Y-152500000D03*
G04 #@! TO.P,J6,3,SDA*
G04 #@! TO.N,/I2C2_SDA*
X141100001Y-152500000D03*
G04 #@! TO.P,J6,4,SCL*
G04 #@! TO.N,/I2C2_SCL*
X140100000Y-152500000D03*
D27*
G04 #@! TO.P,J6,5,EP*
G04 #@! TO.N,GND*
X144399999Y-155080000D03*
X138800001Y-155080000D03*
G04 #@! TD*
D28*
G04 #@! TO.P,SW2,1,1*
G04 #@! TO.N,/BOOT*
X153100000Y-133000000D03*
X153100000Y-128499998D03*
G04 #@! TO.P,SW2,2,2*
G04 #@! TO.N,Net-(R4-Pad1)*
X155249998Y-133000000D03*
X155249998Y-128499998D03*
G04 #@! TD*
G04 #@! TO.P,SW3,1,1*
G04 #@! TO.N,GND*
X162100000Y-128499998D03*
X162100000Y-133000000D03*
G04 #@! TO.P,SW3,2,2*
G04 #@! TO.N,/PA9*
X159950002Y-128499998D03*
X159950002Y-133000000D03*
G04 #@! TD*
D20*
G04 #@! TO.P,C9,1*
G04 #@! TO.N,/PA9*
X157600000Y-133100000D03*
G04 #@! TO.P,C9,2*
G04 #@! TO.N,GND*
X157600000Y-131550000D03*
G04 #@! TD*
D29*
G04 #@! TO.P,D2,1,K*
G04 #@! TO.N,GND*
X150600000Y-128400000D03*
G04 #@! TO.P,D2,2,A*
G04 #@! TO.N,Net-(D2-A)*
X150600000Y-129975000D03*
G04 #@! TD*
D20*
G04 #@! TO.P,C3,1*
G04 #@! TO.N,+BATT*
X142500000Y-133450000D03*
G04 #@! TO.P,C3,2*
G04 #@! TO.N,GND*
X142500000Y-131900000D03*
G04 #@! TD*
D30*
G04 #@! TO.P,U2,1,Vdd_IO*
G04 #@! TO.N,+3V3*
X147500000Y-150000000D03*
G04 #@! TO.P,U2,2,SCL*
G04 #@! TO.N,/I2C2_SCL*
X147000000Y-150000000D03*
D31*
G04 #@! TO.P,U2,3,GND*
G04 #@! TO.N,GND*
X146487500Y-150262500D03*
G04 #@! TO.P,U2,4,SDA*
G04 #@! TO.N,/I2C2_SDA*
X146487500Y-150762500D03*
G04 #@! TO.P,U2,5,SA0*
G04 #@! TO.N,Net-(U2-SA0)*
X146487500Y-151262500D03*
D30*
G04 #@! TO.P,U2,6,~{CS}*
G04 #@! TO.N,+3V3*
X147000000Y-151525000D03*
G04 #@! TO.P,U2,7,INT_DRDY*
G04 #@! TO.N,/LPS22_INT*
X147500000Y-151525000D03*
D31*
G04 #@! TO.P,U2,8,GND*
G04 #@! TO.N,GND*
X148012500Y-151262500D03*
G04 #@! TO.P,U2,9,GND*
X148012500Y-150762500D03*
G04 #@! TO.P,U2,10,VDD*
G04 #@! TO.N,+3V3*
X148012500Y-150262500D03*
G04 #@! TD*
D29*
G04 #@! TO.P,D1,1,K*
G04 #@! TO.N,GND*
X148500000Y-128400000D03*
G04 #@! TO.P,D1,2,A*
G04 #@! TO.N,Net-(D1-A)*
X148500000Y-129975000D03*
G04 #@! TD*
D32*
G04 #@! TO.P,R2,1*
G04 #@! TO.N,+3V3*
X143350000Y-150500000D03*
G04 #@! TO.P,R2,2*
G04 #@! TO.N,Net-(U2-SA0)*
X145000000Y-150500000D03*
G04 #@! TD*
D23*
G04 #@! TO.P,C2,1*
G04 #@! TO.N,+3V3*
X150000000Y-150000000D03*
G04 #@! TO.P,C2,2*
G04 #@! TO.N,GND*
X150000000Y-151550000D03*
G04 #@! TD*
D11*
G04 #@! TO.P,J4,1,Pin_1*
G04 #@! TO.N,+3V3*
X140000000Y-125000000D03*
D12*
G04 #@! TO.P,J4,2,Pin_2*
G04 #@! TO.N,/PA10*
X142540000Y-125000000D03*
G04 #@! TO.P,J4,3,Pin_3*
G04 #@! TO.N,/PB14*
X145080000Y-125000000D03*
G04 #@! TO.P,J4,4,Pin_4*
G04 #@! TO.N,/PB9*
X147620000Y-125000000D03*
G04 #@! TO.P,J4,5,Pin_5*
G04 #@! TO.N,/BOOT*
X150160000Y-125000000D03*
G04 #@! TO.P,J4,6,Pin_6*
G04 #@! TO.N,GND*
X152700000Y-125000000D03*
G04 #@! TO.P,J4,7,Pin_7*
G04 #@! TO.N,+3V3*
X155240000Y-125000000D03*
G04 #@! TO.P,J4,8,Pin_8*
G04 #@! TO.N,/PA0*
X157780000Y-125000000D03*
G04 #@! TO.P,J4,9,Pin_9*
G04 #@! TO.N,/PA9*
X160320000Y-125000000D03*
G04 #@! TO.P,J4,10,Pin_10*
G04 #@! TO.N,/PB10*
X162860000Y-125000000D03*
G04 #@! TO.P,J4,11,Pin_11*
G04 #@! TO.N,/PA2*
X165400000Y-125000000D03*
G04 #@! TO.P,J4,12,Pin_12*
G04 #@! TO.N,/PA3*
X167940000Y-125000000D03*
G04 #@! TO.P,J4,13,Pin_13*
G04 #@! TO.N,GND*
X170480000Y-125000000D03*
G04 #@! TD*
D33*
G04 #@! TO.P,U1,1,IN*
G04 #@! TO.N,+BATT*
X144500000Y-133450000D03*
G04 #@! TO.P,U1,2,GND*
G04 #@! TO.N,GND*
X145450000Y-133450000D03*
G04 #@! TO.P,U1,3,EN*
G04 #@! TO.N,+BATT*
X146400000Y-133450000D03*
G04 #@! TO.P,U1,4,BYP*
G04 #@! TO.N,Net-(U1-BYP)*
X146400000Y-131175000D03*
G04 #@! TO.P,U1,5,OUT*
G04 #@! TO.N,+3V3*
X144500000Y-131175000D03*
G04 #@! TD*
D28*
G04 #@! TO.P,SW1,1,1*
G04 #@! TO.N,GND*
X164450002Y-133000000D03*
X164450002Y-128499998D03*
G04 #@! TO.P,SW1,2,2*
G04 #@! TO.N,/~{RST}*
X166600000Y-133000000D03*
X166600000Y-128499998D03*
G04 #@! TD*
D18*
G04 #@! TO.P,R1,1*
G04 #@! TO.N,+3V3*
X148500000Y-133100000D03*
G04 #@! TO.P,R1,2*
G04 #@! TO.N,Net-(D1-A)*
X148500000Y-131450000D03*
G04 #@! TD*
D23*
G04 #@! TO.P,C7,1*
G04 #@! TO.N,Net-(U3-RFIO)*
X166500000Y-146000000D03*
G04 #@! TO.P,C7,2*
G04 #@! TO.N,GND*
X166500000Y-147550000D03*
G04 #@! TD*
D34*
G04 #@! TO.P,J1,1,Pin_1*
G04 #@! TO.N,+BATT*
X140000000Y-132000000D03*
D35*
G04 #@! TO.P,J1,2,Pin_2*
G04 #@! TO.N,GND*
X140000000Y-130000000D03*
G04 #@! TD*
D36*
G04 #@! TO.N,GND*
X160000000Y-145000000D03*
X140000000Y-149000000D03*
X140000000Y-147000000D03*
X142000000Y-147000000D03*
X144000000Y-145000000D03*
X142000000Y-135000000D03*
X140000000Y-135000000D03*
X140000000Y-137000000D03*
X142000000Y-137000000D03*
G04 #@! TO.N,+3V3*
X142700000Y-150900000D03*
G04 #@! TO.N,GND*
X147200000Y-155100000D03*
X138800000Y-153900000D03*
X144400000Y-153900000D03*
X143100000Y-153500000D03*
G04 #@! TO.N,+3V3*
X142100000Y-153500000D03*
G04 #@! TO.N,/I2C2_SDA*
X147700000Y-146000000D03*
X145700000Y-148000000D03*
G04 #@! TO.N,GND*
X144000000Y-139000000D03*
X146300000Y-144100000D03*
X152000000Y-135000000D03*
X170000000Y-128000000D03*
X144000000Y-137000000D03*
X151400000Y-152100000D03*
X168000000Y-128000000D03*
X165300000Y-142800000D03*
X165300000Y-144800000D03*
X171800000Y-151000000D03*
X168000000Y-149000000D03*
X152900000Y-139800000D03*
X167700000Y-139800000D03*
X167700000Y-141500000D03*
X156000000Y-143000000D03*
X171800000Y-145000000D03*
X168000000Y-134000000D03*
X158300000Y-131600000D03*
X162700000Y-147500000D03*
X145000000Y-128200000D03*
X164000000Y-149000000D03*
X170000000Y-149000000D03*
X156000000Y-139000000D03*
X165300000Y-141800000D03*
X171800000Y-136000000D03*
X156000000Y-145000000D03*
X167700000Y-146500000D03*
X167700000Y-147500000D03*
X165000000Y-129100000D03*
X171800000Y-132000000D03*
X162000000Y-148300000D03*
X145400000Y-132500000D03*
X160000000Y-143000000D03*
X167700000Y-137800000D03*
X165000000Y-132300000D03*
X154000000Y-145000000D03*
X156000000Y-141000000D03*
X170000000Y-147000000D03*
X149300000Y-151500000D03*
X165300000Y-139800000D03*
X168000000Y-136000000D03*
X161200000Y-134900000D03*
X146300000Y-149800000D03*
X145400000Y-134400000D03*
X171800000Y-130000000D03*
X158000000Y-145000000D03*
X158000000Y-141000000D03*
X166500000Y-137800000D03*
X158000000Y-152000000D03*
X161200000Y-146800000D03*
X168000000Y-130000000D03*
X170000000Y-145000000D03*
X148500000Y-127700000D03*
X171800000Y-149000000D03*
X154000000Y-143000000D03*
X149200000Y-147600000D03*
X168000000Y-151000000D03*
X162000000Y-144800000D03*
X150000000Y-137000000D03*
X165300000Y-143800000D03*
X148463958Y-150940647D03*
X165300000Y-147500000D03*
X154000000Y-139000000D03*
X171800000Y-128000000D03*
X149500000Y-140000000D03*
X167700000Y-144500000D03*
X146000000Y-137000000D03*
X150000000Y-135000000D03*
X165300000Y-137800000D03*
X161500000Y-132400000D03*
X150600000Y-127700000D03*
X166000000Y-151000000D03*
X167700000Y-143500000D03*
X166000000Y-136000000D03*
X168000000Y-132000000D03*
X167700000Y-138800000D03*
X143308853Y-131908853D03*
X167700000Y-142500000D03*
X170000000Y-151000000D03*
X171800000Y-147000000D03*
X170000000Y-134000000D03*
X154000000Y-141000000D03*
X160000000Y-141000000D03*
X158000000Y-139000000D03*
X164000000Y-147500000D03*
X167700000Y-145500000D03*
X165300000Y-140800000D03*
X171800000Y-134000000D03*
X148000000Y-137000000D03*
X165300000Y-138800000D03*
X152000000Y-137000000D03*
X148000000Y-135000000D03*
X170000000Y-132000000D03*
X143300000Y-128500000D03*
X161300000Y-145800000D03*
X146000000Y-139000000D03*
X166000000Y-149000000D03*
X170000000Y-136000000D03*
X156000000Y-152000000D03*
X160000000Y-139000000D03*
X156900000Y-130100000D03*
X148400000Y-151600000D03*
X161200000Y-137700000D03*
X161500000Y-128500000D03*
X170000000Y-130000000D03*
X158000000Y-143000000D03*
G04 #@! TO.N,+3V3*
X152000000Y-149300000D03*
X143500000Y-130500000D03*
X149500000Y-138500000D03*
X150000000Y-149300000D03*
X148900000Y-150000000D03*
X146985504Y-152108698D03*
X148500000Y-133800000D03*
X147600000Y-149500000D03*
G04 #@! TO.N,+BATT*
X143500000Y-133450000D03*
G04 #@! TO.N,/~{RST}*
X166600000Y-134000000D03*
X162000000Y-143545000D03*
G04 #@! TO.N,/SWO*
X153717500Y-146700000D03*
G04 #@! TO.N,/PA2*
X162000000Y-141000000D03*
G04 #@! TO.N,/PB9*
X157467500Y-134600000D03*
G04 #@! TO.N,/PB10*
X162000000Y-139800000D03*
G04 #@! TO.N,/PB14*
X156217500Y-134600000D03*
G04 #@! TO.N,/PA3*
X162000000Y-142300000D03*
G04 #@! TO.N,/PA10*
X154967500Y-134600000D03*
G04 #@! TO.N,/PA0*
X159967500Y-134600000D03*
X153700000Y-134600000D03*
G04 #@! TO.N,/LPS22_INT*
X151000000Y-149100000D03*
X148100000Y-152400000D03*
G04 #@! TD*
D37*
G04 #@! TO.N,+3V3*
X143100000Y-150500000D02*
X142700000Y-150900000D01*
X143350000Y-150500000D02*
X143100000Y-150500000D01*
G04 #@! TO.N,GND*
X147150000Y-155150000D02*
X147200000Y-155100000D01*
X146500000Y-155150000D02*
X147150000Y-155150000D01*
X138800001Y-155080000D02*
X138800000Y-153900000D01*
X144399999Y-155080000D02*
X144400000Y-153900000D01*
X143100000Y-152500000D02*
X143100000Y-153500000D01*
G04 #@! TO.N,+3V3*
X142099999Y-152500000D02*
X142100000Y-153500000D01*
D38*
X147600000Y-149900000D02*
X147700000Y-150000000D01*
X147600000Y-149500000D02*
X147600000Y-149900000D01*
X148637500Y-150262500D02*
X148900000Y-150000000D01*
X148012500Y-150262500D02*
X148637500Y-150262500D01*
D39*
G04 #@! TO.N,GND*
X146300000Y-149800000D02*
X146487500Y-149987500D01*
X146487500Y-149987500D02*
X146487500Y-150262500D01*
G04 #@! TO.N,/I2C2_SCL*
X142300000Y-148700000D02*
X140100000Y-150900000D01*
X140100000Y-150900000D02*
X140100000Y-152500000D01*
X143300000Y-148700000D02*
X142300000Y-148700000D01*
X147000000Y-145000000D02*
X143300000Y-148700000D01*
G04 #@! TO.N,/I2C2_SDA*
X141100001Y-151199999D02*
X141100001Y-152500000D01*
X144200000Y-149500000D02*
X142800000Y-149500000D01*
X142800000Y-149500000D02*
X141100001Y-151199999D01*
X145700000Y-148000000D02*
X144200000Y-149500000D01*
X146223152Y-150762500D02*
X146487500Y-150762500D01*
X145700000Y-150239348D02*
X146223152Y-150762500D01*
X145700000Y-148000000D02*
X145700000Y-150239348D01*
G04 #@! TO.N,Net-(U2-SA0)*
X146384504Y-152357641D02*
X146400000Y-152373137D01*
X146400000Y-153400000D02*
X146500000Y-153500000D01*
X146384504Y-151859755D02*
X146384504Y-152357641D01*
X146400000Y-152373137D02*
X146400000Y-153400000D01*
X146400000Y-151844259D02*
X146384504Y-151859755D01*
X146487500Y-151262500D02*
X146400000Y-151350000D01*
X146400000Y-151350000D02*
X146400000Y-151844259D01*
G04 #@! TO.N,+3V3*
X147000000Y-152094202D02*
X147000000Y-151525000D01*
X146985504Y-152108698D02*
X147000000Y-152094202D01*
G04 #@! TO.N,Net-(U2-SA0)*
X145762500Y-151262500D02*
X146487500Y-151262500D01*
X145000000Y-150500000D02*
X145762500Y-151262500D01*
G04 #@! TO.N,/I2C2_SDA*
X148500000Y-146000000D02*
X147700000Y-146000000D01*
G04 #@! TO.N,GND*
X146300000Y-144100000D02*
X146850000Y-143550000D01*
X146850000Y-143550000D02*
X146850000Y-143500000D01*
G04 #@! TO.N,/I2C2_SCL*
X147000000Y-145000000D02*
X147000000Y-150000000D01*
X148500000Y-143500000D02*
X147000000Y-145000000D01*
G04 #@! TO.N,/SWCLK*
X151467500Y-142295000D02*
X143295000Y-142295000D01*
X143295000Y-142295000D02*
X141270000Y-140270000D01*
G04 #@! TO.N,/SWDIO*
X143315000Y-141045000D02*
X141270000Y-139000000D01*
X151467500Y-141045000D02*
X143315000Y-141045000D01*
D37*
G04 #@! TO.N,GND*
X161217500Y-146817500D02*
X161200000Y-146800000D01*
D39*
X164450002Y-128550002D02*
X164450002Y-128499998D01*
D37*
X149500000Y-140000000D02*
X149705000Y-139795000D01*
D39*
X164450002Y-132849998D02*
X164450002Y-133000000D01*
D37*
X150000000Y-151550000D02*
X149350000Y-151550000D01*
D40*
X143250000Y-128450000D02*
X143300000Y-128500000D01*
D37*
X165300000Y-144800000D02*
X164900000Y-144800000D01*
D39*
X148293584Y-150762500D02*
X148012500Y-150762500D01*
D37*
X161217500Y-136295000D02*
X161217500Y-134917500D01*
X161217500Y-134917500D02*
X161200000Y-134900000D01*
X164895000Y-144795000D02*
X163467500Y-144795000D01*
D39*
X157600000Y-130050000D02*
X156950000Y-130050000D01*
D37*
X161217500Y-148295000D02*
X161217500Y-146817500D01*
D40*
X145450000Y-134350000D02*
X145400000Y-134400000D01*
D37*
X149705000Y-139795000D02*
X151467500Y-139795000D01*
D40*
X145450000Y-132550000D02*
X145400000Y-132500000D01*
D39*
X148463958Y-150940647D02*
X148463958Y-150932874D01*
D37*
X164900000Y-144800000D02*
X164895000Y-144795000D01*
D40*
X145450000Y-133450000D02*
X145450000Y-134350000D01*
D39*
X161500002Y-128499998D02*
X162100000Y-128499998D01*
X161500000Y-128500000D02*
X161500002Y-128499998D01*
D41*
X143308853Y-131908853D02*
X143300000Y-131900000D01*
D39*
X156950000Y-130050000D02*
X156900000Y-130100000D01*
X157600000Y-131550000D02*
X158250000Y-131550000D01*
D37*
X151950000Y-151550000D02*
X152000000Y-151550000D01*
X151400000Y-152100000D02*
X151950000Y-151550000D01*
D40*
X144950000Y-129000000D02*
X144950000Y-128250000D01*
D37*
X151467500Y-139795000D02*
X152895000Y-139795000D01*
D39*
X162100000Y-133000000D02*
X161500000Y-132400000D01*
D37*
X150600000Y-128400000D02*
X150600000Y-127700000D01*
D39*
X148500000Y-147650000D02*
X149150000Y-147650000D01*
D37*
X161217500Y-137682500D02*
X161200000Y-137700000D01*
X161217500Y-136295000D02*
X161217500Y-137682500D01*
D39*
X165000000Y-129100000D02*
X164450002Y-128550002D01*
X148400000Y-151600000D02*
X148062500Y-151262500D01*
D37*
X148500000Y-128400000D02*
X148500000Y-127700000D01*
D39*
X158250000Y-131550000D02*
X158300000Y-131600000D01*
D37*
X148500000Y-140050000D02*
X149450000Y-140050000D01*
D41*
X143300000Y-131900000D02*
X142500000Y-131900000D01*
D37*
X152895000Y-139795000D02*
X152900000Y-139800000D01*
D39*
X149150000Y-147650000D02*
X149200000Y-147600000D01*
X148463958Y-150932874D02*
X148293584Y-150762500D01*
D37*
X161995000Y-148295000D02*
X162000000Y-148300000D01*
X162005000Y-144795000D02*
X162000000Y-144800000D01*
D40*
X144950000Y-128250000D02*
X145000000Y-128200000D01*
D39*
X148062500Y-151262500D02*
X148012500Y-151262500D01*
D40*
X142500000Y-128450000D02*
X143250000Y-128450000D01*
D37*
X163467500Y-144795000D02*
X162005000Y-144795000D01*
X149450000Y-140050000D02*
X149500000Y-140000000D01*
D39*
X165000000Y-132300000D02*
X164450002Y-132849998D01*
D40*
X145450000Y-133450000D02*
X145450000Y-132550000D01*
D37*
X161217500Y-148295000D02*
X161995000Y-148295000D01*
X149350000Y-151550000D02*
X149300000Y-151500000D01*
D40*
G04 #@! TO.N,+3V3*
X143500000Y-130500000D02*
X144175000Y-131175000D01*
D37*
X150000000Y-150000000D02*
X152000000Y-150000000D01*
X149500000Y-138500000D02*
X151422500Y-138500000D01*
D40*
X143000000Y-130000000D02*
X142500000Y-130000000D01*
D38*
X147962500Y-150262500D02*
X147700000Y-150000000D01*
D37*
X150000000Y-150000000D02*
X148900000Y-150000000D01*
D40*
X143500000Y-130500000D02*
X143000000Y-130000000D01*
D39*
X148012500Y-150262500D02*
X147962500Y-150262500D01*
D38*
X147500000Y-150000000D02*
X147700000Y-150000000D01*
D40*
X144175000Y-131175000D02*
X144500000Y-131175000D01*
D37*
X151422500Y-138500000D02*
X151467500Y-138545000D01*
X152000000Y-150000000D02*
X152000000Y-149300000D01*
X148500000Y-138500000D02*
X149500000Y-138500000D01*
D40*
X148500000Y-133100000D02*
X148500000Y-133800000D01*
D37*
X150000000Y-150000000D02*
X150000000Y-149300000D01*
G04 #@! TO.N,+BATT*
X144500000Y-134800000D02*
X144926000Y-135226000D01*
X144500000Y-133450000D02*
X144500000Y-134800000D01*
D41*
X141450000Y-133450000D02*
X142500000Y-133450000D01*
D37*
X146400000Y-134800000D02*
X146400000Y-133450000D01*
D41*
X140000000Y-132000000D02*
X141450000Y-133450000D01*
D37*
X145974000Y-135226000D02*
X146400000Y-134800000D01*
X144926000Y-135226000D02*
X145974000Y-135226000D01*
D40*
X143500000Y-133450000D02*
X144449000Y-133450000D01*
D41*
X142500000Y-133450000D02*
X143500000Y-133450000D01*
D40*
G04 #@! TO.N,Net-(U1-BYP)*
X146500000Y-129000000D02*
X146400000Y-129100000D01*
X146400000Y-129100000D02*
X146400000Y-131175000D01*
D42*
G04 #@! TO.N,Net-(U3-RFIO)*
X163467500Y-146045000D02*
X166455000Y-146045000D01*
X166500000Y-146000000D02*
X166500000Y-144000000D01*
X166455000Y-146045000D02*
X166500000Y-146000000D01*
G04 #@! TO.N,Net-(J5-In)*
X166500000Y-142425000D02*
X166500000Y-140500000D01*
X166500000Y-140500000D02*
X170500000Y-140500000D01*
D39*
G04 #@! TO.N,/PA9*
X159950002Y-128499998D02*
X159950002Y-127749998D01*
X159850002Y-133100000D02*
X159950002Y-133000000D01*
X159950002Y-127749998D02*
X160320000Y-127380000D01*
X163467500Y-138545000D02*
X163467500Y-135867500D01*
X160600000Y-133000000D02*
X159950002Y-133000000D01*
X160320000Y-127380000D02*
X160320000Y-125000000D01*
X159950002Y-128499998D02*
X159950002Y-133000000D01*
X163467500Y-135867500D02*
X160600000Y-133000000D01*
X157600000Y-133100000D02*
X159850002Y-133100000D01*
D37*
G04 #@! TO.N,Net-(D1-A)*
X148500000Y-129975000D02*
X148500000Y-131450000D01*
G04 #@! TO.N,Net-(D2-A)*
X150600000Y-129975000D02*
X150600000Y-131450000D01*
D39*
G04 #@! TO.N,/~{RST}*
X166600000Y-128499998D02*
X166600000Y-133000000D01*
X166600000Y-134000000D02*
X166600000Y-133000000D01*
X162000000Y-143545000D02*
X163467500Y-143545000D01*
G04 #@! TO.N,/UART1_TX*
X156217500Y-150482500D02*
X156217500Y-148295000D01*
X152200000Y-154500000D02*
X156217500Y-150482500D01*
G04 #@! TO.N,/UART1_RX*
X154967500Y-148295000D02*
X154967500Y-150032500D01*
X154967500Y-150032500D02*
X152200000Y-152800000D01*
X151360000Y-152800000D02*
X149660000Y-154500000D01*
X152200000Y-152800000D02*
X151360000Y-152800000D01*
G04 #@! TO.N,/SWO*
X153717500Y-146700000D02*
X153717500Y-148295000D01*
G04 #@! TO.N,/PA2*
X163467500Y-141045000D02*
X162045000Y-141045000D01*
X162045000Y-141045000D02*
X162000000Y-141000000D01*
G04 #@! TO.N,/PB9*
X157467500Y-134600000D02*
X157467500Y-136295000D01*
G04 #@! TO.N,/PC1*
X164900000Y-154500000D02*
X162800000Y-152400000D01*
X161200000Y-152400000D02*
X158717500Y-149917500D01*
X158717500Y-149917500D02*
X158717500Y-148295000D01*
X162800000Y-152400000D02*
X161200000Y-152400000D01*
G04 #@! TO.N,/PC0*
X167440000Y-154500000D02*
X164440000Y-151500000D01*
X164440000Y-151500000D02*
X161500000Y-151500000D01*
X159967500Y-149967500D02*
X159967500Y-148295000D01*
X161500000Y-151500000D02*
X159967500Y-149967500D01*
G04 #@! TO.N,/I2C2_SDA*
X149705000Y-144795000D02*
X148500000Y-146000000D01*
X151467500Y-144795000D02*
X149705000Y-144795000D01*
G04 #@! TO.N,/BOOT*
X158717500Y-134717500D02*
X157900000Y-133900000D01*
X153100000Y-133000000D02*
X153100000Y-128499998D01*
X153100000Y-128499998D02*
X153100000Y-128400000D01*
X158717500Y-136295000D02*
X158717500Y-134717500D01*
X157900000Y-133900000D02*
X154000000Y-133900000D01*
X154000000Y-133900000D02*
X153100000Y-133000000D01*
X153100000Y-128400000D02*
X150160000Y-125460000D01*
X150160000Y-125460000D02*
X150160000Y-125000000D01*
G04 #@! TO.N,/PB10*
X162005000Y-139795000D02*
X163467500Y-139795000D01*
X162000000Y-139800000D02*
X162005000Y-139795000D01*
G04 #@! TO.N,/PB14*
X156217500Y-134600000D02*
X156217500Y-136295000D01*
G04 #@! TO.N,/PB5*
X162100000Y-154500000D02*
X157467500Y-149867500D01*
X157467500Y-149867500D02*
X157467500Y-148295000D01*
X162360000Y-154500000D02*
X162100000Y-154500000D01*
G04 #@! TO.N,/PA3*
X163467500Y-142295000D02*
X162005000Y-142295000D01*
X162005000Y-142295000D02*
X162000000Y-142300000D01*
G04 #@! TO.N,/PA10*
X154967500Y-134600000D02*
X154967500Y-136295000D01*
G04 #@! TO.N,/I2C2_SCL*
X148545000Y-143545000D02*
X148500000Y-143500000D01*
X151467500Y-143545000D02*
X148545000Y-143545000D01*
G04 #@! TO.N,Net-(R4-Pad1)*
X155249998Y-128499998D02*
X155349996Y-128400000D01*
X155249998Y-133000000D02*
X155249998Y-128499998D01*
X155349996Y-128400000D02*
X157600000Y-128400000D01*
G04 #@! TO.N,/PA0*
X152900000Y-134600000D02*
X151400000Y-133100000D01*
X153700000Y-134600000D02*
X152900000Y-134600000D01*
X159967500Y-134600000D02*
X159967500Y-136295000D01*
X151400000Y-133100000D02*
X150600000Y-133100000D01*
G04 #@! TO.N,/LPS22_INT*
X148100000Y-152400000D02*
X147500000Y-151800000D01*
X147500000Y-151800000D02*
X147500000Y-151525000D01*
X151000000Y-149100000D02*
X151467500Y-148632500D01*
X151467500Y-148632500D02*
X151467500Y-146045000D01*
G04 #@! TD*
G04 #@! TA.AperFunction,Conductor*
G04 #@! TO.N,GND*
G36*
X138876936Y-123520185D02*
G01*
X138922691Y-123572989D01*
X138932635Y-123642147D01*
X138903610Y-123705703D01*
X138884208Y-123723766D01*
X138792455Y-123792452D01*
X138792452Y-123792455D01*
X138706206Y-123907664D01*
X138706202Y-123907671D01*
X138655908Y-124042517D01*
X138649501Y-124102116D01*
X138649500Y-124102135D01*
X138649500Y-125897870D01*
X138649501Y-125897876D01*
X138655908Y-125957483D01*
X138706202Y-126092328D01*
X138706206Y-126092335D01*
X138792452Y-126207544D01*
X138792455Y-126207547D01*
X138907664Y-126293793D01*
X138907671Y-126293797D01*
X139042517Y-126344091D01*
X139042516Y-126344091D01*
X139049444Y-126344835D01*
X139102127Y-126350500D01*
X140897872Y-126350499D01*
X140957483Y-126344091D01*
X141092331Y-126293796D01*
X141207546Y-126207546D01*
X141293796Y-126092331D01*
X141342810Y-125960916D01*
X141384681Y-125904984D01*
X141450145Y-125880566D01*
X141518418Y-125895417D01*
X141546673Y-125916569D01*
X141660213Y-126030109D01*
X141832179Y-126155048D01*
X141832181Y-126155049D01*
X141832184Y-126155051D01*
X142021588Y-126251557D01*
X142223757Y-126317246D01*
X142433713Y-126350500D01*
X142433714Y-126350500D01*
X142646286Y-126350500D01*
X142646287Y-126350500D01*
X142856243Y-126317246D01*
X143058412Y-126251557D01*
X143247816Y-126155051D01*
X143334138Y-126092335D01*
X143419786Y-126030109D01*
X143419788Y-126030106D01*
X143419792Y-126030104D01*
X143570104Y-125879792D01*
X143570106Y-125879788D01*
X143570109Y-125879786D01*
X143695048Y-125707820D01*
X143695047Y-125707820D01*
X143695051Y-125707816D01*
X143699514Y-125699054D01*
X143747488Y-125648259D01*
X143815308Y-125631463D01*
X143881444Y-125653999D01*
X143920486Y-125699056D01*
X143924951Y-125707820D01*
X144049890Y-125879786D01*
X144200213Y-126030109D01*
X144372179Y-126155048D01*
X144372181Y-126155049D01*
X144372184Y-126155051D01*
X144561588Y-126251557D01*
X144763757Y-126317246D01*
X144973713Y-126350500D01*
X144973714Y-126350500D01*
X145186286Y-126350500D01*
X145186287Y-126350500D01*
X145396243Y-126317246D01*
X145598412Y-126251557D01*
X145787816Y-126155051D01*
X145874138Y-126092335D01*
X145959786Y-126030109D01*
X145959788Y-126030106D01*
X145959792Y-126030104D01*
X146110104Y-125879792D01*
X146110106Y-125879788D01*
X146110109Y-125879786D01*
X146235048Y-125707820D01*
X146235047Y-125707820D01*
X146235051Y-125707816D01*
X146239514Y-125699054D01*
X146287488Y-125648259D01*
X146355308Y-125631463D01*
X146421444Y-125653999D01*
X146460486Y-125699056D01*
X146464951Y-125707820D01*
X146589890Y-125879786D01*
X146740213Y-126030109D01*
X146912179Y-126155048D01*
X146912181Y-126155049D01*
X146912184Y-126155051D01*
X147101588Y-126251557D01*
X147303757Y-126317246D01*
X147513713Y-126350500D01*
X147513714Y-126350500D01*
X147726286Y-126350500D01*
X147726287Y-126350500D01*
X147936243Y-126317246D01*
X148138412Y-126251557D01*
X148327816Y-126155051D01*
X148414138Y-126092335D01*
X148499786Y-126030109D01*
X148499788Y-126030106D01*
X148499792Y-126030104D01*
X148650104Y-125879792D01*
X148650106Y-125879788D01*
X148650109Y-125879786D01*
X148775048Y-125707820D01*
X148775047Y-125707820D01*
X148775051Y-125707816D01*
X148779514Y-125699054D01*
X148827488Y-125648259D01*
X148895308Y-125631463D01*
X148961444Y-125653999D01*
X149000486Y-125699056D01*
X149004951Y-125707820D01*
X149129890Y-125879786D01*
X149280213Y-126030109D01*
X149452179Y-126155048D01*
X149452181Y-126155049D01*
X149452184Y-126155051D01*
X149641588Y-126251557D01*
X149843757Y-126317246D01*
X150053713Y-126350500D01*
X150149903Y-126350500D01*
X150216942Y-126370185D01*
X150237584Y-126386819D01*
X151113888Y-127263123D01*
X151147373Y-127324446D01*
X151142389Y-127394138D01*
X151100517Y-127450071D01*
X151035053Y-127474488D01*
X151009374Y-127472695D01*
X151009318Y-127473245D01*
X150904150Y-127462500D01*
X150850000Y-127462500D01*
X150850000Y-128150000D01*
X151574999Y-128150000D01*
X151574999Y-128133364D01*
X151574998Y-128133347D01*
X151564255Y-128028181D01*
X151566136Y-128027988D01*
X151570657Y-127967576D01*
X151612712Y-127911780D01*
X151678257Y-127887579D01*
X151746480Y-127902656D01*
X151774376Y-127923611D01*
X152207581Y-128356816D01*
X152241066Y-128418139D01*
X152243900Y-128444497D01*
X152243900Y-129043168D01*
X152243901Y-129043174D01*
X152250308Y-129102781D01*
X152300602Y-129237626D01*
X152300603Y-129237627D01*
X152300604Y-129237629D01*
X152386854Y-129352844D01*
X152449810Y-129399972D01*
X152491682Y-129455905D01*
X152499500Y-129499239D01*
X152499500Y-132000757D01*
X152479815Y-132067796D01*
X152449812Y-132100023D01*
X152386852Y-132147155D01*
X152300606Y-132262364D01*
X152300602Y-132262371D01*
X152250308Y-132397217D01*
X152243901Y-132456816D01*
X152243900Y-132456827D01*
X152243900Y-132795303D01*
X152237661Y-132816548D01*
X152236082Y-132838637D01*
X152228009Y-132849420D01*
X152224215Y-132862342D01*
X152207481Y-132876841D01*
X152194210Y-132894570D01*
X152181589Y-132899277D01*
X152171411Y-132908097D01*
X152149493Y-132911248D01*
X152128746Y-132918987D01*
X152115585Y-132916124D01*
X152102253Y-132918041D01*
X152082109Y-132908841D01*
X152060473Y-132904135D01*
X152042747Y-132890866D01*
X152038697Y-132889016D01*
X152032219Y-132882984D01*
X151887590Y-132738355D01*
X151887588Y-132738352D01*
X151768717Y-132619481D01*
X151768716Y-132619480D01*
X151662400Y-132558099D01*
X151631785Y-132540423D01*
X151488144Y-132501934D01*
X151484430Y-132500682D01*
X151458898Y-132482811D01*
X151436647Y-132469247D01*
X151435776Y-132470119D01*
X151328338Y-132362681D01*
X151294853Y-132301358D01*
X151299837Y-132231666D01*
X151328336Y-132187320D01*
X151430472Y-132085185D01*
X151518478Y-131939606D01*
X151569086Y-131777196D01*
X151575500Y-131706616D01*
X151575500Y-131193384D01*
X151569086Y-131122804D01*
X151518478Y-130960394D01*
X151430472Y-130814815D01*
X151429099Y-130813442D01*
X151428415Y-130812189D01*
X151425843Y-130808906D01*
X151426388Y-130808478D01*
X151395612Y-130752124D01*
X151400591Y-130682432D01*
X151421525Y-130649916D01*
X151419803Y-130648554D01*
X151424275Y-130642896D01*
X151424281Y-130642891D01*
X151512549Y-130499787D01*
X151565436Y-130340185D01*
X151575500Y-130241674D01*
X151575500Y-129708326D01*
X151565436Y-129609815D01*
X151512549Y-129450213D01*
X151512545Y-129450207D01*
X151512544Y-129450204D01*
X151424283Y-129307112D01*
X151424280Y-129307108D01*
X151392000Y-129274828D01*
X151358515Y-129213505D01*
X151363499Y-129143813D01*
X151392000Y-129099466D01*
X151423885Y-129067580D01*
X151512091Y-128924577D01*
X151512093Y-128924572D01*
X151564942Y-128765083D01*
X151574999Y-128666650D01*
X151575000Y-128666637D01*
X151575000Y-128650000D01*
X149614459Y-128650000D01*
X149576356Y-128670805D01*
X149506664Y-128665819D01*
X149482050Y-128650000D01*
X148624000Y-128650000D01*
X148556961Y-128630315D01*
X148511206Y-128577511D01*
X148500000Y-128526000D01*
X148500000Y-128400000D01*
X148374000Y-128400000D01*
X148306961Y-128380315D01*
X148261206Y-128327511D01*
X148250000Y-128276000D01*
X148250000Y-127462500D01*
X148750000Y-127462500D01*
X148750000Y-128150000D01*
X149485540Y-128150000D01*
X149523638Y-128129195D01*
X149593330Y-128134178D01*
X149617950Y-128150000D01*
X150350000Y-128150000D01*
X150350000Y-127462500D01*
X150349999Y-127462499D01*
X150295864Y-127462500D01*
X150295847Y-127462501D01*
X150197415Y-127472557D01*
X150037927Y-127525406D01*
X150037922Y-127525408D01*
X149894919Y-127613614D01*
X149776114Y-127732419D01*
X149687908Y-127875422D01*
X149687906Y-127875427D01*
X149667706Y-127936388D01*
X149627933Y-127993833D01*
X149563417Y-128020656D01*
X149494641Y-128008341D01*
X149443442Y-127960798D01*
X149432294Y-127936388D01*
X149412093Y-127875427D01*
X149412091Y-127875422D01*
X149323885Y-127732419D01*
X149205080Y-127613614D01*
X149062077Y-127525408D01*
X149062072Y-127525406D01*
X148902583Y-127472557D01*
X148804150Y-127462500D01*
X148750000Y-127462500D01*
X148250000Y-127462500D01*
X148249999Y-127462499D01*
X148195864Y-127462500D01*
X148195847Y-127462501D01*
X148097415Y-127472557D01*
X147937927Y-127525406D01*
X147937922Y-127525408D01*
X147794919Y-127613614D01*
X147676114Y-127732419D01*
X147587908Y-127875422D01*
X147587906Y-127875427D01*
X147535057Y-128034916D01*
X147525000Y-128133349D01*
X147525000Y-128227795D01*
X147505315Y-128294834D01*
X147452511Y-128340589D01*
X147383353Y-128350533D01*
X147319797Y-128321508D01*
X147303218Y-128302014D01*
X147302449Y-128302623D01*
X147297967Y-128296955D01*
X147178044Y-128177032D01*
X147178040Y-128177029D01*
X147033705Y-128088001D01*
X147033699Y-128087998D01*
X147033697Y-128087997D01*
X147001693Y-128077392D01*
X146872709Y-128034651D01*
X146773346Y-128024500D01*
X146226662Y-128024500D01*
X146226644Y-128024501D01*
X146127292Y-128034650D01*
X146127289Y-128034651D01*
X145966305Y-128087996D01*
X145966294Y-128088001D01*
X145821959Y-128177029D01*
X145821953Y-128177033D01*
X145812324Y-128186663D01*
X145751000Y-128220146D01*
X145681308Y-128215159D01*
X145636965Y-128186660D01*
X145627732Y-128177427D01*
X145627728Y-128177424D01*
X145483492Y-128088457D01*
X145483481Y-128088452D01*
X145322606Y-128035144D01*
X145223322Y-128025000D01*
X145200000Y-128025000D01*
X145200000Y-128876000D01*
X145180315Y-128943039D01*
X145127511Y-128988794D01*
X145076000Y-129000000D01*
X144950000Y-129000000D01*
X144950000Y-129126000D01*
X144930315Y-129193039D01*
X144877511Y-129238794D01*
X144826000Y-129250000D01*
X144000001Y-129250000D01*
X144000001Y-129298322D01*
X144010144Y-129397608D01*
X144031117Y-129460902D01*
X144033518Y-129530730D01*
X143997786Y-129590772D01*
X143935266Y-129621964D01*
X143865806Y-129614403D01*
X143825730Y-129587586D01*
X143558102Y-129319957D01*
X143558098Y-129319954D01*
X143409640Y-129220757D01*
X143410700Y-129219169D01*
X143367181Y-129176412D01*
X143351727Y-129108273D01*
X143369946Y-129050928D01*
X143411544Y-128983488D01*
X143411547Y-128983481D01*
X143464855Y-128822606D01*
X143474999Y-128723322D01*
X143475000Y-128723309D01*
X143475000Y-128701677D01*
X144000000Y-128701677D01*
X144000000Y-128750000D01*
X144700000Y-128750000D01*
X144700000Y-128024999D01*
X144676693Y-128025000D01*
X144676674Y-128025001D01*
X144577392Y-128035144D01*
X144416518Y-128088452D01*
X144416507Y-128088457D01*
X144272271Y-128177424D01*
X144272267Y-128177427D01*
X144152427Y-128297267D01*
X144152424Y-128297271D01*
X144063457Y-128441507D01*
X144063452Y-128441518D01*
X144010144Y-128602393D01*
X144000000Y-128701677D01*
X143475000Y-128701677D01*
X143475000Y-128700000D01*
X141525001Y-128700000D01*
X141525001Y-128723322D01*
X141535144Y-128822607D01*
X141588452Y-128983481D01*
X141588457Y-128983492D01*
X141677424Y-129127728D01*
X141677427Y-129127732D01*
X141686660Y-129136965D01*
X141720145Y-129198288D01*
X141715161Y-129267980D01*
X141686663Y-129312324D01*
X141677033Y-129321953D01*
X141677029Y-129321959D01*
X141588001Y-129466294D01*
X141587997Y-129466303D01*
X141540341Y-129610118D01*
X141500568Y-129667562D01*
X141436052Y-129694385D01*
X141367276Y-129682070D01*
X141316076Y-129634526D01*
X141304704Y-129609430D01*
X141294409Y-129577746D01*
X141215804Y-129423475D01*
X141114032Y-129283397D01*
X140991602Y-129160967D01*
X140851524Y-129059195D01*
X140697257Y-128980591D01*
X140532584Y-128927085D01*
X140361571Y-128900000D01*
X140250000Y-128900000D01*
X140250000Y-129719670D01*
X140230255Y-129699925D01*
X140144745Y-129650556D01*
X140049370Y-129625000D01*
X139950630Y-129625000D01*
X139855255Y-129650556D01*
X139769745Y-129699925D01*
X139750000Y-129719670D01*
X139750000Y-128900000D01*
X139638429Y-128900000D01*
X139467415Y-128927085D01*
X139302742Y-128980591D01*
X139148475Y-129059195D01*
X139008397Y-129160967D01*
X138885967Y-129283397D01*
X138784195Y-129423475D01*
X138705591Y-129577744D01*
X138652085Y-129742415D01*
X138650884Y-129749999D01*
X138650885Y-129750000D01*
X139719670Y-129750000D01*
X139699925Y-129769745D01*
X139650556Y-129855255D01*
X139625000Y-129950630D01*
X139625000Y-130049370D01*
X139650556Y-130144745D01*
X139699925Y-130230255D01*
X139719670Y-130250000D01*
X138650885Y-130250000D01*
X138652085Y-130257584D01*
X138705591Y-130422255D01*
X138784195Y-130576524D01*
X138885967Y-130716602D01*
X138993565Y-130824200D01*
X139027050Y-130885523D01*
X139022066Y-130955215D01*
X138980194Y-131011148D01*
X138970981Y-131017420D01*
X138906342Y-131057289D01*
X138782289Y-131181342D01*
X138690187Y-131330663D01*
X138690186Y-131330666D01*
X138635001Y-131497203D01*
X138635001Y-131497204D01*
X138635000Y-131497204D01*
X138624500Y-131599983D01*
X138624500Y-132400001D01*
X138624501Y-132400019D01*
X138635000Y-132502796D01*
X138635001Y-132502799D01*
X138673666Y-132619480D01*
X138690186Y-132669334D01*
X138782288Y-132818656D01*
X138906344Y-132942712D01*
X139055666Y-133034814D01*
X139222203Y-133089999D01*
X139324991Y-133100500D01*
X139634217Y-133100499D01*
X139701256Y-133120183D01*
X139721898Y-133136818D01*
X140812215Y-134227137D01*
X140812219Y-134227140D01*
X140976079Y-134336628D01*
X140976088Y-134336633D01*
X141048217Y-134366510D01*
X141158165Y-134412052D01*
X141319389Y-134444121D01*
X141351457Y-134450499D01*
X141351458Y-134450500D01*
X141351459Y-134450500D01*
X143598542Y-134450500D01*
X143601307Y-134449950D01*
X143602785Y-134450082D01*
X143604606Y-134449903D01*
X143604639Y-134450248D01*
X143670899Y-134456177D01*
X143726077Y-134499039D01*
X143749322Y-134564929D01*
X143749500Y-134571567D01*
X143749500Y-134873918D01*
X143749500Y-134873920D01*
X143749499Y-134873920D01*
X143778340Y-135018907D01*
X143778343Y-135018917D01*
X143834913Y-135155489D01*
X143834914Y-135155491D01*
X143834916Y-135155495D01*
X143837644Y-135159577D01*
X143848930Y-135176468D01*
X143848929Y-135176468D01*
X143917046Y-135278414D01*
X143917052Y-135278421D01*
X144447584Y-135808952D01*
X144447586Y-135808954D01*
X144477058Y-135828645D01*
X144521270Y-135858186D01*
X144570505Y-135891084D01*
X144570506Y-135891084D01*
X144570507Y-135891085D01*
X144570509Y-135891086D01*
X144707082Y-135947656D01*
X144707087Y-135947658D01*
X144707091Y-135947658D01*
X144707092Y-135947659D01*
X144852079Y-135976500D01*
X144852082Y-135976500D01*
X146047920Y-135976500D01*
X146145462Y-135957096D01*
X146192913Y-135947658D01*
X146329495Y-135891084D01*
X146378729Y-135858186D01*
X146378734Y-135858183D01*
X146403071Y-135841921D01*
X146452416Y-135808952D01*
X146982952Y-135278416D01*
X147051072Y-135176465D01*
X147065084Y-135155495D01*
X147121658Y-135018913D01*
X147150500Y-134873918D01*
X147150500Y-134244828D01*
X147155424Y-134210233D01*
X147197597Y-134065073D01*
X147197598Y-134065067D01*
X147200500Y-134028194D01*
X147200500Y-132871806D01*
X147197598Y-132834931D01*
X147195191Y-132826647D01*
X147161505Y-132710699D01*
X147151744Y-132677102D01*
X147068081Y-132535635D01*
X147068079Y-132535633D01*
X147068076Y-132535629D01*
X146951870Y-132419423D01*
X146951867Y-132419421D01*
X146951865Y-132419419D01*
X146951549Y-132419232D01*
X146951353Y-132419022D01*
X146945702Y-132414639D01*
X146946409Y-132413727D01*
X146903866Y-132368164D01*
X146891362Y-132299423D01*
X146918006Y-132234833D01*
X146945921Y-132210644D01*
X146945702Y-132210361D01*
X146950911Y-132206320D01*
X146951550Y-132205767D01*
X146951865Y-132205581D01*
X147068081Y-132089365D01*
X147151744Y-131947898D01*
X147197598Y-131790069D01*
X147200500Y-131753194D01*
X147200500Y-131554878D01*
X147209939Y-131507425D01*
X147214173Y-131497203D01*
X147241855Y-131430374D01*
X147275500Y-131261229D01*
X147275500Y-129774559D01*
X147280583Y-129757247D01*
X147280647Y-129739204D01*
X147292656Y-129716129D01*
X147294610Y-129709475D01*
X147294169Y-129709203D01*
X147294954Y-129707930D01*
X147295104Y-129707794D01*
X147295185Y-129707520D01*
X147295422Y-129707151D01*
X147296422Y-129705607D01*
X147299521Y-129702940D01*
X147302358Y-129697491D01*
X147302573Y-129697220D01*
X147304444Y-129698704D01*
X147321903Y-129683684D01*
X147346897Y-129661199D01*
X147348306Y-129660969D01*
X147349388Y-129660039D01*
X147382682Y-129655372D01*
X147415858Y-129649970D01*
X147417166Y-129650538D01*
X147418581Y-129650340D01*
X147449123Y-129664419D01*
X147479943Y-129677806D01*
X147480736Y-129678992D01*
X147482034Y-129679590D01*
X147500118Y-129707949D01*
X147518806Y-129735871D01*
X147519085Y-129737694D01*
X147519600Y-129738501D01*
X147519591Y-129740993D01*
X147524500Y-129773015D01*
X147524500Y-130241681D01*
X147534563Y-130340183D01*
X147587450Y-130499784D01*
X147587455Y-130499795D01*
X147675716Y-130642887D01*
X147680197Y-130648554D01*
X147677702Y-130650526D01*
X147704389Y-130699399D01*
X147699405Y-130769091D01*
X147673930Y-130808728D01*
X147674157Y-130808906D01*
X147672261Y-130811325D01*
X147670904Y-130813438D01*
X147669531Y-130814810D01*
X147669530Y-130814811D01*
X147581522Y-130960393D01*
X147530913Y-131122807D01*
X147525953Y-131177392D01*
X147524500Y-131193384D01*
X147524500Y-131706616D01*
X147526423Y-131727778D01*
X147530913Y-131777192D01*
X147530913Y-131777194D01*
X147530914Y-131777196D01*
X147581522Y-131939606D01*
X147644684Y-132044089D01*
X147669530Y-132085188D01*
X147771661Y-132187319D01*
X147805146Y-132248642D01*
X147800162Y-132318334D01*
X147771661Y-132362681D01*
X147669531Y-132464810D01*
X147669530Y-132464811D01*
X147581522Y-132610393D01*
X147530913Y-132772807D01*
X147528869Y-132795303D01*
X147524932Y-132838637D01*
X147524500Y-132843386D01*
X147524500Y-133356613D01*
X147530913Y-133427192D01*
X147530913Y-133427194D01*
X147530914Y-133427196D01*
X147581522Y-133589606D01*
X147581523Y-133589607D01*
X147581524Y-133589611D01*
X147606616Y-133631116D01*
X147624500Y-133695267D01*
X147624500Y-133886233D01*
X147658143Y-134055366D01*
X147658146Y-134055378D01*
X147724138Y-134214698D01*
X147724145Y-134214711D01*
X147819954Y-134358098D01*
X147819957Y-134358102D01*
X147941897Y-134480042D01*
X147941901Y-134480045D01*
X148085288Y-134575854D01*
X148085301Y-134575861D01*
X148244621Y-134641853D01*
X148244626Y-134641855D01*
X148413766Y-134675499D01*
X148413769Y-134675500D01*
X148413771Y-134675500D01*
X148586231Y-134675500D01*
X148586232Y-134675499D01*
X148755374Y-134641855D01*
X148914705Y-134575858D01*
X149058099Y-134480045D01*
X149180045Y-134358099D01*
X149275858Y-134214705D01*
X149341855Y-134055374D01*
X149375500Y-133886229D01*
X149375500Y-133695267D01*
X149377764Y-133684826D01*
X149376741Y-133677766D01*
X149383258Y-133659496D01*
X149386644Y-133643890D01*
X149389639Y-133637309D01*
X149418478Y-133589606D01*
X149433926Y-133540027D01*
X149437144Y-133532961D01*
X149455117Y-133512168D01*
X149470352Y-133489300D01*
X149477636Y-133486117D01*
X149482836Y-133480102D01*
X149509196Y-133472327D01*
X149534377Y-133461326D01*
X149542226Y-133462586D01*
X149549852Y-133460338D01*
X149576226Y-133468048D01*
X149603362Y-133472407D01*
X149609284Y-133477712D01*
X149616915Y-133479943D01*
X149634936Y-133500691D01*
X149655405Y-133519026D01*
X149660441Y-133530053D01*
X149662733Y-133532692D01*
X149663238Y-133536178D01*
X149668384Y-133547446D01*
X149681522Y-133589606D01*
X149734817Y-133677766D01*
X149769530Y-133735188D01*
X149889811Y-133855469D01*
X149889813Y-133855470D01*
X149889815Y-133855472D01*
X150035394Y-133943478D01*
X150197804Y-133994086D01*
X150268384Y-134000500D01*
X150268387Y-134000500D01*
X150931613Y-134000500D01*
X150931616Y-134000500D01*
X151002196Y-133994086D01*
X151164606Y-133943478D01*
X151224587Y-133907217D01*
X151292141Y-133889381D01*
X151358615Y-133910898D01*
X151376418Y-133925653D01*
X152415139Y-134964374D01*
X152415149Y-134964385D01*
X152419479Y-134968715D01*
X152419480Y-134968716D01*
X152531284Y-135080520D01*
X152655001Y-135151947D01*
X152703215Y-135202512D01*
X152717000Y-135259333D01*
X152717000Y-137384359D01*
X152720187Y-137408567D01*
X152709418Y-137477602D01*
X152663036Y-137529855D01*
X152595766Y-137548738D01*
X152581061Y-137547686D01*
X152556861Y-137544500D01*
X150378136Y-137544500D01*
X150260746Y-137559953D01*
X150260737Y-137559956D01*
X150114660Y-137620463D01*
X150114659Y-137620464D01*
X149989218Y-137716718D01*
X149989216Y-137716720D01*
X149982771Y-137721666D01*
X149981130Y-137719528D01*
X149965827Y-137727884D01*
X149940009Y-137744477D01*
X149933808Y-137745368D01*
X149931432Y-137746666D01*
X149905074Y-137749500D01*
X149804604Y-137749500D01*
X149757155Y-137740062D01*
X149733497Y-137730263D01*
X149733493Y-137730262D01*
X149733488Y-137730260D01*
X149578845Y-137699500D01*
X149578842Y-137699500D01*
X149421158Y-137699500D01*
X149421156Y-137699500D01*
X149300501Y-137723500D01*
X149230909Y-137717273D01*
X149209664Y-137705054D01*
X149209191Y-137705823D01*
X149058705Y-137613001D01*
X149058699Y-137612998D01*
X149058697Y-137612997D01*
X149022809Y-137601105D01*
X148897709Y-137559651D01*
X148798346Y-137549500D01*
X148201662Y-137549500D01*
X148201644Y-137549501D01*
X148102292Y-137559650D01*
X148102289Y-137559651D01*
X147941305Y-137612996D01*
X147941294Y-137613001D01*
X147796959Y-137702029D01*
X147796955Y-137702032D01*
X147677032Y-137821955D01*
X147677029Y-137821959D01*
X147588001Y-137966294D01*
X147587996Y-137966305D01*
X147534651Y-138127290D01*
X147524500Y-138226647D01*
X147524500Y-138773337D01*
X147524501Y-138773355D01*
X147534650Y-138872707D01*
X147534651Y-138872710D01*
X147587996Y-139033694D01*
X147588001Y-139033705D01*
X147677029Y-139178040D01*
X147677032Y-139178044D01*
X147686660Y-139187672D01*
X147720145Y-139248995D01*
X147715161Y-139318687D01*
X147686663Y-139363031D01*
X147677428Y-139372265D01*
X147677424Y-139372271D01*
X147588457Y-139516507D01*
X147588452Y-139516518D01*
X147535144Y-139677393D01*
X147525000Y-139776677D01*
X147525000Y-139800000D01*
X149474999Y-139800000D01*
X149474999Y-139776692D01*
X149474998Y-139776677D01*
X149464855Y-139677392D01*
X149411547Y-139516518D01*
X149411544Y-139516512D01*
X149394943Y-139489598D01*
X149394617Y-139488410D01*
X149393718Y-139487569D01*
X149385424Y-139454814D01*
X149376502Y-139422206D01*
X149376871Y-139421030D01*
X149376569Y-139419837D01*
X149387296Y-139387809D01*
X149397423Y-139355542D01*
X149398368Y-139354752D01*
X149398760Y-139353585D01*
X149425113Y-139332430D01*
X149451065Y-139310772D01*
X149452600Y-139310367D01*
X149453248Y-139309848D01*
X149458577Y-139308793D01*
X149487462Y-139301185D01*
X149493950Y-139300500D01*
X149578842Y-139300500D01*
X149674862Y-139281400D01*
X149680481Y-139280807D01*
X149709511Y-139286102D01*
X149738900Y-139288732D01*
X149743494Y-139292301D01*
X149749217Y-139293345D01*
X149770775Y-139313493D01*
X149794077Y-139331595D01*
X149796012Y-139337080D01*
X149800263Y-139341053D01*
X149807506Y-139369660D01*
X149817322Y-139397484D01*
X149817500Y-139404122D01*
X149817500Y-139545000D01*
X150366452Y-139545000D01*
X150374563Y-139545266D01*
X150378130Y-139545498D01*
X150378139Y-139545500D01*
X152556860Y-139545499D01*
X152556864Y-139545499D01*
X152560418Y-139545266D01*
X152568530Y-139545000D01*
X153117499Y-139545000D01*
X153117499Y-139355677D01*
X153102055Y-139238370D01*
X153102054Y-139238365D01*
X153093663Y-139218106D01*
X153086194Y-139148637D01*
X153093664Y-139123199D01*
X153093935Y-139122545D01*
X153102544Y-139101762D01*
X153118000Y-138984361D01*
X153117999Y-138105640D01*
X153117998Y-138105636D01*
X153114813Y-138081436D01*
X153125579Y-138012401D01*
X153171960Y-137960146D01*
X153239229Y-137941261D01*
X153253919Y-137942311D01*
X153278139Y-137945500D01*
X154156860Y-137945499D01*
X154156861Y-137945499D01*
X154169094Y-137943888D01*
X154274262Y-137930044D01*
X154295045Y-137921434D01*
X154364514Y-137913965D01*
X154389953Y-137921434D01*
X154410738Y-137930044D01*
X154528139Y-137945500D01*
X155406860Y-137945499D01*
X155406861Y-137945499D01*
X155419094Y-137943888D01*
X155524262Y-137930044D01*
X155545045Y-137921434D01*
X155614514Y-137913965D01*
X155639953Y-137921434D01*
X155660738Y-137930044D01*
X155778139Y-137945500D01*
X156656860Y-137945499D01*
X156656861Y-137945499D01*
X156669094Y-137943888D01*
X156774262Y-137930044D01*
X156795045Y-137921434D01*
X156864514Y-137913965D01*
X156889953Y-137921434D01*
X156910738Y-137930044D01*
X157028139Y-137945500D01*
X157906860Y-137945499D01*
X157906861Y-137945499D01*
X157919094Y-137943888D01*
X158024262Y-137930044D01*
X158045045Y-137921434D01*
X158114514Y-137913965D01*
X158139953Y-137921434D01*
X158160738Y-137930044D01*
X158278139Y-137945500D01*
X159156860Y-137945499D01*
X159156861Y-137945499D01*
X159169094Y-137943888D01*
X159274262Y-137930044D01*
X159295045Y-137921434D01*
X159364514Y-137913965D01*
X159389953Y-137921434D01*
X159410738Y-137930044D01*
X159528139Y-137945500D01*
X160406860Y-137945499D01*
X160406861Y-137945499D01*
X160420518Y-137943701D01*
X160524262Y-137930044D01*
X160545698Y-137921164D01*
X160615165Y-137913693D01*
X160640605Y-137921163D01*
X160660867Y-137929555D01*
X160660864Y-137929555D01*
X160778176Y-137944999D01*
X160967499Y-137944999D01*
X160967500Y-137944998D01*
X160967500Y-137396050D01*
X160967765Y-137387941D01*
X160967997Y-137384381D01*
X160968000Y-137384361D01*
X160967999Y-135205640D01*
X160967999Y-135205639D01*
X160967999Y-135205635D01*
X160967766Y-135202082D01*
X160967500Y-135193970D01*
X160967500Y-134645000D01*
X160892000Y-134645000D01*
X160824961Y-134625315D01*
X160779206Y-134572511D01*
X160769336Y-134527145D01*
X160768597Y-134527218D01*
X160768000Y-134521163D01*
X160768000Y-134521158D01*
X160737237Y-134366503D01*
X160707074Y-134293684D01*
X160699606Y-134224216D01*
X160730881Y-134161737D01*
X160790970Y-134126085D01*
X160860795Y-134128579D01*
X160909317Y-134158552D01*
X161431181Y-134680416D01*
X161464666Y-134741739D01*
X161467500Y-134768097D01*
X161467500Y-136045000D01*
X162217499Y-136045000D01*
X162217499Y-135766096D01*
X162237184Y-135699057D01*
X162289988Y-135653302D01*
X162359146Y-135643358D01*
X162422702Y-135672383D01*
X162429180Y-135678415D01*
X162830681Y-136079916D01*
X162864166Y-136141239D01*
X162867000Y-136167597D01*
X162867000Y-137420500D01*
X162847315Y-137487539D01*
X162794511Y-137533294D01*
X162743000Y-137544500D01*
X162378141Y-137544500D01*
X162353419Y-137547755D01*
X162284384Y-137536987D01*
X162232130Y-137490605D01*
X162213247Y-137423335D01*
X162214299Y-137408625D01*
X162217499Y-137384320D01*
X162217500Y-137384316D01*
X162217500Y-136545000D01*
X161467500Y-136545000D01*
X161467500Y-137944999D01*
X161656823Y-137944999D01*
X161681129Y-137941799D01*
X161750164Y-137952565D01*
X161802420Y-137998945D01*
X161821305Y-138066213D01*
X161820254Y-138080920D01*
X161817001Y-138105637D01*
X161817000Y-138105641D01*
X161817000Y-138926491D01*
X161797315Y-138993530D01*
X161744511Y-139039285D01*
X161740453Y-139041052D01*
X161620824Y-139090604D01*
X161620814Y-139090609D01*
X161489711Y-139178210D01*
X161489707Y-139178213D01*
X161378213Y-139289707D01*
X161378210Y-139289711D01*
X161290609Y-139420814D01*
X161290602Y-139420827D01*
X161230264Y-139566498D01*
X161230261Y-139566510D01*
X161199500Y-139721153D01*
X161199500Y-139878846D01*
X161230261Y-140033489D01*
X161230264Y-140033501D01*
X161290602Y-140179172D01*
X161290609Y-140179185D01*
X161378210Y-140310288D01*
X161378213Y-140310292D01*
X161380240Y-140312319D01*
X161380962Y-140313642D01*
X161382076Y-140314999D01*
X161381818Y-140315210D01*
X161413725Y-140373642D01*
X161408741Y-140443334D01*
X161382001Y-140484939D01*
X161382076Y-140485001D01*
X161381552Y-140485639D01*
X161380240Y-140487681D01*
X161378213Y-140489707D01*
X161378210Y-140489711D01*
X161290609Y-140620814D01*
X161290602Y-140620827D01*
X161230264Y-140766498D01*
X161230261Y-140766510D01*
X161199500Y-140921153D01*
X161199500Y-141078846D01*
X161230261Y-141233489D01*
X161230264Y-141233501D01*
X161290602Y-141379172D01*
X161290609Y-141379185D01*
X161378210Y-141510288D01*
X161378213Y-141510292D01*
X161430240Y-141562319D01*
X161463725Y-141623642D01*
X161458741Y-141693334D01*
X161430240Y-141737681D01*
X161378213Y-141789707D01*
X161378210Y-141789711D01*
X161290609Y-141920814D01*
X161290602Y-141920827D01*
X161230264Y-142066498D01*
X161230261Y-142066510D01*
X161199500Y-142221153D01*
X161199500Y-142378846D01*
X161230261Y-142533489D01*
X161230264Y-142533501D01*
X161290602Y-142679172D01*
X161290609Y-142679185D01*
X161378210Y-142810288D01*
X161378213Y-142810292D01*
X161402740Y-142834819D01*
X161436225Y-142896142D01*
X161431241Y-142965834D01*
X161402740Y-143010181D01*
X161378213Y-143034707D01*
X161378210Y-143034711D01*
X161290609Y-143165814D01*
X161290602Y-143165827D01*
X161230264Y-143311498D01*
X161230261Y-143311510D01*
X161199500Y-143466153D01*
X161199500Y-143623846D01*
X161230261Y-143778489D01*
X161230264Y-143778501D01*
X161290602Y-143924172D01*
X161290609Y-143924185D01*
X161378210Y-144055288D01*
X161378213Y-144055292D01*
X161489707Y-144166786D01*
X161489711Y-144166789D01*
X161620814Y-144254390D01*
X161620818Y-144254392D01*
X161620821Y-144254394D01*
X161740955Y-144304155D01*
X161795355Y-144347993D01*
X161817421Y-144414287D01*
X161817500Y-144418714D01*
X161817500Y-144545000D01*
X162366452Y-144545000D01*
X162374563Y-144545266D01*
X162378130Y-144545498D01*
X162378139Y-144545500D01*
X164556860Y-144545499D01*
X164556864Y-144545499D01*
X164560418Y-144545266D01*
X164568530Y-144545000D01*
X165117499Y-144545000D01*
X165117499Y-144355677D01*
X165102055Y-144238370D01*
X165102054Y-144238365D01*
X165093663Y-144218106D01*
X165086194Y-144148637D01*
X165093664Y-144123199D01*
X165093935Y-144122545D01*
X165102544Y-144101762D01*
X165118000Y-143984361D01*
X165117999Y-143105640D01*
X165116967Y-143097804D01*
X165112518Y-143064002D01*
X165102544Y-142988238D01*
X165093934Y-142967454D01*
X165086465Y-142897986D01*
X165093935Y-142872545D01*
X165102544Y-142851762D01*
X165118000Y-142734361D01*
X165117999Y-141855640D01*
X165102544Y-141738238D01*
X165102313Y-141737681D01*
X165093935Y-141717455D01*
X165086465Y-141647986D01*
X165093935Y-141622545D01*
X165095937Y-141617712D01*
X165102544Y-141601762D01*
X165118000Y-141484361D01*
X165117999Y-140605640D01*
X165117998Y-140605636D01*
X165111273Y-140554550D01*
X165102544Y-140488238D01*
X165102313Y-140487681D01*
X165093935Y-140467455D01*
X165086465Y-140397986D01*
X165093935Y-140372545D01*
X165094206Y-140371890D01*
X165102544Y-140351762D01*
X165118000Y-140234361D01*
X165117999Y-139355640D01*
X165117728Y-139353585D01*
X165109191Y-139288732D01*
X165102544Y-139238238D01*
X165093934Y-139217454D01*
X165086465Y-139147986D01*
X165093935Y-139122545D01*
X165102544Y-139101762D01*
X165118000Y-138984361D01*
X165117999Y-138676677D01*
X165525000Y-138676677D01*
X165525000Y-138700000D01*
X166250000Y-138700000D01*
X166750000Y-138700000D01*
X167474999Y-138700000D01*
X167474999Y-138676692D01*
X167474998Y-138676677D01*
X167464855Y-138577392D01*
X167411547Y-138416518D01*
X167411542Y-138416507D01*
X167322575Y-138272271D01*
X167322572Y-138272267D01*
X167202732Y-138152427D01*
X167202728Y-138152424D01*
X167198775Y-138149986D01*
X167900001Y-138149986D01*
X167910494Y-138252697D01*
X167965641Y-138419119D01*
X167965643Y-138419124D01*
X168057684Y-138568345D01*
X168181654Y-138692315D01*
X168330875Y-138784356D01*
X168330880Y-138784358D01*
X168497302Y-138839505D01*
X168497309Y-138839506D01*
X168600019Y-138849999D01*
X169999999Y-138849999D01*
X170000000Y-138849998D01*
X170000000Y-137925000D01*
X167900001Y-137925000D01*
X167900001Y-138149986D01*
X167198775Y-138149986D01*
X167058492Y-138063457D01*
X167058481Y-138063452D01*
X166897606Y-138010144D01*
X166798322Y-138000000D01*
X166750000Y-138000000D01*
X166750000Y-138700000D01*
X166250000Y-138700000D01*
X166250000Y-138000000D01*
X166249999Y-137999999D01*
X166201693Y-138000000D01*
X166201675Y-138000001D01*
X166102392Y-138010144D01*
X165941518Y-138063452D01*
X165941507Y-138063457D01*
X165797271Y-138152424D01*
X165797267Y-138152427D01*
X165677427Y-138272267D01*
X165677424Y-138272271D01*
X165588457Y-138416507D01*
X165588452Y-138416518D01*
X165535144Y-138577393D01*
X165525000Y-138676677D01*
X165117999Y-138676677D01*
X165117999Y-138431493D01*
X165117999Y-138105636D01*
X165102546Y-137988246D01*
X165102544Y-137988241D01*
X165102544Y-137988238D01*
X165087768Y-137952565D01*
X165074731Y-137921090D01*
X165042036Y-137842160D01*
X165042036Y-137842159D01*
X164945782Y-137716718D01*
X164820341Y-137620464D01*
X164773604Y-137601105D01*
X164674262Y-137559956D01*
X164674260Y-137559955D01*
X164556870Y-137544501D01*
X164556867Y-137544500D01*
X164556861Y-137544500D01*
X164556854Y-137544500D01*
X164192000Y-137544500D01*
X164183314Y-137541949D01*
X164174353Y-137543238D01*
X164150312Y-137532259D01*
X164124961Y-137524815D01*
X164119033Y-137517974D01*
X164110797Y-137514213D01*
X164096507Y-137491978D01*
X164079206Y-137472011D01*
X164076918Y-137461496D01*
X164073023Y-137455435D01*
X164068000Y-137420500D01*
X164068000Y-137200013D01*
X167900000Y-137200013D01*
X167900000Y-137425000D01*
X170000000Y-137425000D01*
X170000000Y-136500000D01*
X168600028Y-136500000D01*
X168600012Y-136500001D01*
X168497302Y-136510494D01*
X168330880Y-136565641D01*
X168330875Y-136565643D01*
X168181654Y-136657684D01*
X168057684Y-136781654D01*
X167965643Y-136930875D01*
X167965641Y-136930880D01*
X167910494Y-137097302D01*
X167910493Y-137097309D01*
X167900000Y-137200013D01*
X164068000Y-137200013D01*
X164068000Y-135788445D01*
X164068000Y-135788443D01*
X164027077Y-135635716D01*
X164027073Y-135635709D01*
X163948024Y-135498790D01*
X163948021Y-135498786D01*
X163948020Y-135498784D01*
X163836216Y-135386980D01*
X163836215Y-135386979D01*
X163831885Y-135382649D01*
X163831874Y-135382639D01*
X162608482Y-134159247D01*
X162574997Y-134097924D01*
X162579981Y-134028232D01*
X162621853Y-133972299D01*
X162652831Y-133955384D01*
X162697684Y-133938655D01*
X162697693Y-133938650D01*
X162812787Y-133852490D01*
X162812790Y-133852487D01*
X162898950Y-133737393D01*
X162898954Y-133737386D01*
X162949196Y-133602679D01*
X162949198Y-133602672D01*
X162955599Y-133543144D01*
X163594402Y-133543144D01*
X163600803Y-133602672D01*
X163600805Y-133602679D01*
X163651047Y-133737386D01*
X163651051Y-133737393D01*
X163737211Y-133852487D01*
X163737214Y-133852490D01*
X163852308Y-133938650D01*
X163852315Y-133938654D01*
X163987022Y-133988896D01*
X163987029Y-133988898D01*
X164046557Y-133995299D01*
X164046574Y-133995300D01*
X164200002Y-133995300D01*
X164700002Y-133995300D01*
X164853430Y-133995300D01*
X164853446Y-133995299D01*
X164912974Y-133988898D01*
X164912981Y-133988896D01*
X165047688Y-133938654D01*
X165047695Y-133938650D01*
X165162789Y-133852490D01*
X165162792Y-133852487D01*
X165248952Y-133737393D01*
X165248956Y-133737386D01*
X165299198Y-133602679D01*
X165299200Y-133602672D01*
X165305601Y-133543144D01*
X165305602Y-133543127D01*
X165305602Y-133250000D01*
X164700002Y-133250000D01*
X164700002Y-133995300D01*
X164200002Y-133995300D01*
X164200002Y-133250000D01*
X163594402Y-133250000D01*
X163594402Y-133543144D01*
X162955599Y-133543144D01*
X162955600Y-133543127D01*
X162955600Y-133250000D01*
X162224000Y-133250000D01*
X162156961Y-133230315D01*
X162111206Y-133177511D01*
X162100000Y-133126000D01*
X162100000Y-133000000D01*
X161974000Y-133000000D01*
X161906961Y-132980315D01*
X161861206Y-132927511D01*
X161850000Y-132876000D01*
X161850000Y-132750000D01*
X162350000Y-132750000D01*
X162955600Y-132750000D01*
X162955600Y-132456872D01*
X162955599Y-132456855D01*
X163594402Y-132456855D01*
X163594402Y-132750000D01*
X164200002Y-132750000D01*
X164700002Y-132750000D01*
X165305602Y-132750000D01*
X165305602Y-132456872D01*
X165305601Y-132456855D01*
X165299200Y-132397327D01*
X165299198Y-132397320D01*
X165248956Y-132262613D01*
X165248952Y-132262606D01*
X165162792Y-132147512D01*
X165162789Y-132147509D01*
X165047695Y-132061349D01*
X165047688Y-132061345D01*
X164912981Y-132011103D01*
X164912974Y-132011101D01*
X164853446Y-132004700D01*
X164700002Y-132004700D01*
X164700002Y-132750000D01*
X164200002Y-132750000D01*
X164200002Y-132004700D01*
X164046557Y-132004700D01*
X163987029Y-132011101D01*
X163987022Y-132011103D01*
X163852315Y-132061345D01*
X163852308Y-132061349D01*
X163737214Y-132147509D01*
X163737211Y-132147512D01*
X163651051Y-132262606D01*
X163651047Y-132262613D01*
X163600805Y-132397320D01*
X163600803Y-132397327D01*
X163594402Y-132456855D01*
X162955599Y-132456855D01*
X162949198Y-132397327D01*
X162949196Y-132397320D01*
X162898954Y-132262613D01*
X162898950Y-132262606D01*
X162812790Y-132147512D01*
X162812787Y-132147509D01*
X162697693Y-132061349D01*
X162697686Y-132061345D01*
X162562979Y-132011103D01*
X162562972Y-132011101D01*
X162503444Y-132004700D01*
X162350000Y-132004700D01*
X162350000Y-132750000D01*
X161850000Y-132750000D01*
X161850000Y-132004700D01*
X161696555Y-132004700D01*
X161637027Y-132011101D01*
X161637020Y-132011103D01*
X161502313Y-132061345D01*
X161502306Y-132061349D01*
X161387212Y-132147509D01*
X161387209Y-132147512D01*
X161301049Y-132262606D01*
X161301045Y-132262613D01*
X161250803Y-132397320D01*
X161250801Y-132397327D01*
X161244400Y-132456855D01*
X161244400Y-132495802D01*
X161224715Y-132562841D01*
X161171911Y-132608596D01*
X161102753Y-132618540D01*
X161046740Y-132595553D01*
X161039280Y-132590044D01*
X160968716Y-132519480D01*
X160860197Y-132456827D01*
X160854150Y-132453335D01*
X160854145Y-132453332D01*
X160850029Y-132450956D01*
X160801812Y-132400390D01*
X160795845Y-132386900D01*
X160749400Y-132262373D01*
X160749395Y-132262364D01*
X160663149Y-132147155D01*
X160600190Y-132100023D01*
X160558320Y-132044089D01*
X160550502Y-132000757D01*
X160550502Y-129499239D01*
X160570187Y-129432200D01*
X160600190Y-129399973D01*
X160663148Y-129352844D01*
X160749398Y-129237629D01*
X160799693Y-129102781D01*
X160806102Y-129043171D01*
X160806102Y-129043142D01*
X161244400Y-129043142D01*
X161250801Y-129102670D01*
X161250803Y-129102677D01*
X161301045Y-129237384D01*
X161301049Y-129237391D01*
X161387209Y-129352485D01*
X161387212Y-129352488D01*
X161502306Y-129438648D01*
X161502313Y-129438652D01*
X161637020Y-129488894D01*
X161637027Y-129488896D01*
X161696555Y-129495297D01*
X161696572Y-129495298D01*
X161850000Y-129495298D01*
X162350000Y-129495298D01*
X162503428Y-129495298D01*
X162503444Y-129495297D01*
X162562972Y-129488896D01*
X162562979Y-129488894D01*
X162697686Y-129438652D01*
X162697693Y-129438648D01*
X162812787Y-129352488D01*
X162812790Y-129352485D01*
X162898950Y-129237391D01*
X162898954Y-129237384D01*
X162949196Y-129102677D01*
X162949198Y-129102670D01*
X162955599Y-129043142D01*
X163594402Y-129043142D01*
X163600803Y-129102670D01*
X163600805Y-129102677D01*
X163651047Y-129237384D01*
X163651051Y-129237391D01*
X163737211Y-129352485D01*
X163737214Y-129352488D01*
X163852308Y-129438648D01*
X163852315Y-129438652D01*
X163987022Y-129488894D01*
X163987029Y-129488896D01*
X164046557Y-129495297D01*
X164046574Y-129495298D01*
X164200002Y-129495298D01*
X164700002Y-129495298D01*
X164853430Y-129495298D01*
X164853446Y-129495297D01*
X164912974Y-129488896D01*
X164912981Y-129488894D01*
X165047688Y-129438652D01*
X165047695Y-129438648D01*
X165162789Y-129352488D01*
X165162792Y-129352485D01*
X165248952Y-129237391D01*
X165248956Y-129237384D01*
X165299198Y-129102677D01*
X165299200Y-129102670D01*
X165305601Y-129043142D01*
X165305602Y-129043125D01*
X165305602Y-128749998D01*
X164700002Y-128749998D01*
X164700002Y-129495298D01*
X164200002Y-129495298D01*
X164200002Y-128749998D01*
X163594402Y-128749998D01*
X163594402Y-129043142D01*
X162955599Y-129043142D01*
X162955600Y-129043125D01*
X162955600Y-128749998D01*
X162350000Y-128749998D01*
X162350000Y-129495298D01*
X161850000Y-129495298D01*
X161850000Y-128749998D01*
X161244400Y-128749998D01*
X161244400Y-129043142D01*
X160806102Y-129043142D01*
X160806101Y-128444497D01*
X160806101Y-127956853D01*
X161244400Y-127956853D01*
X161244400Y-128249998D01*
X161850000Y-128249998D01*
X162350000Y-128249998D01*
X162955600Y-128249998D01*
X162955600Y-127956870D01*
X162955599Y-127956853D01*
X163594402Y-127956853D01*
X163594402Y-128249998D01*
X164200002Y-128249998D01*
X164700002Y-128249998D01*
X165305602Y-128249998D01*
X165305602Y-127956862D01*
X165305599Y-127956833D01*
X165743900Y-127956833D01*
X165743900Y-129043168D01*
X165743901Y-129043174D01*
X165750308Y-129102781D01*
X165800602Y-129237626D01*
X165800603Y-129237627D01*
X165800604Y-129237629D01*
X165886854Y-129352844D01*
X165949810Y-129399972D01*
X165991682Y-129455905D01*
X165999500Y-129499239D01*
X165999500Y-132000757D01*
X165979815Y-132067796D01*
X165949812Y-132100023D01*
X165886852Y-132147155D01*
X165800606Y-132262364D01*
X165800602Y-132262371D01*
X165750308Y-132397217D01*
X165743901Y-132456816D01*
X165743900Y-132456827D01*
X165743900Y-133543170D01*
X165743901Y-133543176D01*
X165750308Y-133602783D01*
X165800602Y-133737628D01*
X165804854Y-133745414D01*
X165801578Y-133747202D01*
X165819851Y-133796181D01*
X165817785Y-133829228D01*
X165799500Y-133921153D01*
X165799500Y-134078846D01*
X165830261Y-134233489D01*
X165830264Y-134233501D01*
X165890602Y-134379172D01*
X165890609Y-134379185D01*
X165978210Y-134510288D01*
X165978213Y-134510292D01*
X166089707Y-134621786D01*
X166089711Y-134621789D01*
X166220814Y-134709390D01*
X166220827Y-134709397D01*
X166366498Y-134769735D01*
X166366503Y-134769737D01*
X166521153Y-134800499D01*
X166521156Y-134800500D01*
X166521158Y-134800500D01*
X166678844Y-134800500D01*
X166678845Y-134800499D01*
X166833497Y-134769737D01*
X166979179Y-134709394D01*
X167110289Y-134621789D01*
X167221789Y-134510289D01*
X167309394Y-134379179D01*
X167369737Y-134233497D01*
X167400500Y-134078842D01*
X167400500Y-133921158D01*
X167400500Y-133921155D01*
X167382214Y-133829231D01*
X167388441Y-133759640D01*
X167396083Y-133745936D01*
X167395142Y-133745422D01*
X167399390Y-133737637D01*
X167399396Y-133737631D01*
X167449691Y-133602783D01*
X167456100Y-133543173D01*
X167456099Y-132456828D01*
X167449691Y-132397217D01*
X167441327Y-132374793D01*
X167399397Y-132262371D01*
X167399393Y-132262364D01*
X167313147Y-132147155D01*
X167250188Y-132100023D01*
X167208318Y-132044089D01*
X167200500Y-132000757D01*
X167200500Y-129499239D01*
X167220185Y-129432200D01*
X167250188Y-129399973D01*
X167313146Y-129352844D01*
X167399396Y-129237629D01*
X167449691Y-129102781D01*
X167456100Y-129043171D01*
X167456099Y-127956826D01*
X167449691Y-127897215D01*
X167436074Y-127860707D01*
X167399397Y-127762369D01*
X167399393Y-127762362D01*
X167313147Y-127647153D01*
X167313144Y-127647150D01*
X167197935Y-127560904D01*
X167197928Y-127560900D01*
X167063082Y-127510606D01*
X167063083Y-127510606D01*
X167003483Y-127504199D01*
X167003481Y-127504198D01*
X167003473Y-127504198D01*
X167003464Y-127504198D01*
X166196529Y-127504198D01*
X166196523Y-127504199D01*
X166136916Y-127510606D01*
X166002071Y-127560900D01*
X166002064Y-127560904D01*
X165886855Y-127647150D01*
X165886852Y-127647153D01*
X165800606Y-127762362D01*
X165800602Y-127762369D01*
X165750308Y-127897215D01*
X165746097Y-127936388D01*
X165743901Y-127956821D01*
X165743900Y-127956833D01*
X165305599Y-127956833D01*
X165299200Y-127897325D01*
X165299198Y-127897318D01*
X165248956Y-127762611D01*
X165248952Y-127762604D01*
X165162792Y-127647510D01*
X165162789Y-127647507D01*
X165047695Y-127561347D01*
X165047688Y-127561343D01*
X164912981Y-127511101D01*
X164912974Y-127511099D01*
X164853446Y-127504698D01*
X164700002Y-127504698D01*
X164700002Y-128249998D01*
X164200002Y-128249998D01*
X164200002Y-127504698D01*
X164046557Y-127504698D01*
X163987029Y-127511099D01*
X163987022Y-127511101D01*
X163852315Y-127561343D01*
X163852308Y-127561347D01*
X163737214Y-127647507D01*
X163737211Y-127647510D01*
X163651051Y-127762604D01*
X163651047Y-127762611D01*
X163600805Y-127897318D01*
X163600803Y-127897325D01*
X163594402Y-127956853D01*
X162955599Y-127956853D01*
X162949198Y-127897325D01*
X162949196Y-127897318D01*
X162898954Y-127762611D01*
X162898950Y-127762604D01*
X162812790Y-127647510D01*
X162812787Y-127647507D01*
X162697693Y-127561347D01*
X162697686Y-127561343D01*
X162562979Y-127511101D01*
X162562972Y-127511099D01*
X162503444Y-127504698D01*
X162350000Y-127504698D01*
X162350000Y-128249998D01*
X161850000Y-128249998D01*
X161850000Y-127504698D01*
X161696555Y-127504698D01*
X161637027Y-127511099D01*
X161637020Y-127511101D01*
X161502313Y-127561343D01*
X161502306Y-127561347D01*
X161387212Y-127647507D01*
X161387209Y-127647510D01*
X161301049Y-127762604D01*
X161301045Y-127762611D01*
X161250803Y-127897318D01*
X161250801Y-127897325D01*
X161244400Y-127956853D01*
X160806101Y-127956853D01*
X160806101Y-127956827D01*
X160806100Y-127956821D01*
X160799693Y-127897215D01*
X160786691Y-127862354D01*
X160786573Y-127860707D01*
X160785616Y-127859358D01*
X160784087Y-127825957D01*
X160781706Y-127792663D01*
X160782473Y-127790683D01*
X160782422Y-127789561D01*
X160784956Y-127784277D01*
X160795601Y-127756820D01*
X160799996Y-127749239D01*
X160800520Y-127748716D01*
X160850639Y-127661904D01*
X160879577Y-127611785D01*
X160920500Y-127459058D01*
X160920500Y-127300943D01*
X160920500Y-126285718D01*
X160940185Y-126218679D01*
X160988207Y-126175233D01*
X161027815Y-126155052D01*
X161027815Y-126155051D01*
X161027816Y-126155051D01*
X161119193Y-126088661D01*
X161199786Y-126030109D01*
X161199788Y-126030106D01*
X161199792Y-126030104D01*
X161350104Y-125879792D01*
X161350106Y-125879788D01*
X161350109Y-125879786D01*
X161475048Y-125707820D01*
X161475047Y-125707820D01*
X161475051Y-125707816D01*
X161479514Y-125699054D01*
X161527488Y-125648259D01*
X161595308Y-125631463D01*
X161661444Y-125653999D01*
X161700486Y-125699056D01*
X161704951Y-125707820D01*
X161829890Y-125879786D01*
X161980213Y-126030109D01*
X162152179Y-126155048D01*
X162152181Y-126155049D01*
X162152184Y-126155051D01*
X162341588Y-126251557D01*
X162543757Y-126317246D01*
X162753713Y-126350500D01*
X162753714Y-126350500D01*
X162966286Y-126350500D01*
X162966287Y-126350500D01*
X163176243Y-126317246D01*
X163378412Y-126251557D01*
X163567816Y-126155051D01*
X163654138Y-126092335D01*
X163739786Y-126030109D01*
X163739788Y-126030106D01*
X163739792Y-126030104D01*
X163890104Y-125879792D01*
X163890106Y-125879788D01*
X163890109Y-125879786D01*
X164015048Y-125707820D01*
X164015047Y-125707820D01*
X164015051Y-125707816D01*
X164019514Y-125699054D01*
X164067488Y-125648259D01*
X164135308Y-125631463D01*
X164201444Y-125653999D01*
X164240486Y-125699056D01*
X164244951Y-125707820D01*
X164369890Y-125879786D01*
X164520213Y-126030109D01*
X164692179Y-126155048D01*
X164692181Y-126155049D01*
X164692184Y-126155051D01*
X164881588Y-126251557D01*
X165083757Y-126317246D01*
X165293713Y-126350500D01*
X165293714Y-126350500D01*
X165506286Y-126350500D01*
X165506287Y-126350500D01*
X165716243Y-126317246D01*
X165918412Y-126251557D01*
X166107816Y-126155051D01*
X166194138Y-126092335D01*
X166279786Y-126030109D01*
X166279788Y-126030106D01*
X166279792Y-126030104D01*
X166430104Y-125879792D01*
X166430106Y-125879788D01*
X166430109Y-125879786D01*
X166555048Y-125707820D01*
X166555047Y-125707820D01*
X166555051Y-125707816D01*
X166559514Y-125699054D01*
X166607488Y-125648259D01*
X166675308Y-125631463D01*
X166741444Y-125653999D01*
X166780486Y-125699056D01*
X166784951Y-125707820D01*
X166909890Y-125879786D01*
X167060213Y-126030109D01*
X167232179Y-126155048D01*
X167232181Y-126155049D01*
X167232184Y-126155051D01*
X167421588Y-126251557D01*
X167623757Y-126317246D01*
X167833713Y-126350500D01*
X167833714Y-126350500D01*
X168046286Y-126350500D01*
X168046287Y-126350500D01*
X168256243Y-126317246D01*
X168458412Y-126251557D01*
X168647816Y-126155051D01*
X168734138Y-126092335D01*
X168819786Y-126030109D01*
X168819788Y-126030106D01*
X168819792Y-126030104D01*
X168970104Y-125879792D01*
X168970106Y-125879788D01*
X168970109Y-125879786D01*
X169095048Y-125707820D01*
X169095051Y-125707816D01*
X169099793Y-125698508D01*
X169147763Y-125647711D01*
X169215583Y-125630911D01*
X169281719Y-125653445D01*
X169320763Y-125698500D01*
X169325377Y-125707555D01*
X169450272Y-125879459D01*
X169450276Y-125879464D01*
X169600535Y-126029723D01*
X169600540Y-126029727D01*
X169772442Y-126154620D01*
X169961782Y-126251095D01*
X170163871Y-126316757D01*
X170230000Y-126327231D01*
X170230000Y-125433012D01*
X170287007Y-125465925D01*
X170414174Y-125500000D01*
X170545826Y-125500000D01*
X170672993Y-125465925D01*
X170730000Y-125433012D01*
X170730000Y-126327230D01*
X170796126Y-126316757D01*
X170796129Y-126316757D01*
X170998217Y-126251095D01*
X171187557Y-126154620D01*
X171359459Y-126029727D01*
X171359464Y-126029723D01*
X171509723Y-125879464D01*
X171509727Y-125879459D01*
X171634620Y-125707557D01*
X171731095Y-125518217D01*
X171796757Y-125316129D01*
X171796757Y-125316126D01*
X171807231Y-125250000D01*
X170913012Y-125250000D01*
X170945925Y-125192993D01*
X170980000Y-125065826D01*
X170980000Y-124934174D01*
X170945925Y-124807007D01*
X170913012Y-124750000D01*
X171807231Y-124750000D01*
X171796757Y-124683873D01*
X171796757Y-124683870D01*
X171731095Y-124481782D01*
X171634620Y-124292442D01*
X171509727Y-124120540D01*
X171509723Y-124120535D01*
X171359464Y-123970276D01*
X171359459Y-123970272D01*
X171187557Y-123845379D01*
X170998217Y-123748904D01*
X170978294Y-123742431D01*
X170920619Y-123702994D01*
X170893420Y-123638635D01*
X170905335Y-123569789D01*
X170952579Y-123518313D01*
X171016612Y-123500500D01*
X171975500Y-123500500D01*
X172042539Y-123520185D01*
X172088294Y-123572989D01*
X172099500Y-123624500D01*
X172099500Y-136383069D01*
X172079815Y-136450108D01*
X172027011Y-136495863D01*
X171962899Y-136506427D01*
X171899991Y-136500000D01*
X170500000Y-136500000D01*
X170500000Y-138849999D01*
X171899972Y-138849999D01*
X171899984Y-138849998D01*
X171962897Y-138843571D01*
X172031590Y-138856340D01*
X172082475Y-138904221D01*
X172099500Y-138966929D01*
X172099500Y-139247566D01*
X172079815Y-139314605D01*
X172027011Y-139360360D01*
X171962899Y-139370924D01*
X171900012Y-139364500D01*
X169099998Y-139364500D01*
X169099981Y-139364501D01*
X168997203Y-139375000D01*
X168997200Y-139375001D01*
X168830668Y-139430185D01*
X168830663Y-139430187D01*
X168681342Y-139522289D01*
X168557289Y-139646342D01*
X168538137Y-139677393D01*
X168492113Y-139752011D01*
X168483733Y-139765597D01*
X168431785Y-139812321D01*
X168378194Y-139824500D01*
X167423115Y-139824500D01*
X167356076Y-139804815D01*
X167310321Y-139752011D01*
X167300377Y-139682853D01*
X167320871Y-139635167D01*
X167318782Y-139633879D01*
X167411542Y-139483492D01*
X167411547Y-139483481D01*
X167464855Y-139322606D01*
X167474999Y-139223322D01*
X167475000Y-139223309D01*
X167475000Y-139200000D01*
X165525001Y-139200000D01*
X165525001Y-139223322D01*
X165535144Y-139322607D01*
X165588452Y-139483481D01*
X165588457Y-139483492D01*
X165677424Y-139627728D01*
X165677427Y-139627732D01*
X165686660Y-139636965D01*
X165720145Y-139698288D01*
X165715161Y-139767980D01*
X165686663Y-139812324D01*
X165677033Y-139821953D01*
X165677029Y-139821959D01*
X165588001Y-139966294D01*
X165587996Y-139966305D01*
X165534651Y-140127290D01*
X165524500Y-140226647D01*
X165524500Y-140773337D01*
X165524501Y-140773355D01*
X165534650Y-140872707D01*
X165534651Y-140872710D01*
X165587996Y-141033694D01*
X165588001Y-141033705D01*
X165677029Y-141178040D01*
X165677032Y-141178044D01*
X165788181Y-141289193D01*
X165802884Y-141316120D01*
X165819477Y-141341939D01*
X165820368Y-141348139D01*
X165821666Y-141350516D01*
X165824500Y-141376874D01*
X165824500Y-141556965D01*
X165804815Y-141624004D01*
X165788182Y-141644646D01*
X165675716Y-141757112D01*
X165587455Y-141900204D01*
X165587451Y-141900213D01*
X165534564Y-142059815D01*
X165534564Y-142059816D01*
X165534563Y-142059816D01*
X165524500Y-142158318D01*
X165524500Y-142691681D01*
X165534563Y-142790183D01*
X165587450Y-142949784D01*
X165587455Y-142949795D01*
X165675716Y-143092887D01*
X165675719Y-143092891D01*
X165707647Y-143124819D01*
X165741132Y-143186142D01*
X165736148Y-143255834D01*
X165707647Y-143300181D01*
X165675719Y-143332108D01*
X165675716Y-143332112D01*
X165587455Y-143475204D01*
X165587450Y-143475215D01*
X165575345Y-143511746D01*
X165534564Y-143634815D01*
X165534564Y-143634816D01*
X165534563Y-143634816D01*
X165524500Y-143733318D01*
X165524500Y-144266681D01*
X165534563Y-144365183D01*
X165587450Y-144524784D01*
X165587455Y-144524795D01*
X165675716Y-144667887D01*
X165675719Y-144667891D01*
X165788181Y-144780353D01*
X165821666Y-144841676D01*
X165824500Y-144868034D01*
X165824500Y-145123125D01*
X165815943Y-145152266D01*
X165809643Y-145181978D01*
X165805639Y-145187355D01*
X165804815Y-145190164D01*
X165788641Y-145210344D01*
X165788357Y-145210630D01*
X165677032Y-145321956D01*
X165675103Y-145325082D01*
X165667547Y-145332719D01*
X165642765Y-145346420D01*
X165619656Y-145362786D01*
X165610361Y-145364336D01*
X165606401Y-145366526D01*
X165599840Y-145366091D01*
X165579406Y-145369500D01*
X165241033Y-145369500D01*
X165173994Y-145349815D01*
X165128239Y-145297011D01*
X165117299Y-145237382D01*
X165117500Y-145234318D01*
X165117500Y-145045000D01*
X164568548Y-145045000D01*
X164560437Y-145044734D01*
X164556867Y-145044500D01*
X162378135Y-145044500D01*
X162374582Y-145044734D01*
X162366470Y-145045000D01*
X161817501Y-145045000D01*
X161817501Y-145234324D01*
X161832942Y-145351622D01*
X161832945Y-145351634D01*
X161841337Y-145371895D01*
X161848804Y-145441364D01*
X161841338Y-145466794D01*
X161832456Y-145488238D01*
X161832455Y-145488239D01*
X161817000Y-145605638D01*
X161817000Y-146484356D01*
X161820255Y-146509079D01*
X161809487Y-146578114D01*
X161763105Y-146630369D01*
X161695836Y-146649252D01*
X161681129Y-146648200D01*
X161656830Y-146645000D01*
X161467500Y-146645000D01*
X161467500Y-148045000D01*
X162217499Y-148045000D01*
X162217499Y-147823322D01*
X165525001Y-147823322D01*
X165535144Y-147922607D01*
X165588452Y-148083481D01*
X165588457Y-148083492D01*
X165677424Y-148227728D01*
X165677427Y-148227732D01*
X165797267Y-148347572D01*
X165797271Y-148347575D01*
X165941507Y-148436542D01*
X165941518Y-148436547D01*
X166102393Y-148489855D01*
X166201683Y-148499999D01*
X166750000Y-148499999D01*
X166798308Y-148499999D01*
X166798322Y-148499998D01*
X166897607Y-148489855D01*
X167058481Y-148436547D01*
X167058492Y-148436542D01*
X167202728Y-148347575D01*
X167202732Y-148347572D01*
X167322572Y-148227732D01*
X167322575Y-148227728D01*
X167411542Y-148083492D01*
X167411547Y-148083481D01*
X167464855Y-147922606D01*
X167474999Y-147823322D01*
X167475000Y-147823309D01*
X167475000Y-147800000D01*
X166750000Y-147800000D01*
X166750000Y-148499999D01*
X166201683Y-148499999D01*
X166249999Y-148499998D01*
X166250000Y-148499998D01*
X166250000Y-147800000D01*
X165525001Y-147800000D01*
X165525001Y-147823322D01*
X162217499Y-147823322D01*
X162217499Y-147205677D01*
X162214299Y-147181370D01*
X162225065Y-147112335D01*
X162271445Y-147060079D01*
X162338714Y-147041194D01*
X162353418Y-147042245D01*
X162378139Y-147045500D01*
X164556860Y-147045499D01*
X164556863Y-147045499D01*
X164674253Y-147030046D01*
X164674257Y-147030044D01*
X164674262Y-147030044D01*
X164820341Y-146969536D01*
X164945782Y-146873282D01*
X165025790Y-146769012D01*
X165082218Y-146727811D01*
X165124166Y-146720500D01*
X165548863Y-146720500D01*
X165615902Y-146740185D01*
X165661657Y-146792989D01*
X165671601Y-146862147D01*
X165654402Y-146909597D01*
X165588454Y-147016513D01*
X165588452Y-147016518D01*
X165535144Y-147177393D01*
X165525000Y-147276677D01*
X165525000Y-147300000D01*
X167474999Y-147300000D01*
X167474999Y-147276692D01*
X167474998Y-147276677D01*
X167464855Y-147177392D01*
X167411547Y-147016518D01*
X167411542Y-147016507D01*
X167322575Y-146872271D01*
X167322572Y-146872267D01*
X167313339Y-146863034D01*
X167279854Y-146801711D01*
X167284838Y-146732019D01*
X167313343Y-146687668D01*
X167322968Y-146678044D01*
X167412003Y-146533697D01*
X167465349Y-146372708D01*
X167475500Y-146273345D01*
X167475499Y-145726656D01*
X167465349Y-145627292D01*
X167412003Y-145466303D01*
X167411999Y-145466297D01*
X167411998Y-145466294D01*
X167322970Y-145321959D01*
X167322969Y-145321958D01*
X167322968Y-145321956D01*
X167211818Y-145210806D01*
X167178334Y-145149483D01*
X167175500Y-145123125D01*
X167175500Y-144868034D01*
X167195185Y-144800995D01*
X167211819Y-144780353D01*
X167324281Y-144667891D01*
X167412549Y-144524787D01*
X167465436Y-144365185D01*
X167475500Y-144266674D01*
X167475500Y-143799986D01*
X167900001Y-143799986D01*
X167910494Y-143902697D01*
X167965641Y-144069119D01*
X167965643Y-144069124D01*
X168057684Y-144218345D01*
X168181654Y-144342315D01*
X168330875Y-144434356D01*
X168330880Y-144434358D01*
X168497302Y-144489505D01*
X168497309Y-144489506D01*
X168600019Y-144499999D01*
X169999999Y-144499999D01*
X170000000Y-144499998D01*
X170000000Y-143575000D01*
X167900001Y-143575000D01*
X167900001Y-143799986D01*
X167475500Y-143799986D01*
X167475500Y-143733326D01*
X167465436Y-143634815D01*
X167412549Y-143475213D01*
X167412545Y-143475207D01*
X167412544Y-143475204D01*
X167324283Y-143332112D01*
X167324280Y-143332108D01*
X167292353Y-143300181D01*
X167258868Y-143238858D01*
X167263852Y-143169166D01*
X167292353Y-143124819D01*
X167324281Y-143092891D01*
X167412549Y-142949787D01*
X167445611Y-142850013D01*
X167900000Y-142850013D01*
X167900000Y-143075000D01*
X170000000Y-143075000D01*
X170000000Y-142150000D01*
X168600028Y-142150000D01*
X168600012Y-142150001D01*
X168497302Y-142160494D01*
X168330880Y-142215641D01*
X168330875Y-142215643D01*
X168181654Y-142307684D01*
X168057684Y-142431654D01*
X167965643Y-142580875D01*
X167965641Y-142580880D01*
X167910494Y-142747302D01*
X167910493Y-142747309D01*
X167900000Y-142850013D01*
X167445611Y-142850013D01*
X167465436Y-142790185D01*
X167475500Y-142691674D01*
X167475500Y-142158326D01*
X167465436Y-142059815D01*
X167412549Y-141900213D01*
X167412545Y-141900207D01*
X167412544Y-141900204D01*
X167324283Y-141757112D01*
X167324282Y-141757111D01*
X167324281Y-141757109D01*
X167211818Y-141644646D01*
X167197111Y-141617712D01*
X167180523Y-141591900D01*
X167179631Y-141585699D01*
X167178334Y-141583323D01*
X167175500Y-141556965D01*
X167175500Y-141376874D01*
X167195185Y-141309835D01*
X167211819Y-141289193D01*
X167289193Y-141211819D01*
X167350516Y-141178334D01*
X167376874Y-141175500D01*
X168378194Y-141175500D01*
X168445233Y-141195185D01*
X168483731Y-141234401D01*
X168557288Y-141353656D01*
X168681344Y-141477712D01*
X168830666Y-141569814D01*
X168997203Y-141624999D01*
X169099991Y-141635500D01*
X171900008Y-141635499D01*
X171962899Y-141629074D01*
X172031590Y-141641843D01*
X172082475Y-141689723D01*
X172099500Y-141752432D01*
X172099500Y-142033069D01*
X172079815Y-142100108D01*
X172027011Y-142145863D01*
X171962899Y-142156427D01*
X171899991Y-142150000D01*
X170500000Y-142150000D01*
X170500000Y-144499999D01*
X171899972Y-144499999D01*
X171899984Y-144499998D01*
X171962897Y-144493571D01*
X172031590Y-144506340D01*
X172082475Y-144554221D01*
X172099500Y-144616929D01*
X172099500Y-155875500D01*
X172079815Y-155942539D01*
X172027011Y-155988294D01*
X171975500Y-155999500D01*
X170516612Y-155999500D01*
X170449573Y-155979815D01*
X170403818Y-155927011D01*
X170393874Y-155857853D01*
X170422899Y-155794297D01*
X170478294Y-155757569D01*
X170498217Y-155751095D01*
X170687557Y-155654620D01*
X170859459Y-155529727D01*
X170859464Y-155529723D01*
X171009723Y-155379464D01*
X171009727Y-155379459D01*
X171134620Y-155207557D01*
X171231095Y-155018217D01*
X171296757Y-154816129D01*
X171296757Y-154816126D01*
X171307231Y-154750000D01*
X170413012Y-154750000D01*
X170445925Y-154692993D01*
X170480000Y-154565826D01*
X170480000Y-154434174D01*
X170445925Y-154307007D01*
X170413012Y-154250000D01*
X171307231Y-154250000D01*
X171296757Y-154183873D01*
X171296757Y-154183870D01*
X171231095Y-153981782D01*
X171134620Y-153792442D01*
X171009727Y-153620540D01*
X171009723Y-153620535D01*
X170859464Y-153470276D01*
X170859459Y-153470272D01*
X170687557Y-153345379D01*
X170498215Y-153248903D01*
X170296124Y-153183241D01*
X170230000Y-153172768D01*
X170230000Y-154066988D01*
X170172993Y-154034075D01*
X170045826Y-154000000D01*
X169914174Y-154000000D01*
X169787007Y-154034075D01*
X169730000Y-154066988D01*
X169730000Y-153172768D01*
X169729999Y-153172768D01*
X169663875Y-153183241D01*
X169461784Y-153248903D01*
X169272442Y-153345379D01*
X169100540Y-153470272D01*
X169100535Y-153470276D01*
X168950276Y-153620535D01*
X168950272Y-153620540D01*
X168825378Y-153792443D01*
X168820762Y-153801502D01*
X168772784Y-153852295D01*
X168704963Y-153869087D01*
X168638829Y-153846546D01*
X168599794Y-153801493D01*
X168595051Y-153792184D01*
X168595049Y-153792181D01*
X168595048Y-153792179D01*
X168470109Y-153620213D01*
X168319786Y-153469890D01*
X168147820Y-153344951D01*
X167958414Y-153248444D01*
X167958413Y-153248443D01*
X167958412Y-153248443D01*
X167756243Y-153182754D01*
X167756241Y-153182753D01*
X167756240Y-153182753D01*
X167594957Y-153157208D01*
X167546287Y-153149500D01*
X167333713Y-153149500D01*
X167305006Y-153154046D01*
X167123757Y-153182753D01*
X167081473Y-153196492D01*
X167011632Y-153198486D01*
X166955476Y-153166241D01*
X164927590Y-151138355D01*
X164927588Y-151138352D01*
X164808717Y-151019481D01*
X164808709Y-151019475D01*
X164715087Y-150965423D01*
X164715085Y-150965422D01*
X164671790Y-150940425D01*
X164671789Y-150940424D01*
X164638540Y-150931515D01*
X164519057Y-150899499D01*
X164360943Y-150899499D01*
X164353347Y-150899499D01*
X164353331Y-150899500D01*
X161800097Y-150899500D01*
X161733058Y-150879815D01*
X161712416Y-150863181D01*
X160968548Y-150119313D01*
X160935063Y-150057990D01*
X160940047Y-149988298D01*
X160967500Y-149945581D01*
X160967500Y-149944999D01*
X161467500Y-149944999D01*
X161656824Y-149944999D01*
X161774128Y-149929557D01*
X161774133Y-149929555D01*
X161920085Y-149869100D01*
X162045424Y-149772924D01*
X162141600Y-149647586D01*
X162202054Y-149501634D01*
X162202055Y-149501630D01*
X162217499Y-149384330D01*
X162217500Y-149384316D01*
X162217500Y-148545000D01*
X161467500Y-148545000D01*
X161467500Y-149944999D01*
X160967500Y-149944999D01*
X160967500Y-149396050D01*
X160967765Y-149387941D01*
X160967997Y-149384381D01*
X160968000Y-149384361D01*
X160967999Y-147205640D01*
X160967999Y-147205639D01*
X160967999Y-147205635D01*
X160967766Y-147202082D01*
X160967500Y-147193970D01*
X160967500Y-146645000D01*
X160778175Y-146645000D01*
X160660871Y-146660442D01*
X160660869Y-146660443D01*
X160640605Y-146668837D01*
X160571135Y-146676304D01*
X160545703Y-146668837D01*
X160524262Y-146659956D01*
X160524260Y-146659955D01*
X160406861Y-146644500D01*
X159528136Y-146644500D01*
X159410746Y-146659953D01*
X159410734Y-146659957D01*
X159389950Y-146668566D01*
X159320481Y-146676033D01*
X159295050Y-146668566D01*
X159274265Y-146659957D01*
X159274260Y-146659955D01*
X159156861Y-146644500D01*
X158278136Y-146644500D01*
X158160746Y-146659953D01*
X158160734Y-146659957D01*
X158139950Y-146668566D01*
X158070481Y-146676033D01*
X158045050Y-146668566D01*
X158024265Y-146659957D01*
X158024260Y-146659955D01*
X157906861Y-146644500D01*
X157028136Y-146644500D01*
X156910746Y-146659953D01*
X156910734Y-146659957D01*
X156889950Y-146668566D01*
X156820481Y-146676033D01*
X156795050Y-146668566D01*
X156774265Y-146659957D01*
X156774260Y-146659955D01*
X156656861Y-146644500D01*
X155778136Y-146644500D01*
X155660746Y-146659953D01*
X155660734Y-146659957D01*
X155639950Y-146668566D01*
X155570481Y-146676033D01*
X155545050Y-146668566D01*
X155524265Y-146659957D01*
X155524260Y-146659955D01*
X155406862Y-146644500D01*
X154624407Y-146644500D01*
X154557368Y-146624815D01*
X154511613Y-146572011D01*
X154502790Y-146544691D01*
X154495630Y-146508699D01*
X154487237Y-146466503D01*
X154429533Y-146327192D01*
X154426897Y-146320827D01*
X154426890Y-146320814D01*
X154339289Y-146189711D01*
X154339286Y-146189707D01*
X154227792Y-146078213D01*
X154227788Y-146078210D01*
X154096685Y-145990609D01*
X154096672Y-145990602D01*
X153951001Y-145930264D01*
X153950989Y-145930261D01*
X153796345Y-145899500D01*
X153796342Y-145899500D01*
X153638658Y-145899500D01*
X153638655Y-145899500D01*
X153484010Y-145930261D01*
X153483998Y-145930264D01*
X153338327Y-145990602D01*
X153338309Y-145990612D01*
X153310889Y-146008934D01*
X153244212Y-146029812D01*
X153176832Y-146011327D01*
X153130142Y-145959348D01*
X153117999Y-145905832D01*
X153117999Y-145605638D01*
X153114777Y-145581170D01*
X153102544Y-145488238D01*
X153093934Y-145467454D01*
X153086465Y-145397986D01*
X153093935Y-145372545D01*
X153096428Y-145366526D01*
X153102544Y-145351762D01*
X153118000Y-145234361D01*
X153117999Y-144355640D01*
X153116992Y-144347993D01*
X153112614Y-144314737D01*
X153102544Y-144238238D01*
X153093934Y-144217454D01*
X153086465Y-144147986D01*
X153093935Y-144122545D01*
X153102544Y-144101762D01*
X153118000Y-143984361D01*
X153117999Y-143105640D01*
X153116967Y-143097804D01*
X153112518Y-143064002D01*
X153102544Y-142988238D01*
X153093934Y-142967454D01*
X153086465Y-142897986D01*
X153093935Y-142872545D01*
X153102544Y-142851762D01*
X153118000Y-142734361D01*
X153117999Y-141855640D01*
X153102544Y-141738238D01*
X153102313Y-141737681D01*
X153093935Y-141717455D01*
X153086465Y-141647986D01*
X153093935Y-141622545D01*
X153095937Y-141617712D01*
X153102544Y-141601762D01*
X153118000Y-141484361D01*
X153117999Y-140605640D01*
X153117999Y-140605638D01*
X153117999Y-140605636D01*
X153102546Y-140488246D01*
X153102544Y-140488241D01*
X153102544Y-140488238D01*
X153093662Y-140466797D01*
X153086194Y-140397328D01*
X153093664Y-140371890D01*
X153102055Y-140351632D01*
X153102055Y-140351631D01*
X153117499Y-140234330D01*
X153117500Y-140234316D01*
X153117500Y-140045000D01*
X152568548Y-140045000D01*
X152560437Y-140044734D01*
X152556867Y-140044500D01*
X150378135Y-140044500D01*
X150374582Y-140044734D01*
X150366470Y-140045000D01*
X149817501Y-140045000D01*
X149817501Y-140234324D01*
X149826715Y-140304316D01*
X149824079Y-140321215D01*
X149826514Y-140338147D01*
X149818807Y-140355022D01*
X149815949Y-140373351D01*
X149804595Y-140386142D01*
X149797489Y-140401703D01*
X149781881Y-140411733D01*
X149769568Y-140425606D01*
X149752803Y-140430420D01*
X149738711Y-140439477D01*
X149703776Y-140444500D01*
X149599000Y-140444500D01*
X149531961Y-140424815D01*
X149486206Y-140372011D01*
X149475000Y-140320500D01*
X149475000Y-140300000D01*
X147525001Y-140300000D01*
X147525001Y-140320500D01*
X147505316Y-140387539D01*
X147452512Y-140433294D01*
X147401001Y-140444500D01*
X143615098Y-140444500D01*
X143548059Y-140424815D01*
X143527417Y-140408181D01*
X142378852Y-139259617D01*
X142345367Y-139198294D01*
X142344060Y-139152543D01*
X142354700Y-139085368D01*
X142354700Y-138914632D01*
X142327991Y-138745999D01*
X142327990Y-138745995D01*
X142327990Y-138745994D01*
X142275232Y-138583622D01*
X142275230Y-138583619D01*
X142272058Y-138577392D01*
X142197719Y-138431493D01*
X142097363Y-138293365D01*
X141976635Y-138172637D01*
X141838507Y-138072281D01*
X141686380Y-137994769D01*
X141686377Y-137994767D01*
X141524004Y-137942009D01*
X141391924Y-137921090D01*
X141355368Y-137915300D01*
X141184632Y-137915300D01*
X141128421Y-137924203D01*
X141015997Y-137942009D01*
X141015994Y-137942009D01*
X140853622Y-137994767D01*
X140853619Y-137994769D01*
X140701493Y-138072280D01*
X140699788Y-138073326D01*
X140699051Y-138073525D01*
X140697152Y-138074493D01*
X140696948Y-138074093D01*
X140632341Y-138091568D01*
X140573022Y-138074151D01*
X140572848Y-138074493D01*
X140571027Y-138073565D01*
X140570212Y-138073326D01*
X140568506Y-138072280D01*
X140416380Y-137994769D01*
X140416377Y-137994767D01*
X140254004Y-137942009D01*
X140121924Y-137921090D01*
X140085368Y-137915300D01*
X139914632Y-137915300D01*
X139858421Y-137924203D01*
X139745997Y-137942009D01*
X139745994Y-137942009D01*
X139583622Y-137994767D01*
X139583619Y-137994769D01*
X139431492Y-138072281D01*
X139385578Y-138105640D01*
X139293365Y-138172637D01*
X139293363Y-138172639D01*
X139293362Y-138172639D01*
X139172639Y-138293362D01*
X139172639Y-138293363D01*
X139172637Y-138293365D01*
X139129538Y-138352685D01*
X139072281Y-138431492D01*
X138994769Y-138583619D01*
X138994767Y-138583622D01*
X138942009Y-138745994D01*
X138942009Y-138745997D01*
X138915300Y-138914632D01*
X138915300Y-139085367D01*
X138942009Y-139254002D01*
X138942009Y-139254005D01*
X138994767Y-139416377D01*
X138994769Y-139416380D01*
X139072282Y-139568509D01*
X139073621Y-139570694D01*
X139073876Y-139571637D01*
X139074493Y-139572848D01*
X139074238Y-139572977D01*
X139091862Y-139638140D01*
X139074519Y-139697209D01*
X139074921Y-139697414D01*
X139073831Y-139699552D01*
X139073623Y-139700262D01*
X139072713Y-139701746D01*
X138995233Y-139853808D01*
X138942496Y-140016115D01*
X138915800Y-140184666D01*
X138915800Y-140355333D01*
X138942496Y-140523884D01*
X138995233Y-140686191D01*
X139072711Y-140838250D01*
X139073918Y-140840219D01*
X139074147Y-140841068D01*
X139074921Y-140842586D01*
X139074601Y-140842748D01*
X139092156Y-140907667D01*
X139074653Y-140967277D01*
X139074921Y-140967414D01*
X139074194Y-140968840D01*
X139073918Y-140969781D01*
X139072711Y-140971749D01*
X138995233Y-141123808D01*
X138942496Y-141286115D01*
X138915800Y-141454666D01*
X138915800Y-141625333D01*
X138942496Y-141793884D01*
X138995233Y-141956191D01*
X139072713Y-142108253D01*
X139073623Y-142109738D01*
X139073796Y-142110378D01*
X139074921Y-142112586D01*
X139074457Y-142112822D01*
X139091862Y-142177185D01*
X139074286Y-142237047D01*
X139074493Y-142237153D01*
X139073931Y-142238254D01*
X139073625Y-142239299D01*
X139072285Y-142241485D01*
X138994768Y-142393619D01*
X138994767Y-142393622D01*
X138942009Y-142555994D01*
X138942009Y-142555997D01*
X138915300Y-142724632D01*
X138915300Y-142895367D01*
X138942009Y-143064002D01*
X138942009Y-143064005D01*
X138994767Y-143226377D01*
X138994769Y-143226380D01*
X139072282Y-143378509D01*
X139073621Y-143380694D01*
X139073876Y-143381637D01*
X139074493Y-143382848D01*
X139074238Y-143382977D01*
X139091862Y-143448140D01*
X139074519Y-143507209D01*
X139074921Y-143507414D01*
X139073831Y-143509552D01*
X139073623Y-143510262D01*
X139072713Y-143511746D01*
X138995233Y-143663808D01*
X138942496Y-143826115D01*
X138915800Y-143994666D01*
X138915800Y-144165333D01*
X138942496Y-144333884D01*
X138995233Y-144496193D01*
X139072711Y-144648249D01*
X139075019Y-144651425D01*
X139075020Y-144651425D01*
X139644400Y-144082045D01*
X139644400Y-144126816D01*
X139668634Y-144217256D01*
X139715450Y-144298343D01*
X139781657Y-144364550D01*
X139862744Y-144411366D01*
X139953184Y-144435600D01*
X139997952Y-144435600D01*
X139428574Y-145004978D01*
X139428574Y-145004980D01*
X139431750Y-145007288D01*
X139583806Y-145084766D01*
X139746115Y-145137503D01*
X139914667Y-145164200D01*
X140085333Y-145164200D01*
X140253884Y-145137503D01*
X140416191Y-145084766D01*
X140568237Y-145007294D01*
X140569715Y-145006389D01*
X140570354Y-145006215D01*
X140572586Y-145005079D01*
X140572824Y-145005547D01*
X140637158Y-144988136D01*
X140697045Y-145005716D01*
X140697152Y-145005507D01*
X140698265Y-145006074D01*
X140699310Y-145006381D01*
X140701493Y-145007719D01*
X140853620Y-145085231D01*
X140853622Y-145085232D01*
X141015995Y-145137990D01*
X141015996Y-145137990D01*
X141015999Y-145137991D01*
X141184632Y-145164700D01*
X141184633Y-145164700D01*
X141355367Y-145164700D01*
X141355368Y-145164700D01*
X141524001Y-145137991D01*
X141524004Y-145137990D01*
X141524005Y-145137990D01*
X141686377Y-145085232D01*
X141686377Y-145085231D01*
X141686380Y-145085231D01*
X141838507Y-145007719D01*
X141976635Y-144907363D01*
X142097363Y-144786635D01*
X142197719Y-144648507D01*
X142275231Y-144496380D01*
X142276144Y-144493571D01*
X142327990Y-144334005D01*
X142327990Y-144334004D01*
X142327991Y-144334001D01*
X142354700Y-144165368D01*
X142354700Y-143994632D01*
X142327991Y-143825999D01*
X142327990Y-143825995D01*
X142327990Y-143825994D01*
X142275232Y-143663622D01*
X142275230Y-143663619D01*
X142261852Y-143637363D01*
X142197719Y-143511493D01*
X142197710Y-143511481D01*
X142196681Y-143509801D01*
X142196481Y-143509065D01*
X142195507Y-143507152D01*
X142195908Y-143506947D01*
X142178430Y-143442357D01*
X142195851Y-143383023D01*
X142195507Y-143382848D01*
X142196442Y-143381012D01*
X142196681Y-143380199D01*
X142197706Y-143378523D01*
X142197719Y-143378507D01*
X142275231Y-143226380D01*
X142279741Y-143212500D01*
X142327990Y-143064005D01*
X142327990Y-143064004D01*
X142327991Y-143064001D01*
X142354700Y-142895368D01*
X142354700Y-142724632D01*
X142327991Y-142555999D01*
X142305291Y-142486138D01*
X142303297Y-142416298D01*
X142339377Y-142356465D01*
X142402078Y-142325636D01*
X142471492Y-142333600D01*
X142510904Y-142360139D01*
X142810139Y-142659374D01*
X142810149Y-142659385D01*
X142814479Y-142663715D01*
X142814480Y-142663716D01*
X142926284Y-142775520D01*
X142926286Y-142775521D01*
X142926290Y-142775524D01*
X142986504Y-142810288D01*
X143063216Y-142854577D01*
X143175019Y-142884534D01*
X143215942Y-142895500D01*
X143215943Y-142895500D01*
X145850957Y-142895500D01*
X145917996Y-142915185D01*
X145963751Y-142967989D01*
X145973695Y-143037147D01*
X145969343Y-143056389D01*
X145956409Y-143097896D01*
X145950000Y-143168427D01*
X145950000Y-143250000D01*
X146726000Y-143250000D01*
X146793039Y-143269685D01*
X146838794Y-143322489D01*
X146850000Y-143374000D01*
X146850000Y-143626000D01*
X146830315Y-143693039D01*
X146777511Y-143738794D01*
X146726000Y-143750000D01*
X145950001Y-143750000D01*
X145950001Y-143831582D01*
X145956408Y-143902102D01*
X145956409Y-143902107D01*
X146006981Y-144064396D01*
X146094927Y-144209877D01*
X146215122Y-144330072D01*
X146360604Y-144418019D01*
X146360603Y-144418019D01*
X146448498Y-144445408D01*
X146506646Y-144484145D01*
X146534620Y-144548170D01*
X146523538Y-144617156D01*
X146499289Y-144651474D01*
X143087584Y-148063181D01*
X143026261Y-148096666D01*
X142999903Y-148099500D01*
X142386669Y-148099500D01*
X142386653Y-148099499D01*
X142379057Y-148099499D01*
X142220943Y-148099499D01*
X142113587Y-148128265D01*
X142068210Y-148140424D01*
X142068209Y-148140425D01*
X142018096Y-148169359D01*
X142018095Y-148169360D01*
X141974689Y-148194420D01*
X141931285Y-148219479D01*
X141931282Y-148219481D01*
X139619481Y-150531282D01*
X139619479Y-150531285D01*
X139569361Y-150618094D01*
X139569359Y-150618096D01*
X139540425Y-150668209D01*
X139540424Y-150668210D01*
X139537789Y-150678044D01*
X139499499Y-150820943D01*
X139499499Y-150820945D01*
X139499499Y-150989046D01*
X139499500Y-150989059D01*
X139499500Y-151274164D01*
X139479815Y-151341203D01*
X139450988Y-151372539D01*
X139431779Y-151387278D01*
X139340968Y-151505623D01*
X139340965Y-151505629D01*
X139283883Y-151643439D01*
X139283882Y-151643443D01*
X139269300Y-151754196D01*
X139269300Y-153245803D01*
X139282059Y-153342711D01*
X139283882Y-153356557D01*
X139283882Y-153356558D01*
X139283883Y-153356560D01*
X139325092Y-153456048D01*
X139332561Y-153525517D01*
X139301286Y-153587996D01*
X139241197Y-153623648D01*
X139210531Y-153627500D01*
X139050001Y-153627500D01*
X139050001Y-154830000D01*
X139947701Y-154830000D01*
X139947701Y-154193463D01*
X139947700Y-154193448D01*
X139944893Y-154157776D01*
X139944892Y-154157770D01*
X139900518Y-154005035D01*
X139900516Y-154005030D01*
X139875258Y-153962321D01*
X139858075Y-153894597D01*
X139880235Y-153828335D01*
X139934701Y-153784571D01*
X139981990Y-153775200D01*
X140401289Y-153775200D01*
X140401296Y-153775200D01*
X140512057Y-153760618D01*
X140552547Y-153743845D01*
X140622015Y-153736377D01*
X140647452Y-153743846D01*
X140671860Y-153753956D01*
X140687944Y-153760618D01*
X140798705Y-153775200D01*
X141264683Y-153775200D01*
X141331722Y-153794885D01*
X141377477Y-153847689D01*
X141379229Y-153851714D01*
X141386426Y-153869087D01*
X141390608Y-153879183D01*
X141478210Y-154010288D01*
X141478213Y-154010292D01*
X141589707Y-154121786D01*
X141589711Y-154121789D01*
X141720814Y-154209390D01*
X141720827Y-154209397D01*
X141818853Y-154250000D01*
X141866503Y-154269737D01*
X142021153Y-154300499D01*
X142021156Y-154300500D01*
X142021158Y-154300500D01*
X142178844Y-154300500D01*
X142178845Y-154300499D01*
X142333497Y-154269737D01*
X142479179Y-154209394D01*
X142503044Y-154193448D01*
X143252299Y-154193448D01*
X143252299Y-154830000D01*
X144149999Y-154830000D01*
X144149999Y-153627500D01*
X143988927Y-153627500D01*
X143921888Y-153607815D01*
X143876133Y-153555011D01*
X143866189Y-153485853D01*
X143874366Y-153456048D01*
X143915628Y-153356429D01*
X143915629Y-153356425D01*
X143930199Y-153245764D01*
X143930200Y-153245750D01*
X143930200Y-152750000D01*
X143350000Y-152750000D01*
X143350000Y-153786471D01*
X143369325Y-153821862D01*
X143364341Y-153891554D01*
X143354891Y-153911341D01*
X143299483Y-154005030D01*
X143299481Y-154005035D01*
X143255107Y-154157770D01*
X143255106Y-154157776D01*
X143252299Y-154193448D01*
X142503044Y-154193448D01*
X142610289Y-154121789D01*
X142610292Y-154121786D01*
X142628739Y-154103340D01*
X142721786Y-154010292D01*
X142721789Y-154010289D01*
X142809394Y-153879179D01*
X142869737Y-153733497D01*
X142900500Y-153578842D01*
X142900500Y-153421158D01*
X142900500Y-153418925D01*
X142909939Y-153371472D01*
X142911968Y-153366574D01*
X142916117Y-153356557D01*
X142930699Y-153245796D01*
X142930699Y-152624000D01*
X142950384Y-152556961D01*
X143003188Y-152511206D01*
X143054699Y-152500000D01*
X143100000Y-152500000D01*
X143100000Y-152374000D01*
X143119685Y-152306961D01*
X143172489Y-152261206D01*
X143224000Y-152250000D01*
X143930199Y-152250000D01*
X143930199Y-151754241D01*
X143915631Y-151643579D01*
X143915630Y-151643575D01*
X143866616Y-151525243D01*
X143859147Y-151455774D01*
X143890422Y-151393295D01*
X143917021Y-151371678D01*
X143985185Y-151330472D01*
X144015657Y-151300000D01*
X144087319Y-151228339D01*
X144148642Y-151194854D01*
X144218334Y-151199838D01*
X144262681Y-151228339D01*
X144364811Y-151330469D01*
X144364813Y-151330470D01*
X144364815Y-151330472D01*
X144510394Y-151418478D01*
X144672804Y-151469086D01*
X144743384Y-151475500D01*
X145074903Y-151475500D01*
X145104343Y-151484144D01*
X145134330Y-151490668D01*
X145139345Y-151494422D01*
X145141942Y-151495185D01*
X145162584Y-151511819D01*
X145277639Y-151626874D01*
X145277649Y-151626885D01*
X145281979Y-151631215D01*
X145281980Y-151631216D01*
X145393784Y-151743020D01*
X145393786Y-151743021D01*
X145393787Y-151743022D01*
X145409494Y-151752090D01*
X145459045Y-151780698D01*
X145530715Y-151822077D01*
X145683443Y-151863001D01*
X145683446Y-151863001D01*
X145691294Y-151865104D01*
X145690420Y-151868362D01*
X145739988Y-151890228D01*
X145778519Y-151948513D01*
X145784004Y-151984984D01*
X145784004Y-152278580D01*
X145784003Y-152278584D01*
X145784003Y-152436698D01*
X145798450Y-152490616D01*
X145799242Y-152502865D01*
X145798741Y-152505093D01*
X145799500Y-152510858D01*
X145799500Y-152683480D01*
X145779815Y-152750519D01*
X145763181Y-152771161D01*
X145669531Y-152864810D01*
X145669530Y-152864811D01*
X145581522Y-153010393D01*
X145530913Y-153172807D01*
X145524500Y-153243386D01*
X145524500Y-153673714D01*
X145504815Y-153740753D01*
X145452011Y-153786508D01*
X145382853Y-153796452D01*
X145319297Y-153767427D01*
X145312819Y-153761395D01*
X145307080Y-153755656D01*
X145307074Y-153755652D01*
X145170163Y-153674682D01*
X145017428Y-153630308D01*
X145017422Y-153630307D01*
X144981750Y-153627500D01*
X144649999Y-153627500D01*
X144649999Y-154830000D01*
X145556337Y-154830000D01*
X145623376Y-154849685D01*
X145644018Y-154866319D01*
X145677699Y-154900000D01*
X147474999Y-154900000D01*
X147474999Y-154893417D01*
X147468591Y-154822897D01*
X147468590Y-154822892D01*
X147418018Y-154660603D01*
X147330072Y-154515122D01*
X147227984Y-154413034D01*
X147194499Y-154351711D01*
X147199483Y-154282019D01*
X147227983Y-154237673D01*
X147330472Y-154135185D01*
X147418478Y-153989606D01*
X147469086Y-153827196D01*
X147475500Y-153756616D01*
X147475500Y-153243384D01*
X147470174Y-153184785D01*
X147483710Y-153116243D01*
X147532156Y-153065896D01*
X147600130Y-153049734D01*
X147662556Y-153070463D01*
X147720814Y-153109390D01*
X147720827Y-153109397D01*
X147833119Y-153155909D01*
X147866503Y-153169737D01*
X147967492Y-153189825D01*
X148021153Y-153200499D01*
X148021156Y-153200500D01*
X148021158Y-153200500D01*
X148178843Y-153200500D01*
X148232508Y-153189825D01*
X148263813Y-153183598D01*
X148333403Y-153189825D01*
X148388581Y-153232687D01*
X148411826Y-153298577D01*
X148395759Y-153366574D01*
X148387272Y-153379524D01*
X148366205Y-153407665D01*
X148366202Y-153407671D01*
X148315908Y-153542517D01*
X148309501Y-153602116D01*
X148309500Y-153602135D01*
X148309500Y-155397870D01*
X148309501Y-155397876D01*
X148315908Y-155457483D01*
X148366202Y-155592328D01*
X148366206Y-155592335D01*
X148452452Y-155707544D01*
X148452455Y-155707547D01*
X148544208Y-155776234D01*
X148586079Y-155832168D01*
X148591063Y-155901859D01*
X148557577Y-155963182D01*
X148496254Y-155996666D01*
X148469897Y-155999500D01*
X147414812Y-155999500D01*
X147347773Y-155979815D01*
X147302018Y-155927011D01*
X147292074Y-155857853D01*
X147321099Y-155794297D01*
X147327131Y-155787819D01*
X147330071Y-155784878D01*
X147330072Y-155784877D01*
X147418019Y-155639395D01*
X147468590Y-155477106D01*
X147475000Y-155406572D01*
X147475000Y-155400000D01*
X145516362Y-155400000D01*
X145449323Y-155380315D01*
X145428681Y-155363681D01*
X145395000Y-155330000D01*
X143252299Y-155330000D01*
X143252299Y-155875500D01*
X143232614Y-155942539D01*
X143179810Y-155988294D01*
X143128299Y-155999500D01*
X140071701Y-155999500D01*
X140004662Y-155979815D01*
X139958907Y-155927011D01*
X139947701Y-155875500D01*
X139947701Y-155330000D01*
X138924001Y-155330000D01*
X138856962Y-155310315D01*
X138811207Y-155257511D01*
X138800001Y-155206000D01*
X138800001Y-155080000D01*
X138674001Y-155080000D01*
X138606962Y-155060315D01*
X138561207Y-155007511D01*
X138550001Y-154956000D01*
X138550001Y-153627500D01*
X138218249Y-153627500D01*
X138182577Y-153630307D01*
X138182574Y-153630308D01*
X138159093Y-153637130D01*
X138089224Y-153636929D01*
X138030554Y-153598987D01*
X138001712Y-153535348D01*
X138000500Y-153518053D01*
X138000500Y-128176677D01*
X141525000Y-128176677D01*
X141525000Y-128200000D01*
X142250000Y-128200000D01*
X142750000Y-128200000D01*
X143474999Y-128200000D01*
X143474999Y-128176692D01*
X143474998Y-128176677D01*
X143464855Y-128077392D01*
X143411547Y-127916518D01*
X143411542Y-127916507D01*
X143322575Y-127772271D01*
X143322572Y-127772267D01*
X143202732Y-127652427D01*
X143202728Y-127652424D01*
X143058492Y-127563457D01*
X143058481Y-127563452D01*
X142897606Y-127510144D01*
X142798322Y-127500000D01*
X142750000Y-127500000D01*
X142750000Y-128200000D01*
X142250000Y-128200000D01*
X142250000Y-127500000D01*
X142249999Y-127499999D01*
X142201693Y-127500000D01*
X142201675Y-127500001D01*
X142102392Y-127510144D01*
X141941518Y-127563452D01*
X141941507Y-127563457D01*
X141797271Y-127652424D01*
X141797267Y-127652427D01*
X141677427Y-127772267D01*
X141677424Y-127772271D01*
X141588457Y-127916507D01*
X141588452Y-127916518D01*
X141535144Y-128077393D01*
X141525000Y-128176677D01*
X138000500Y-128176677D01*
X138000500Y-123624500D01*
X138020185Y-123557461D01*
X138072989Y-123511706D01*
X138124500Y-123500500D01*
X138809897Y-123500500D01*
X138876936Y-123520185D01*
G37*
G04 #@! TD.AperFunction*
G04 #@! TA.AperFunction,Conductor*
G36*
X157023203Y-150272885D02*
G01*
X157029681Y-150278917D01*
X157105850Y-150355086D01*
X157105855Y-150355090D01*
X159702674Y-152951909D01*
X159736159Y-153013232D01*
X159731175Y-153082924D01*
X159689303Y-153138857D01*
X159634391Y-153162063D01*
X159503760Y-153182753D01*
X159301585Y-153248444D01*
X159112179Y-153344951D01*
X158940213Y-153469890D01*
X158789890Y-153620213D01*
X158664949Y-153792182D01*
X158660202Y-153801499D01*
X158612227Y-153852293D01*
X158544405Y-153869087D01*
X158478271Y-153846548D01*
X158439234Y-153801495D01*
X158434622Y-153792444D01*
X158309727Y-153620540D01*
X158309723Y-153620535D01*
X158159464Y-153470276D01*
X158159459Y-153470272D01*
X157987557Y-153345379D01*
X157798215Y-153248903D01*
X157596124Y-153183241D01*
X157530000Y-153172768D01*
X157530000Y-154066988D01*
X157472993Y-154034075D01*
X157345826Y-154000000D01*
X157214174Y-154000000D01*
X157087007Y-154034075D01*
X157030000Y-154066988D01*
X157030000Y-153172768D01*
X157029999Y-153172768D01*
X156963875Y-153183241D01*
X156761784Y-153248903D01*
X156572442Y-153345379D01*
X156400540Y-153470272D01*
X156400535Y-153470276D01*
X156250276Y-153620535D01*
X156250272Y-153620540D01*
X156125378Y-153792443D01*
X156120762Y-153801502D01*
X156072784Y-153852295D01*
X156004963Y-153869087D01*
X155938829Y-153846546D01*
X155899794Y-153801493D01*
X155895051Y-153792184D01*
X155895049Y-153792181D01*
X155895048Y-153792179D01*
X155770109Y-153620213D01*
X155619786Y-153469890D01*
X155447820Y-153344951D01*
X155258414Y-153248444D01*
X155258413Y-153248443D01*
X155258412Y-153248443D01*
X155056243Y-153182754D01*
X155056241Y-153182753D01*
X155056240Y-153182753D01*
X154894957Y-153157208D01*
X154846287Y-153149500D01*
X154699096Y-153149500D01*
X154632057Y-153129815D01*
X154586302Y-153077011D01*
X154576358Y-153007853D01*
X154605383Y-152944297D01*
X154611415Y-152937819D01*
X155564250Y-151984984D01*
X156576006Y-150973228D01*
X156576011Y-150973224D01*
X156586214Y-150963020D01*
X156586216Y-150963020D01*
X156698020Y-150851216D01*
X156756745Y-150749500D01*
X156777077Y-150714285D01*
X156818001Y-150561557D01*
X156818001Y-150403443D01*
X156818001Y-150395848D01*
X156818000Y-150395830D01*
X156818000Y-150366598D01*
X156837685Y-150299559D01*
X156890489Y-150253804D01*
X156959647Y-150243860D01*
X157023203Y-150272885D01*
G37*
G04 #@! TD.AperFunction*
G04 #@! TA.AperFunction,Conductor*
G36*
X149002331Y-150838795D02*
G01*
X149004785Y-150838626D01*
X149033406Y-150854349D01*
X149062612Y-150868969D01*
X149063866Y-150871084D01*
X149066022Y-150872268D01*
X149081597Y-150900968D01*
X149098264Y-150929058D01*
X149098176Y-150931515D01*
X149099349Y-150933677D01*
X149096935Y-150966245D01*
X149095770Y-150998883D01*
X149094230Y-151002751D01*
X149094186Y-151003355D01*
X149093771Y-151003906D01*
X149090503Y-151012119D01*
X149088454Y-151016513D01*
X149035144Y-151177393D01*
X149025000Y-151276677D01*
X149025000Y-151300000D01*
X151876000Y-151300000D01*
X151943039Y-151319685D01*
X151988794Y-151372489D01*
X152000000Y-151424000D01*
X152000000Y-151676000D01*
X151980315Y-151743039D01*
X151927511Y-151788794D01*
X151876000Y-151800000D01*
X150250000Y-151800000D01*
X150250000Y-152499999D01*
X150298308Y-152499999D01*
X150298322Y-152499998D01*
X150397605Y-152489856D01*
X150534047Y-152444643D01*
X150603876Y-152442241D01*
X150663918Y-152477972D01*
X150695111Y-152540493D01*
X150687551Y-152609952D01*
X150660733Y-152650030D01*
X150197582Y-153113181D01*
X150136259Y-153146666D01*
X150109901Y-153149500D01*
X148781940Y-153149500D01*
X148714901Y-153129815D01*
X148669146Y-153077011D01*
X148659202Y-153007853D01*
X148688227Y-152944297D01*
X148694246Y-152937831D01*
X148721789Y-152910289D01*
X148809394Y-152779179D01*
X148869737Y-152633497D01*
X148900500Y-152478842D01*
X148900500Y-152321158D01*
X148900500Y-152321155D01*
X148877602Y-152206044D01*
X148869737Y-152166503D01*
X148809394Y-152020821D01*
X148785448Y-151984984D01*
X148721789Y-151889711D01*
X148721786Y-151889707D01*
X148655401Y-151823322D01*
X149025001Y-151823322D01*
X149035022Y-151921420D01*
X149108979Y-152116763D01*
X149177424Y-152227728D01*
X149177427Y-152227732D01*
X149297267Y-152347572D01*
X149297271Y-152347575D01*
X149441507Y-152436542D01*
X149441518Y-152436547D01*
X149602393Y-152489855D01*
X149701683Y-152499999D01*
X149749999Y-152499998D01*
X149750000Y-152499998D01*
X149750000Y-151800000D01*
X149025001Y-151800000D01*
X149025001Y-151823322D01*
X148655401Y-151823322D01*
X148652759Y-151820680D01*
X148619274Y-151759357D01*
X148624258Y-151689665D01*
X148642068Y-151657507D01*
X148650683Y-151646279D01*
X148709878Y-151503368D01*
X148718551Y-151437500D01*
X148294256Y-151437500D01*
X148261076Y-151427757D01*
X148227448Y-151417964D01*
X148227353Y-151417854D01*
X148227217Y-151417815D01*
X148204594Y-151391707D01*
X148181576Y-151365261D01*
X148181524Y-151365083D01*
X148181462Y-151365011D01*
X148171558Y-151331419D01*
X148171420Y-151330472D01*
X148160365Y-151246501D01*
X148158498Y-151241995D01*
X148156662Y-151229419D01*
X148160581Y-151201719D01*
X148161247Y-151173748D01*
X148165410Y-151167595D01*
X148166452Y-151160238D01*
X148184727Y-151139052D01*
X148200407Y-151115884D01*
X148207236Y-151112959D01*
X148212090Y-151107333D01*
X148238917Y-151099391D01*
X148264635Y-151088377D01*
X148279015Y-151087520D01*
X148279085Y-151087500D01*
X148279131Y-151087513D01*
X148279360Y-151087500D01*
X148718549Y-151087500D01*
X148718549Y-151087499D01*
X148710888Y-151029305D01*
X148721654Y-150960270D01*
X148768034Y-150908014D01*
X148790791Y-150896828D01*
X148799998Y-150893420D01*
X148827244Y-150888001D01*
X148932854Y-150844255D01*
X148935080Y-150843432D01*
X148967648Y-150841186D01*
X149000132Y-150837694D01*
X149002331Y-150838795D01*
G37*
G04 #@! TD.AperFunction*
G04 #@! TA.AperFunction,Conductor*
G36*
X149736334Y-145715414D02*
G01*
X149792267Y-145757286D01*
X149816684Y-145822750D01*
X149817000Y-145831596D01*
X149817000Y-146484363D01*
X149832453Y-146601753D01*
X149832456Y-146601762D01*
X149868268Y-146688221D01*
X149892964Y-146747841D01*
X149989218Y-146873282D01*
X150114659Y-146969536D01*
X150260738Y-147030044D01*
X150378139Y-147045500D01*
X150743000Y-147045499D01*
X150810039Y-147065183D01*
X150855794Y-147117987D01*
X150867000Y-147169499D01*
X150867000Y-148208508D01*
X150847315Y-148275547D01*
X150794511Y-148321302D01*
X150772329Y-148328466D01*
X150772337Y-148328493D01*
X150770877Y-148328935D01*
X150767199Y-148330124D01*
X150766508Y-148330261D01*
X150766500Y-148330263D01*
X150620827Y-148390602D01*
X150620814Y-148390609D01*
X150489711Y-148478210D01*
X150489706Y-148478214D01*
X150436446Y-148531474D01*
X150375123Y-148564958D01*
X150305431Y-148559973D01*
X150301354Y-148558369D01*
X150233497Y-148530263D01*
X150233490Y-148530261D01*
X150233489Y-148530261D01*
X150233488Y-148530260D01*
X150078845Y-148499500D01*
X150078842Y-148499500D01*
X149921158Y-148499500D01*
X149921155Y-148499500D01*
X149766510Y-148530261D01*
X149766498Y-148530264D01*
X149620827Y-148590602D01*
X149620814Y-148590609D01*
X149489711Y-148678210D01*
X149489707Y-148678213D01*
X149378213Y-148789707D01*
X149378210Y-148789711D01*
X149290609Y-148920814D01*
X149290602Y-148920827D01*
X149230264Y-149066498D01*
X149230261Y-149066507D01*
X149219436Y-149120929D01*
X149187050Y-149182840D01*
X149126334Y-149217413D01*
X149073628Y-149218353D01*
X148978846Y-149199500D01*
X148978842Y-149199500D01*
X148821158Y-149199500D01*
X148821155Y-149199500D01*
X148666510Y-149230261D01*
X148666498Y-149230264D01*
X148515193Y-149292937D01*
X148514133Y-149290379D01*
X148457251Y-149302079D01*
X148392068Y-149276919D01*
X148352942Y-149225957D01*
X148309394Y-149120821D01*
X148309390Y-149120814D01*
X148221789Y-148989711D01*
X148221786Y-148989707D01*
X148110292Y-148878213D01*
X148110288Y-148878210D01*
X147979185Y-148790609D01*
X147979172Y-148790602D01*
X147833501Y-148730264D01*
X147833491Y-148730261D01*
X147700308Y-148703769D01*
X147672177Y-148689054D01*
X147643297Y-148675865D01*
X147641440Y-148672975D01*
X147638397Y-148671384D01*
X147622684Y-148643791D01*
X147605523Y-148617087D01*
X147604862Y-148612493D01*
X147603823Y-148610668D01*
X147600500Y-148582152D01*
X147600500Y-148510299D01*
X147620185Y-148443260D01*
X147672989Y-148397505D01*
X147742147Y-148387561D01*
X147788650Y-148404182D01*
X147935604Y-148493019D01*
X147935603Y-148493019D01*
X148097894Y-148543590D01*
X148097892Y-148543590D01*
X148168418Y-148549999D01*
X148750000Y-148549999D01*
X148831581Y-148549999D01*
X148902102Y-148543591D01*
X148902107Y-148543590D01*
X149064396Y-148493018D01*
X149209877Y-148405072D01*
X149330072Y-148284877D01*
X149418019Y-148139395D01*
X149468590Y-147977106D01*
X149475000Y-147906572D01*
X149475000Y-147900000D01*
X148750000Y-147900000D01*
X148750000Y-148549999D01*
X148168418Y-148549999D01*
X148249999Y-148549998D01*
X148250000Y-148549998D01*
X148250000Y-147774000D01*
X148269685Y-147706961D01*
X148322489Y-147661206D01*
X148374000Y-147650000D01*
X148500000Y-147650000D01*
X148500000Y-147524000D01*
X148519685Y-147456961D01*
X148572489Y-147411206D01*
X148624000Y-147400000D01*
X149474999Y-147400000D01*
X149474999Y-147393417D01*
X149468591Y-147322897D01*
X149468590Y-147322892D01*
X149418018Y-147160603D01*
X149330072Y-147015122D01*
X149227984Y-146913034D01*
X149194499Y-146851711D01*
X149199483Y-146782019D01*
X149227983Y-146737673D01*
X149330472Y-146635185D01*
X149418478Y-146489606D01*
X149469086Y-146327196D01*
X149475500Y-146256616D01*
X149475500Y-145925096D01*
X149484144Y-145895655D01*
X149490668Y-145865669D01*
X149494422Y-145860653D01*
X149495185Y-145858057D01*
X149511815Y-145837419D01*
X149605320Y-145743914D01*
X149666642Y-145710430D01*
X149736334Y-145715414D01*
G37*
G04 #@! TD.AperFunction*
G04 #@! TA.AperFunction,Conductor*
G36*
X145513274Y-131386674D02*
G01*
X145560884Y-131437812D01*
X145564561Y-131445863D01*
X145590061Y-131507425D01*
X145599500Y-131554878D01*
X145599500Y-131753201D01*
X145602401Y-131790067D01*
X145602402Y-131790073D01*
X145648254Y-131947893D01*
X145648255Y-131947896D01*
X145648256Y-131947898D01*
X145679517Y-132000757D01*
X145731917Y-132089362D01*
X145736702Y-132095531D01*
X145735018Y-132096836D01*
X145763246Y-132148531D01*
X145758262Y-132218223D01*
X145726234Y-132265961D01*
X145700000Y-132290202D01*
X145700000Y-132555684D01*
X145682733Y-132618804D01*
X145648254Y-132677105D01*
X145648254Y-132677106D01*
X145602402Y-132834926D01*
X145602401Y-132834932D01*
X145599500Y-132871798D01*
X145599500Y-133326000D01*
X145596949Y-133334685D01*
X145598238Y-133343647D01*
X145587259Y-133367687D01*
X145579815Y-133393039D01*
X145572974Y-133398966D01*
X145569213Y-133407203D01*
X145546978Y-133421492D01*
X145527011Y-133438794D01*
X145516496Y-133441081D01*
X145510435Y-133444977D01*
X145475500Y-133450000D01*
X145443416Y-133450000D01*
X145376377Y-133430315D01*
X145330622Y-133377511D01*
X145321799Y-133350191D01*
X145302883Y-133255093D01*
X145300500Y-133230902D01*
X145300500Y-132871813D01*
X145300499Y-132871798D01*
X145297598Y-132834932D01*
X145297597Y-132834926D01*
X145261505Y-132710699D01*
X145251744Y-132677102D01*
X145217267Y-132618804D01*
X145200000Y-132555684D01*
X145200000Y-132290202D01*
X145173765Y-132265961D01*
X145137887Y-132206007D01*
X145140118Y-132136173D01*
X145164533Y-132096488D01*
X145163298Y-132095531D01*
X145168075Y-132089370D01*
X145168081Y-132089365D01*
X145251744Y-131947898D01*
X145297598Y-131790069D01*
X145300500Y-131753194D01*
X145300500Y-131554878D01*
X145309939Y-131507425D01*
X145335439Y-131445863D01*
X145379280Y-131391460D01*
X145445574Y-131369395D01*
X145513274Y-131386674D01*
G37*
G04 #@! TD.AperFunction*
G04 #@! TA.AperFunction,Conductor*
G36*
X152950000Y-126327230D02*
G01*
X153016126Y-126316757D01*
X153016129Y-126316757D01*
X153218217Y-126251095D01*
X153407557Y-126154620D01*
X153579459Y-126029727D01*
X153579464Y-126029723D01*
X153729723Y-125879464D01*
X153729727Y-125879459D01*
X153854620Y-125707558D01*
X153859232Y-125698507D01*
X153907205Y-125647709D01*
X153975025Y-125630912D01*
X154041161Y-125653447D01*
X154080204Y-125698504D01*
X154084949Y-125707817D01*
X154209890Y-125879786D01*
X154360213Y-126030109D01*
X154532179Y-126155048D01*
X154532181Y-126155049D01*
X154532184Y-126155051D01*
X154721588Y-126251557D01*
X154923757Y-126317246D01*
X155133713Y-126350500D01*
X155133714Y-126350500D01*
X155346286Y-126350500D01*
X155346287Y-126350500D01*
X155556243Y-126317246D01*
X155758412Y-126251557D01*
X155947816Y-126155051D01*
X156034138Y-126092335D01*
X156119786Y-126030109D01*
X156119788Y-126030106D01*
X156119792Y-126030104D01*
X156270104Y-125879792D01*
X156270106Y-125879788D01*
X156270109Y-125879786D01*
X156395048Y-125707820D01*
X156395047Y-125707820D01*
X156395051Y-125707816D01*
X156399514Y-125699054D01*
X156447488Y-125648259D01*
X156515308Y-125631463D01*
X156581444Y-125653999D01*
X156620486Y-125699056D01*
X156624951Y-125707820D01*
X156749890Y-125879786D01*
X156900213Y-126030109D01*
X157072179Y-126155048D01*
X157072181Y-126155049D01*
X157072184Y-126155051D01*
X157261588Y-126251557D01*
X157463757Y-126317246D01*
X157673713Y-126350500D01*
X157673714Y-126350500D01*
X157886286Y-126350500D01*
X157886287Y-126350500D01*
X158096243Y-126317246D01*
X158298412Y-126251557D01*
X158487816Y-126155051D01*
X158574138Y-126092335D01*
X158659786Y-126030109D01*
X158659788Y-126030106D01*
X158659792Y-126030104D01*
X158810104Y-125879792D01*
X158810106Y-125879788D01*
X158810109Y-125879786D01*
X158935048Y-125707820D01*
X158935047Y-125707820D01*
X158935051Y-125707816D01*
X158939514Y-125699054D01*
X158987488Y-125648259D01*
X159055308Y-125631463D01*
X159121444Y-125653999D01*
X159160486Y-125699056D01*
X159164951Y-125707820D01*
X159289890Y-125879786D01*
X159440213Y-126030109D01*
X159612184Y-126155051D01*
X159612184Y-126155052D01*
X159651793Y-126175233D01*
X159702590Y-126223206D01*
X159719500Y-126285718D01*
X159719500Y-127079902D01*
X159699815Y-127146941D01*
X159683181Y-127167583D01*
X159469483Y-127381280D01*
X159469481Y-127381283D01*
X159444422Y-127424687D01*
X159419362Y-127468093D01*
X159415670Y-127474488D01*
X159388927Y-127520806D01*
X159355853Y-127558070D01*
X159236854Y-127647153D01*
X159150608Y-127762362D01*
X159150604Y-127762369D01*
X159100310Y-127897215D01*
X159096099Y-127936388D01*
X159093903Y-127956821D01*
X159093902Y-127956833D01*
X159093902Y-129043168D01*
X159093903Y-129043174D01*
X159100310Y-129102781D01*
X159150604Y-129237626D01*
X159150605Y-129237627D01*
X159150606Y-129237629D01*
X159236856Y-129352844D01*
X159299812Y-129399972D01*
X159341684Y-129455905D01*
X159349502Y-129499239D01*
X159349502Y-132000757D01*
X159329817Y-132067796D01*
X159299814Y-132100023D01*
X159236854Y-132147155D01*
X159150608Y-132262364D01*
X159150604Y-132262371D01*
X159100309Y-132397219D01*
X159098705Y-132404012D01*
X159064133Y-132464729D01*
X159002223Y-132497117D01*
X158978028Y-132499500D01*
X158540004Y-132499500D01*
X158536317Y-132498417D01*
X158532573Y-132499277D01*
X158503058Y-132488651D01*
X158472965Y-132479815D01*
X158469400Y-132476534D01*
X158466833Y-132475610D01*
X158457917Y-132465965D01*
X158441593Y-132450941D01*
X158437771Y-132445955D01*
X158422968Y-132421956D01*
X158407568Y-132406556D01*
X158402609Y-132400087D01*
X158392844Y-132374793D01*
X158379854Y-132351004D01*
X158380448Y-132342686D01*
X158377445Y-132334906D01*
X158382904Y-132308350D01*
X158384838Y-132281312D01*
X158390167Y-132273019D01*
X158391515Y-132266467D01*
X158399880Y-132257908D01*
X158413345Y-132236959D01*
X158422573Y-132227731D01*
X158511542Y-132083492D01*
X158511547Y-132083481D01*
X158564855Y-131922606D01*
X158574999Y-131823322D01*
X158575000Y-131823309D01*
X158575000Y-131800000D01*
X156625001Y-131800000D01*
X156625001Y-131823322D01*
X156635144Y-131922607D01*
X156688452Y-132083481D01*
X156688457Y-132083492D01*
X156777424Y-132227728D01*
X156777427Y-132227732D01*
X156786660Y-132236965D01*
X156820145Y-132298288D01*
X156815161Y-132367980D01*
X156786663Y-132412324D01*
X156777033Y-132421953D01*
X156777029Y-132421959D01*
X156688001Y-132566294D01*
X156687996Y-132566305D01*
X156634651Y-132727290D01*
X156624500Y-132826647D01*
X156624500Y-132826655D01*
X156624500Y-133043183D01*
X156624501Y-133175500D01*
X156604817Y-133242539D01*
X156552013Y-133288294D01*
X156500501Y-133299500D01*
X156230098Y-133299500D01*
X156163059Y-133279815D01*
X156117304Y-133227011D01*
X156106098Y-133175500D01*
X156106097Y-132456827D01*
X156106096Y-132456823D01*
X156106095Y-132456816D01*
X156099689Y-132397217D01*
X156091325Y-132374793D01*
X156049395Y-132262371D01*
X156049391Y-132262364D01*
X155963145Y-132147155D01*
X155900186Y-132100023D01*
X155858316Y-132044089D01*
X155850498Y-132000757D01*
X155850498Y-131276677D01*
X156625000Y-131276677D01*
X156625000Y-131300000D01*
X157350000Y-131300000D01*
X157850000Y-131300000D01*
X158574999Y-131300000D01*
X158574999Y-131276692D01*
X158574998Y-131276677D01*
X158564855Y-131177392D01*
X158511547Y-131016518D01*
X158511542Y-131016507D01*
X158422575Y-130872271D01*
X158422572Y-130872267D01*
X158420308Y-130870003D01*
X158419250Y-130868066D01*
X158418095Y-130866605D01*
X158418344Y-130866407D01*
X158386823Y-130808680D01*
X158391807Y-130738988D01*
X158420311Y-130694638D01*
X158430072Y-130684877D01*
X158518019Y-130539395D01*
X158568590Y-130377106D01*
X158575000Y-130306572D01*
X158575000Y-130300000D01*
X157850000Y-130300000D01*
X157850000Y-131300000D01*
X157350000Y-131300000D01*
X157350000Y-130300000D01*
X156625001Y-130300000D01*
X156625001Y-130306582D01*
X156631408Y-130377102D01*
X156631409Y-130377107D01*
X156681981Y-130539396D01*
X156769927Y-130684877D01*
X156779691Y-130694641D01*
X156813176Y-130755964D01*
X156808192Y-130825656D01*
X156781886Y-130866590D01*
X156781905Y-130866605D01*
X156781754Y-130866795D01*
X156779697Y-130869997D01*
X156777430Y-130872264D01*
X156777424Y-130872271D01*
X156688457Y-131016507D01*
X156688452Y-131016518D01*
X156635144Y-131177393D01*
X156625000Y-131276677D01*
X155850498Y-131276677D01*
X155850498Y-129499239D01*
X155870183Y-129432200D01*
X155900186Y-129399973D01*
X155963144Y-129352844D01*
X156049394Y-129237629D01*
X156099689Y-129102781D01*
X156099689Y-129102776D01*
X156101295Y-129095984D01*
X156135869Y-129035268D01*
X156197780Y-129002883D01*
X156221972Y-129000500D01*
X156683480Y-129000500D01*
X156712920Y-129009144D01*
X156742907Y-129015668D01*
X156747922Y-129019422D01*
X156750519Y-129020185D01*
X156771161Y-129036819D01*
X156872015Y-129137673D01*
X156905500Y-129198996D01*
X156900516Y-129268688D01*
X156872015Y-129313035D01*
X156769928Y-129415121D01*
X156769927Y-129415122D01*
X156681980Y-129560604D01*
X156631409Y-129722893D01*
X156625000Y-129793427D01*
X156625000Y-129800000D01*
X158574999Y-129800000D01*
X158574999Y-129793417D01*
X158568591Y-129722897D01*
X158568590Y-129722892D01*
X158518018Y-129560603D01*
X158430072Y-129415122D01*
X158327984Y-129313034D01*
X158294499Y-129251711D01*
X158299483Y-129182019D01*
X158327983Y-129137673D01*
X158430472Y-129035185D01*
X158518478Y-128889606D01*
X158569086Y-128727196D01*
X158575500Y-128656616D01*
X158575500Y-128143384D01*
X158569086Y-128072804D01*
X158518478Y-127910394D01*
X158430472Y-127764815D01*
X158430470Y-127764813D01*
X158430469Y-127764811D01*
X158310188Y-127644530D01*
X158164606Y-127556522D01*
X158142867Y-127549748D01*
X158002196Y-127505914D01*
X158002194Y-127505913D01*
X158002192Y-127505913D01*
X157952778Y-127501423D01*
X157931616Y-127499500D01*
X157268384Y-127499500D01*
X157249145Y-127501248D01*
X157197807Y-127505913D01*
X157035393Y-127556522D01*
X156889811Y-127644530D01*
X156889810Y-127644531D01*
X156771161Y-127763181D01*
X156709838Y-127796666D01*
X156683480Y-127799500D01*
X156139261Y-127799500D01*
X156072222Y-127779815D01*
X156039995Y-127749812D01*
X155963144Y-127647152D01*
X155915899Y-127611784D01*
X155847933Y-127560904D01*
X155847926Y-127560900D01*
X155713080Y-127510606D01*
X155713081Y-127510606D01*
X155653481Y-127504199D01*
X155653479Y-127504198D01*
X155653471Y-127504198D01*
X155653462Y-127504198D01*
X154846527Y-127504198D01*
X154846521Y-127504199D01*
X154786914Y-127510606D01*
X154652069Y-127560900D01*
X154652062Y-127560904D01*
X154536853Y-127647150D01*
X154536850Y-127647153D01*
X154450604Y-127762362D01*
X154450600Y-127762369D01*
X154400306Y-127897215D01*
X154396095Y-127936388D01*
X154393899Y-127956821D01*
X154393898Y-127956833D01*
X154393898Y-129043168D01*
X154393899Y-129043174D01*
X154400306Y-129102781D01*
X154450600Y-129237626D01*
X154450601Y-129237627D01*
X154450602Y-129237629D01*
X154536852Y-129352844D01*
X154599808Y-129399972D01*
X154641680Y-129455905D01*
X154649498Y-129499239D01*
X154649498Y-132000757D01*
X154629813Y-132067796D01*
X154599810Y-132100023D01*
X154536850Y-132147155D01*
X154450604Y-132262364D01*
X154450600Y-132262371D01*
X154400306Y-132397217D01*
X154393899Y-132456816D01*
X154393898Y-132456827D01*
X154393898Y-133145301D01*
X154374213Y-133212340D01*
X154321409Y-133258095D01*
X154252251Y-133268039D01*
X154188695Y-133239014D01*
X154182217Y-133232982D01*
X153992418Y-133043183D01*
X153958933Y-132981860D01*
X153956099Y-132955502D01*
X153956099Y-132456827D01*
X153956098Y-132456823D01*
X153956097Y-132456816D01*
X153949691Y-132397217D01*
X153941327Y-132374793D01*
X153899397Y-132262371D01*
X153899393Y-132262364D01*
X153813147Y-132147155D01*
X153750188Y-132100023D01*
X153708318Y-132044089D01*
X153700500Y-132000757D01*
X153700500Y-129499239D01*
X153720185Y-129432200D01*
X153750188Y-129399973D01*
X153813146Y-129352844D01*
X153899396Y-129237629D01*
X153949691Y-129102781D01*
X153956100Y-129043171D01*
X153956099Y-127956826D01*
X153949691Y-127897215D01*
X153936074Y-127860707D01*
X153899397Y-127762369D01*
X153899393Y-127762362D01*
X153813147Y-127647153D01*
X153813144Y-127647150D01*
X153697935Y-127560904D01*
X153697928Y-127560900D01*
X153563082Y-127510606D01*
X153563083Y-127510606D01*
X153503483Y-127504199D01*
X153503481Y-127504198D01*
X153503473Y-127504198D01*
X153503465Y-127504198D01*
X153104795Y-127504198D01*
X153037756Y-127484513D01*
X153017114Y-127467879D01*
X151957658Y-126408423D01*
X151924173Y-126347100D01*
X151929157Y-126277408D01*
X151971029Y-126221475D01*
X152036493Y-126197058D01*
X152101635Y-126210258D01*
X152181780Y-126251094D01*
X152181779Y-126251094D01*
X152383871Y-126316757D01*
X152450000Y-126327231D01*
X152450000Y-125433012D01*
X152507007Y-125465925D01*
X152634174Y-125500000D01*
X152765826Y-125500000D01*
X152892993Y-125465925D01*
X152950000Y-125433012D01*
X152950000Y-126327230D01*
G37*
G04 #@! TD.AperFunction*
G04 #@! TA.AperFunction,Conductor*
G36*
X143427533Y-131669685D02*
G01*
X143448175Y-131686319D01*
X143494955Y-131733099D01*
X143561856Y-131800000D01*
X143616902Y-131855046D01*
X143719813Y-131923809D01*
X143757654Y-131963790D01*
X143831916Y-132089361D01*
X143831923Y-132089370D01*
X143948129Y-132205576D01*
X143948140Y-132205585D01*
X143948455Y-132205771D01*
X143948650Y-132205980D01*
X143954298Y-132210361D01*
X143953591Y-132211272D01*
X143996136Y-132256843D01*
X144008637Y-132325585D01*
X143981988Y-132390173D01*
X143968685Y-132404303D01*
X143959326Y-132412800D01*
X143948135Y-132419419D01*
X143909628Y-132457925D01*
X143907405Y-132459944D01*
X143878549Y-132473940D01*
X143850404Y-132489308D01*
X143847136Y-132489176D01*
X143844540Y-132490436D01*
X143827504Y-132488388D01*
X143798191Y-132487212D01*
X143797809Y-132489137D01*
X143598543Y-132449500D01*
X143598541Y-132449500D01*
X143577960Y-132449500D01*
X143510921Y-132429815D01*
X143465166Y-132377011D01*
X143455222Y-132307853D01*
X143460253Y-132286498D01*
X143464856Y-132272606D01*
X143474999Y-132173322D01*
X143475000Y-132173309D01*
X143475000Y-132150000D01*
X142624000Y-132150000D01*
X142556961Y-132130315D01*
X142511206Y-132077511D01*
X142500000Y-132026000D01*
X142500000Y-131774000D01*
X142519685Y-131706961D01*
X142572489Y-131661206D01*
X142624000Y-131650000D01*
X143360494Y-131650000D01*
X143427533Y-131669685D01*
G37*
G04 #@! TD.AperFunction*
G04 #@! TD*
M02*
